<svg preserveAspectRatio="none" width="100%" height="100%" overflow="visible" style="display: block;" viewBox="0 0 10 9" fill="none" xmlns="http://www.w3.org/2000/svg">
<path id="Union" d="M0.609375 0.611339C0.804637 0.416077 1.12114 0.416077 1.31641 0.611339L2.68848 1.98341H2.68945L8.3877 7.68165C8.39198 7.68594 8.39794 7.68927 8.40234 7.69337C8.4012 7.69423 8.39958 7.69446 8.39844 7.69532C8.58146 7.89122 8.57844 8.19748 8.3877 8.38868C8.19243 8.58394 7.87593 8.58394 7.68066 8.38868L7.49902 8.20704C7.3545 8.26618 7.20638 8.3187 7.05371 8.36036C7.03568 8.36526 7.01681 8.36471 6.99902 8.3672V7.70704L6 6.70802V8.50099C5.99995 8.91282 5.52978 9.14815 5.2002 8.90138L2 6.50099H0.5C0.223878 6.50099 3.25992e-05 6.2771 0 6.00099V3.00099C7.4699e-05 2.72491 0.223904 2.50099 0.5 2.50099H1.79199L0.609375 1.31837C0.414131 1.12313 0.414168 0.806605 0.609375 0.611339ZM7.05371 0.641612C8.75037 1.10458 9.99887 2.65731 9.99902 4.50099C9.99894 5.44769 9.66727 6.31585 9.11719 7.00099C9.10979 6.99252 9.10377 6.98269 9.0957 6.97462L8.40625 6.28517C8.77729 5.78668 8.99894 5.17046 8.99902 4.50099C8.99887 3.19525 8.16368 2.08587 6.99902 1.67384V0.632823C7.01695 0.635345 7.03553 0.636668 7.05371 0.641612ZM6.99902 2.50099C7.60643 2.95709 7.999 3.68308 7.99902 4.50099C7.99902 4.90159 7.90379 5.27966 7.73633 5.61525L6.99902 4.87794V2.50099ZM5.2002 0.100597C5.52976 -0.146166 5.99989 0.0891943 6 0.500987V3.87892L3.49707 1.37696L5.2002 0.100597Z" fill="var(--fill-0, #282828)"/>
</svg>
