<svg preserveAspectRatio="none" width="100%" height="100%" overflow="visible" style="display: block;" viewBox="0 0 14 14" fill="none" xmlns="http://www.w3.org/2000/svg">
<g id="Union">
<path d="M7.33333 4C7.33333 4.36819 7.03486 4.66667 6.66667 4.66667C6.29848 4.66667 6 4.36819 6 4C6 3.63181 6.29848 3.33333 6.66667 3.33333C7.03486 3.33333 7.33333 3.63181 7.33333 4Z" fill="var(--fill-0, #282828)"/>
<path d="M6 6C6 5.63181 6.29848 5.33333 6.66667 5.33333C7.03486 5.33333 7.33333 5.63181 7.33333 6V9.33333C7.33333 9.70152 7.03486 10 6.66667 10C6.29848 10 6 9.70152 6 9.33333V6Z" fill="var(--fill-0, #282828)"/>
<path fill-rule="evenodd" clip-rule="evenodd" d="M13.3333 6.66667C13.3333 10.3486 10.3486 13.3333 6.66667 13.3333C2.98477 13.3333 0 10.3486 0 6.66667C0 2.98477 2.98477 0 6.66667 0C10.3486 0 13.3333 2.98477 13.3333 6.66667ZM12 6.66667C12 9.61218 9.61218 12 6.66667 12C3.72115 12 1.33333 9.61218 1.33333 6.66667C1.33333 3.72115 3.72115 1.33333 6.66667 1.33333C9.61218 1.33333 12 3.72115 12 6.66667Z" fill="var(--fill-0, #282828)"/>
</g>
</svg>
