<svg preserveAspectRatio="none" width="100%" height="100%" overflow="visible" style="display: block;" viewBox="0 0 17 16" fill="none" xmlns="http://www.w3.org/2000/svg">
<path id="Subtract" d="M10.5391 0.27226C10.7997 0.0423905 11.1577 -0.0767859 11.4795 0.0544864C12.1885 0.343791 12.8486 0.727979 13.4443 1.19121C13.7186 1.40451 13.7943 1.77444 13.7256 2.11503C13.5707 2.88283 13.684 3.70855 14.1064 4.44023C14.529 5.17207 15.188 5.6828 15.9307 5.93242C16.2604 6.04337 16.5429 6.29468 16.5898 6.63945C16.6403 7.01015 16.667 7.38868 16.667 7.77324C16.667 8.15783 16.6403 8.53628 16.5898 8.90703C16.5429 9.25182 16.2605 9.50311 15.9307 9.61406C15.1879 9.86371 14.529 10.3743 14.1064 11.1062C13.684 11.838 13.5706 12.6636 13.7256 13.4314C13.7943 13.772 13.7186 14.142 13.4443 14.3553C12.8487 14.8184 12.1885 15.2027 11.4795 15.492C11.1576 15.6233 10.7997 15.5033 10.5391 15.2732C9.9514 14.7544 9.1786 14.4402 8.33301 14.4402C7.48757 14.4403 6.71551 14.7545 6.12793 15.2732C5.86725 15.5034 5.5085 15.6234 5.18652 15.492C4.47756 15.2027 3.81732 14.8185 3.22168 14.3553C2.94743 14.142 2.87171 13.772 2.94043 13.4314C3.09544 12.6636 2.98204 11.838 2.55957 11.1062C2.13702 10.3745 1.47891 9.86368 0.736328 9.61406C0.406408 9.50315 0.123098 9.25191 0.0761719 8.90703C0.0257381 8.53631 5.86714e-06 8.1578 0 7.77324C0 7.38871 0.0257551 7.01012 0.0761719 6.63945C0.123096 6.29458 0.406428 6.04333 0.736328 5.93242C1.47886 5.68282 2.13701 5.17189 2.55957 4.44023C2.98201 3.70855 3.09539 2.88288 2.94043 2.11503C2.87169 1.7745 2.94751 1.40452 3.22168 1.19121C3.8173 0.727986 4.47759 0.343801 5.18652 0.0544864C5.50837 -0.0768352 5.86728 0.0422762 6.12793 0.27226C6.71552 0.791052 7.48755 1.10616 8.33301 1.10624C9.1786 1.10624 9.9514 0.791118 10.5391 0.27226ZM8.33301 4.44023C6.49221 4.4404 5 5.9324 5 7.77324C5.00007 9.61402 6.49225 11.1061 8.33301 11.1062C10.1739 11.1062 11.6669 9.61413 11.667 7.77324C11.667 5.93229 10.174 4.44023 8.33301 4.44023Z" fill="var(--fill-0, #282828)"/>
</svg>
