<svg preserveAspectRatio="none" width="100%" height="100%" overflow="visible" style="display: block;" viewBox="0 0 11 14" fill="none" xmlns="http://www.w3.org/2000/svg">
<g id="Union">
<path fill-rule="evenodd" clip-rule="evenodd" d="M5.99974 0.685575C5.99991 0.679294 6 0.67299 6 0.666667C6 0.298477 5.70152 0 5.33333 0C4.96514 0 4.66667 0.298477 4.66667 0.666667C4.66667 0.67299 4.66675 0.679293 4.66693 0.685574C2.74675 0.872244 1.2081 2.41992 1.06798 4.38168L0.666667 10C0.298477 10 0 10.2985 0 10.6667C0 11.0349 0.298477 11.3333 0.666667 11.3333H10C10.3682 11.3333 10.6667 11.0349 10.6667 10.6667C10.6667 10.2985 10.3682 10 10 10L9.59869 4.38168C9.45857 2.41992 7.91992 0.872244 5.99974 0.685575ZM8.66327 10L8.26875 4.47667C8.16907 3.08119 7.00789 2 5.60886 2H5.05781C3.65877 2 2.4976 3.08119 2.39792 4.47667L2.0034 10H8.66327Z" fill="var(--fill-0, #282828)"/>
<path d="M6.66667 12C6.66667 12.7364 6.06971 13.3333 5.33333 13.3333C4.59695 13.3333 4 12.7364 4 12H6.66667Z" fill="var(--fill-0, #282828)"/>
</g>
</svg>
