<svg preserveAspectRatio="none" width="100%" height="100%" overflow="visible" style="display: block;" viewBox="0 0 10 9" fill="none" xmlns="http://www.w3.org/2000/svg">
<path id="Union" d="M5.2002 0.100626C5.52978 -0.146184 5.99994 0.0891738 6 0.501017V8.50102C5.99995 8.91285 5.52978 9.14818 5.2002 8.90141L2 6.50102H0.5C0.223878 6.50102 3.25992e-05 6.27713 0 6.00102V3.00102C4.18495e-05 2.72491 0.223883 2.50102 0.5 2.50102H2L5.2002 0.100626ZM7.05371 0.641642C8.75038 1.1046 9.99886 2.65734 9.99902 4.50102C9.99885 6.34462 8.75028 7.89737 7.05371 8.36039C7.03568 8.36529 7.01681 8.36474 6.99902 8.36723V7.32719C8.16353 6.91508 8.99886 5.80664 8.99902 4.50102C8.99887 3.19528 8.16369 2.08589 6.99902 1.67387V0.632853C7.01696 0.635376 7.03552 0.636693 7.05371 0.641642ZM6.99902 2.50102C7.60645 2.95713 7.99902 3.68308 7.99902 4.50102C7.999 5.31892 7.60643 6.04491 6.99902 6.50102V2.50102Z" fill="var(--fill-0, #282828)"/>
</svg>
