<svg preserveAspectRatio="none" width="100%" height="100%" overflow="visible" style="display: block;" viewBox="0 0 14 12" fill="none" xmlns="http://www.w3.org/2000/svg">
<path id="Union" d="M9.33301 10.667C9.70109 10.667 9.99982 10.965 10 11.333C10 11.7012 9.7012 12 9.33301 12H4C3.63181 12 3.33301 11.7012 3.33301 11.333C3.33318 10.965 3.63192 10.667 4 10.667H6V9.33301H1.33301C0.596777 9.33283 0 8.73627 0 8V1.33301C0.000175273 0.596886 0.596886 0.000175861 1.33301 0H12C12.7363 0 13.3328 0.596778 13.333 1.33301V8C13.333 8.73638 12.7364 9.33301 12 9.33301H7.33301V10.667H9.33301Z" fill="var(--fill-0, #282828)"/>
</svg>
