<svg preserveAspectRatio="none" width="100%" height="100%" overflow="visible" style="display: block;" viewBox="0 0 10 8" fill="none" xmlns="http://www.w3.org/2000/svg">
<path id="Union" d="M1.56055 0.311523C1.75581 0.116263 2.07232 0.116268 2.26758 0.311523L4.8418 2.88574C4.89339 2.87753 4.9461 2.87207 5 2.87207C5.55228 2.87207 6 3.31979 6 3.87207C6 3.92569 5.99348 3.97796 5.98535 4.0293L8.63184 6.67578C8.82681 6.87107 8.827 7.18765 8.63184 7.38281C8.43666 7.57785 8.12005 7.57774 7.9248 7.38281L7.58887 7.04688C6.82779 7.48953 5.94391 7.74414 5 7.74414C2.59446 7.74414 0.573136 6.09874 0 3.87207C0.276234 2.79882 0.8897 1.86165 1.71973 1.17773L1.56055 1.01855C1.36533 0.823335 1.36542 0.506794 1.56055 0.311523ZM3.32324 2.78125C3.11874 3.09496 3 3.46967 3 3.87207C3.00003 4.97661 3.89545 5.87207 5 5.87207C5.40232 5.87207 5.7755 5.75146 6.08887 5.54688L5.34961 4.80762C5.24064 4.84835 5.12318 4.87207 5 4.87207C4.44774 4.87207 4.00004 4.42433 4 3.87207C4 3.7487 4.02262 3.63059 4.06348 3.52148L3.32324 2.78125ZM5 0C7.40556 6.25698e-08 9.42689 1.64536 10 3.87207C9.82439 4.55433 9.51165 5.18113 9.09473 5.72363L6.97949 3.60938C6.86194 2.71491 6.15633 2.00868 5.26172 1.8916L3.57129 0.201172C4.02508 0.0707294 4.50426 0 5 0Z" fill="var(--fill-0, #282828)"/>
</svg>
