<svg preserveAspectRatio="none" width="100%" height="100%" overflow="visible" style="display: block;" viewBox="0 0 2 10" fill="none" xmlns="http://www.w3.org/2000/svg">
<path id="Union" d="M1 8C1.55228 8 2 8.44772 2 9C2 9.55228 1.55228 10 1 10C0.447715 10 3.2213e-08 9.55228 0 9C0 8.44772 0.447715 8 1 8ZM1 4C1.55228 4 2 4.44772 2 5C2 5.55228 1.55228 6 1 6C0.447715 6 0 5.55228 0 5C4.83191e-07 4.44772 0.447716 4 1 4ZM1 0C1.55228 3.22128e-08 2 0.447715 2 1C2 1.55228 1.55228 2 1 2C0.447715 2 3.2213e-08 1.55228 0 1C0 0.447715 0.447715 0 1 0Z" fill="var(--fill-0, #282828)"/>
</svg>
