<svg preserveAspectRatio="none" width="100%" height="100%" overflow="visible" style="display: block;" viewBox="0 0 11 14" fill="none" xmlns="http://www.w3.org/2000/svg">
<g id="Union">
<path d="M10.6667 0.666667C10.6667 0.298462 10.3682 0 10 0H2C1.63184 0 1.33333 0.298462 1.33333 0.666667V2C1.33333 2.3682 1.63184 2.66667 2 2.66667C2.36816 2.66667 2.66667 2.3682 2.66667 2V1.33333H9.33333V12H2.66667V11.3333C2.66667 10.9651 2.36816 10.6667 2 10.6667C1.63184 10.6667 1.33333 10.9651 1.33333 11.3333V12.6667C1.33333 13.0349 1.63184 13.3333 2 13.3333H10C10.3682 13.3333 10.6667 13.0349 10.6667 12.6667V0.666667Z" fill="var(--fill-0, #282828)"/>
<path d="M4.03353 3.36682C4.29386 3.10649 4.71598 3.10645 4.97632 3.36682L7.80477 6.19523C7.83577 6.22628 7.86312 6.2596 7.88672 6.29468C7.90283 6.31856 7.91724 6.34326 7.92985 6.36857C7.93905 6.38696 7.94735 6.40568 7.95475 6.42468C7.98397 6.49967 8 6.5813 8 6.66667C8 6.72461 7.99259 6.78084 7.97868 6.83443C7.96989 6.86845 7.9585 6.90141 7.94466 6.93306C7.91772 6.99487 7.88102 7.05343 7.83439 7.1064L7.82381 7.1182L7.81079 7.13196L7.80143 7.1414L4.97632 9.96647C4.71598 10.2268 4.29386 10.2268 4.03353 9.96647C3.77311 9.70609 3.77319 9.28398 4.03353 9.02368L5.7238 7.33333H0.666667C0.298503 7.33333 0 7.03487 0 6.66667C0 6.29846 0.298503 6 0.666667 6H5.72388L4.03353 4.30961C3.77311 4.04928 3.77319 3.62716 4.03353 3.36682Z" fill="var(--fill-0, #282828)"/>
</g>
</svg>
