<svg preserveAspectRatio="none" width="100%" height="100%" overflow="visible" style="display: block;" viewBox="0 0 14 14" fill="none" xmlns="http://www.w3.org/2000/svg">
<path id="Subtract" d="M6.66699 0C10.3487 0.000175492 13.333 2.9852 13.333 6.66699C13.3328 10.3486 10.3486 13.3328 6.66699 13.333C2.9852 13.333 0.000176416 10.3487 0 6.66699C0 2.98509 2.98509 0 6.66699 0ZM6.63379 3.36719C6.37346 3.10686 5.95079 3.10683 5.69043 3.36719L2.8623 6.19531C2.80844 6.24921 2.76691 6.3111 2.73535 6.37598C2.72978 6.38736 2.72268 6.3984 2.71777 6.41016C2.64976 6.57368 2.64989 6.75929 2.71777 6.92285C2.7227 6.93457 2.72982 6.94564 2.73535 6.95703C2.76695 7.02213 2.80826 7.08463 2.8623 7.13867L5.69043 9.9668C5.95073 10.2268 6.37349 10.2269 6.63379 9.9668C6.8938 9.70662 6.89347 9.28474 6.63379 9.02441L4.94336 7.33398H10C10.368 7.33394 10.6668 7.03498 10.667 6.66699C10.667 6.29883 10.3682 6.00004 10 6H4.94336L6.63379 4.30957C6.89368 4.04932 6.8936 3.62744 6.63379 3.36719Z" fill="var(--fill-0, #282828)"/>
</svg>
