<svg preserveAspectRatio="none" width="100%" height="100%" overflow="visible" style="display: block;" viewBox="0 0 16 20" fill="none" xmlns="http://www.w3.org/2000/svg">
<path id="Union" d="M9 0C9.55228 0 10 0.447715 10 1C10 1.55228 9.55228 2 9 2H15C15.5523 2 16 2.44772 16 3C16 3.55228 15.5523 4 15 4H14.8887L14.1045 18.1113C14.0454 19.1708 13.1696 19.9998 12.1084 20H3.8916C2.83044 19.9998 1.95458 19.1708 1.89551 18.1113L1.11133 4H1C0.447715 4 0 3.55228 0 3C0 2.44772 0.447715 2 1 2H7C6.44772 2 6 1.55228 6 1C6 0.447715 6.44772 0 7 0H9ZM3.8916 18H12.1084L12.8857 4H3.11426L3.8916 18ZM6 7C6.55228 7 7 7.44772 7 8V14C7 14.5523 6.55228 15 6 15C5.44772 15 5 14.5523 5 14V8C5 7.44772 5.44772 7 6 7ZM10 7C10.5523 7 11 7.44772 11 8V14C11 14.5523 10.5523 15 10 15C9.44772 15 9 14.5523 9 14V8C9 7.44772 9.44772 7 10 7Z" fill="var(--fill-0, #282828)"/>
</svg>
