<svg preserveAspectRatio="none" width="100%" height="100%" overflow="visible" style="display: block;" viewBox="0 0 10 10" fill="none" xmlns="http://www.w3.org/2000/svg">
<path id="Subtract" d="M6.32324 0.164256C6.47959 0.0262165 6.69457 -0.0462571 6.8877 0.0324204C7.31305 0.205983 7.70903 0.437144 8.06641 0.715038C8.23087 0.842936 8.27646 1.06451 8.23535 1.26875C8.14235 1.72946 8.2104 2.22521 8.46387 2.66426C8.7174 3.10342 9.11296 3.40998 9.55859 3.55976C9.75633 3.62635 9.92589 3.77688 9.9541 3.98359C9.98437 4.20607 10 4.43346 10 4.66426C10 4.89503 9.98437 5.12246 9.9541 5.34492C9.92583 5.55157 9.7563 5.70219 9.55859 5.76875C9.11296 5.91854 8.7174 6.22511 8.46387 6.66426C8.21053 7.10315 8.14249 7.59823 8.23535 8.05879C8.2766 8.26314 8.23098 8.48549 8.06641 8.61348C7.70906 8.89133 7.31301 9.12157 6.8877 9.29512C6.69451 9.37394 6.47965 9.30235 6.32324 9.16426C5.97065 8.85296 5.50734 8.66426 5 8.66426C4.49266 8.66426 4.02935 8.85296 3.67676 9.16426C3.52035 9.30235 3.30549 9.37394 3.1123 9.29512C2.68685 9.12151 2.29006 8.89146 1.93262 8.61348C1.76825 8.48547 1.72342 8.26304 1.76465 8.05879C1.85752 7.59823 1.78946 7.10315 1.53613 6.66426C1.2826 6.22512 0.887016 5.91854 0.441406 5.76875C0.243698 5.70218 0.0741693 5.55157 0.0458984 5.34492C0.0156301 5.12246 3.5112e-06 4.89503 0 4.66426C0 4.43346 0.0156267 4.20608 0.0458984 3.98359C0.0741045 3.77688 0.24367 3.62635 0.441406 3.55976C0.887016 3.40997 1.2826 3.10339 1.53613 2.66426C1.78959 2.22523 1.85765 1.72947 1.76465 1.26875C1.72356 1.06464 1.76842 0.842976 1.93262 0.715038C2.29008 0.437038 2.68683 0.206024 3.1123 0.0324204C3.30543 -0.0462544 3.52041 0.0262164 3.67676 0.164256C4.02934 0.475513 4.4927 0.664256 5 0.664256C5.5073 0.664256 5.97066 0.475513 6.32324 0.164256ZM5 2.66426C3.89543 2.66426 3 3.55969 3 4.66426C3.00004 5.76879 3.89546 6.66426 5 6.66426C6.10454 6.66426 6.99996 5.76879 7 4.66426C7 3.55969 6.10457 2.66426 5 2.66426Z" fill="var(--fill-0, #282828)"/>
</svg>
