<svg preserveAspectRatio="none" width="100%" height="100%" overflow="visible" style="display: block;" viewBox="0 0 17 15" fill="none" xmlns="http://www.w3.org/2000/svg">
<path id="Union" d="M11.667 13.333C12.1271 13.3332 12.5 13.7069 12.5 14.167C12.4998 14.627 12.127 14.9998 11.667 15H5C4.53987 15 4.16717 14.6271 4.16699 14.167C4.16699 13.7068 4.53976 13.333 5 13.333H7.5V11.667H1.66699C0.746518 11.667 0 10.9205 0 10V1.66699C0 0.746518 0.746518 0 1.66699 0H15C15.9205 0 16.667 0.746518 16.667 1.66699V10C16.667 10.9205 15.9205 11.667 15 11.667H9.16699V13.333H11.667Z" fill="var(--fill-0, #282828)"/>
</svg>
