<svg preserveAspectRatio="none" width="100%" height="100%" overflow="visible" style="display: block;" viewBox="0 0 12 14" fill="none" xmlns="http://www.w3.org/2000/svg">
<path id="Subtract" d="M5.91309 0C7.52583 0 8.87181 1.14535 9.18066 2.66699H9.99414C10.6982 2.66699 11.2813 3.21428 11.3252 3.91699L11.8252 11.917C11.8731 12.6845 11.2632 13.333 10.4941 13.333H1.33301C0.564015 13.333 -0.0459088 12.6845 0.00195313 11.917L0.501953 3.91699C0.545871 3.21431 1.12896 2.66704 1.83301 2.66699H2.64746C2.95616 1.1456 4.30068 0.000349286 5.91309 0ZM3.24707 4.66699C2.87907 4.66721 2.58008 4.96593 2.58008 5.33398C2.58043 5.70174 2.87928 5.99978 3.24707 6C3.61489 5.99982 3.91273 5.70177 3.91309 5.33398C3.91309 4.9659 3.61511 4.66717 3.24707 4.66699ZM8.58008 4.66699C8.21208 4.66721 7.91309 4.96593 7.91309 5.33398C7.91344 5.70174 8.21229 5.99978 8.58008 6C8.94805 6 9.24672 5.70187 9.24707 5.33398C9.24707 4.96579 8.94827 4.66699 8.58008 4.66699ZM5.91309 1.33301C5.0427 1.33332 4.30395 1.89048 4.0293 2.66699H7.79688C7.52216 1.89041 6.78369 1.33301 5.91309 1.33301Z" fill="var(--fill-0, #282828)"/>
</svg>
