<svg preserveAspectRatio="none" width="100%" height="100%" overflow="visible" style="display: block;" viewBox="0 0 9 9" fill="none" xmlns="http://www.w3.org/2000/svg">
<g id="Union">
<path d="M0 0.5C0 0.223858 0.223858 0 0.5 0H2.5C2.77614 0 3 0.223858 3 0.5C3 0.776142 2.77614 1 2.5 1H1V8H8V6.5C8 6.22386 8.22386 6 8.5 6C8.77614 6 9 6.22386 9 6.5V8.5C9 8.77614 8.77614 9 8.5 9H0.5C0.482741 9 0.465687 8.99913 0.448878 8.99742C0.19675 8.97181 0 8.75888 0 8.5V0.5Z" fill="var(--fill-0, #282828)"/>
<path d="M5.50015 0C5.224 0 5.00015 0.223858 5.00015 0.5C5.00015 0.776142 5.224 1 5.50015 1L7.29341 1L2.96481 5.3286C2.76954 5.52386 2.76954 5.84045 2.96481 6.03571C3.16007 6.23097 3.47665 6.23097 3.67191 6.03571L8.00014 1.70748V3.5C8.00014 3.77614 8.224 4 8.50014 4C8.77629 4 9.00014 3.77614 9.00014 3.5V0.5C9.00014 0.223858 8.77629 0 8.50014 0H5.50015Z" fill="var(--fill-0, #282828)"/>
</g>
</svg>
