<svg preserveAspectRatio="none" width="100%" height="100%" overflow="visible" style="display: block;" viewBox="0 0 10 10" fill="none" xmlns="http://www.w3.org/2000/svg">
<path id="Union" d="M5 0C7.76142 0 10 2.23858 10 5C10 7.76142 7.76142 10 5 10C2.23858 10 0 7.76142 0 5C0 2.23858 2.23858 0 5 0ZM5 1C2.79086 1 1 2.79086 1 5C1 7.20914 2.79086 9 5 9C7.20914 9 9 7.20914 9 5C9 2.79086 7.20914 1 5 1ZM6.94434 3.23242C7.13957 3.03719 7.4561 3.03722 7.65137 3.23242C7.84663 3.42768 7.84662 3.7442 7.65137 3.93945L4.82324 6.76758C4.62799 6.96283 4.31147 6.96284 4.11621 6.76758L2.34863 5C2.15337 4.80474 2.15338 4.48822 2.34863 4.29297C2.54389 4.09784 2.86044 4.09775 3.05566 4.29297L4.46973 5.70703L6.94434 3.23242Z" fill="var(--fill-0, #282828)"/>
</svg>
