<svg preserveAspectRatio="none" width="100%" height="100%" overflow="visible" style="display: block;" viewBox="0 0 20 18" fill="none" xmlns="http://www.w3.org/2000/svg">
<path id="Union" d="M10.4004 0.201172C11.0596 -0.29277 12 0.178077 12 1.00195V17.002C11.9996 17.8255 11.0595 18.2956 10.4004 17.8018L4 13.002H1C0.447873 13.002 0.000255024 12.554 0 12.002V6.00195C3.96685e-06 5.44967 0.447718 5.00195 1 5.00195H4L10.4004 0.201172ZM14.1104 1.28223C17.5038 2.2081 19.9998 5.31346 20 9.00098C20 12.6887 17.5039 15.7938 14.1104 16.7197C14.0734 16.7298 14.0364 16.7371 14 16.7422V14.6582C16.3302 13.8344 18 11.6132 18 9.00098C17.9998 6.38876 16.3303 4.16636 14 3.34277V1.25977C14.0364 1.26487 14.0734 1.27215 14.1104 1.28223ZM14 5.00098C15.2148 5.91321 16 7.36609 16 9.00195C15.9999 10.6376 15.2147 12.0898 14 13.002V5.00098Z" fill="var(--fill-0, #282828)"/>
</svg>
