<svg preserveAspectRatio="none" width="100%" height="100%" overflow="visible" style="display: block;" viewBox="0 0 14 12" fill="none" xmlns="http://www.w3.org/2000/svg">
<path id="Union" d="M0.813477 0.814453C1.07382 0.554104 1.49649 0.554104 1.75684 0.814453L11.1846 10.2422C11.1911 10.2487 11.1993 10.2536 11.2061 10.2598C11.2045 10.2609 11.2027 10.2616 11.2012 10.2627C11.4431 10.5242 11.4387 10.9314 11.1846 11.1855C10.9242 11.4457 10.5015 11.4458 10.2412 11.1855L9.99902 10.9434C9.80625 11.0217 9.60862 11.091 9.40527 11.1465C9.38074 11.1532 9.35622 11.1577 9.33203 11.1611V10.2754L8 8.94336V11.334C8 11.8833 7.37308 12.1968 6.93359 11.8672L2.66699 8.66797H0.666992C0.298819 8.66797 1.77438e-05 8.36915 0 8.00098V4.00098C0 3.63279 0.298808 3.33398 0.666992 3.33398H2.39062L0.813477 1.75684C0.553432 1.49656 0.553464 1.07475 0.813477 0.814453ZM9.40527 0.855469C11.6677 1.47273 13.332 3.5425 13.332 6.00098C13.332 7.26401 12.8912 8.4233 12.1572 9.33691C12.1469 9.32496 12.1383 9.31117 12.127 9.2998L11.209 8.38184C11.7042 7.71696 11.999 6.89419 11.999 6.00098C11.999 4.25972 10.8851 2.78078 9.33203 2.23145V0.839844C9.35626 0.843242 9.38069 0.84877 9.40527 0.855469ZM9.33301 3.33398C10.1427 3.94215 10.666 4.91051 10.666 6.00098C10.666 6.53564 10.5391 7.04039 10.3154 7.48828L9.33301 6.50488V3.33398ZM6.93359 0.133789C7.37305 -0.195255 8 0.1188 8 0.667969V5.17187L4.66309 1.83594L6.93359 0.133789Z" fill="var(--fill-0, #282828)"/>
</svg>
