<svg preserveAspectRatio="none" width="100%" height="100%" overflow="visible" style="display: block;" viewBox="0 0 20 20" fill="none" xmlns="http://www.w3.org/2000/svg">
<path id="Union" d="M10 0C15.5228 0 20 4.47715 20 10C20 15.5228 15.5228 20 10 20C4.47715 20 0 15.5228 0 10C0 4.47715 4.47715 0 10 0ZM10 2C5.58172 2 2 5.58172 2 10C2 14.4183 5.58172 18 10 18C14.4183 18 18 14.4183 18 10C18 5.58172 14.4183 2 10 2ZM13.8887 6.46484C14.2792 6.07435 14.9132 6.07433 15.3037 6.46484C15.6938 6.85535 15.694 7.48852 15.3037 7.87891L9.64648 13.5352C9.25599 13.9257 8.62294 13.9257 8.23242 13.5352L4.69629 10C4.30608 9.60955 4.30612 8.97638 4.69629 8.58594C5.08679 8.19544 5.72081 8.19542 6.11133 8.58594L8.93945 11.4141L13.8887 6.46484Z" fill="var(--fill-0, #282828)"/>
</svg>
