<svg preserveAspectRatio="none" width="100%" height="100%" overflow="visible" style="display: block;" viewBox="0 0 4 17" fill="none" xmlns="http://www.w3.org/2000/svg">
<path id="Union" d="M1.66699 13.333C2.58732 13.3332 3.33301 14.0796 3.33301 15C3.33301 15.9204 2.58732 16.6668 1.66699 16.667C0.746518 16.667 7.08686e-07 15.9205 0 15C0 14.0795 0.746518 13.333 1.66699 13.333ZM1.66699 6.66699C2.58721 6.66717 3.33283 7.41279 3.33301 8.33301C3.33301 9.25337 2.58732 9.99982 1.66699 10C0.746518 10 0 9.25348 0 8.33301C0.000175535 7.41268 0.746626 6.66699 1.66699 6.66699ZM1.66699 0C2.58732 0.000175921 3.33301 0.746626 3.33301 1.66699C3.33283 2.58721 2.58721 3.33283 1.66699 3.33301C0.746626 3.33301 0.000175921 2.58732 0 1.66699C0 0.746518 0.746518 0 1.66699 0Z" fill="var(--fill-0, #282828)"/>
</svg>
