<svg preserveAspectRatio="none" width="100%" height="100%" overflow="visible" style="display: block;" viewBox="0 0 7 10" fill="none" xmlns="http://www.w3.org/2000/svg">
<path id="Union" d="M6.5 3C6.77614 3 7 3.22386 7 3.5V4.5L6.99512 4.67969C6.91006 6.36149 5.63812 7.72951 4 7.96387V9H5C5.27614 9 5.5 9.22386 5.5 9.5C5.5 9.77614 5.27614 10 5 10H2C1.72386 10 1.5 9.77614 1.5 9.5C1.5 9.22386 1.72386 9 2 9H3V7.96387C1.36188 7.72951 0.0899409 6.36149 0.00488281 4.67969L0 4.5V3.5C0 3.22386 0.223858 3 0.5 3C0.776142 3 1 3.22386 1 3.5V4.5L1.0127 4.75586C1.14082 6.01639 2.20566 7 3.5 7C4.79434 7 5.85918 6.01639 5.9873 4.75586L6 4.5V3.5C6 3.22386 6.22386 3 6.5 3ZM3.5 0C4.32843 0 5 0.671573 5 1.5V4.5C5 5.32843 4.32843 6 3.5 6C2.67157 6 2 5.32843 2 4.5V1.5C2 0.671573 2.67157 1.28851e-07 3.5 0Z" fill="var(--fill-0, #282828)"/>
</svg>
