<svg preserveAspectRatio="none" width="100%" height="100%" overflow="visible" style="display: block;" viewBox="0 0 20 19" fill="none" xmlns="http://www.w3.org/2000/svg">
<path id="Union" d="M12.6465 0.327004C12.9592 0.0509992 13.3892 -0.0922416 13.7754 0.0652852C14.6263 0.412492 15.4189 0.873545 16.1338 1.42954C16.4629 1.68551 16.5532 2.12927 16.4707 2.53794C16.2848 3.45935 16.4218 4.44995 16.9287 5.32798C17.4358 6.20603 18.2252 6.81944 19.1162 7.119C19.512 7.25204 19.8518 7.55294 19.9082 7.96665C19.9688 8.41166 20 8.86635 20 9.32798C20 9.78939 19.9687 10.2435 19.9082 10.6883C19.8519 11.1022 19.5121 11.4039 19.1162 11.537C18.2251 11.8366 17.4357 12.4498 16.9287 13.328C16.4217 14.2061 16.2847 15.1965 16.4707 16.118C16.5531 16.5267 16.4629 16.9705 16.1338 17.2264C15.4189 17.7824 14.6263 18.2435 13.7754 18.5907C13.3891 18.7482 12.9592 18.6041 12.6465 18.328C11.9413 17.7054 11.0147 17.328 10 17.328C8.98533 17.328 8.05871 17.7054 7.35352 18.328C7.04076 18.6041 6.61092 18.7482 6.22461 18.5907C5.37371 18.2435 4.5811 17.7824 3.86621 17.2264C3.53712 16.9705 3.44685 16.5267 3.5293 16.118C3.71529 15.1967 3.57907 14.206 3.07227 13.328C2.56524 12.4498 1.77496 11.8366 0.883789 11.537C0.487886 11.4039 0.148107 11.1022 0.0917969 10.6883C0.0312866 10.2435 6.45651e-06 9.78938 0 9.32798C0 8.86636 0.0312469 8.41166 0.0917969 7.96665C0.148197 7.55294 0.487981 7.25203 0.883789 7.119C1.77501 6.81941 2.56522 6.20623 3.07227 5.32798C3.57918 4.44997 3.71524 3.45934 3.5293 2.53794C3.44681 2.12928 3.53716 1.68552 3.86621 1.42954C4.58111 0.873585 5.37368 0.412486 6.22461 0.0652852C6.61083 -0.0922412 7.04076 0.0509993 7.35352 0.327004C8.05871 0.949634 8.98529 1.32798 10 1.32798C11.0147 1.32798 11.9413 0.949634 12.6465 0.327004ZM13.5576 2.16001C12.5626 2.89323 11.3301 3.32798 10 3.32798C8.66989 3.32798 7.43738 2.89323 6.44238 2.16001C6.14097 2.30997 5.84998 2.47824 5.57129 2.66392C5.70847 3.89182 5.46853 5.1765 4.80371 6.32798C4.13905 7.47912 3.14728 8.32889 2.01562 8.82407C2.00533 8.99045 2 9.15856 2 9.32798C2 9.49742 2.00532 9.66546 2.01562 9.83189C3.14732 10.3271 4.13906 11.1768 4.80371 12.328C5.46841 13.4794 5.70842 14.7632 5.57129 15.9911C5.8501 16.1768 6.14083 16.3459 6.44238 16.4959C7.43738 15.7627 8.6699 15.328 10 15.328C11.3301 15.328 12.5626 15.7627 13.5576 16.4959C13.8592 16.3459 14.1499 16.1769 14.4287 15.9911C14.2916 14.7633 14.5316 13.4794 15.1963 12.328C15.8609 11.1768 16.8527 10.3271 17.9844 9.83189C17.9947 9.66545 18 9.49743 18 9.32798C18 9.15856 17.9947 8.99045 17.9844 8.82407C16.8528 8.32889 15.8609 7.47911 15.1963 6.32798C14.5315 5.17654 14.2915 3.89185 14.4287 2.66392C14.15 2.47824 13.859 2.30998 13.5576 2.16001ZM10 5.32798C12.2091 5.32798 14 7.11884 14 9.32798C13.9999 11.537 12.2091 13.328 10 13.328C7.79094 13.328 6.00012 11.537 6 9.32798C6 7.11884 7.79086 5.32798 10 5.32798ZM10 7.32798C8.89543 7.32798 8 8.22341 8 9.32798C8.00012 10.4324 8.89551 11.328 10 11.328C11.1045 11.328 11.9999 10.4324 12 9.32798C12 8.22341 11.1046 7.32798 10 7.32798Z" fill="var(--fill-0, #282828)"/>
</svg>
