<svg preserveAspectRatio="none" width="100%" height="100%" overflow="visible" style="display: block;" viewBox="0 0 14 14" fill="none" xmlns="http://www.w3.org/2000/svg">
<path id="Union" d="M6.66699 0C10.3487 0.000176133 13.333 2.9852 13.333 6.66699C13.3328 10.3486 10.3486 13.3328 6.66699 13.333C2.9852 13.333 0.000176136 10.3487 0 6.66699C0 2.98509 2.98509 0 6.66699 0ZM6.66699 1.33301C3.72147 1.33301 1.33301 3.72147 1.33301 6.66699C1.33318 9.61236 3.72158 12 6.66699 12C9.61225 11.9998 11.9998 9.61225 12 6.66699C12 3.72158 9.61236 1.33318 6.66699 1.33301ZM5.69043 3.36719C5.95079 3.10683 6.37346 3.10686 6.63379 3.36719C6.8936 3.62744 6.89368 4.04932 6.63379 4.30957L4.94336 6H10C10.3682 6.00005 10.667 6.29883 10.667 6.66699C10.6668 7.03498 10.368 7.33394 10 7.33398H4.94336L6.63379 9.02441C6.89347 9.28474 6.8938 9.70662 6.63379 9.9668C6.37349 10.2269 5.95073 10.2268 5.69043 9.9668L2.8623 7.13867C2.80826 7.08463 2.76695 7.02213 2.73535 6.95703C2.72982 6.94564 2.7227 6.93457 2.71777 6.92285C2.64989 6.75929 2.64976 6.57368 2.71777 6.41016C2.72268 6.3984 2.72978 6.38736 2.73535 6.37598C2.76691 6.31109 2.80844 6.24921 2.8623 6.19531L5.69043 3.36719Z" fill="var(--fill-0, #282828)"/>
</svg>
