<svg preserveAspectRatio="none" width="100%" height="100%" overflow="visible" style="display: block;" viewBox="0 0 10 10" fill="none" xmlns="http://www.w3.org/2000/svg">
<g id="Union">
<path d="M4.5 0.5C4.5 0.223877 4.72388 0 5 0C5.27612 0 5.5 0.223877 5.5 0.5V1C5.5 1.27612 5.27612 1.5 5 1.5C4.72388 1.5 4.5 1.27612 4.5 1V0.5Z" fill="var(--fill-0, #282828)"/>
<path d="M7.5 5C7.5 6.38074 6.38074 7.5 5 7.5C3.61926 7.5 2.5 6.38074 2.5 5C2.5 3.61926 3.61926 2.5 5 2.5C6.38074 2.5 7.5 3.61926 7.5 5Z" fill="var(--fill-0, #282828)"/>
<path d="M5 8.5C4.72388 8.5 4.5 8.72388 4.5 9V9.5C4.5 9.77612 4.72388 10 5 10C5.27612 10 5.5 9.77612 5.5 9.5V9C5.5 8.72388 5.27612 8.5 5 8.5Z" fill="var(--fill-0, #282828)"/>
<path d="M1.46448 2.17157C1.26917 1.97626 1.26917 1.65973 1.46448 1.46442C1.65973 1.26917 1.97632 1.26917 2.17157 1.46442L2.52509 1.81799C2.7204 2.01324 2.7204 2.32983 2.52509 2.52509C2.32983 2.72034 2.01324 2.72034 1.81799 2.52509L1.46448 2.17157Z" fill="var(--fill-0, #282828)"/>
<path d="M7.47485 7.47485C7.2796 7.6701 7.2796 7.98669 7.47485 8.18195L7.82843 8.53552C8.02368 8.73077 8.34027 8.73077 8.53552 8.53552C8.73077 8.34027 8.73077 8.02368 8.53552 7.82843L8.18195 7.47485C7.98669 7.2796 7.6701 7.2796 7.47485 7.47485Z" fill="var(--fill-0, #282828)"/>
<path d="M0.5 5.5C0.223877 5.5 0 5.27612 0 5C0 4.72388 0.223877 4.5 0.5 4.5H1C1.27612 4.5 1.5 4.72388 1.5 5C1.5 5.27612 1.27612 5.5 1 5.5H0.5Z" fill="var(--fill-0, #282828)"/>
<path d="M8.5 5C8.5 5.27612 8.72388 5.5 9 5.5H9.5C9.77612 5.5 10 5.27612 10 5C10 4.72388 9.77612 4.5 9.5 4.5H9C8.72388 4.5 8.5 4.72388 8.5 5Z" fill="var(--fill-0, #282828)"/>
<path d="M1.87415 8.27551C1.66266 8.453 1.34723 8.42542 1.16974 8.21393C0.992249 8.00238 1.01984 7.68701 1.23138 7.50946L1.61438 7.18811C1.82593 7.01062 2.1413 7.03821 2.31885 7.24969C2.49634 7.46124 2.46875 7.77661 2.2572 7.95416L1.87415 8.27551Z" fill="var(--fill-0, #282828)"/>
<path d="M7.68115 2.75018C7.85864 2.96173 8.17401 2.98932 8.38556 2.81183L8.76855 2.49042C8.9801 2.31293 9.00769 1.99756 8.8302 1.78601C8.65271 1.57446 8.33734 1.54688 8.12579 1.72443L7.74274 2.04578C7.53125 2.22327 7.50366 2.5387 7.68115 2.75018Z" fill="var(--fill-0, #282828)"/>
</g>
</svg>
