<svg preserveAspectRatio="none" width="100%" height="100%" overflow="visible" style="display: block;" viewBox="0 0 10 8" fill="none" xmlns="http://www.w3.org/2000/svg">
<path id="Union" d="M9 0C9.55228 0 10 0.447715 10 1V7C10 7.55228 9.55229 8 9 8H1C0.447716 8 2.25491e-07 7.55228 0 7V1C0 0.447715 0.447715 0 1 0H9ZM1 7H9V1H1V7ZM7.12109 1.90918C7.31633 1.71394 7.63286 1.714 7.82812 1.90918C8.02339 2.10444 8.02339 2.42095 7.82812 2.61621L5.35352 5.09082C5.15825 5.28608 4.84175 5.28608 4.64648 5.09082L2.17188 2.61621C1.97661 2.42095 1.97661 2.10444 2.17188 1.90918C2.36714 1.71398 2.68366 1.71394 2.87891 1.90918L5 4.03027L7.12109 1.90918Z" fill="var(--fill-0, #282828)"/>
</svg>
