<svg preserveAspectRatio="none" width="100%" height="100%" overflow="visible" style="display: block;" viewBox="0 0 13 13" fill="none" xmlns="http://www.w3.org/2000/svg">
<path id="Union (Stroke)" fill-rule="evenodd" clip-rule="evenodd" d="M8.23624 1.05724L8.70765 0.585832C8.87294 0.420544 9.05996 0.290227 9.25951 0.194888C10.0029 -0.160258 10.9202 -0.030056 11.5361 0.585832C12.152 1.20172 12.2822 2.11903 11.927 2.86239C11.8319 3.06152 11.7019 3.24816 11.5371 3.41319C11.5368 3.41354 11.5364 3.4139 11.5361 3.41426L11.0647 3.88566L8.23624 1.05724ZM7.29344 2.00005L1.63658 7.6569L4.46501 10.4853L10.1219 4.82847L7.29344 2.00005ZM7.29344 3.88566L3.5222 7.6569L4.46501 8.59971L8.23624 4.82847L7.29344 3.88566ZM0.693772 8.59971L0.020502 11.293C-0.101492 11.7815 0.340449 12.2234 0.828887 12.1014L3.5222 11.4281L0.693772 8.59971Z" fill="var(--fill-0, #282828)"/>
</svg>
