<svg preserveAspectRatio="none" width="100%" height="100%" overflow="visible" style="display: block;" viewBox="0 0 8 10" fill="none" xmlns="http://www.w3.org/2000/svg">
<g id="Union">
<path d="M8 0.5C8 0.223846 7.77612 0 7.5 0H1.5C1.22388 0 1 0.223846 1 0.5V1.5C1 1.77615 1.22388 2 1.5 2C1.77612 2 2 1.77615 2 1.5V1H7V9H2V8.5C2 8.22385 1.77612 8 1.5 8C1.22388 8 1 8.22385 1 8.5V9.5C1 9.77615 1.22388 10 1.5 10H7.5C7.77612 10 8 9.77615 8 9.5V0.5Z" fill="var(--fill-0, #282828)"/>
<path d="M3.02515 2.52512C3.2204 2.32986 3.53699 2.32983 3.73224 2.52512L5.85358 4.64642C5.87683 4.66971 5.89734 4.6947 5.91504 4.72101C5.92712 4.73892 5.93793 4.75745 5.94739 4.77643C5.95428 4.79022 5.96051 4.80426 5.96606 4.81851C5.98798 4.87476 6 4.93597 6 5C6 5.04346 5.99445 5.08563 5.98401 5.12582C5.97742 5.15134 5.96887 5.17606 5.9585 5.1998C5.93829 5.24615 5.91077 5.29007 5.87579 5.3298L5.86786 5.33865L5.85809 5.34897L5.85107 5.35605L3.73224 7.47485C3.53699 7.6701 3.2204 7.67014 3.02515 7.47485C2.82983 7.27957 2.82989 6.96298 3.02515 6.76776L4.29285 5.5H0.5C0.223877 5.5 0 5.27615 0 5C0 4.72385 0.223877 4.5 0.5 4.5H4.29291L3.02515 3.23221C2.82983 3.03696 2.82989 2.72037 3.02515 2.52512Z" fill="var(--fill-0, #282828)"/>
</g>
</svg>
