<svg preserveAspectRatio="none" width="100%" height="100%" overflow="visible" style="display: block;" viewBox="0 0 10 9" fill="none" xmlns="http://www.w3.org/2000/svg">
<path id="Union (Stroke)" fill-rule="evenodd" clip-rule="evenodd" d="M5 2.27208L4.29289 1.56497C3.5396 0.811678 2.31827 0.811675 1.56497 1.56497C0.811675 2.31827 0.811677 3.5396 1.56497 4.29289L5 7.72792L8.43503 4.29289C9.18832 3.5396 9.18832 2.31827 8.43503 1.56497C7.68173 0.811678 6.4604 0.811675 5.70711 1.56497L5 2.27208ZM5.00071 0.857155C6.14459 -0.285958 7.99855 -0.285716 9.14213 0.857865C10.286 2.00168 10.286 3.85618 9.14213 5L5.34518 8.79696C5.15454 8.98759 4.84546 8.98759 4.65482 8.79696L0.857865 5C-0.285952 3.85618 -0.285958 2.00169 0.857865 0.857865C2.00169 -0.285958 3.85618 -0.285952 5 0.857865C5.00024 0.857629 5.00047 0.857392 5.00071 0.857155Z" fill="var(--fill-0, #282828)"/>
</svg>
