<svg preserveAspectRatio="none" width="100%" height="100%" overflow="visible" style="display: block;" viewBox="0 0 14 17" fill="none" xmlns="http://www.w3.org/2000/svg">
<g id="Union">
<path d="M7.49969 0.856972C7.4999 0.849113 7.5 0.841242 7.5 0.833333C7.5 0.37309 7.12692 0 6.66667 0C6.20641 0 5.83333 0.37309 5.83333 0.833333C5.83333 0.841242 5.83343 0.849113 5.83364 0.856972C3.43343 1.09032 1.51011 3.0249 1.33499 5.47709L0.833333 12.5C0.373077 12.5 0 12.8731 0 13.3333C0 13.7936 0.373077 14.1667 0.833333 14.1667H12.5C12.9603 14.1667 13.3333 13.7936 13.3333 13.3333C13.3333 12.8731 12.9603 12.5 12.5 12.5L11.9983 5.47709C11.8232 3.0249 9.8999 1.09032 7.49969 0.856972Z" fill="var(--fill-0, #282828)"/>
<path d="M6.66667 16.6667C7.58713 16.6667 8.33333 15.9205 8.33333 15H5C5 15.9205 5.74621 16.6667 6.66667 16.6667Z" fill="var(--fill-0, #282828)"/>
</g>
</svg>
