<svg preserveAspectRatio="none" width="100%" height="100%" overflow="visible" style="display: block;" viewBox="0 0 14 17" fill="none" xmlns="http://www.w3.org/2000/svg">
<path id="Union" d="M12.5 0C12.9601 1.61026e-07 13.3328 0.37292 13.333 0.833008V15.833C13.333 16.2932 12.9602 16.667 12.5 16.667H3.33301C1.49221 16.6668 0 15.1738 0 13.333V3.33301C0.000175859 1.49232 1.49232 0.000175859 3.33301 0H12.5ZM3.33301 11.667C2.41279 11.6672 1.66717 12.4128 1.66699 13.333C1.66699 14.2534 2.41268 14.9998 3.33301 15H11.667V11.667H3.33301ZM0.0107422 13.0684C0.00938701 13.0856 0.0079282 13.1028 0.00683594 13.1201C0.00792778 13.1028 0.00938754 13.0856 0.0107422 13.0684ZM0.132812 12.4014C0.127213 12.4206 0.120494 12.4396 0.115234 12.459C0.120492 12.4396 0.127215 12.4206 0.132812 12.4014ZM0.195312 12.2061C0.187277 12.2284 0.179443 12.2509 0.171875 12.2734C0.17944 12.2509 0.187281 12.2284 0.195312 12.2061ZM0.368164 11.8105C0.360637 11.8252 0.35302 11.8397 0.345703 11.8545C0.353017 11.8397 0.360639 11.8252 0.368164 11.8105ZM13.2119 10.4023C13.2326 10.4365 13.2519 10.4717 13.2676 10.5088L13.2324 10.4355C13.2262 10.4241 13.2186 10.4135 13.2119 10.4023ZM1.66699 10.4453C2.15708 10.1619 2.7262 10.0001 3.33301 10H11.667V1.66699H3.33301C2.41279 1.66717 1.66717 2.41279 1.66699 3.33301V10.4453ZM13.1426 10.3037V10.3027V10.3037Z" fill="var(--fill-0, #282828)"/>
</svg>
