<svg preserveAspectRatio="none" width="100%" height="100%" overflow="visible" style="display: block;" viewBox="0 0 17 13" fill="none" xmlns="http://www.w3.org/2000/svg">
<path id="Union" d="M2.60156 0.518555C2.92692 0.193666 3.45398 0.1936 3.7793 0.518555L8.06934 4.80859C8.15527 4.79491 8.24322 4.78713 8.33301 4.78711C9.25341 4.78711 9.99988 5.53275 10 6.45312C10 6.54259 9.99013 6.63018 9.97656 6.71582L14.3857 11.126C14.7112 11.4514 14.7112 11.9783 14.3857 12.3037C14.0603 12.6291 13.5334 12.6291 13.208 12.3037L12.6465 11.7422C11.3781 12.48 9.90615 12.9062 8.33301 12.9062C4.32388 12.9061 0.955158 10.1642 0 6.45312C0.460468 4.66423 1.48257 3.10164 2.86621 1.96191L2.60156 1.69727C2.27613 1.37183 2.27613 0.843992 2.60156 0.518555ZM5.54004 4.63574C5.19914 5.1586 5.00004 5.78241 5 6.45312C5 8.29397 6.49221 9.78693 8.33301 9.78711C9.00389 9.78711 9.62675 9.58646 10.1494 9.24512L8.91699 8.0127C8.73514 8.08079 8.53863 8.12012 8.33301 8.12012C7.41268 8.11994 6.66699 7.37349 6.66699 6.45312C6.66702 6.24747 6.70529 6.05101 6.77344 5.86914L5.54004 4.63574ZM8.33301 0C12.3422 0 15.7118 2.74199 16.667 6.45312C16.3742 7.59075 15.8536 8.63661 15.1582 9.54102L11.6377 6.02051C11.4437 4.52577 10.2605 3.34217 8.76562 3.14844L5.95215 0.334961C6.70835 0.117611 7.50692 3.05435e-05 8.33301 0Z" fill="var(--fill-0, #282828)"/>
</svg>
