<svg preserveAspectRatio="none" width="100%" height="100%" overflow="visible" style="display: block;" viewBox="0 0 10 9" fill="none" xmlns="http://www.w3.org/2000/svg">
<g id="Union">
<path d="M5 0C4.72385 0 4.5 0.223854 4.5 0.5V1H0.5C0.223846 1 0 1.22385 0 1.5C0 1.77615 0.223846 2 0.5 2H4.5V2.5C4.5 2.77615 4.72385 3 5 3C5.27615 3 5.5 2.77615 5.5 2.5V0.5C5.5 0.223854 5.27615 0 5 0Z" fill="var(--fill-0, #282828)"/>
<path d="M7 3.5C7 3.22385 7.22385 3 7.5 3C7.77615 3 8 3.22385 8 3.5V5.5C8 5.77615 7.77615 6 7.5 6C7.22385 6 7 5.77615 7 5.5V5H0.5C0.223846 5 0 4.77615 0 4.5C0 4.22385 0.223846 4 0.5 4H7V3.5Z" fill="var(--fill-0, #282828)"/>
<path d="M2.5 6C2.22385 6 2 6.22385 2 6.5V7H0.5C0.223846 7 0 7.22385 0 7.5C0 7.77615 0.223846 8 0.5 8H2V8.5C2 8.77615 2.22385 9 2.5 9C2.77615 9 3 8.77615 3 8.5V6.5C3 6.22385 2.77615 6 2.5 6Z" fill="var(--fill-0, #282828)"/>
<path d="M3.5 7.5C3.5 7.22385 3.72385 7 4 7H9.5C9.77615 7 10 7.22385 10 7.5C10 7.77615 9.77615 8 9.5 8H4C3.72385 8 3.5 7.77615 3.5 7.5Z" fill="var(--fill-0, #282828)"/>
<path d="M9 4C8.72385 4 8.5 4.22385 8.5 4.5C8.5 4.77615 8.72385 5 9 5H9.5C9.77615 5 10 4.77615 10 4.5C10 4.22385 9.77615 4 9.5 4H9Z" fill="var(--fill-0, #282828)"/>
<path d="M6 1.5C6 1.22385 6.22385 1 6.5 1H9.5C9.77615 1 10 1.22385 10 1.5C10 1.77615 9.77615 2 9.5 2H6.5C6.22385 2 6 1.77615 6 1.5Z" fill="var(--fill-0, #282828)"/>
</g>
</svg>
