<svg preserveAspectRatio="none" width="100%" height="100%" overflow="visible" style="display: block;" viewBox="0 0 17 16" fill="none" xmlns="http://www.w3.org/2000/svg">
<path id="Union" d="M10.5391 0.272461C10.7996 0.0425868 11.1577 -0.077407 11.4795 0.0537109C12.1886 0.34305 12.8496 0.728075 13.4453 1.19141C13.7192 1.40477 13.7943 1.77485 13.7256 2.11523C13.5708 2.88284 13.6842 3.70797 14.1064 4.43945C14.529 5.17137 15.188 5.68297 15.9307 5.93262C16.2603 6.04354 16.5428 6.2941 16.5898 6.63867C16.6403 7.00951 16.667 7.38875 16.667 7.77344C16.667 8.15794 16.6403 8.53654 16.5898 8.90723C16.5428 9.25194 16.2604 9.50335 15.9307 9.61426C15.188 9.86391 14.529 10.3745 14.1064 11.1064C13.6841 11.8381 13.5706 12.6638 13.7256 13.4316C13.7943 13.7721 13.7195 14.1422 13.4453 14.3555C12.8495 14.8188 12.1886 15.2028 11.4795 15.4922C11.1577 15.6234 10.7997 15.5034 10.5391 15.2734C9.9514 14.7546 9.1786 14.4395 8.33301 14.4395C7.48755 14.4395 6.71552 14.7546 6.12793 15.2734C5.86739 15.5034 5.50932 15.6232 5.1875 15.4922C4.47842 15.2029 3.81741 14.8188 3.22168 14.3555C2.94749 14.1422 2.87179 13.7721 2.94043 13.4316C3.09544 12.6638 2.98204 11.8382 2.55957 11.1064C2.13701 10.3746 1.47903 9.86292 0.736328 9.61328C0.406521 9.50237 0.123139 9.25198 0.0761719 8.90723C0.0257365 8.53655 1.64011e-05 8.15794 0 7.77344C0 7.38875 0.0257136 7.00951 0.0761719 6.63867C0.123183 6.29396 0.406536 6.04349 0.736328 5.93262C1.47907 5.68298 2.137 5.17137 2.55957 4.43945C2.98202 3.70774 3.09543 2.88213 2.94043 2.11426C2.87189 1.77394 2.94779 1.40464 3.22168 1.19141C3.81743 0.728108 4.4784 0.343044 5.1875 0.0537109C5.50925 -0.0772543 5.86742 0.0425477 6.12793 0.272461C6.71552 0.791253 7.48755 1.10636 8.33301 1.10645C9.1786 1.10645 9.9514 0.791319 10.5391 0.272461ZM11.2979 1.7998C10.4687 2.41082 9.44143 2.77344 8.33301 2.77344C7.2248 2.77337 6.19819 2.41067 5.36914 1.7998C5.11785 1.92482 4.87492 2.06493 4.64258 2.21973C4.75689 3.24298 4.55695 4.31387 4.00293 5.27344C3.44908 6.23253 2.62257 6.93991 1.67969 7.35254C1.6711 7.49129 1.66699 7.63215 1.66699 7.77344C1.667 7.91455 1.6711 8.05475 1.67969 8.19336C2.62273 8.60604 3.44907 9.31411 4.00293 10.2734C4.55684 11.233 4.75691 12.3029 4.64258 13.3262C4.87496 13.481 5.1178 13.6211 5.36914 13.7461C6.19817 13.1353 7.22486 12.7735 8.33301 12.7734C9.44138 12.7734 10.4687 13.1351 11.2979 13.7461C11.5492 13.6211 11.7921 13.481 12.0244 13.3262C11.9101 12.3031 12.1093 11.2329 12.6631 10.2734C13.217 9.31407 14.0442 8.60604 14.9873 8.19336C14.9959 8.05474 15 7.91456 15 7.77344C15 7.63214 14.9959 7.49129 14.9873 7.35254C14.0443 6.93988 13.217 6.23273 12.6631 5.27344C12.1091 4.3139 11.9101 3.243 12.0244 2.21973C11.792 2.06489 11.5492 1.92484 11.2979 1.7998ZM8.33301 4.43945C10.174 4.43945 11.667 5.93249 11.667 7.77344C11.6668 9.61419 10.1738 11.1064 8.33301 11.1064C6.49235 11.1063 5.00024 9.61408 5 7.77344C5 5.9326 6.49221 4.43963 8.33301 4.43945ZM8.33301 6.10645C7.41268 6.10662 6.66699 6.85307 6.66699 7.77344C6.66723 8.6936 7.41283 9.43928 8.33301 9.43945C9.25334 9.43945 9.99976 8.69371 10 7.77344C10 6.85296 9.25348 6.10645 8.33301 6.10645Z" fill="var(--fill-0, #282828)"/>
</svg>
