<svg preserveAspectRatio="none" width="100%" height="100%" overflow="visible" style="display: block;" viewBox="0 0 17 15" fill="none" xmlns="http://www.w3.org/2000/svg">
<path id="Union" d="M15.833 13.333C16.2932 13.333 16.667 13.7068 16.667 14.167C16.6668 14.6271 16.2931 15 15.833 15H0.833008C0.373036 14.9998 0.000189405 14.627 0 14.167C0 13.7069 0.37292 13.3332 0.833008 13.333H15.833ZM8.33398 0C8.794 0.000131772 9.16682 0.373002 9.16699 0.833008V8.82129L11.2803 6.70898C11.6057 6.38357 12.1335 6.38353 12.459 6.70898C12.7838 7.03433 12.7838 7.56143 12.459 7.88672L8.92676 11.418C8.91271 11.4322 8.89882 11.4468 8.88379 11.46C8.81765 11.5181 8.74421 11.564 8.66699 11.5977C8.56508 11.6421 8.45228 11.667 8.33398 11.667C8.22732 11.667 8.12499 11.6469 8.03125 11.6104C7.92677 11.5697 7.8285 11.5072 7.74414 11.4229L4.20898 7.88672C3.88373 7.56132 3.8838 7.03437 4.20898 6.70898C4.5344 6.38357 5.06225 6.38353 5.3877 6.70898L7.5 8.82129V0.833008C7.50018 0.37292 7.87386 0 8.33398 0Z" fill="var(--fill-0, #282828)"/>
</svg>
