<svg preserveAspectRatio="none" width="100%" height="100%" overflow="visible" style="display: block;" viewBox="0 0 10 2" fill="none" xmlns="http://www.w3.org/2000/svg">
<g id="Union">
<path d="M1 0C1.55228 0 2 0.447715 2 1C2 1.55228 1.55228 2 1 2C0.447715 2 0 1.55228 0 1C0 0.447715 0.447715 0 1 0Z" fill="var(--fill-0, #282828)"/>
<path d="M5 0C5.55228 0 6 0.447715 6 1C6 1.55228 5.55228 2 5 2C4.44772 2 4 1.55228 4 1C4 0.447715 4.44772 0 5 0Z" fill="var(--fill-0, #282828)"/>
<path d="M10 1C10 0.447715 9.55229 0 9 0C8.44771 0 8 0.447715 8 1C8 1.55228 8.44771 2 9 2C9.55229 2 10 1.55228 10 1Z" fill="var(--fill-0, #282828)"/>
</g>
</svg>
