<svg preserveAspectRatio="none" width="100%" height="100%" overflow="visible" style="display: block;" viewBox="0 0 11 14" fill="none" xmlns="http://www.w3.org/2000/svg">
<g id="Union">
<path d="M5.99976 0.685577C5.99992 0.679291 6 0.672994 6 0.666667C6 0.298472 5.70154 0 5.33333 0C4.96513 0 4.66667 0.298472 4.66667 0.666667C4.66667 0.672994 4.66675 0.679291 4.66691 0.685577C2.74674 0.872253 1.20809 2.41992 1.06799 4.38167L0.666667 10C0.298462 10 0 10.2985 0 10.6667C0 11.0349 0.298462 11.3333 0.666667 11.3333H10C10.3682 11.3333 10.6667 11.0349 10.6667 10.6667C10.6667 10.2985 10.3682 10 10 10L9.59867 4.38167C9.45858 2.41992 7.91992 0.872253 5.99976 0.685577Z" fill="var(--fill-0, #282828)"/>
<path d="M5.33333 13.3333C6.0697 13.3333 6.66667 12.7364 6.66667 12H4C4 12.7364 4.59696 13.3333 5.33333 13.3333Z" fill="var(--fill-0, #282828)"/>
</g>
</svg>
