<svg preserveAspectRatio="none" width="100%" height="100%" overflow="visible" style="display: block;" viewBox="0 0 16 20" fill="none" xmlns="http://www.w3.org/2000/svg">
<path id="Union" d="M15 0C15.5523 0 16 0.447715 16 1V19C16 19.5523 15.5523 20 15 20H4C1.79086 20 0 18.2091 0 16V4C0 1.79086 1.79086 0 4 0H15ZM4 14C2.89543 14 2 14.8954 2 16C2 17.1046 2.89543 18 4 18H14V14H4ZM0.0390625 15.4365C0.0369161 15.4517 0.0361542 15.4672 0.0341797 15.4824C0.036153 15.4672 0.0369175 15.4517 0.0390625 15.4365ZM0.15332 14.9004C0.148511 14.9172 0.144242 14.9342 0.139648 14.9512C0.144239 14.9342 0.148514 14.9172 0.15332 14.9004ZM0.237305 14.6396C0.226808 14.6687 0.217848 14.6982 0.208008 14.7275C0.217842 14.6982 0.226815 14.6687 0.237305 14.6396ZM0.332031 14.4033C0.322945 14.4241 0.313427 14.4448 0.304688 14.4658C0.313422 14.4448 0.322951 14.4242 0.332031 14.4033ZM1.39355 12.9658C1.38062 12.9769 1.36826 12.9887 1.35547 13C1.36826 12.9887 1.38062 12.9769 1.39355 12.9658ZM4 2C2.89543 2 2 2.89543 2 4V12.5361C2.58845 12.1956 3.27125 12 4 12H14V2H4Z" fill="var(--fill-0, #282828)"/>
</svg>
