<svg preserveAspectRatio="none" width="100%" height="100%" overflow="visible" style="display: block;" viewBox="0 0 20 20" fill="none" xmlns="http://www.w3.org/2000/svg">
<g id="Union">
<path d="M6.46447 7.87868C6.07394 7.48816 6.07394 6.85499 6.46447 6.46447C6.85499 6.07394 7.48816 6.07394 7.87868 6.46447L10 8.58579L12.1213 6.46447C12.5118 6.07394 13.145 6.07394 13.5355 6.46447C13.9261 6.85499 13.9261 7.48815 13.5355 7.87868L11.4142 10L13.5355 12.1213C13.9261 12.5118 13.9261 13.145 13.5355 13.5355C13.145 13.9261 12.5118 13.9261 12.1213 13.5355L10 11.4142L7.87868 13.5355C7.48816 13.9261 6.85499 13.9261 6.46447 13.5355C6.07394 13.145 6.07394 12.5118 6.46447 12.1213L8.58579 10L6.46447 7.87868Z" fill="var(--fill-0, #282828)"/>
<path fill-rule="evenodd" clip-rule="evenodd" d="M17.0711 2.92893C20.9763 6.83417 20.9763 13.1658 17.0711 17.0711C13.1658 20.9763 6.83417 20.9763 2.92893 17.0711C-0.976311 13.1658 -0.976311 6.83418 2.92893 2.92893C6.83417 -0.97631 13.1658 -0.976311 17.0711 2.92893ZM15.6569 4.34315C18.781 7.46734 18.781 12.5327 15.6569 15.6569C12.5327 18.781 7.46734 18.781 4.34315 15.6569C1.21895 12.5327 1.21895 7.46734 4.34315 4.34315C7.46734 1.21895 12.5327 1.21895 15.6569 4.34315Z" fill="var(--fill-0, #282828)"/>
</g>
</svg>
