<svg preserveAspectRatio="none" width="100%" height="100%" overflow="visible" style="display: block;" viewBox="0 0 14 13" fill="none" xmlns="http://www.w3.org/2000/svg">
<g id="Union">
<path d="M13.0976 2.43163C13.2278 2.30146 13.2278 2.0904 13.0976 1.96023L11.2357 0.0982992C11.0257 -0.111689 10.6667 0.0370338 10.6667 0.334002V1.52926H8.66667C7.81967 1.52926 7.04645 1.84518 6.45842 2.3656C6.74766 2.72713 6.97548 3.13994 7.12604 3.58823C7.49272 3.1452 8.04672 2.86286 8.66667 2.8626H10.6667V4.05786C10.6667 4.35483 11.0257 4.50355 11.2357 4.29356L13.0976 2.43163Z" fill="var(--fill-0, #282828)"/>
<path d="M13.0976 10.4316C13.2278 10.3015 13.2278 10.0904 13.0976 9.96023L11.2357 8.0983C11.0257 7.88831 10.6667 8.03703 10.6667 8.334V9.52927H8.66667C7.5627 9.52856 6.66797 8.6334 6.66797 7.52926H6.66667V4.8626C6.66667 4.63429 6.64371 4.41134 6.59999 4.19593C6.59964 4.19423 6.59929 4.19252 6.59895 4.19082C6.49852 3.70007 6.29026 3.24861 6 2.86228C5.39184 2.05283 4.42373 1.52926 3.33333 1.52926H0.666667C0.298477 1.52926 0 1.82774 0 2.19593C0 2.56412 0.298477 2.8626 0.666667 2.8626H3.33333C4.43791 2.8626 5.33333 3.75802 5.33333 4.8626V7.52926C5.33333 7.75757 5.35629 7.98053 5.40001 8.19593L5.40106 8.20105C5.50148 8.69179 5.70974 9.14325 6 9.52959C6.60815 10.339 7.57627 10.8626 8.66667 10.8626H10.6667V12.0579C10.6667 12.3548 11.0257 12.5036 11.2357 12.2936L13.0976 10.4316Z" fill="var(--fill-0, #282828)"/>
<path d="M0 10.1959C0 9.82774 0.298477 9.52927 0.666667 9.52927H3.33333C3.95329 9.52927 4.50736 9.24719 4.87421 8.80438C5.02477 9.25238 5.25249 9.66494 5.54158 10.0263C4.95355 10.5467 4.18033 10.8626 3.33333 10.8626H0.666667C0.298477 10.8626 0 10.5641 0 10.1959Z" fill="var(--fill-0, #282828)"/>
</g>
</svg>
