<svg preserveAspectRatio="none" width="100%" height="100%" overflow="visible" style="display: block;" viewBox="0 0 9 9" fill="none" xmlns="http://www.w3.org/2000/svg">
<path id="Union" d="M0.244078 0.244078C-0.0813592 0.569515 -0.081359 1.09715 0.244078 1.42259L3.19036 4.36887L0.244078 7.31515C-0.0813592 7.64058 -0.0813592 8.16822 0.244078 8.49366C0.569515 8.81909 1.09715 8.81909 1.42259 8.49366L4.36887 5.54738L7.31515 8.49366C7.64058 8.81909 8.16822 8.81909 8.49366 8.49366C8.81909 8.16822 8.81909 7.64058 8.49366 7.31515L5.54738 4.36887L8.49366 1.42259C8.81909 1.09715 8.81909 0.569515 8.49366 0.244078C8.16822 -0.0813592 7.64058 -0.0813589 7.31515 0.244078L4.36887 3.19036L1.42259 0.244078C1.09715 -0.0813592 0.569515 -0.0813592 0.244078 0.244078Z" fill="var(--fill-0, #282828)"/>
</svg>
