<svg preserveAspectRatio="none" width="100%" height="100%" overflow="visible" style="display: block;" viewBox="0 0 19 19" fill="none" xmlns="http://www.w3.org/2000/svg">
<path id="Union (Stroke)" fill-rule="evenodd" clip-rule="evenodd" d="M12.3544 1.58585L13.0615 0.878748C13.3094 0.630816 13.5899 0.435341 13.8893 0.292332C15.0043 -0.240387 16.3803 -0.0450841 17.3041 0.878748C18.2279 1.80258 18.4232 3.17855 17.8905 4.29359C17.7478 4.59228 17.5529 4.87224 17.3057 5.11978C17.3052 5.12032 17.3046 5.12085 17.3041 5.12139L16.597 5.8285L12.3544 1.58585ZM10.9402 3.00007L2.45487 11.4853L6.69751 15.728L15.1828 7.24271L10.9402 3.00007ZM10.9402 5.82849L5.2833 11.4853L6.69751 12.8996L12.3544 7.24271L10.9402 5.82849ZM1.04066 12.8996L0.0307529 16.9395C-0.152239 17.6722 0.510674 18.3351 1.24333 18.1521L5.2833 17.1422L1.04066 12.8996Z" fill="var(--fill-0, #282828)"/>
</svg>
