<svg preserveAspectRatio="none" width="100%" height="100%" overflow="visible" style="display: block;" viewBox="0 0 10 10" fill="none" xmlns="http://www.w3.org/2000/svg">
<path id="Union" d="M7.50098 0C8.05315 0.000131469 8.50098 0.447797 8.50098 1V2H9C9.55228 2 10 2.44772 10 3V7.5C10 8.05228 9.55229 8.5 9 8.5H8.50098V9C8.50096 9.55219 8.05314 9.99987 7.50098 10H2.50098C1.9487 10 1.50099 9.55227 1.50098 9V5H8.50098V7.5H9V3H1V7.5H1.5V8.5H1C0.447716 8.5 1.77172e-07 8.05228 0 7.5V3C7.73105e-07 2.44772 0.447716 2 1 2H1.50098V1C1.50098 0.447715 1.94869 0 2.50098 0H7.50098ZM2.50098 9H7.50098V6H2.50098V9ZM2.50098 2H7.50098V1H2.50098V2Z" fill="var(--fill-0, #282828)"/>
</svg>
