<svg preserveAspectRatio="none" width="100%" height="100%" overflow="visible" style="display: block;" viewBox="0 0 20 20" fill="none" xmlns="http://www.w3.org/2000/svg">
<path id="Subtract" fill-rule="evenodd" clip-rule="evenodd" d="M17.0711 17.0711C20.9763 13.1658 20.9763 6.83417 17.0711 2.92893C13.1658 -0.976311 6.83417 -0.97631 2.92893 2.92893C-0.976311 6.83418 -0.976311 13.1658 2.92893 17.0711C6.83417 20.9763 13.1658 20.9763 17.0711 17.0711ZM6.46447 7.87868C6.07394 7.48816 6.07394 6.85499 6.46447 6.46447C6.85499 6.07394 7.48816 6.07394 7.87868 6.46447L10 8.58579L12.1213 6.46447C12.5118 6.07394 13.145 6.07394 13.5355 6.46447C13.9261 6.85499 13.9261 7.48815 13.5355 7.87868L11.4142 10L13.5355 12.1213C13.9261 12.5118 13.9261 13.145 13.5355 13.5355C13.145 13.9261 12.5118 13.9261 12.1213 13.5355L10 11.4142L7.87868 13.5355C7.48816 13.9261 6.85499 13.9261 6.46447 13.5355C6.07394 13.145 6.07394 12.5118 6.46447 12.1213L8.58579 10L6.46447 7.87868Z" fill="var(--fill-0, #282828)"/>
</svg>
