<svg preserveAspectRatio="none" width="100%" height="100%" overflow="visible" style="display: block;" viewBox="0 0 10 7" fill="none" xmlns="http://www.w3.org/2000/svg">
<path id="Union" d="M6.30965 0.195259C6.04929 -0.0651008 5.62717 -0.065072 5.36684 0.195259C5.10651 0.455591 5.10648 0.877708 5.36684 1.13807L7.05722 2.82845H0.666667C0.298477 2.82845 0 3.12693 0 3.49512C0 3.86331 0.298477 4.16178 0.666667 4.16178H7.05717L5.36684 5.85211C5.10651 6.11245 5.10648 6.53456 5.36684 6.79492C5.6272 7.05528 6.04932 7.05525 6.30965 6.79492L9.13474 3.96983C9.14616 3.95857 9.15718 3.9469 9.16776 3.93484C9.21432 3.88189 9.25106 3.82333 9.27798 3.76151C9.31358 3.67992 9.33333 3.58983 9.33333 3.49512C9.33333 3.40975 9.31729 3.32813 9.28805 3.25311C9.25555 3.16953 9.20556 3.09117 9.13807 3.02369L6.30965 0.195259Z" fill="var(--fill-0, #282828)"/>
</svg>
