<svg preserveAspectRatio="none" width="100%" height="100%" overflow="visible" style="display: block;" viewBox="0 0 12 12" fill="none" xmlns="http://www.w3.org/2000/svg">
<path id="Union" d="M5.83301 0C6.29314 0 6.66682 0.37292 6.66699 0.833008V5H10.833C11.2931 5 11.6668 5.37292 11.667 5.83301C11.667 6.29325 11.2932 6.66699 10.833 6.66699H6.66699V10.833C6.66699 11.2932 6.29325 11.667 5.83301 11.667C5.37292 11.6668 5 11.2931 5 10.833V6.66699H0.833008C0.37292 6.66682 0 6.29314 0 5.83301C0.000175823 5.37303 0.373029 5.00018 0.833008 5H5V0.833008C5.00018 0.373029 5.37303 0.000175823 5.83301 0Z" fill="var(--fill-0, #282828)"/>
</svg>
