<svg preserveAspectRatio="none" width="100%" height="100%" overflow="visible" style="display: block;" viewBox="0 0 10 5" fill="none" xmlns="http://www.w3.org/2000/svg">
<path id="Union" d="M3.5 0C3.77614 8.05326e-09 4 0.223858 4 0.5C4 0.776142 3.77614 1 3.5 1H2.5C1.67157 1 1 1.67157 1 2.5C1 3.32843 1.67157 4 2.5 4H3.5C3.77614 4 4 4.22386 4 4.5C4 4.77614 3.77614 5 3.5 5H2.5C1.11929 5 0 3.88071 0 2.5C0 1.11929 1.11929 0 2.5 0H3.5ZM7.5 0C8.88071 0 10 1.11929 10 2.5C10 3.88071 8.88071 5 7.5 5H6.5C6.22386 5 6 4.77614 6 4.5C6 4.22386 6.22386 4 6.5 4H7.5C8.32843 4 9 3.32843 9 2.5C9 1.67157 8.32843 1 7.5 1H6.5C6.22386 1 6 0.776142 6 0.5C6 0.223858 6.22386 0 6.5 0H7.5ZM6.5 2C6.77614 2 7 2.22386 7 2.5C7 2.77614 6.77614 3 6.5 3H3.5C3.22386 3 3 2.77614 3 2.5C3 2.22386 3.22386 2 3.5 2H6.5Z" fill="var(--fill-0, #282828)"/>
</svg>
