<svg preserveAspectRatio="none" width="100%" height="100%" overflow="visible" style="display: block;" viewBox="0 0 18 17" fill="none" xmlns="http://www.w3.org/2000/svg">
<g id="Union">
<path d="M8.02811 6.51937C8.02811 6.05913 8.4012 5.68604 8.86144 5.68604C9.32168 5.68604 9.69477 6.05913 9.69477 6.51937V10.686C9.69477 11.1463 9.32168 11.5194 8.86144 11.5194C8.4012 11.5194 8.02811 11.1463 8.02811 10.686V6.51937Z" fill="var(--fill-0, #282828)"/>
<path d="M9.69477 13.186C9.69477 13.6463 9.32168 14.0194 8.86144 14.0194C8.4012 14.0194 8.02811 13.6463 8.02811 13.186C8.02811 12.7258 8.4012 12.3527 8.86144 12.3527C9.32168 12.3527 9.69477 12.7258 9.69477 13.186Z" fill="var(--fill-0, #282828)"/>
<path fill-rule="evenodd" clip-rule="evenodd" d="M7.39829 0.868579C8.02999 -0.289527 9.69291 -0.289526 10.3246 0.86858L17.517 14.0547C18.1228 15.1653 17.319 16.5195 16.0539 16.5195H1.66902C0.403922 16.5195 -0.399933 15.1653 0.205862 14.0547L7.39829 0.868579ZM8.86145 1.66667L16.0539 14.8528L1.66902 14.8528L8.86145 1.66667Z" fill="var(--fill-0, #282828)"/>
</g>
</svg>
