<svg preserveAspectRatio="none" width="100%" height="100%" overflow="visible" style="display: block;" viewBox="0 0 9 10" fill="none" xmlns="http://www.w3.org/2000/svg">
<path id="Subtract" d="M4.02441 0C6.24684 0.000105654 8.04883 1.80197 8.04883 4.02441C8.04871 7.48044 5.08018 9.45256 4.24219 9.94043C4.10548 10.02 3.94339 10.0199 3.80664 9.94043C2.96864 9.45256 0.00011412 7.48044 0 4.02441C0 1.8019 1.8019 0 4.02441 0ZM4.02441 2.01172C2.91316 2.01172 2.01172 2.91316 2.01172 4.02441C2.0119 5.13551 2.91327 6.03613 4.02441 6.03613C5.13547 6.03603 6.03595 5.13545 6.03613 4.02441C6.03613 2.91322 5.13558 2.01182 4.02441 2.01172Z" fill="var(--fill-0, #282828)"/>
</svg>
