<svg preserveAspectRatio="none" width="100%" height="100%" overflow="visible" style="display: block;" viewBox="0 0 17 15" fill="none" xmlns="http://www.w3.org/2000/svg">
<path id="Union" d="M1.01758 1.01852C1.34302 0.693078 1.87085 0.693078 2.19629 1.01852L13.9814 12.8037C13.9895 12.8117 13.9986 12.8185 14.0068 12.8261C14.0057 12.827 14.0041 12.8272 14.0029 12.8281C14.3052 13.1548 14.2987 13.6638 13.9814 13.9814C13.656 14.3068 13.1282 14.3068 12.8027 13.9814L12.501 13.6796C12.2598 13.7778 12.0123 13.8641 11.7578 13.9336C11.7271 13.9419 11.6963 13.9479 11.666 13.9521V12.8447L10 11.1787V14.1679C9.99994 14.8545 9.21632 15.2466 8.66699 14.8349L3.33301 10.8349H0.833008C0.37309 10.8347 0.000275067 10.4618 0 10.0019V5.00191C0 4.54179 0.37292 4.16811 0.833008 4.16793H2.98926L1.01758 2.19625C0.692369 1.87085 0.692348 1.3439 1.01758 1.01852ZM3.88867 5.83492H1.66699V9.16793H3.88867L8.33301 12.5019V9.51168L4.32715 5.50582L3.88867 5.83492ZM11.7578 1.06832C14.5857 1.83986 16.6658 4.42803 16.666 7.50094C16.666 9.07852 16.1164 10.5271 15.2002 11.6689C15.1873 11.654 15.1743 11.6391 15.1602 11.625L14.0127 10.4775C14.6309 9.64584 14.999 8.6171 14.999 7.50094C14.9988 5.32418 13.6078 3.47245 11.666 2.78609V1.04977C11.6963 1.05401 11.7271 1.05995 11.7578 1.06832ZM11.667 4.16793C12.6792 4.92814 13.333 6.13885 13.333 7.50191C13.3329 8.16991 13.1749 8.80075 12.8955 9.36031L11.667 8.1318V4.16793ZM8.66699 0.167929C9.21634 -0.243714 10 0.148346 10 0.834921V6.4648L8.33301 4.79781V2.50191L7.02051 3.48531L5.83008 2.29488L8.66699 0.167929Z" fill="var(--fill-0, #282828)"/>
</svg>
