<svg preserveAspectRatio="none" width="100%" height="100%" overflow="visible" style="display: block;" viewBox="0 0 14 12" fill="none" xmlns="http://www.w3.org/2000/svg">
<path id="Union" d="M12.667 10.667C13.0349 10.6672 13.3328 10.9651 13.333 11.333C13.333 11.7011 13.035 11.9998 12.667 12H0.666992C0.298802 12 0 11.7012 0 11.333C0.000164167 10.965 0.298904 10.667 0.666992 10.667H12.667ZM6.66699 0C7.03518 0 7.33398 0.298803 7.33398 0.666992V7.05762L9.02441 5.36719C9.28475 5.10689 9.70645 5.10684 9.9668 5.36719C10.227 5.62755 10.227 6.04929 9.9668 6.30957L7.1416 9.13477C7.13036 9.14616 7.11848 9.1574 7.10645 9.16797C7.05358 9.21441 6.99529 9.25145 6.93359 9.27832C6.852 9.31392 6.7617 9.33301 6.66699 9.33301C6.58163 9.33301 6.49982 9.31732 6.4248 9.28809C6.34127 9.25559 6.26276 9.20514 6.19531 9.1377L3.36719 6.30957C3.10689 6.04926 3.10701 5.62753 3.36719 5.36719C3.62751 5.10686 4.04921 5.10684 4.30957 5.36719L6 7.05762V0.666992C6 0.298803 6.2988 5.62942e-08 6.66699 0Z" fill="var(--fill-0, #282828)"/>
</svg>
