<svg preserveAspectRatio="none" width="100%" height="100%" overflow="visible" style="display: block;" viewBox="0 0 14 11" fill="none" xmlns="http://www.w3.org/2000/svg">
<path id="Subtract" d="M12 0C12.7363 0 13.3328 0.596778 13.333 1.33301V9.33301C13.333 10.0694 12.7364 10.667 12 10.667H1.33301C0.596777 10.6668 0 10.0693 0 9.33301V1.33301C0.000176512 0.596887 0.596887 0.000175861 1.33301 0H12ZM10.4375 2.54492C10.1772 2.28508 9.75534 2.28493 9.49512 2.54492L6.66699 5.37402L3.83789 2.54492C3.57759 2.28506 3.15574 2.28495 2.89551 2.54492C2.63516 2.80527 2.63516 3.22793 2.89551 3.48828L6.19531 6.78809C6.45559 7.0483 6.87734 7.04817 7.1377 6.78809L10.4375 3.48828C10.6978 3.22793 10.6978 2.80527 10.4375 2.54492Z" fill="var(--fill-0, #282828)"/>
</svg>
