<svg preserveAspectRatio="none" width="100%" height="100%" overflow="visible" style="display: block;" viewBox="0 0 14 13" fill="none" xmlns="http://www.w3.org/2000/svg">
<path id="Union" d="M8.43066 0.217773C8.63916 0.0336856 8.92606 -0.0620274 9.18359 0.0429688C9.75079 0.274402 10.2793 0.581564 10.7559 0.952148C10.9752 1.12277 11.0354 1.41898 10.9805 1.69141C10.8565 2.30571 10.9472 2.96637 11.2852 3.55176C11.6232 4.13718 12.1501 4.54537 12.7441 4.74512C13.008 4.83379 13.2348 5.03483 13.2725 5.31055C13.3128 5.60707 13.333 5.91018 13.333 6.21777C13.333 6.52532 13.3128 6.8285 13.2725 7.125C13.2349 7.4009 13.0081 7.60171 12.7441 7.69043C12.15 7.89015 11.6232 8.29925 11.2852 8.88477C10.9472 9.47013 10.8565 10.1308 10.9805 10.7451C11.0354 11.0175 10.9751 11.3128 10.7559 11.4834C10.2792 11.8541 9.7509 12.1621 9.18359 12.3936C8.92606 12.4985 8.63916 12.4028 8.43066 12.2188C7.96061 11.8037 7.34333 11.5518 6.66699 11.5518C5.99052 11.5518 5.37248 11.8037 4.90234 12.2188C4.69381 12.4028 4.40693 12.4986 4.14941 12.3936C3.58217 12.1621 3.05372 11.854 2.57715 11.4834C2.35815 11.3128 2.29766 11.0173 2.35254 10.7451C2.47655 10.1308 2.38583 9.47018 2.04785 8.88477C1.7098 8.29929 1.18301 7.89014 0.588867 7.69043C0.325061 7.60166 0.0990492 7.4008 0.0615234 7.125C0.0211951 6.82848 0 6.52535 0 6.21777C2.06624e-05 5.91018 0.0211768 5.60707 0.0615234 5.31055C0.0992185 5.03498 0.325214 4.83481 0.588867 4.74609C1.18299 4.5464 1.70979 4.13719 2.04785 3.55176C2.38583 2.96638 2.47654 2.30572 2.35254 1.69141C2.2976 1.41898 2.35777 1.12276 2.57715 0.952148C3.05371 0.581536 3.58218 0.27443 4.14941 0.0429688C4.40694 -0.0621079 4.69381 0.0337237 4.90234 0.217773C5.37248 0.63286 5.99052 0.884766 6.66699 0.884766C7.34331 0.884685 7.96061 0.632766 8.43066 0.217773ZM9.03809 1.43945C8.37484 1.92818 7.55358 2.2177 6.66699 2.21777C5.78026 2.21777 4.95825 1.92827 4.29492 1.43945C4.09388 1.53947 3.89975 1.65252 3.71387 1.77637C3.80521 2.59479 3.64522 3.45029 3.20215 4.21777C2.75907 4.98523 2.09817 5.55169 1.34375 5.88184C1.33689 5.99268 1.33302 6.1049 1.33301 6.21777C1.33301 6.33077 1.33687 6.4437 1.34375 6.55469C2.09798 6.88477 2.75908 7.4506 3.20215 8.21777C3.64526 8.9853 3.80524 9.84162 3.71387 10.6602C3.89975 10.784 4.09387 10.897 4.29492 10.9971C4.95825 10.5083 5.78026 10.2178 6.66699 10.2178C7.5536 10.2178 8.37484 10.5083 9.03809 10.9971C9.23919 10.897 9.43321 10.784 9.61914 10.6602C9.52777 9.84166 9.68772 8.98532 10.1309 8.21777C10.5739 7.45062 11.2351 6.88481 11.9893 6.55469C11.9961 6.4437 12 6.33077 12 6.21777C12 6.10489 11.9961 5.99269 11.9893 5.88184C11.235 5.55167 10.5739 4.98513 10.1309 4.21777C9.68787 3.45036 9.52782 2.59475 9.61914 1.77637C9.43322 1.65249 9.23917 1.53949 9.03809 1.43945ZM6.66699 3.55176C8.13947 3.55193 9.33279 4.7453 9.33301 6.21777C9.33301 7.69042 8.1396 8.88459 6.66699 8.88477C5.19423 8.88477 4 7.69053 4 6.21777C4.00021 4.7452 5.19436 3.55176 6.66699 3.55176ZM6.66699 4.88477C5.93074 4.88477 5.33322 5.48158 5.33301 6.21777C5.33301 6.95415 5.93061 7.55176 6.66699 7.55176C7.40322 7.55158 8 6.95404 8 6.21777C7.99979 5.48168 7.40309 4.88494 6.66699 4.88477Z" fill="var(--fill-0, #282828)"/>
</svg>
