<svg preserveAspectRatio="none" width="100%" height="100%" overflow="visible" style="display: block;" viewBox="0 0 20 18" fill="none" xmlns="http://www.w3.org/2000/svg">
<path id="Union" d="M14 16C14.5523 16 15 16.4477 15 17C15 17.5523 14.5523 18 14 18H6C5.44772 18 5 17.5523 5 17C5 16.4477 5.44772 16 6 16H9V14H2C0.895431 14 4.832e-08 13.1046 0 12V2C0 0.895431 0.895431 1.61064e-08 2 0H18C19.1046 2.57702e-07 20 0.895431 20 2V12C20 13.1046 19.1046 14 18 14H11V16H14Z" fill="var(--fill-0, #282828)"/>
</svg>
