<svg preserveAspectRatio="none" width="100%" height="100%" overflow="visible" style="display: block;" viewBox="0 0 15 17" fill="none" xmlns="http://www.w3.org/2000/svg">
<path id="Subtract" d="M7.39355 0C9.40885 0.000270256 11.0894 1.4316 11.4756 3.33301H12.4941C13.3741 3.33313 14.1023 4.01817 14.1572 4.89648L14.7822 14.8965C14.8419 15.8557 14.0802 16.6669 13.1191 16.667H1.66699C0.705807 16.6669 -0.0558053 15.8558 0.00390625 14.8965L0.628906 4.89648C0.683804 4.01812 1.41192 3.33305 2.29199 3.33301H3.30957C3.69592 1.43138 5.37797 3.32204e-06 7.39355 0ZM4.05957 5.83301C3.5997 5.83318 3.22691 6.20619 3.22656 6.66602C3.22656 7.12614 3.59948 7.49982 4.05957 7.5C4.5197 7.49987 4.89355 7.12617 4.89355 6.66602C4.8932 6.20616 4.51948 5.83314 4.05957 5.83301ZM10.7266 5.83301C10.2665 5.83301 9.89391 6.20608 9.89355 6.66602C9.89355 7.12625 10.2663 7.5 10.7266 7.5C11.1867 7.49987 11.5596 7.12617 11.5596 6.66602C11.5592 6.20616 11.1865 5.83314 10.7266 5.83301ZM7.39355 1.66699C6.30567 1.667 5.38273 2.36289 5.03906 3.33301H9.74805C9.4044 2.36298 8.48126 1.66724 7.39355 1.66699Z" fill="var(--fill-0, #282828)"/>
</svg>
