<svg preserveAspectRatio="none" width="100%" height="100%" overflow="visible" style="display: block;" viewBox="0 0 15 15" fill="none" xmlns="http://www.w3.org/2000/svg">
<g id="Union">
<path d="M0 0.833333C0 0.373096 0.373096 0 0.833333 0H4.16667C4.6269 0 5 0.373096 5 0.833333C5 1.29357 4.6269 1.66667 4.16667 1.66667H1.66667V13.3333H13.3333V10.8333C13.3333 10.3731 13.7064 10 14.1667 10C14.6269 10 15 10.3731 15 10.8333V14.1667C15 14.6269 14.6269 15 14.1667 15H0.833334C0.804569 15 0.776144 14.9985 0.74813 14.9957C0.327917 14.953 0 14.5981 0 14.1667V0.833333Z" fill="var(--fill-0, #282828)"/>
<path d="M9.16691 0C8.70667 0 8.33358 0.373096 8.33358 0.833333C8.33358 1.29357 8.70667 1.66667 9.16691 1.66667L12.1557 1.66667L4.94134 8.881C4.61591 9.20644 4.61591 9.73408 4.94134 10.0595C5.26678 10.385 5.79442 10.385 6.11985 10.0595L13.3336 2.84579V5.83333C13.3336 6.29357 13.7067 6.66667 14.1669 6.66667C14.6271 6.66667 15.0002 6.29357 15.0002 5.83333V0.833333C15.0002 0.373096 14.6271 0 14.1669 0H9.16691Z" fill="var(--fill-0, #282828)"/>
</g>
</svg>
