<svg preserveAspectRatio="none" width="100%" height="100%" overflow="visible" style="display: block;" viewBox="0 0 17 17" fill="none" xmlns="http://www.w3.org/2000/svg">
<path id="Union" d="M8.33301 0C12.9353 0 16.6668 3.73078 16.667 8.33301C16.667 12.9354 12.9354 16.667 8.33301 16.667C3.73078 16.6668 0 12.9353 0 8.33301C0.000175808 3.73089 3.73089 0.000175812 8.33301 0ZM8.33301 1.66699C4.65137 1.66717 1.66717 4.65137 1.66699 8.33301C1.66699 12.0148 4.65126 14.9998 8.33301 15C12.0149 15 15 12.0149 15 8.33301C14.9998 4.65126 12.0148 1.66699 8.33301 1.66699ZM8.375 4.20898C8.70042 3.88359 9.22827 3.88354 9.55371 4.20898L13.0889 7.74414C13.1371 7.79236 13.178 7.84558 13.2119 7.90137C13.2189 7.91288 13.226 7.92465 13.2324 7.93652L13.2373 7.94629C13.2558 7.98146 13.2721 8.01773 13.2852 8.05469C13.3161 8.14184 13.333 8.23624 13.333 8.33398C13.3329 8.40953 13.3226 8.48316 13.3037 8.55273C13.2875 8.61241 13.2641 8.671 13.2344 8.72656C13.1956 8.79885 13.1464 8.86533 13.0889 8.92285L9.55371 12.458C9.22829 12.783 8.70032 12.7832 8.375 12.458C8.0499 12.1327 8.05014 11.6057 8.375 11.2803L10.4883 9.16699H4.16602C3.70632 9.16664 3.3334 8.79367 3.33301 8.33398C3.33301 7.87396 3.70608 7.50035 4.16602 7.5H10.4873L8.375 5.3877C8.04968 5.06238 8.04999 4.53443 8.375 4.20898Z" fill="var(--fill-0, #282828)"/>
</svg>
