<svg preserveAspectRatio="none" width="100%" height="100%" overflow="visible" style="display: block;" viewBox="0 0 20 20" fill="none" xmlns="http://www.w3.org/2000/svg">
<path id="Union" d="M15 0C15.5523 0 16 0.447715 16 1V2H18C19.1046 2 20 2.89543 20 4V18C20 19.1046 19.1046 20 18 20H2C0.895431 20 4.02666e-08 19.1046 0 18V4C0 2.89543 0.895431 2 2 2H4V1C4 0.447715 4.44772 0 5 0C5.55228 0 6 0.447715 6 1V2H14V1C14 0.447715 14.4477 0 15 0ZM5 15C4.44772 15 4 15.4477 4 16C4 16.5523 4.44772 17 5 17C5.55228 17 6 16.5523 6 16C6 15.4477 5.55228 15 5 15ZM10 15C9.44772 15 9 15.4477 9 16C9 16.5523 9.44772 17 10 17C10.5523 17 11 16.5523 11 16C11 15.4477 10.5523 15 10 15ZM15 15C14.4477 15 14 15.4477 14 16C14 16.5523 14.4477 17 15 17C15.5523 17 16 16.5523 16 16C16 15.4477 15.5523 15 15 15ZM5 10C4.44772 10 4 10.4477 4 11C4 11.5523 4.44772 12 5 12C5.55228 12 6 11.5523 6 11C6 10.4477 5.55228 10 5 10ZM10 10C9.44772 10 9 10.4477 9 11C9 11.5523 9.44772 12 10 12C10.5523 12 11 11.5523 11 11C11 10.4477 10.5523 10 10 10ZM15 10C14.4477 10 14 10.4477 14 11C14 11.5523 14.4477 12 15 12C15.5523 12 16 11.5523 16 11C16 10.4477 15.5523 10 15 10ZM2 7H18V4H2V7Z" fill="var(--fill-0, #282828)"/>
</svg>
