<svg preserveAspectRatio="none" width="100%" height="100%" overflow="visible" style="display: block;" viewBox="0 0 10 10" fill="none" xmlns="http://www.w3.org/2000/svg">
<path id="Subtract" d="M5 0C7.76142 0 10 2.23858 10 5C10 7.76142 7.76142 10 5 10C2.23858 10 0 7.76142 0 5C0 2.23858 2.23858 0 5 0ZM7.65137 3.23242C7.4561 3.03722 7.13957 3.03719 6.94434 3.23242L4.46973 5.70703L3.05566 4.29297C2.86044 4.09775 2.54389 4.09784 2.34863 4.29297C2.15338 4.48822 2.15337 4.80474 2.34863 5L4.11621 6.76758C4.31147 6.96284 4.62799 6.96283 4.82324 6.76758L7.65137 3.93945C7.84662 3.7442 7.84663 3.42768 7.65137 3.23242Z" fill="var(--fill-0, #282828)"/>
</svg>
