<svg preserveAspectRatio="none" width="100%" height="100%" overflow="visible" style="display: block;" viewBox="0 0 14 17" fill="none" xmlns="http://www.w3.org/2000/svg">
<path id="Union" fill-rule="evenodd" clip-rule="evenodd" d="M5 0.833333C5 0.373096 5.3731 0 5.83333 0H7.5C7.96024 0 8.33333 0.373096 8.33333 0.833333C8.33333 1.29357 7.96024 1.66667 7.5 1.66667H12.5C12.9602 1.66667 13.3333 2.03976 13.3333 2.5C13.3333 2.96024 12.9602 3.33333 12.5 3.33333H12.4074L11.7541 15.0925C11.7051 15.9756 10.9746 16.6667 10.09 16.6667H3.24331C2.35875 16.6667 1.62828 15.9756 1.57921 15.0925L0.925926 3.33333H0.833333C0.373096 3.33333 0 2.96024 0 2.5C0 2.03976 0.373096 1.66667 0.833333 1.66667H5.83333C5.3731 1.66667 5 1.29357 5 0.833333ZM5 5.83333C4.53976 5.83333 4.16667 6.20643 4.16667 6.66667V11.6667C4.16667 12.1269 4.53976 12.5 5 12.5C5.46024 12.5 5.83333 12.1269 5.83333 11.6667V6.66667C5.83333 6.20643 5.46024 5.83333 5 5.83333ZM8.33333 5.83333C7.8731 5.83333 7.5 6.20643 7.5 6.66667V11.6667C7.5 12.1269 7.8731 12.5 8.33333 12.5C8.79357 12.5 9.16667 12.1269 9.16667 11.6667V6.66667C9.16667 6.20643 8.79357 5.83333 8.33333 5.83333Z" fill="var(--fill-0, #282828)"/>
</svg>
