<svg preserveAspectRatio="none" width="100%" height="100%" overflow="visible" style="display: block;" viewBox="0 0 18 20" fill="none" xmlns="http://www.w3.org/2000/svg">
<path id="Union" d="M8.87116 0C11.2901 0 13.3073 1.71782 13.7706 4H14.9923C16.0483 4 16.9223 4.82105 16.9883 5.875L17.7383 17.875C17.8103 19.0264 16.8959 20 15.7423 20H2.00007C0.846466 20 -0.0679862 19.0264 0.00397426 17.875L0.753974 5.875C0.819968 4.82107 1.69406 4.00004 2.75007 4H3.97175C4.43505 1.71783 6.45227 3.22813e-05 8.87116 0ZM2.00007 18H15.7423L14.9923 6H13.8712V8C13.8712 8.55228 13.4234 9 12.8712 9C12.3189 8.99996 11.8712 8.55226 11.8712 8V6H5.87116V8C5.87116 8.55228 5.42345 9 4.87116 9C4.31891 8.99996 3.87116 8.55226 3.87116 8V6H2.75007L2.00007 18ZM8.87116 2C7.56533 2.00003 6.45709 2.83533 6.04499 4H11.6973C11.2852 2.83533 10.177 2 8.87116 2Z" fill="var(--fill-0, #282828)"/>
</svg>
