<svg preserveAspectRatio="none" width="100%" height="100%" overflow="visible" style="display: block;" viewBox="0 0 8 10" fill="none" xmlns="http://www.w3.org/2000/svg">
<path id="Union" d="M4.5 0C4.77614 0 5 0.223858 5 0.5C5 0.776142 4.77614 1 4.5 1H7.5L7.60059 1.00977C7.82855 1.05629 8 1.25829 8 1.5C8 1.77614 7.77614 2 7.5 2H7.44434L7.05273 9.05566C7.02321 9.58549 6.58438 10 6.05371 10H1.94629C1.41562 10 0.976794 9.58549 0.947266 9.05566L0.555664 2H0.5C0.223858 2 5.31513e-07 1.77614 0 1.5C0 1.22386 0.223858 1 0.5 1H3.5C3.22386 1 3 0.776142 3 0.5C3 0.223858 3.22386 1.12745e-07 3.5 0H4.5ZM1.94629 9H6.05371L6.44336 2H1.55664L1.94629 9ZM3 3.5C3.27614 3.5 3.5 3.72386 3.5 4V7C3.5 7.27614 3.27614 7.5 3 7.5C2.72386 7.5 2.5 7.27614 2.5 7V4C2.5 3.72386 2.72386 3.5 3 3.5ZM5 3.5C5.27614 3.5 5.5 3.72386 5.5 4V7C5.5 7.27614 5.27614 7.5 5 7.5C4.72386 7.5 4.5 7.27614 4.5 7V4C4.5 3.72386 4.72386 3.5 5 3.5Z" fill="var(--fill-0, #282828)"/>
</svg>
