<svg preserveAspectRatio="none" width="100%" height="100%" overflow="visible" style="display: block;" viewBox="0 0 22 20" fill="none" xmlns="http://www.w3.org/2000/svg">
<g id="Union">
<path d="M9.63373 7.82324C9.63373 7.27096 10.0814 6.82324 10.6337 6.82324C11.186 6.82324 11.6337 7.27096 11.6337 7.82324V12.8232C11.6337 13.3755 11.186 13.8232 10.6337 13.8232C10.0814 13.8232 9.63373 13.3755 9.63373 12.8232V7.82324Z" fill="var(--fill-0, #282828)"/>
<path d="M11.6337 15.8232C11.6337 16.3755 11.186 16.8232 10.6337 16.8232C10.0814 16.8232 9.63373 16.3755 9.63373 15.8232C9.63373 15.271 10.0814 14.8232 10.6337 14.8232C11.186 14.8232 11.6337 15.271 11.6337 15.8232Z" fill="var(--fill-0, #282828)"/>
<path fill-rule="evenodd" clip-rule="evenodd" d="M8.87795 1.0423C9.63598 -0.347433 11.6315 -0.347431 12.3895 1.0423L21.0204 16.8656C21.7474 18.1984 20.7828 19.8233 19.2647 19.8233H2.00283C0.484707 19.8233 -0.47992 18.1984 0.247034 16.8656L8.87795 1.0423ZM10.6337 2L19.2647 17.8233L2.00283 17.8233L10.6337 2Z" fill="var(--fill-0, #282828)"/>
</g>
</svg>
