<svg preserveAspectRatio="none" width="100%" height="100%" overflow="visible" style="display: block;" viewBox="0 0 20 20" fill="none" xmlns="http://www.w3.org/2000/svg">
<path id="Subtract" d="M16 0C18.2091 0 20 1.79086 20 4V16C20 18.2091 18.2091 20 16 20H4C1.79086 20 3.22133e-08 18.2091 0 16V4C0 1.79086 1.79086 3.22128e-08 4 0H16ZM10 3C9.44772 3 9 3.44772 9 4V9H4C3.44772 9 3 9.44772 3 10C3 10.5523 3.44772 11 4 11H9V16C9 16.5523 9.44772 17 10 17C10.5523 17 11 16.5523 11 16V11H16C16.5523 11 17 10.5523 17 10C17 9.44772 16.5523 9 16 9H11V4C11 3.44772 10.5523 3 10 3Z" fill="var(--fill-0, #282828)"/>
</svg>
