<svg preserveAspectRatio="none" width="100%" height="100%" overflow="visible" style="display: block;" viewBox="0 0 17 17" fill="none" xmlns="http://www.w3.org/2000/svg">
<path id="Subtract" d="M13.333 0C15.1738 0 16.6668 1.49221 16.667 3.33301V13.333C16.667 15.174 15.174 16.667 13.333 16.667H3.33301C1.49221 16.6668 0 15.1738 0 13.333V3.33301C0.000175726 1.49232 1.49232 0.000175994 3.33301 0H13.333ZM7.45801 4.20898C7.13259 3.88359 6.60474 3.88354 6.2793 4.20898L2.74414 7.74414C2.696 7.79232 2.65498 7.84565 2.62109 7.90137C2.61412 7.91283 2.60701 7.9247 2.60059 7.93652L2.5957 7.94629C2.57726 7.98142 2.56093 8.01778 2.54785 8.05469C2.51695 8.14181 2.5 8.23627 2.5 8.33398C2.50007 8.40953 2.51039 8.48316 2.5293 8.55273C2.54554 8.61244 2.56888 8.67098 2.59863 8.72656C2.63744 8.7989 2.68659 8.86529 2.74414 8.92285L6.2793 12.458C6.60465 12.7831 7.13262 12.7831 7.45801 12.458C7.78316 12.1327 7.78303 11.6057 7.45801 11.2803L5.34473 9.16699H13.333C13.793 9.16699 14.1666 8.79388 14.167 8.33398C14.167 7.87375 13.7932 7.5 13.333 7.5H5.3457L7.45801 5.3877C7.78338 5.06233 7.78318 4.53442 7.45801 4.20898Z" fill="var(--fill-0, #282828)"/>
</svg>
