<svg preserveAspectRatio="none" width="100%" height="100%" overflow="visible" style="display: block;" viewBox="0 0 8 10" fill="none" xmlns="http://www.w3.org/2000/svg">
<path id="Union" d="M7.5 0C7.77614 2.41595e-07 8 0.223858 8 0.5V9.5C8 9.77614 7.77614 10 7.5 10H2C0.895431 10 8.37545e-07 9.10457 0 8C0 7.93707 0.00407942 7.87492 0.00976562 7.81348C0.00406628 7.87491 0 7.93706 0 8V2C0 0.895431 0.895431 0 2 0H7.5ZM2 7C1.44772 7 1 7.44772 1 8C1 8.55228 1.44772 9 2 9H7V7H2ZM0.0830078 7.42773C0.0492489 7.54066 0.0260076 7.65793 0.0126953 7.77832C0.0259728 7.65794 0.0493328 7.54071 0.0830078 7.42773ZM0.144531 7.25293C0.127718 7.29452 0.112667 7.33695 0.0986328 7.37988C0.112632 7.33693 0.127758 7.29455 0.144531 7.25293ZM0.225586 7.07812C0.209768 7.10842 0.195924 7.13972 0.181641 7.1709C0.195893 7.13969 0.2098 7.10845 0.225586 7.07812ZM0.322266 6.91309C0.30379 6.94147 0.286579 6.97065 0.269531 7C0.286549 6.97062 0.30382 6.9415 0.322266 6.91309ZM0.544922 6.62988C0.523731 6.65233 0.502567 6.67484 0.482422 6.69824C0.502551 6.6748 0.523744 6.65237 0.544922 6.62988ZM0.696289 6.48438C0.678287 6.49985 0.660992 6.51614 0.643555 6.53223C0.66099 6.51611 0.678287 6.49987 0.696289 6.48438ZM0.811523 6.39355C0.797862 6.40367 0.7839 6.41338 0.770508 6.42383C0.783904 6.41336 0.797857 6.40368 0.811523 6.39355ZM2 1C1.44772 1 1 1.44772 1 2V6.26953C1.29437 6.09906 1.63536 6 2 6H7V1H2Z" fill="var(--fill-0, #282828)"/>
</svg>
