<svg preserveAspectRatio="none" width="100%" height="100%" overflow="visible" style="display: block;" viewBox="0 0 18 17" fill="none" xmlns="http://www.w3.org/2000/svg">
<path id="Subtract" d="M7.39827 0.868109C8.03004 -0.289405 9.69222 -0.289334 10.3241 0.868109L17.5164 14.0546C18.1222 15.1653 17.3186 16.5195 16.0535 16.5195H1.66878C0.403725 16.5194 -0.399894 15.1652 0.205888 14.0546L7.39827 0.868109ZM8.86116 12.3535C8.40108 12.3536 8.02816 12.7263 8.02815 13.1865C8.02834 13.6464 8.40119 14.0193 8.86116 14.0195C9.32119 14.0194 9.69496 13.6465 9.69515 13.1865C9.69514 12.7263 9.3213 12.3536 8.86116 12.3535ZM8.86116 5.68647C8.40118 5.68664 8.02833 6.0595 8.02815 6.51948V10.6865C8.02834 11.1464 8.40119 11.5193 8.86116 11.5195C9.32119 11.5194 9.69496 11.1465 9.69515 10.6865V6.51948C9.69497 6.05945 9.3212 5.68658 8.86116 5.68647Z" fill="var(--fill-0, #282828)"/>
</svg>
