<svg preserveAspectRatio="none" width="100%" height="100%" overflow="visible" style="display: block;" viewBox="0 0 10 9" fill="none" xmlns="http://www.w3.org/2000/svg">
<path id="Union" d="M7 8C7.27614 8 7.5 8.22386 7.5 8.5C7.5 8.77614 7.27614 9 7 9H3C2.72386 9 2.5 8.77614 2.5 8.5C2.5 8.22386 2.72386 8 3 8H4.5V7H1C0.447715 7 0 6.55228 0 6V1C4.60186e-09 0.447715 0.447715 8.05319e-09 1 0H9C9.55228 1.28851e-07 10 0.447715 10 1V6C10 6.55228 9.55228 7 9 7H5.5V8H7Z" fill="var(--fill-0, #282828)"/>
</svg>
