<svg preserveAspectRatio="none" width="100%" height="100%" overflow="visible" style="display: block;" viewBox="0 0 10 10" fill="none" xmlns="http://www.w3.org/2000/svg">
<path id="Union" fill-rule="evenodd" clip-rule="evenodd" d="M7.71328 9.20048C9.08938 8.30977 10 6.76123 10 5C10 2.23858 7.76142 0 5 0C2.23858 0 0 2.23858 0 5C0 6.72589 0.874444 8.24754 2.20445 9.14608C2.23168 9.16448 2.25911 9.18261 2.28672 9.20048C3.0682 9.70632 3.9998 10 5 10C6.0002 10 6.9318 9.70632 7.71328 9.20048ZM7.64635 7.99954C6.94115 8.62218 6.0147 9 5 9C3.9853 9 3.05885 8.62218 2.35365 7.99954C2.68027 6.84553 3.74139 6 5 6C6.25861 6 7.31973 6.84553 7.64635 7.99954ZM5 5.5C5.82843 5.5 6.5 4.82843 6.5 4C6.5 3.17157 5.82843 2.5 5 2.5C4.17157 2.5 3.5 3.17157 3.5 4C3.5 4.82843 4.17157 5.5 5 5.5Z" fill="var(--fill-0, #282828)"/>
</svg>
