<svg preserveAspectRatio="none" width="100%" height="100%" overflow="visible" style="display: block;" viewBox="0 0 17 17" fill="none" xmlns="http://www.w3.org/2000/svg">
<g id="Union">
<path d="M9.16667 5C9.16667 5.46024 8.79357 5.83333 8.33333 5.83333C7.8731 5.83333 7.5 5.46024 7.5 5C7.5 4.53976 7.8731 4.16667 8.33333 4.16667C8.79357 4.16667 9.16667 4.53976 9.16667 5Z" fill="var(--fill-0, #282828)"/>
<path d="M7.5 7.5C7.5 7.03976 7.8731 6.66667 8.33333 6.66667C8.79357 6.66667 9.16667 7.03976 9.16667 7.5V11.6667C9.16667 12.1269 8.79357 12.5 8.33333 12.5C7.8731 12.5 7.5 12.1269 7.5 11.6667V7.5Z" fill="var(--fill-0, #282828)"/>
<path fill-rule="evenodd" clip-rule="evenodd" d="M16.6667 8.33333C16.6667 12.9357 12.9357 16.6667 8.33333 16.6667C3.73096 16.6667 0 12.9357 0 8.33333C0 3.73096 3.73096 0 8.33333 0C12.9357 0 16.6667 3.73096 16.6667 8.33333ZM15 8.33333C15 12.0152 12.0152 15 8.33333 15C4.65143 15 1.66667 12.0152 1.66667 8.33333C1.66667 4.65143 4.65143 1.66667 8.33333 1.66667C12.0152 1.66667 15 4.65143 15 8.33333Z" fill="var(--fill-0, #282828)"/>
</g>
</svg>
