<svg preserveAspectRatio="none" width="100%" height="100%" overflow="visible" style="display: block;" viewBox="0 0 14 17" fill="none" xmlns="http://www.w3.org/2000/svg">
<path id="Subtract" d="M6.70703 0C10.4112 5.15404e-07 13.4141 3.00284 13.4141 6.70703C13.4141 12.4673 8.467 15.7543 7.07031 16.5674C6.8423 16.7001 6.57176 16.7001 6.34375 16.5674C4.94706 15.7543 3.82239e-06 12.4673 0 6.70703C0 3.00284 3.00284 0 6.70703 0ZM6.70703 3.35352C4.85494 3.35352 3.35352 4.85494 3.35352 6.70703C3.35365 8.55901 4.85502 10.0605 6.70703 10.0605C8.55904 10.0605 10.0604 8.55901 10.0605 6.70703C10.0605 4.85494 8.55913 3.35352 6.70703 3.35352Z" fill="var(--fill-0, #282828)"/>
</svg>
