<svg preserveAspectRatio="none" width="100%" height="100%" overflow="visible" style="display: block;" viewBox="0 0 17 14" fill="none" xmlns="http://www.w3.org/2000/svg">
<path id="Union" d="M15 0C15.9205 1.93277e-07 16.667 0.746518 16.667 1.66699V11.667C16.6668 12.5873 15.9204 13.333 15 13.333H1.66699C0.746626 13.333 0.00017605 12.5873 0 11.667V1.66699C0 0.746518 0.746518 0 1.66699 0H15ZM1.66699 11.667H15V1.66699H1.66699V11.667ZM11.8691 3.18164C12.1946 2.85635 12.7225 2.85625 13.0479 3.18164C13.373 3.50704 13.3731 4.03497 13.0479 4.36035L8.92285 8.48535C8.59747 8.81066 8.06957 8.81058 7.74414 8.48535L3.61914 4.36035C3.29374 4.03493 3.29377 3.50708 3.61914 3.18164C3.94457 2.85621 4.47241 2.85622 4.79785 3.18164L8.33301 6.7168L11.8691 3.18164Z" fill="var(--fill-0, #282828)"/>
</svg>
