<svg preserveAspectRatio="none" width="100%" height="100%" overflow="visible" style="display: block;" viewBox="0 0 17 17" fill="none" xmlns="http://www.w3.org/2000/svg">
<path id="Union" fill-rule="evenodd" clip-rule="evenodd" d="M1.66667 16.6667C0.746193 16.6667 0 15.9215 0 15.0023V6.63279C0 6.10755 0.248291 5.61312 0.669822 5.29897L7.33649 0.33051C7.92779 -0.11017 8.73888 -0.11017 9.33018 0.33051L15.9968 5.29897C16.4184 5.61312 16.6667 6.10755 16.6667 6.63279V15.0023C16.6667 15.9215 15.9205 16.6667 15 16.6667H1.66667ZM8.33423 1.66687L15 6.63466V15H10V10.8333C10 9.91286 9.25381 9.16667 8.33333 9.16667C7.41286 9.16667 6.66667 9.91286 6.66667 10.8333V15H1.66667L1.66667 6.63466L8.33244 1.66687L8.33333 1.66667L8.33423 1.66687Z" fill="var(--fill-0, #282828)"/>
</svg>
