<svg preserveAspectRatio="none" width="100%" height="100%" overflow="visible" style="display: block;" viewBox="0 0 20 18" fill="none" xmlns="http://www.w3.org/2000/svg">
<g id="Union">
<path d="M6 9C5.44772 9 5 9.44771 5 10C5 10.5523 5.44772 11 6 11H14C14.5523 11 15 10.5523 15 10C15 9.44771 14.5523 9 14 9H6Z" fill="var(--fill-0, #282828)"/>
<path fill-rule="evenodd" clip-rule="evenodd" d="M2 0C0.895431 0 0 0.895431 0 2V16C0 17.1046 0.895431 18 2 18H18C19.1046 18 20 17.1046 20 16V4C20 2.89543 19.1046 2 18 2H12.2692L10.2335 0.420027C9.88271 0.147773 9.45129 0 9.00725 0H2ZM9.00725 2L11.5842 4H18V16H2V2L9.00725 2Z" fill="var(--fill-0, #282828)"/>
</g>
</svg>
