<svg preserveAspectRatio="none" width="100%" height="100%" overflow="visible" style="display: block;" viewBox="0 0 14 14" fill="none" xmlns="http://www.w3.org/2000/svg">
<path id="Subtract" d="M10.667 0C12.1396 0.000175102 13.333 1.19434 13.333 2.66699V10.667C13.3328 12.1395 12.1395 13.3328 10.667 13.333H2.66699C1.19434 13.333 0.000176068 12.1396 0 10.667V2.66699C0 1.19423 1.19423 0 2.66699 0H10.667ZM9.9668 3.36719C9.70645 3.10684 9.28379 3.10684 9.02344 3.36719L6.66699 5.72363L4.30957 3.36719C4.04922 3.10684 3.62754 3.10684 3.36719 3.36719C3.10686 3.62754 3.10684 4.04923 3.36719 4.30957L5.72363 6.66699L3.36719 9.02344C3.10684 9.28379 3.10684 9.70645 3.36719 9.9668C3.62749 10.2267 4.04931 10.2268 4.30957 9.9668L6.66699 7.60938L9.02344 9.9668C9.28378 10.2271 9.70645 10.2271 9.9668 9.9668C10.2271 9.70646 10.2271 9.28379 9.9668 9.02344L7.60938 6.66699L9.9668 4.30957C10.2269 4.04932 10.2268 3.62751 9.9668 3.36719Z" fill="var(--fill-0, #282828)"/>
</svg>
