<svg preserveAspectRatio="none" width="100%" height="100%" overflow="visible" style="display: block;" viewBox="0 0 16 20" fill="none" xmlns="http://www.w3.org/2000/svg">
<g id="Union">
<path d="M8.99963 1.02837C8.99988 1.01894 9 1.00949 9 1C9 0.447708 8.55231 0 8 0C7.44769 0 7 0.447708 7 1C7 1.00949 7.00012 1.01894 7.00037 1.02837C4.12012 1.30838 1.81213 3.62988 1.60199 6.57251L1 15C0.447693 15 0 15.4477 0 16C0 16.5523 0.447693 17 1 17H15C15.5523 17 16 16.5523 16 16C16 15.4477 15.5523 15 15 15L14.398 6.57251C14.1879 3.62988 11.8799 1.30838 8.99963 1.02837Z" fill="var(--fill-0, #282828)"/>
<path d="M8 20C9.10455 20 10 19.1046 10 18H6C6 19.1046 6.89545 20 8 20Z" fill="var(--fill-0, #282828)"/>
</g>
</svg>
