<svg preserveAspectRatio="none" width="100%" height="100%" overflow="visible" style="display: block;" viewBox="0 0 20 18" fill="none" xmlns="http://www.w3.org/2000/svg">
<path id="Union" d="M1.22266 1.22168C1.61318 0.831155 2.24619 0.831155 2.63672 1.22168L16.7793 15.3633C16.7806 15.3646 16.7819 15.3659 16.7832 15.3672C16.7919 15.3754 16.8009 15.3836 16.8096 15.3916C16.8084 15.3925 16.8068 15.3927 16.8057 15.3936C17.168 15.7857 17.1599 16.3963 16.7793 16.7773C16.3888 17.1679 15.7548 17.1679 15.3643 16.7773L15.002 16.415C14.7125 16.5327 14.4157 16.6364 14.1104 16.7197C14.0734 16.7298 14.0364 16.7371 14 16.7422V15.4131L12 13.4131V17.002C11.9996 17.8255 11.0595 18.2956 10.4004 17.8018L4 13.002H1C0.44787 13.002 0.000251559 12.554 0 12.002V6.00195C7.93383e-06 5.44968 0.44772 5.00195 1 5.00195H3.58887L1.22266 2.63574C0.832166 2.24525 0.832233 1.61221 1.22266 1.22168ZM4.66699 7.00195H2V11.002H4.66699L10 15.002V11.4131L5.19336 6.60645L4.66699 7.00195ZM14.1104 1.28223C17.5038 2.2081 19.9998 5.31347 20 9.00098C20 10.8942 19.3407 12.6328 18.2412 14.0029C18.2256 13.9849 18.2105 13.9663 18.1934 13.9492L16.8184 12.5742C17.5602 11.5761 18 10.3403 18 9.00098C17.9998 6.38877 16.3303 4.16636 14 3.34277V1.25977C14.0364 1.26487 14.0734 1.27215 14.1104 1.28223ZM14 5.00098C15.2148 5.91321 16 7.36609 16 9.00195C15.9999 9.8031 15.8096 10.5593 15.4746 11.2305L14 9.75586V5.00098ZM10.4004 0.201172C11.0596 -0.292758 12 0.178085 12 1.00195V7.75586L10 5.75586V3.00195L8.42578 4.18164L6.99707 2.75293L10.4004 0.201172Z" fill="var(--fill-0, #282828)"/>
</svg>
