<svg preserveAspectRatio="none" width="100%" height="100%" overflow="visible" style="display: block;" viewBox="0 0 17 4" fill="none" xmlns="http://www.w3.org/2000/svg">
<g id="Union">
<path d="M1.66667 0C2.58714 0 3.33333 0.746192 3.33333 1.66667C3.33333 2.58714 2.58714 3.33333 1.66667 3.33333C0.746192 3.33333 0 2.58714 0 1.66667C0 0.746192 0.746192 0 1.66667 0Z" fill="var(--fill-0, #282828)"/>
<path d="M8.33333 0C9.25381 0 10 0.746192 10 1.66667C10 2.58714 9.25381 3.33333 8.33333 3.33333C7.41286 3.33333 6.66667 2.58714 6.66667 1.66667C6.66667 0.746192 7.41286 0 8.33333 0Z" fill="var(--fill-0, #282828)"/>
<path d="M16.6667 1.66667C16.6667 0.746192 15.9205 0 15 0C14.0795 0 13.3333 0.746192 13.3333 1.66667C13.3333 2.58714 14.0795 3.33333 15 3.33333C15.9205 3.33333 16.6667 2.58714 16.6667 1.66667Z" fill="var(--fill-0, #282828)"/>
</g>
</svg>
