<svg preserveAspectRatio="none" width="100%" height="100%" overflow="visible" style="display: block;" viewBox="0 0 20 20" fill="none" xmlns="http://www.w3.org/2000/svg">
<path id="Union" fill-rule="evenodd" clip-rule="evenodd" d="M15.1764 13.7621C17.8126 10.4259 17.5906 5.56982 14.5104 2.48959C11.191 -0.829864 5.80905 -0.829865 2.48959 2.48959C-0.829864 5.80905 -0.829864 11.191 2.48959 14.5104C5.56982 17.5906 10.4259 17.8126 13.7621 15.1764L17.3388 18.753C17.7294 19.1436 18.3625 19.1436 18.753 18.753C19.1436 18.3625 19.1436 17.7294 18.753 17.3388L15.1764 13.7621ZM13.0962 3.90381C15.6346 6.44221 15.6346 10.5578 13.0962 13.0962C10.5578 15.6346 6.44221 15.6346 3.90381 13.0962C1.3654 10.5578 1.3654 6.44221 3.90381 3.90381C6.44221 1.3654 10.5578 1.3654 13.0962 3.90381Z" fill="var(--fill-0, #282828)"/>
</svg>
