<svg preserveAspectRatio="none" width="100%" height="100%" overflow="visible" style="display: block;" viewBox="0 0 14 11" fill="none" xmlns="http://www.w3.org/2000/svg">
<path id="Union" d="M9.46447 0.292889C9.07393 -0.0976512 8.44075 -0.097608 8.05026 0.292889C7.65976 0.683386 7.65972 1.31656 8.05026 1.7071L10.5858 4.24268H1C0.447716 4.24268 0 4.69039 0 5.24268C0 5.79496 0.447716 6.24268 1 6.24268H10.5858L8.05026 8.77817C7.65976 9.16867 7.65972 9.80184 8.05026 10.1924C8.4408 10.5829 9.07397 10.5829 9.46447 10.1924L13.7021 5.95474C13.7192 5.93785 13.7358 5.92034 13.7516 5.90226C13.8215 5.82284 13.8766 5.73499 13.917 5.64227C13.9704 5.51988 14 5.38474 14 5.24268C14 5.11463 13.9759 4.9922 13.9321 4.87967C13.8833 4.75429 13.8083 4.63676 13.7071 4.53553L9.46447 0.292889Z" fill="var(--fill-0, #282828)"/>
</svg>
