<svg preserveAspectRatio="none" width="100%" height="100%" overflow="visible" style="display: block;" viewBox="0 0 16 20" fill="none" xmlns="http://www.w3.org/2000/svg">
<g id="Union">
<path fill-rule="evenodd" clip-rule="evenodd" d="M8.99961 1.02836C8.99987 1.01894 9 1.00949 9 1C9 0.447715 8.55229 0 8 0C7.44772 0 7 0.447715 7 1C7 1.00949 7.00013 1.01894 7.00039 1.02836C4.12012 1.30837 1.81215 3.62989 1.60196 6.57252L1 15C0.447715 15 0 15.4477 0 16C0 16.5523 0.447715 17 1 17H15C15.5523 17 16 16.5523 16 16C16 15.4477 15.5523 15 15 15L14.398 6.57252C14.1878 3.62989 11.8799 1.30837 8.99961 1.02836ZM12.9949 15L12.4031 6.71501C12.2536 4.62179 10.5118 3 8.41328 3H7.58672C5.48816 3 3.7464 4.62179 3.59688 6.71501L3.0051 15H12.9949Z" fill="var(--fill-0, #282828)"/>
<path d="M10 18C10 19.1046 9.10457 20 8 20C6.89543 20 6 19.1046 6 18H10Z" fill="var(--fill-0, #282828)"/>
</g>
</svg>
