<svg preserveAspectRatio="none" width="100%" height="100%" overflow="visible" style="display: block;" viewBox="0 0 7 6" fill="none" xmlns="http://www.w3.org/2000/svg">
<path id="Union" d="M4.73224 0.146444C4.53697 -0.0488256 4.22038 -0.048804 4.02513 0.146444C3.82988 0.341693 3.82986 0.658281 4.02513 0.853551L5.29292 2.12134H0.5C0.223858 2.12134 0 2.3452 0 2.62134C0 2.89748 0.223858 3.12134 0.5 3.12134H5.29288L4.02513 4.38909C3.82988 4.58433 3.82986 4.90092 4.02513 5.09619C4.2204 5.29146 4.53699 5.29144 4.73224 5.09619L6.85106 2.97737C6.85962 2.96892 6.86788 2.96017 6.87582 2.95113C6.91074 2.91142 6.9383 2.8675 6.95849 2.82113C6.98519 2.75994 7 2.69237 7 2.62134C7 2.55731 6.98797 2.4961 6.96604 2.43984C6.94166 2.37714 6.90417 2.31838 6.85356 2.26777L4.73224 0.146444Z" fill="var(--fill-0, #282828)"/>
</svg>
