<svg preserveAspectRatio="none" width="100%" height="100%" overflow="visible" style="display: block;" viewBox="0 0 6 10" fill="none" xmlns="http://www.w3.org/2000/svg">
<path id="Union" d="M4.38957 6.14639C4.58485 5.95134 4.90141 5.9512 5.0966 6.14639C5.29156 6.3416 5.29157 6.65822 5.0966 6.85342L2.97453 8.97452C2.77927 9.16973 2.46275 9.16976 2.2675 8.97452L0.146407 6.85342C-0.048808 6.65817 -0.0487968 6.34165 0.146407 6.14639C0.341659 5.95114 0.658174 5.95116 0.853438 6.14639L2.62102 7.91397L4.38957 6.14639ZM2.2675 0.14639C2.46273 -0.0488344 2.77926 -0.0487589 2.97453 0.14639L5.0966 2.26748C5.29159 2.46263 5.29144 2.77927 5.0966 2.97452C4.90134 3.16978 4.58386 3.16978 4.38859 2.97452L2.62102 1.20694L0.853438 2.97452C0.658176 3.16978 0.341669 3.16978 0.146407 2.97452C-0.0487414 2.77924 -0.0488171 2.46271 0.146407 2.26748L2.2675 0.14639Z" fill="var(--fill-0, #282828)"/>
</svg>
