<svg preserveAspectRatio="none" width="100%" height="100%" overflow="visible" style="display: block;" viewBox="0 0 20 20" fill="none" xmlns="http://www.w3.org/2000/svg">
<path id="Subtract" d="M16 0C18.2091 0 20 1.79086 20 4V16C20 18.2091 18.2091 20 16 20H4C1.79086 20 3.22133e-08 18.2091 0 16V4C0 1.79086 1.79086 3.22128e-08 4 0H16ZM12.4648 5.0498C12.0744 4.65954 11.4403 4.65958 11.0498 5.0498C10.6597 5.44017 10.6598 6.07338 11.0498 6.46387L13.5859 8.99902H4C3.44801 8.99902 3.00048 9.44715 3 9.99902C3 10.5513 3.44772 10.999 4 10.999H13.5859L11.0498 13.5352C10.6598 13.9255 10.6598 14.5587 11.0498 14.9492C11.4403 15.3398 12.0743 15.3397 12.4648 14.9492L16.707 10.707C16.738 10.676 16.7659 10.6422 16.792 10.6084C16.8057 10.5906 16.8195 10.5725 16.832 10.5537C16.8599 10.512 16.8844 10.4684 16.9053 10.4238C16.9253 10.3811 16.9431 10.3367 16.957 10.291C16.962 10.2744 16.9656 10.257 16.9697 10.2402C16.9888 10.1632 17 10.082 17 9.99902C16.9999 9.84726 16.9659 9.70303 16.9053 9.57422C16.8843 9.52969 16.8599 9.486 16.832 9.44434C16.7954 9.38962 16.7534 9.33836 16.707 9.29199L12.4648 5.0498Z" fill="var(--fill-0, #282828)"/>
</svg>
