<svg preserveAspectRatio="none" width="100%" height="100%" overflow="visible" style="display: block;" viewBox="0 0 20 20" fill="none" xmlns="http://www.w3.org/2000/svg">
<path id="Union" fill-rule="evenodd" clip-rule="evenodd" d="M2 20C0.895431 20 0 19.1058 0 18.0028V7.95935C0 7.32906 0.297949 6.73575 0.803786 6.35876L8.80379 0.396612C9.51335 -0.132204 10.4867 -0.132204 11.1962 0.396612L19.1962 6.35876C19.702 6.73575 20 7.32906 20 7.95935V18.0028C20 19.1058 19.1046 20 18 20H2ZM10.0011 2.00025L18 7.9616V18H12V13C12 11.8954 11.1046 11 10 11C8.89543 11 8 11.8954 8 13V18H2L2 7.9616L9.99893 2.00025L10 2L10.0011 2.00025Z" fill="var(--fill-0, #282828)"/>
</svg>
