<svg preserveAspectRatio="none" width="100%" height="100%" overflow="visible" style="display: block;" viewBox="0 0 20 16" fill="none" xmlns="http://www.w3.org/2000/svg">
<path id="Union" d="M10 0C14.8111 1.2514e-07 18.8538 3.29072 20 7.74414C18.8537 12.1975 14.8111 15.4883 10 15.4883C5.18893 15.4883 1.14627 12.1975 0 7.74414C1.14622 3.29072 5.18887 0 10 0ZM10 3.74414C7.79086 3.74414 6 5.535 6 7.74414C6.00007 9.95322 7.7909 11.7441 10 11.7441C12.2091 11.7441 13.9999 9.95322 14 7.74414C14 5.535 12.2091 3.74414 10 3.74414ZM10 5.74414C11.1046 5.74414 12 6.63957 12 7.74414C11.9999 8.84865 11.1045 9.74414 10 9.74414C8.89547 9.74414 8.00007 8.84865 8 7.74414C8 6.63957 8.89543 5.74414 10 5.74414Z" fill="var(--fill-0, #282828)"/>
</svg>
