<svg preserveAspectRatio="none" width="100%" height="100%" overflow="visible" style="display: block;" viewBox="0 0 17 17" fill="none" xmlns="http://www.w3.org/2000/svg">
<path id="Union" d="M8.33301 0C12.9353 0 16.6668 3.73078 16.667 8.33301C16.667 12.9354 12.9354 16.667 8.33301 16.667C3.73078 16.6668 0 12.9353 0 8.33301C0.000175808 3.73089 3.73089 0.000175812 8.33301 0ZM8.33301 1.66699C4.65137 1.66717 1.66717 4.65137 1.66699 8.33301C1.66699 12.0148 4.65126 14.9998 8.33301 15C12.0149 15 15 12.0149 15 8.33301C14.9998 4.65126 12.0148 1.66699 8.33301 1.66699ZM5 7.5C5.45998 7.50018 5.83381 7.87303 5.83398 8.33301C5.83398 8.79314 5.46009 9.16682 5 9.16699C4.53991 9.16682 4.16699 8.79314 4.16699 8.33301C4.16717 7.87303 4.54002 7.50018 5 7.5ZM8.33398 7.5C8.79381 7.50035 9.16682 7.87314 9.16699 8.33301C9.16699 8.79303 8.79392 9.16664 8.33398 9.16699C7.87375 9.16699 7.5 8.79324 7.5 8.33301C7.50018 7.87292 7.87386 7.5 8.33398 7.5ZM11.667 7.5C12.127 7.50018 12.4998 7.87303 12.5 8.33301C12.5 8.79314 12.1271 9.16682 11.667 9.16699C11.2068 9.16699 10.834 8.79324 10.834 8.33301C10.8342 7.87292 11.2069 7.5 11.667 7.5Z" fill="var(--fill-0, #282828)"/>
</svg>
