<svg preserveAspectRatio="none" width="100%" height="100%" overflow="visible" style="display: block;" viewBox="0 0 17 13" fill="none" xmlns="http://www.w3.org/2000/svg">
<path id="Union" d="M8.33301 0C12.3422 0 15.7118 2.74199 16.667 6.45312C15.7118 10.1643 12.3423 12.9062 8.33301 12.9062C4.32388 12.9061 0.955158 10.1642 0 6.45312C0.955222 2.74213 4.32394 0.00014823 8.33301 0ZM8.33301 3.12012C6.49228 3.12029 5.00012 4.61239 5 6.45312C5 8.29397 6.49221 9.78693 8.33301 9.78711C10.174 9.78711 11.667 8.29407 11.667 6.45312C11.6669 4.61228 10.1739 3.12012 8.33301 3.12012ZM8.33301 4.78711C9.25341 4.78711 9.99988 5.53275 10 6.45312C10 7.3736 9.25348 8.12012 8.33301 8.12012C7.41268 8.11994 6.66699 7.37349 6.66699 6.45312C6.66711 5.53286 7.41276 4.78729 8.33301 4.78711Z" fill="var(--fill-0, #282828)"/>
</svg>
