<svg preserveAspectRatio="none" width="100%" height="100%" overflow="visible" style="display: block;" viewBox="0 0 11 14" fill="none" xmlns="http://www.w3.org/2000/svg">
<path id="Union" d="M6 0C6.36819 6.44255e-08 6.66699 0.298802 6.66699 0.666992C6.66682 1.03503 6.36808 1.33301 6 1.33301H10L10.1348 1.34668C10.4384 1.40898 10.667 1.67796 10.667 2C10.667 2.36819 10.3682 2.66699 10 2.66699H9.92578L9.40332 12.0742C9.36394 12.7806 8.77971 13.3329 8.07227 13.333H2.59473C1.88717 13.333 1.30306 12.7806 1.26367 12.0742L0.741211 2.66699H0.666992C0.298803 2.66699 3.22131e-07 2.36819 0 2C0 1.63181 0.298802 1.33301 0.666992 1.33301H4.66699C4.29891 1.33301 4.00018 1.03503 4 0.666992C4 0.298802 4.2988 0 4.66699 0H6ZM2.59473 12H8.07227L8.59082 2.66699H2.07617L2.59473 12ZM4 4.66699C4.36808 4.66699 4.66682 4.96497 4.66699 5.33301V9.33301C4.66699 9.7012 4.36819 10 4 10C3.63181 10 3.33301 9.7012 3.33301 9.33301V5.33301C3.33318 4.96497 3.63192 4.66699 4 4.66699ZM6.66699 4.66699C7.03492 4.66717 7.33283 4.96508 7.33301 5.33301V9.33301C7.33301 9.70109 7.03503 9.99982 6.66699 10C6.2988 10 6 9.7012 6 9.33301V5.33301C6.00018 4.96497 6.29891 4.66699 6.66699 4.66699Z" fill="var(--fill-0, #282828)"/>
</svg>
