<svg preserveAspectRatio="none" width="100%" height="100%" overflow="visible" style="display: block;" viewBox="0 0 12 20" fill="none" xmlns="http://www.w3.org/2000/svg">
<path id="Subtract" d="M10 0C11.1046 1.28851e-07 12 0.895431 12 2V18C12 19.1046 11.1046 20 10 20H2C0.895431 20 1.61067e-08 19.1046 0 18V2C2.57706e-07 0.895431 0.895431 3.22128e-08 2 0H10ZM5 15C4.44772 15 4 15.4477 4 16C4 16.5523 4.44772 17 5 17H7C7.55228 17 8 16.5523 8 16C8 15.4477 7.55228 15 7 15H5Z" fill="var(--fill-0, #282828)"/>
</svg>
