<svg preserveAspectRatio="none" width="100%" height="100%" overflow="visible" style="display: block;" viewBox="0 0 20 20" fill="none" xmlns="http://www.w3.org/2000/svg">
<path id="Union" d="M2 18.125H18V9H2V18.125ZM5 15C5.55228 15 6 15.4477 6 16C6 16.5523 5.55228 17 5 17C4.44772 17 4 16.5523 4 16C4 15.4477 4.44772 15 5 15ZM10 15C10.5523 15 11 15.4477 11 16C11 16.5523 10.5523 17 10 17C9.44772 17 9 16.5523 9 16C9 15.4477 9.44772 15 10 15ZM15 15C15.5523 15 16 15.4477 16 16C16 16.5523 15.5523 17 15 17C14.4477 17 14 16.5523 14 16C14 15.4477 14.4477 15 15 15ZM5 10C5.55228 10 6 10.4477 6 11C6 11.5523 5.55228 12 5 12C4.44772 12 4 11.5523 4 11C4 10.4477 4.44772 10 5 10ZM10 10C10.5523 10 11 10.4477 11 11C11 11.5523 10.5523 12 10 12C9.44772 12 9 11.5523 9 11C9 10.4477 9.44772 10 10 10ZM15 10C15.5523 10 16 10.4477 16 11C16 11.5523 15.5523 12 15 12C14.4477 12 14 11.5523 14 11C14 10.4477 14.4477 10 15 10ZM2 7H18V4H2V7ZM20 18.125C20 19.1605 19.1046 20 18 20H2C0.895431 20 0 19.1605 0 18.125V4C0 2.89543 0.895431 2 2 2H4V1C4 0.447715 4.44772 0 5 0C5.55228 0 6 0.447715 6 1V2H14V1C14 0.447715 14.4477 0 15 0C15.5523 0 16 0.447715 16 1V2H18C19.1046 2 20 2.89543 20 4V18.125Z" fill="var(--fill-0, #282828)"/>
</svg>
