<svg preserveAspectRatio="none" width="100%" height="100%" overflow="visible" style="display: block;" viewBox="0 0 10 8" fill="none" xmlns="http://www.w3.org/2000/svg">
<path id="Subtract" d="M9 0C9.55228 1.28851e-07 10 0.447715 10 1V7C10 7.55228 9.55228 8 9 8H1C0.447716 8 2.89917e-07 7.55228 0 7V1C0 0.447715 0.447715 8.05319e-09 1 0H9ZM7.82812 1.90918C7.63286 1.714 7.31633 1.71394 7.12109 1.90918L5 4.03027L2.87891 1.90918C2.68366 1.71394 2.36714 1.71398 2.17188 1.90918C1.97661 2.10444 1.97661 2.42095 2.17188 2.61621L4.64648 5.09082C4.84175 5.28608 5.15825 5.28608 5.35352 5.09082L7.82812 2.61621C8.02339 2.42095 8.02339 2.10444 7.82812 1.90918Z" fill="var(--fill-0, #282828)"/>
</svg>
