<svg preserveAspectRatio="none" width="100%" height="100%" overflow="visible" style="display: block;" viewBox="0 0 3 14" fill="none" xmlns="http://www.w3.org/2000/svg">
<path id="Union" d="M1.33301 10.667C2.06939 10.667 2.66699 11.2636 2.66699 12C2.66699 12.7364 2.06939 13.333 1.33301 13.333C0.596778 13.3328 0 12.7363 0 12C1.28832e-07 11.2637 0.596778 10.6672 1.33301 10.667ZM1.33301 5.33301C2.06939 5.33301 2.66699 5.93061 2.66699 6.66699C2.66682 7.40322 2.06928 8 1.33301 8C0.596887 7.99982 0.000176082 7.40311 0 6.66699C0 5.93072 0.596778 5.33318 1.33301 5.33301ZM1.33301 0C2.06928 0 2.66682 0.596778 2.66699 1.33301C2.66699 2.06939 2.06939 2.66699 1.33301 2.66699C0.596778 2.66682 0 2.06928 0 1.33301C0.000175825 0.596886 0.596886 0.000175825 1.33301 0Z" fill="var(--fill-0, #282828)"/>
</svg>
