<svg preserveAspectRatio="none" width="100%" height="100%" overflow="visible" style="display: block;" viewBox="0 0 17 17" fill="none" xmlns="http://www.w3.org/2000/svg">
<path id="Subtract" fill-rule="evenodd" clip-rule="evenodd" d="M8.33333 0C3.73096 0 0 3.73096 0 8.33333C0 12.9357 3.73096 16.6667 8.33333 16.6667C12.9357 16.6667 16.6667 12.9357 16.6667 8.33333C16.6667 3.73096 12.9357 0 8.33333 0ZM7.5 11.6667C7.5 11.2064 7.8731 10.8333 8.33333 10.8333C8.79357 10.8333 9.16667 11.2064 9.16667 11.6667C9.16667 12.1269 8.79357 12.5 8.33333 12.5C7.8731 12.5 7.5 12.1269 7.5 11.6667ZM9.16667 9.16667C9.16667 9.6269 8.79357 10 8.33333 10C7.8731 10 7.5 9.6269 7.5 9.16667V5C7.5 4.53976 7.8731 4.16667 8.33333 4.16667C8.79357 4.16667 9.16667 4.53976 9.16667 5V9.16667Z" fill="var(--fill-0, #282828)"/>
</svg>
