<svg preserveAspectRatio="none" width="100%" height="100%" overflow="visible" style="display: block;" viewBox="0 0 17 15" fill="none" xmlns="http://www.w3.org/2000/svg">
<g id="Union">
<path d="M5 7.5C4.53976 7.5 4.16667 7.8731 4.16667 8.33333C4.16667 8.79357 4.53976 9.16667 5 9.16667H11.6667C12.1269 9.16667 12.5 8.79357 12.5 8.33333C12.5 7.8731 12.1269 7.5 11.6667 7.5H5Z" fill="var(--fill-0, #282828)"/>
<path fill-rule="evenodd" clip-rule="evenodd" d="M1.66667 0C0.746192 0 0 0.746192 0 1.66667V13.3333C0 14.2538 0.746193 15 1.66667 15H15C15.9205 15 16.6667 14.2538 16.6667 13.3333V3.33333C16.6667 2.41286 15.9205 1.66667 15 1.66667H10.2244L8.52791 0.350022C8.23559 0.123144 7.87608 0 7.50604 0H1.66667ZM7.50604 1.66667L9.65348 3.33333H15V13.3333H1.66667V1.66667L7.50604 1.66667Z" fill="var(--fill-0, #282828)"/>
</g>
</svg>
