<svg preserveAspectRatio="none" width="100%" height="100%" overflow="visible" style="display: block;" viewBox="0 0 10 10" fill="none" xmlns="http://www.w3.org/2000/svg">
<path id="Union" d="M5 0C7.76142 0 10 2.23858 10 5C10 7.76142 7.76142 10 5 10C2.23858 10 0 7.76142 0 5C0 2.23858 2.23858 0 5 0ZM5 1C2.79086 1 1 2.79086 1 5C1 7.20914 2.79086 9 5 9C7.20914 9 9 7.20914 9 5C9 2.79086 7.20914 1 5 1ZM4.2666 2.52539C4.46182 2.33017 4.77935 2.33029 4.97461 2.52539C5.16952 2.7206 5.16961 3.03723 4.97461 3.23242L3.70605 4.5H7.49902C7.77512 4.5 7.99894 4.72393 7.99902 5C7.99892 5.27605 7.7751 5.5 7.49902 5.5H3.70605L4.97461 6.76758C5.16967 6.9627 5.16946 7.27932 4.97461 7.47461C4.77931 7.66954 4.46174 7.66974 4.2666 7.47461L2.14551 5.35352C1.95076 5.15838 1.95078 4.84167 2.14551 4.64648L4.2666 2.52539Z" fill="var(--fill-0, #282828)"/>
</svg>
