<svg preserveAspectRatio="none" width="100%" height="100%" overflow="visible" style="display: block;" viewBox="0 0 14 13" fill="none" xmlns="http://www.w3.org/2000/svg">
<path id="Subtract" d="M8.43066 0.217773C8.63917 0.0336845 8.92606 -0.0620331 9.18359 0.0429687C9.75079 0.274409 10.2793 0.581575 10.7559 0.952148C10.9752 1.12277 11.0354 1.41897 10.9805 1.69141C10.8565 2.30571 10.9472 2.96634 11.2852 3.55176C11.6232 4.1373 12.15 4.54639 12.7441 4.74609C13.0079 4.83477 13.2348 5.03486 13.2725 5.31055C13.3128 5.60705 13.333 5.9102 13.333 6.21777C13.333 6.52534 13.3128 6.82851 13.2725 7.125C13.2349 7.4009 13.0081 7.60171 12.7441 7.69043C12.15 7.89015 11.6232 8.29924 11.2852 8.88477C10.9472 9.47017 10.8565 10.1308 10.9805 10.7451C11.0354 11.0174 10.975 11.3128 10.7559 11.4834C10.2793 11.854 9.75088 12.1621 9.18359 12.3936C8.92606 12.4985 8.63916 12.4028 8.43066 12.2187C7.96061 11.8037 7.34333 11.5518 6.66699 11.5518C5.99052 11.5518 5.37248 11.8037 4.90234 12.2187C4.69382 12.4028 4.40692 12.4986 4.14941 12.3936C3.58215 12.1621 3.05374 11.854 2.57715 11.4834C2.35811 11.3128 2.29766 11.0174 2.35254 10.7451C2.47654 10.1308 2.38583 9.47018 2.04785 8.88477C1.70981 8.29929 1.18298 7.89014 0.588867 7.69043C0.325066 7.60165 0.0990492 7.4008 0.0615234 7.125C0.0211957 6.82848 0 6.52537 0 6.21777C2.00422e-05 5.91019 0.0211806 5.60705 0.0615234 5.31055C0.0992466 5.03501 0.325232 4.83482 0.588867 4.74609C1.18296 4.54639 1.70981 4.13719 2.04785 3.55176C2.38583 2.96637 2.47655 2.30572 2.35254 1.69141C2.2976 1.41899 2.35778 1.12276 2.57715 0.952148C3.05371 0.581527 3.58218 0.274426 4.14941 0.0429687C4.40694 -0.062108 4.69381 0.0337199 4.90234 0.217773C5.37248 0.63286 5.99052 0.884766 6.66699 0.884766C7.34331 0.884685 7.96061 0.632763 8.43066 0.217773ZM6.66699 3.55176C5.19438 3.55176 4.00024 4.74522 4 6.21777C4 7.69053 5.19423 8.88477 6.66699 8.88477C8.1396 8.88459 9.33301 7.69042 9.33301 6.21777C9.33277 4.74533 8.13945 3.55193 6.66699 3.55176Z" fill="var(--fill-0, #282828)"/>
</svg>
