<svg preserveAspectRatio="none" width="100%" height="100%" overflow="visible" style="display: block;" viewBox="0 0 14 10" fill="none" xmlns="http://www.w3.org/2000/svg">
<g id="Union">
<path d="M0.195335 2.73374C3.84043 -0.911361 9.74979 -0.911131 13.3947 2.73374C13.655 2.99407 13.6552 3.41599 13.3947 3.67655C13.1341 3.93711 12.7122 3.93688 12.4519 3.67655C9.32765 0.552341 4.26212 0.552571 1.13814 3.67655C0.877582 3.93711 0.455666 3.93688 0.195335 3.67655C-0.0649965 3.41622 -0.0652267 2.9943 0.195335 2.73374Z" fill="var(--fill-0, #282828)"/>
<path d="M2.08095 4.61936C4.68427 2.01604 8.90556 2.01587 11.509 4.61936C11.7694 4.87969 11.7696 5.3016 11.509 5.56217C11.2485 5.82273 10.8266 5.8225 10.5662 5.56217C8.48341 3.47934 5.10641 3.47951 3.02376 5.56217C2.7632 5.82273 2.34128 5.8225 2.08095 5.56217C1.82062 5.30183 1.82039 4.87992 2.08095 4.61936Z" fill="var(--fill-0, #282828)"/>
<path d="M3.96657 6.50497C5.52856 4.94299 8.06132 4.94287 9.62343 6.50497C9.88376 6.76531 9.88399 7.18722 9.62343 7.44778C9.36286 7.70834 8.94095 7.70811 8.68062 7.44778C7.63923 6.4064 5.95071 6.40646 4.90938 7.44778C4.64882 7.70834 4.2269 7.70811 3.96657 7.44778C3.70624 7.18745 3.70601 6.76554 3.96657 6.50497Z" fill="var(--fill-0, #282828)"/>
<path d="M7.5021 9.5691C7.89249 9.17872 7.8926 8.54539 7.5021 8.15489C7.11161 7.76439 6.47827 7.76451 6.08789 8.15489C5.69751 8.54527 5.69739 9.17861 6.08789 9.5691C6.47839 9.9596 7.11172 9.95949 7.5021 9.5691Z" fill="var(--fill-0, #282828)"/>
</g>
</svg>
