<svg preserveAspectRatio="none" width="100%" height="100%" overflow="visible" style="display: block;" viewBox="0 0 17 17" fill="none" xmlns="http://www.w3.org/2000/svg">
<path id="Subtract (Stroke)" fill-rule="evenodd" clip-rule="evenodd" d="M11.9825 2.73866C12.685 5.26067 12.0446 8.07822 10.0614 10.0614C8.07822 12.0446 5.26067 12.685 2.73866 11.9825C2.97968 12.3444 3.25996 12.6881 3.5796 13.0077C6.18308 15.6112 10.4042 15.6112 13.0077 13.0077C15.6112 10.4042 15.6112 6.18308 13.0077 3.5796C12.6881 3.25996 12.3444 2.97968 11.9825 2.73866ZM9.78422 1.79461C11.1053 4.03153 10.8048 6.96097 8.8829 8.8829C6.96097 10.8048 4.03153 11.1053 1.79461 9.78422C1.71392 9.73657 1.63414 9.68682 1.55533 9.63495C1.2928 9.46215 1.04115 9.26593 0.803338 9.0463C0.745842 8.9932 0.689155 8.93873 0.633318 8.8829C0.399387 8.64897 -0.0310868 8.79714 0.00177905 9.12633C0.0133239 9.24196 0.0272799 9.3574 0.0436469 9.47257C0.0893657 9.79426 0.1539 10.1138 0.237246 10.4294C0.272724 10.5637 0.311612 10.6974 0.353908 10.8301C0.744933 12.0576 1.42732 13.2124 2.40108 14.1862C5.65544 17.4406 10.9318 17.4406 14.1862 14.1862C17.4406 10.9318 17.4406 5.65544 14.1862 2.40109C13.2124 1.42732 12.0576 0.744933 10.8301 0.353908C10.6974 0.311612 10.5637 0.272724 10.4294 0.237246C10.1138 0.1539 9.79426 0.0893657 9.47257 0.0436469C9.3574 0.0272799 9.24196 0.0133239 9.12633 0.00177906C8.79714 -0.0310868 8.64897 0.399387 8.8829 0.633318C8.93873 0.689155 8.9932 0.745843 9.0463 0.803339C9.26593 1.04115 9.46215 1.2928 9.63495 1.55533C9.68682 1.63414 9.73657 1.71392 9.78422 1.79461Z" fill="var(--fill-0, #282828)"/>
</svg>
