<svg preserveAspectRatio="none" width="100%" height="100%" overflow="visible" style="display: block;" viewBox="0 0 15 17" fill="none" xmlns="http://www.w3.org/2000/svg">
<path id="Union" d="M7.39355 0C9.40886 0.000269353 11.0894 1.4316 11.4756 3.33301H12.4941C13.3741 3.33312 14.1023 4.01817 14.1572 4.89648L14.7822 14.8965C14.8419 15.8557 14.0803 16.6669 13.1191 16.667H1.66699C0.705814 16.6669 -0.0558042 15.8558 0.00390625 14.8965L0.628906 4.89648C0.683804 4.01813 1.41193 3.33306 2.29199 3.33301H3.30957C3.69592 1.43137 5.37796 0 7.39355 0ZM1.66699 15H13.1191L12.4941 5H11.5596V6.66699C11.5594 7.127 11.1866 7.49987 10.7266 7.5C10.2664 7.5 9.89275 7.12708 9.89258 6.66699V5H4.89258V6.66699C4.8924 7.12708 4.5197 7.5 4.05957 7.5C3.59948 7.49996 3.22674 7.12705 3.22656 6.66699V5H2.29199L1.66699 15ZM7.39355 1.66699C6.30567 1.66699 5.38273 2.36289 5.03906 3.33301H9.74805C9.4044 2.36297 8.48126 1.66723 7.39355 1.66699Z" fill="var(--fill-0, #282828)"/>
</svg>
