<svg preserveAspectRatio="none" width="100%" height="100%" overflow="visible" style="display: block;" viewBox="0 0 14 12" fill="none" xmlns="http://www.w3.org/2000/svg">
<g id="Union">
<path d="M6 4C6 3.63181 6.29848 3.33333 6.66667 3.33333C7.03486 3.33333 7.33333 3.63181 7.33333 4V6H9.33333C9.70152 6 10 6.29848 10 6.66667C10 7.03486 9.70152 7.33333 9.33333 7.33333H7.33333V9.33333C7.33333 9.70152 7.03486 10 6.66667 10C6.29848 10 6 9.70152 6 9.33333V7.33333H4C3.63181 7.33333 3.33333 7.03486 3.33333 6.66667C3.33333 6.29848 3.63181 6 4 6H6V4Z" fill="var(--fill-0, #282828)"/>
<path fill-rule="evenodd" clip-rule="evenodd" d="M1.33333 0C0.596954 0 0 0.596954 0 1.33333V10.6667C0 11.403 0.596954 12 1.33333 12H12C12.7364 12 13.3333 11.403 13.3333 10.6667V2.66667C13.3333 1.93029 12.7364 1.33333 12 1.33333H8.17949L6.82233 0.280018C6.58847 0.0985154 6.30086 0 6.00483 0H1.33333ZM6.00483 1.33333L7.72278 2.66667H12V10.6667H1.33333V1.33333L6.00483 1.33333Z" fill="var(--fill-0, #282828)"/>
</g>
</svg>
