<svg preserveAspectRatio="none" width="100%" height="100%" overflow="visible" style="display: block;" viewBox="0 0 14 17" fill="none" xmlns="http://www.w3.org/2000/svg">
<path id="Union" d="M7.5 0C7.96013 0 8.33283 0.37292 8.33301 0.833008C8.33301 1.29325 7.96024 1.66699 7.5 1.66699H12.5L12.585 1.6709C13.0053 1.71346 13.333 2.06844 13.333 2.5C13.333 2.96024 12.9602 3.33301 12.5 3.33301H12.4072L11.7539 15.0928C11.7047 15.9758 10.9743 16.667 10.0898 16.667H3.24316C2.35878 16.6669 1.62832 15.9758 1.5791 15.0928L0.925781 3.33301H0.833008C0.37292 3.33283 3.54259e-07 2.96013 0 2.5C0 2.03987 0.37292 1.66717 0.833008 1.66699H5.83301C5.37292 1.66682 5 1.29314 5 0.833008C5.00018 0.373028 5.37303 0.000176134 5.83301 0H7.5ZM3.24316 15H10.0898L10.7383 3.33301H2.59473L3.24316 15ZM5 5.83301C5.46024 5.83301 5.83301 6.20675 5.83301 6.66699V11.667C5.83283 12.1271 5.46013 12.5 5 12.5C4.53987 12.5 4.16717 12.1271 4.16699 11.667V6.66699C4.16699 6.20676 4.53976 5.83301 5 5.83301ZM8.33301 5.83301C8.79325 5.83301 9.16699 6.20675 9.16699 6.66699V11.667C9.16682 12.1271 8.79314 12.5 8.33301 12.5C7.87303 12.4998 7.50018 12.127 7.5 11.667V6.66699C7.5 6.20686 7.87292 5.83318 8.33301 5.83301Z" fill="var(--fill-0, #282828)"/>
</svg>
