<svg preserveAspectRatio="none" width="100%" height="100%" overflow="visible" style="display: block;" viewBox="0 0 21 15" fill="none" xmlns="http://www.w3.org/2000/svg">
<g id="Union">
<path d="M0.293002 4.10061C5.76065 -1.36704 14.6247 -1.3667 20.092 4.10061C20.4825 4.4911 20.4828 5.12398 20.092 5.51482C19.7011 5.90566 19.0683 5.90532 18.6778 5.51482C13.9915 0.828511 6.39318 0.828856 1.70722 5.51482C1.31637 5.90566 0.683499 5.90532 0.293002 5.51482C-0.0974948 5.12432 -0.09784 4.49145 0.293002 4.10061Z" fill="var(--fill-0, #282828)"/>
<path d="M3.12143 6.92903C7.0264 3.02406 13.3583 3.0238 17.2636 6.92903C17.6541 7.31953 17.6544 7.95241 17.2636 8.34325C16.8727 8.73409 16.2398 8.73374 15.8494 8.34325C12.7251 5.21901 7.65962 5.21927 4.53564 8.34325C4.1448 8.73409 3.51193 8.73374 3.12143 8.34325C2.73093 7.95275 2.73059 7.31988 3.12143 6.92903Z" fill="var(--fill-0, #282828)"/>
<path d="M5.94986 9.75746C8.29284 7.41448 12.092 7.41431 14.4351 9.75746C14.8256 10.148 14.826 10.7808 14.4351 11.1717C14.0443 11.5625 13.4114 11.5622 13.0209 11.1717C11.4588 9.6096 8.92606 9.60969 7.36407 11.1717C6.97323 11.5625 6.34035 11.5622 5.94986 11.1717C5.55936 10.7812 5.55901 10.1483 5.94986 9.75746Z" fill="var(--fill-0, #282828)"/>
<path d="M11.2532 14.3537C11.8387 13.7681 11.8389 12.8181 11.2532 12.2323C10.6674 11.6466 9.71741 11.6468 9.13184 12.2323C8.54626 12.8179 8.54609 13.7679 9.13184 14.3537C9.71758 14.9394 10.6676 14.9392 11.2532 14.3537Z" fill="var(--fill-0, #282828)"/>
</g>
</svg>
