<svg preserveAspectRatio="none" width="100%" height="100%" overflow="visible" style="display: block;" viewBox="0 0 14 17" fill="none" xmlns="http://www.w3.org/2000/svg">
<g id="Union">
<path d="M0.833333 0C0.373128 0 0 0.373077 0 0.833333V15.8333C0 16.2936 0.373128 16.6667 0.833333 16.6667H10.8333C11.2935 16.6667 11.6667 16.2936 11.6667 15.8333V14.1667C11.6667 13.7064 11.2935 13.3333 10.8333 13.3333C10.3731 13.3333 10 13.7064 10 14.1667V15H1.66667V1.66667H10V2.5C10 2.96026 10.3731 3.33333 10.8333 3.33333C11.2935 3.33333 11.6667 2.96026 11.6667 2.5V0.833333C11.6667 0.373077 11.2935 0 10.8333 0H0.833333Z" fill="var(--fill-0, #282828)"/>
<path d="M8.37524 4.20853C8.70066 3.88311 9.22831 3.88306 9.55373 4.20853L13.0893 7.74404C13.1736 7.82842 13.2361 7.92633 13.2768 8.03085C13.3133 8.12459 13.3333 8.22662 13.3333 8.33333C13.3333 8.45174 13.3086 8.56435 13.2642 8.66633C13.2305 8.74359 13.1846 8.81678 13.1263 8.88301C13.1131 8.89806 13.0994 8.91266 13.0851 8.92675L9.55373 12.4581C9.22831 12.7835 8.70066 12.7836 8.37524 12.4581C8.04972 12.1326 8.04982 11.605 8.37524 11.2796L10.4881 9.16667H4.16667C3.70646 9.16667 3.33333 8.79359 3.33333 8.33333C3.33333 7.87308 3.70646 7.5 4.16667 7.5H10.4882L8.37524 5.38701C8.04972 5.06159 8.04982 4.53395 8.37524 4.20853Z" fill="var(--fill-0, #282828)"/>
</g>
</svg>
