<svg preserveAspectRatio="none" width="100%" height="100%" overflow="visible" style="display: block;" viewBox="0 0 14 11" fill="none" xmlns="http://www.w3.org/2000/svg">
<path id="Union" d="M6.66699 0C9.87427 0.000148416 12.5689 2.19424 13.333 5.16309C12.5687 8.13169 9.87409 10.325 6.66699 10.3252C3.45972 10.3252 0.764287 8.13183 0 5.16309C0.764147 2.19414 3.45957 0 6.66699 0ZM6.66699 2.49609C5.19423 2.49609 4 3.69033 4 5.16309C4.00022 6.63566 5.19437 7.8291 6.66699 7.8291C8.13947 7.82893 9.33279 6.63555 9.33301 5.16309C9.33301 3.69044 8.1396 2.49627 6.66699 2.49609ZM6.66699 3.8291C7.40322 3.82928 8 4.42681 8 5.16309C7.99978 5.89917 7.40309 6.49592 6.66699 6.49609C5.93075 6.49609 5.33323 5.89928 5.33301 5.16309C5.33301 4.42671 5.93061 3.8291 6.66699 3.8291Z" fill="var(--fill-0, #282828)"/>
</svg>
