<svg preserveAspectRatio="none" width="100%" height="100%" overflow="visible" style="display: block;" viewBox="0 0 14 12" fill="none" xmlns="http://www.w3.org/2000/svg">
<path id="Union" d="M6.93359 0.133789C7.37305 -0.195255 8 0.1188 8 0.667969V11.334C8 11.8833 7.37308 12.1968 6.93359 11.8672L2.66699 8.66797H0.666992C0.298819 8.66797 1.77438e-05 8.36915 0 8.00098V4.00098C0 3.63279 0.298808 3.33398 0.666992 3.33398H2.66699L6.93359 0.133789ZM9.40527 0.855469C11.6676 1.47272 13.332 3.54254 13.332 6.00098C13.332 8.45941 11.6676 10.5292 9.40527 11.1465C9.38073 11.1532 9.35622 11.1577 9.33203 11.1611V9.76953C10.885 9.22015 11.9989 7.74211 11.999 6.00098C11.9989 4.25977 10.8851 2.78077 9.33203 2.23145V0.839844C9.35625 0.843241 9.3807 0.848774 9.40527 0.855469ZM9.33301 3.33398C10.1427 3.94215 10.666 4.91051 10.666 6.00098C10.666 7.09144 10.1428 8.05982 9.33301 8.66797V3.33398Z" fill="var(--fill-0, #282828)"/>
</svg>
