<svg preserveAspectRatio="none" width="100%" height="100%" overflow="visible" style="display: block;" viewBox="0 0 20 20" fill="none" xmlns="http://www.w3.org/2000/svg">
<path id="Subtract" d="M16 0C18.2091 0 20 1.79086 20 4V16C20 18.2091 18.2091 20 16 20H4C1.79086 20 3.22133e-08 18.2091 0 16V4C0 1.79086 1.79086 3.22128e-08 4 0H16ZM8.9502 5.0498C8.55975 4.65958 7.92565 4.65954 7.53516 5.0498L3.29297 9.29199C3.24657 9.33836 3.20457 9.38962 3.16797 9.44434C3.1401 9.486 3.11566 9.52969 3.09473 9.57422C3.03411 9.70303 3.00013 9.84726 3 9.99902C3 10.082 3.01123 10.1632 3.03027 10.2402C3.03443 10.257 3.03795 10.2744 3.04297 10.291C3.05688 10.3367 3.0747 10.3811 3.09473 10.4238C3.11562 10.4684 3.14013 10.512 3.16797 10.5537C3.18048 10.5725 3.19429 10.5906 3.20801 10.6084C3.23406 10.6422 3.262 10.676 3.29297 10.707L7.53516 14.9492C7.92565 15.3397 8.55966 15.3398 8.9502 14.9492C9.34021 14.5587 9.34025 13.9255 8.9502 13.5352L6.41406 10.999H16C16.5523 10.999 17 10.5513 17 9.99902C16.9995 9.44715 16.552 8.99902 16 8.99902H6.41406L8.9502 6.46387C9.34018 6.07338 9.34027 5.44017 8.9502 5.0498Z" fill="var(--fill-0, #282828)"/>
</svg>
