<svg preserveAspectRatio="none" width="100%" height="100%" overflow="visible" style="display: block;" viewBox="0 0 17 17" fill="none" xmlns="http://www.w3.org/2000/svg">
<path id="Union" d="M12.499 0C13.4195 0 14.166 0.746518 14.166 1.66699V3.33301H15C15.9204 3.33301 16.6668 4.07968 16.667 5V12.5C16.6668 13.4203 15.9204 14.166 15 14.166H14.167V6.66602H2.5V6.66699H14.166V15C14.166 15.9205 13.4195 16.667 12.499 16.667H4.16602C3.24554 16.667 2.49902 15.9205 2.49902 15V14.166H1.66699C0.746626 14.166 0.000176079 13.4203 0 12.5V5C0.00018663 4.07968 0.746633 3.33301 1.66699 3.33301H2.49902V1.66699C2.49902 0.746518 3.24554 0 4.16602 0H12.499ZM4.16602 10V15H12.499V10H4.16602ZM4.16602 3.33301H12.499V1.66699H4.16602V3.33301Z" fill="var(--fill-0, #282828)"/>
</svg>
