<svg preserveAspectRatio="none" width="100%" height="100%" overflow="visible" style="display: block;" viewBox="0 0 20 20" fill="none" xmlns="http://www.w3.org/2000/svg">
<path id="Subtract" d="M16 0C18.2091 0 20 1.79086 20 4V16C20 18.2091 18.2091 20 16 20H4C1.79086 20 3.22133e-08 18.2091 0 16V4C0 1.79086 1.79086 3.22128e-08 4 0H16ZM14.9502 5.0498C14.5597 4.65928 13.9257 4.65929 13.5352 5.0498L10 8.58594L6.46484 5.0498C6.07432 4.65931 5.44032 4.65929 5.0498 5.0498C4.65932 5.44032 4.65932 6.07433 5.0498 6.46484L8.58594 10L5.0498 13.5352C4.65935 13.9257 4.6593 14.5597 5.0498 14.9502C5.44031 15.3407 6.07432 15.3407 6.46484 14.9502L10 11.4141L13.5352 14.9502C13.9257 15.3407 14.5597 15.3407 14.9502 14.9502C15.3407 14.5597 15.3407 13.9257 14.9502 13.5352L11.4141 10L14.9502 6.46484C15.3407 6.07432 15.3407 5.44033 14.9502 5.0498Z" fill="var(--fill-0, #282828)"/>
</svg>
