<svg preserveAspectRatio="none" width="100%" height="100%" overflow="visible" style="display: block;" viewBox="0 0 10 9" fill="none" xmlns="http://www.w3.org/2000/svg">
<path id="Union" d="M0.609375 0.611349C0.804626 0.416098 1.12114 0.416119 1.31641 0.611349L2.68848 1.98342H2.68945L3.40332 2.69729H3.40234L5 4.29397V4.29299L6 5.29299V5.29397L7 6.29397V6.29299L7.11523 6.40822H7.11426L7.68359 6.97756H7.68457L8.38867 7.68166C8.393 7.68599 8.39887 7.68925 8.40332 7.69338C8.40218 7.69424 8.40055 7.69448 8.39941 7.69533C8.58239 7.89139 8.5788 8.19856 8.3877 8.38967C8.19247 8.58458 7.87584 8.58465 7.68066 8.38967L7.49805 8.20705C7.35375 8.26597 7.20609 8.3188 7.05371 8.36037C7.03565 8.36523 7.01682 8.36469 6.99902 8.36721V7.70803L6 6.70901V8.501C5.99995 8.91283 5.52978 9.14816 5.2002 8.90139L2 6.501H0.5C0.223879 6.501 3.39488e-05 6.27711 0 6.001V3.001C6.34483e-05 2.72491 0.223897 2.501 0.5 2.501H1.79199L0.609375 1.31838C0.414244 1.12321 0.414418 0.806624 0.609375 0.611349ZM2.33301 3.501H1V5.501H2.33301L5 7.501V5.70901L2.59473 3.30373L2.33301 3.501ZM7.05371 0.641622C8.75044 1.10454 9.99885 2.65728 9.99902 4.501C9.99894 5.44774 9.66723 6.31587 9.11719 7.001C9.10987 6.99263 9.10368 6.9826 9.0957 6.97463L8.40625 6.28518C8.77724 5.7867 8.99894 5.17051 8.99902 4.501C8.99886 3.19523 8.16373 2.08584 6.99902 1.67385V0.632833C7.01689 0.635357 7.03558 0.636741 7.05371 0.641622ZM7 2.501C7.60726 2.9571 7.99996 3.68322 8 4.501C7.99999 4.90169 7.90391 5.27957 7.73633 5.61526L7 4.87893V2.501ZM5.2002 0.100607C5.52977 -0.146172 5.99991 0.0891874 6 0.500997V3.87893L5 2.87893V1.501L4.21191 2.09084L3.49805 1.37697L5.2002 0.100607Z" fill="var(--fill-0, #282828)"/>
</svg>
