<svg preserveAspectRatio="none" width="100%" height="100%" overflow="visible" style="display: block;" viewBox="0 0 20 20" fill="none" xmlns="http://www.w3.org/2000/svg">
<g id="Union">
<path d="M10 11C11.6569 11 13 9.65686 13 8C13 6.34314 11.6569 5 10 5C8.34314 5 7 6.34314 7 8C7 9.65686 8.34314 11 10 11Z" fill="var(--fill-0, #282828)"/>
<path fill-rule="evenodd" clip-rule="evenodd" d="M4.57343 18.4009C1.82108 16.6195 0 13.5226 0 10C0 4.47717 4.47714 0 10 0C15.5229 0 20 4.47717 20 10C20 13.6243 18.0718 16.7983 15.1854 18.5522C13.6734 19.4709 11.8985 20 10 20C7.99973 20 6.13632 19.4125 4.57343 18.4009ZM4.70731 15.9991C5.36053 13.6911 7.48279 12 10 12C12.5172 12 14.6395 13.6911 15.2927 15.9991C16.9529 14.5332 18 12.3889 18 10C18 5.58173 14.4183 2 10 2C5.58173 2 2 5.58173 2 10C2 12.3889 3.04709 14.5332 4.70731 15.9991Z" fill="var(--fill-0, #282828)"/>
</g>
</svg>
