<svg preserveAspectRatio="none" width="100%" height="100%" overflow="visible" style="display: block;" viewBox="0 0 14 14" fill="none" xmlns="http://www.w3.org/2000/svg">
<path id="Union" d="M6.66699 0C10.3487 0.000176133 13.333 2.9852 13.333 6.66699C13.3328 10.3486 10.3486 13.3328 6.66699 13.333C2.9852 13.333 0.000176136 10.3487 0 6.66699C0 2.98509 2.98509 0 6.66699 0ZM6.66699 1.33301C3.72147 1.33301 1.33301 3.72147 1.33301 6.66699C1.33318 9.61236 3.72158 12 6.66699 12C9.61225 11.9998 11.9998 9.61225 12 6.66699C12 3.72158 9.61236 1.33318 6.66699 1.33301ZM9.25977 4.30957C9.52009 4.04951 9.94188 4.04938 10.2021 4.30957C10.4625 4.56992 10.4625 4.9926 10.2021 5.25293L6.43066 9.02344C6.17033 9.28376 5.74863 9.28378 5.48828 9.02344L3.13086 6.66699C2.87052 6.40665 2.87053 5.98396 3.13086 5.72363C3.39119 5.4633 3.81387 5.46329 4.07422 5.72363L5.95996 7.60938L9.25977 4.30957Z" fill="var(--fill-0, #282828)"/>
</svg>
