<svg preserveAspectRatio="none" width="100%" height="100%" overflow="visible" style="display: block;" viewBox="0 0 17 17" fill="none" xmlns="http://www.w3.org/2000/svg">
<path id="Subtract" d="M8.33301 0C12.9353 0 16.6668 3.73078 16.667 8.33301C16.667 12.9354 12.9354 16.667 8.33301 16.667C3.73078 16.6668 0 12.9353 0 8.33301C0.000175744 3.73089 3.73089 0.000175747 8.33301 0ZM8.33301 6.66699C7.87303 6.66717 7.50018 7.04002 7.5 7.5V11.667C7.50018 12.127 7.87303 12.4998 8.33301 12.5C8.79313 12.5 9.16681 12.1271 9.16699 11.667V7.5C9.16681 7.03991 8.79313 6.66699 8.33301 6.66699ZM8.33301 4.16699C7.87303 4.16717 7.50018 4.54002 7.5 5C7.50018 5.45998 7.87303 5.83381 8.33301 5.83398C8.79313 5.83398 9.16681 5.46009 9.16699 5C9.16682 4.53991 8.79314 4.16699 8.33301 4.16699Z" fill="var(--fill-0, #282828)"/>
</svg>
