<svg preserveAspectRatio="none" width="100%" height="100%" overflow="visible" style="display: block;" viewBox="0 0 9 10" fill="none" xmlns="http://www.w3.org/2000/svg">
<g id="Union">
<path fill-rule="evenodd" clip-rule="evenodd" d="M6.03633 4.02407C6.03633 5.13533 5.13548 6.03618 4.02422 6.03618C2.91297 6.03618 2.01212 5.13533 2.01212 4.02407C2.01212 2.91281 2.91297 2.01196 4.02422 2.01196C5.13548 2.01196 6.03633 2.91281 6.03633 4.02407ZM5.03633 4.02407C5.03633 4.58304 4.5832 5.03618 4.02422 5.03618C3.46525 5.03618 3.01212 4.58304 3.01212 4.02407C3.01212 3.4651 3.46525 3.01196 4.02422 3.01196C4.5832 3.01196 5.03633 3.4651 5.03633 4.02407Z" fill="var(--fill-0, #282828)"/>
<path fill-rule="evenodd" clip-rule="evenodd" d="M8.04844 4.02421C8.04844 7.48037 5.08016 9.45238 4.24215 9.94025C4.10531 10.0199 3.94312 10.0199 3.80629 9.94025C2.96828 9.45238 0 7.48037 0 4.02421C0 1.8017 1.8017 0 4.02422 0C6.24673 0 8.04844 1.8017 8.04844 4.02421ZM7.04844 4.02421C7.04844 5.44599 6.44227 6.58061 5.70093 7.44381C5.10886 8.13318 4.45323 8.62101 4.02422 8.89998C3.59521 8.62101 2.93958 8.13318 2.34751 7.4438C1.60616 6.58061 1 5.44598 1 4.02421C1 2.35399 2.35399 1 4.02422 1C5.69445 1 7.04844 2.35399 7.04844 4.02421Z" fill="var(--fill-0, #282828)"/>
</g>
</svg>
