<svg preserveAspectRatio="none" width="100%" height="100%" overflow="visible" style="display: block;" viewBox="0 0 20 20" fill="none" xmlns="http://www.w3.org/2000/svg">
<path id="Union" fill-rule="evenodd" clip-rule="evenodd" d="M7.54643 11.3071C7.51297 11.2837 7.478 11.2623 7.44166 11.2431L0.532218 7.5851C-0.245278 7.17348 -0.150706 6.03083 0.683885 5.75263L17.7827 0.0530454C18.5644 -0.20754 19.3082 0.536199 19.0476 1.31796L13.348 18.4167C13.0698 19.2513 11.9271 19.3459 11.5155 18.5684L7.85756 11.659C7.83832 11.6226 7.81693 11.5877 7.79356 11.5542C7.74636 11.5211 7.70138 11.4835 7.65923 11.4414C7.61708 11.3992 7.57948 11.3543 7.54643 11.3071ZM8.26855 9.41785L3.53339 6.91098L16.5178 2.58287L12.1896 15.5672L9.68277 10.8321L11.9019 8.61296C12.2924 8.22243 12.2924 7.58927 11.9019 7.19874C11.5113 6.80822 10.8782 6.80822 10.4877 7.19874L8.26855 9.41785Z" fill="var(--fill-0, #282828)"/>
</svg>
