<svg preserveAspectRatio="none" width="100%" height="100%" overflow="visible" style="display: block;" viewBox="0 0 20 18" fill="none" xmlns="http://www.w3.org/2000/svg">
<path id="Union" d="M19 16C19.5523 16 20 16.4477 20 17C20 17.5523 19.5523 18 19 18H1C0.447736 18 3.29844e-05 17.5523 0 17C0 16.4477 0.447715 16 1 16H19ZM10 0C10.5521 0.000263794 11 0.447879 11 1V10.5859L13.5352 8.0498C13.9256 7.65968 14.5588 7.65959 14.9492 8.0498C15.3398 8.44034 15.3397 9.07435 14.9492 9.46484L10.7119 13.7021C10.695 13.7193 10.6773 13.7361 10.6592 13.752C10.5799 13.8217 10.492 13.8766 10.3994 13.917C10.2772 13.9703 10.1419 13.9999 10 14C9.87197 14 9.74924 13.9755 9.63672 13.9316C9.51134 13.8829 9.39322 13.8083 9.29199 13.707L5.0498 9.46484C4.65926 9.0743 4.65931 8.4403 5.0498 8.0498C5.44024 7.65966 6.07339 7.65961 6.46387 8.0498L9 10.5859V1C9 0.447716 9.44772 0 10 0Z" fill="var(--fill-0, #282828)"/>
</svg>
