<svg preserveAspectRatio="none" width="100%" height="100%" overflow="visible" style="display: block;" viewBox="0 0 14 14" fill="none" xmlns="http://www.w3.org/2000/svg">
<path id="Subtract (Stroke)" fill-rule="evenodd" clip-rule="evenodd" d="M9.58598 2.19093C10.148 4.20853 9.63568 6.46257 8.04913 8.04913C6.46257 9.63568 4.20853 10.148 2.19093 9.58598C2.38374 9.8755 2.60797 10.1504 2.86368 10.4061C4.94646 12.4889 8.32336 12.4889 10.4061 10.4061C12.4889 8.32336 12.4889 4.94646 10.4061 2.86368C10.1504 2.60797 9.87551 2.38374 9.58598 2.19093ZM7.82738 1.43568C8.88422 3.22522 8.64386 5.56877 7.10632 7.10632C5.56877 8.64386 3.22522 8.88422 1.43568 7.82738C1.37113 7.78926 1.30731 7.74945 1.24427 7.70796C1.03424 7.56972 0.83292 7.41274 0.64267 7.23704C0.596674 7.19456 0.551324 7.15099 0.506654 7.10632C0.31951 6.91917 -0.0248694 7.03771 0.00142324 7.30106C0.0106591 7.39357 0.0218239 7.48592 0.0349175 7.57805C0.0714925 7.83541 0.12312 8.09103 0.189797 8.34351C0.218179 8.45098 0.249289 8.55788 0.283127 8.66411C0.595947 9.64611 1.14186 10.5699 1.92087 11.349C4.52435 13.9524 8.74547 13.9524 11.349 11.349C13.9524 8.74547 13.9524 4.52435 11.349 1.92087C10.5699 1.14186 9.64611 0.595947 8.6641 0.283127C8.55788 0.249289 8.45098 0.218179 8.34351 0.189797C8.09103 0.12312 7.83541 0.0714925 7.57805 0.0349175C7.48592 0.0218239 7.39357 0.0106591 7.30106 0.00142325C7.03771 -0.0248694 6.91917 0.31951 7.10632 0.506654C7.15099 0.551324 7.19456 0.596674 7.23704 0.642671C7.41274 0.83292 7.56972 1.03424 7.70796 1.24427C7.74945 1.30731 7.78926 1.37113 7.82738 1.43568Z" fill="var(--fill-0, #282828)"/>
</svg>
