<svg preserveAspectRatio="none" width="100%" height="100%" overflow="visible" style="display: block;" viewBox="0 0 9 16" fill="none" xmlns="http://www.w3.org/2000/svg">
<path id="Union" d="M7.31534 10.244C7.64079 9.91866 8.16864 9.91862 8.49405 10.244C8.81924 10.5695 8.81935 11.0974 8.49405 11.4227L4.95792 14.9579C4.63248 15.2833 4.10463 15.2833 3.77921 14.9579L0.244054 11.4227C-0.081367 11.0973 -0.0813358 10.5695 0.244054 10.244C0.569491 9.9186 1.09733 9.9186 1.42277 10.244L4.36905 13.1903L7.31534 10.244ZM3.77921 0.244037C4.10462 -0.0813729 4.63248 -0.0813181 4.95792 0.244037L8.49405 3.77919C8.81938 4.10455 8.81924 4.63246 8.49405 4.9579C8.16863 5.28333 7.64078 5.28331 7.31534 4.9579L4.36905 2.01161L1.42277 4.9579C1.09733 5.28334 0.569491 5.28334 0.244054 4.9579C-0.0813001 4.63246 -0.0813551 4.1046 0.244054 3.77919L3.77921 0.244037Z" fill="var(--fill-0, #282828)"/>
</svg>
