<svg preserveAspectRatio="none" width="100%" height="100%" overflow="visible" style="display: block;" viewBox="0 0 20 20" fill="none" xmlns="http://www.w3.org/2000/svg">
<path id="Subtract" d="M10 0C15.5228 0 20 4.47715 20 10C20 15.5228 15.5228 20 10 20C4.47715 20 0 15.5228 0 10C0 4.47715 4.47715 0 10 0ZM10 8C9.44772 8 9 8.44772 9 9V14C9 14.5523 9.44772 15 10 15C10.5523 15 11 14.5523 11 14V9C11 8.44772 10.5523 8 10 8ZM10 5C9.44772 5 9 5.44772 9 6C9 6.55228 9.44772 7 10 7C10.5523 7 11 6.55228 11 6C11 5.44772 10.5523 5 10 5Z" fill="var(--fill-0, #282828)"/>
</svg>
