<svg preserveAspectRatio="none" width="100%" height="100%" overflow="visible" style="display: block;" viewBox="0 0 17 15" fill="none" xmlns="http://www.w3.org/2000/svg">
<g id="Union">
<path d="M8.33333 0C7.87308 0 7.5 0.37309 7.5 0.833333V1.66667H0.833333C0.373077 1.66667 0 2.03976 0 2.5C0 2.96024 0.373077 3.33333 0.833333 3.33333H7.5V4.16667C7.5 4.62691 7.87308 5 8.33333 5C8.79359 5 9.16667 4.62691 9.16667 4.16667V0.833333C9.16667 0.37309 8.79359 0 8.33333 0Z" fill="var(--fill-0, #282828)"/>
<path d="M11.6667 5.83333C11.6667 5.37309 12.0397 5 12.5 5C12.9603 5 13.3333 5.37309 13.3333 5.83333V9.16667C13.3333 9.62691 12.9603 10 12.5 10C12.0397 10 11.6667 9.62691 11.6667 9.16667V8.33333H0.833333C0.373077 8.33333 0 7.96024 0 7.5C0 7.03976 0.373077 6.66667 0.833333 6.66667H11.6667V5.83333Z" fill="var(--fill-0, #282828)"/>
<path d="M4.16667 10C3.70641 10 3.33333 10.3731 3.33333 10.8333V11.6667H0.833333C0.373077 11.6667 0 12.0398 0 12.5C0 12.9602 0.373077 13.3333 0.833333 13.3333H3.33333V14.1667C3.33333 14.6269 3.70641 15 4.16667 15C4.62692 15 5 14.6269 5 14.1667V10.8333C5 10.3731 4.62692 10 4.16667 10Z" fill="var(--fill-0, #282828)"/>
<path d="M5.83333 12.5C5.83333 12.0398 6.20641 11.6667 6.66667 11.6667H15.8333C16.2936 11.6667 16.6667 12.0398 16.6667 12.5C16.6667 12.9602 16.2936 13.3333 15.8333 13.3333H6.66667C6.20641 13.3333 5.83333 12.9602 5.83333 12.5Z" fill="var(--fill-0, #282828)"/>
<path d="M15 6.66667C14.5397 6.66667 14.1667 7.03976 14.1667 7.5C14.1667 7.96024 14.5397 8.33333 15 8.33333H15.8333C16.2936 8.33333 16.6667 7.96024 16.6667 7.5C16.6667 7.03976 16.2936 6.66667 15.8333 6.66667H15Z" fill="var(--fill-0, #282828)"/>
<path d="M10 2.5C10 2.03976 10.3731 1.66667 10.8333 1.66667H15.8333C16.2936 1.66667 16.6667 2.03976 16.6667 2.5C16.6667 2.96024 16.2936 3.33333 15.8333 3.33333H10.8333C10.3731 3.33333 10 2.96024 10 2.5Z" fill="var(--fill-0, #282828)"/>
</g>
</svg>
