<svg preserveAspectRatio="none" width="100%" height="100%" overflow="visible" style="display: block;" viewBox="0 0 8 10" fill="none" xmlns="http://www.w3.org/2000/svg">
<g id="Union">
<path fill-rule="evenodd" clip-rule="evenodd" d="M4.4998 0.514181C4.49993 0.50947 4.5 0.504743 4.5 0.5C4.5 0.223858 4.27614 0 4 0C3.72386 0 3.5 0.223858 3.5 0.5C3.5 0.504743 3.50007 0.50947 3.5002 0.51418C2.06006 0.654183 0.906075 1.81494 0.800982 3.28626L0.5 7.5C0.223858 7.5 0 7.72386 0 8C0 8.27614 0.223858 8.5 0.5 8.5H7.5C7.77614 8.5 8 8.27614 8 8C8 7.72386 7.77614 7.5 7.5 7.5L7.19902 3.28626C7.09392 1.81494 5.93994 0.654183 4.4998 0.514181ZM6.49745 7.5L6.20156 3.35751C6.1268 2.31089 5.25592 1.5 4.20664 1.5H3.79336C2.74408 1.5 1.8732 2.31089 1.79844 3.3575L1.50255 7.5H6.49745Z" fill="var(--fill-0, #282828)"/>
<path d="M5 9C5 9.55229 4.55228 10 4 10C3.44772 10 3 9.55229 3 9H5Z" fill="var(--fill-0, #282828)"/>
</g>
</svg>
