<svg preserveAspectRatio="none" width="100%" height="100%" overflow="visible" style="display: block;" viewBox="0 0 20 19" fill="none" xmlns="http://www.w3.org/2000/svg">
<path id="Subtract" d="M12.6465 0.327008C12.9592 0.0509989 13.3892 -0.0922452 13.7754 0.0652894C14.6263 0.412501 15.4189 0.873576 16.1338 1.42955C16.4629 1.68552 16.5532 2.12927 16.4707 2.53795C16.2847 3.45933 16.4208 4.44992 16.9277 5.32798C17.4348 6.20628 18.225 6.81942 19.1162 7.119C19.512 7.25204 19.8518 7.55297 19.9082 7.96666C19.9687 8.41162 20 8.86639 20 9.32798C20 9.78942 19.9687 10.2435 19.9082 10.6883C19.8519 11.1022 19.5121 11.4039 19.1162 11.537C18.225 11.8366 17.4348 12.4498 16.9277 13.328C16.4209 14.206 16.2847 15.1967 16.4707 16.118C16.5532 16.5267 16.4629 16.9705 16.1338 17.2264C15.4189 17.7824 14.6263 18.2435 13.7754 18.5907C13.3891 18.7482 12.9592 18.6041 12.6465 18.328C11.9413 17.7054 11.0147 17.328 10 17.328C8.98533 17.328 8.05871 17.7054 7.35352 18.328C7.04076 18.6041 6.61092 18.7482 6.22461 18.5907C5.37371 18.2435 4.5811 17.7824 3.86621 17.2264C3.53712 16.9705 3.44684 16.5267 3.5293 16.118C3.71528 15.1967 3.57908 14.206 3.07227 13.328C2.56524 12.4498 1.77492 11.8366 0.883789 11.537C0.487885 11.4039 0.148108 11.1022 0.0917969 10.6883C0.0312888 10.2435 7.01129e-06 9.78942 0 9.32798C0 8.86639 0.0312535 8.41162 0.0917969 7.96666C0.148245 7.55297 0.487992 7.25205 0.883789 7.119C1.77496 6.8194 2.56522 6.20622 3.07227 5.32798C3.57916 4.44998 3.71525 3.45934 3.5293 2.53795C3.4468 2.12926 3.5371 1.68551 3.86621 1.42955C4.58113 0.873548 5.37366 0.412497 6.22461 0.0652894C6.61084 -0.0922395 7.04075 0.0509988 7.35352 0.327008C8.05871 0.949638 8.98529 1.32798 10 1.32798C11.0147 1.32798 11.9413 0.949638 12.6465 0.327008ZM10 5.32798C7.79086 5.32798 6 7.11885 6 9.32798C6.00008 11.5371 7.79091 13.328 10 13.328C12.2091 13.328 13.9999 11.5371 14 9.32798C14 7.11885 12.2091 5.32798 10 5.32798Z" fill="var(--fill-0, #282828)"/>
</svg>
