<svg preserveAspectRatio="none" width="100%" height="100%" overflow="visible" style="display: block;" viewBox="0 0 14 14" fill="none" xmlns="http://www.w3.org/2000/svg">
<g id="Union">
<path d="M6 0.666667C6 0.298503 6.2985 0 6.66667 0C7.03483 0 7.33333 0.298503 7.33333 0.666667V1.33333C7.33333 1.7015 7.03483 2 6.66667 2C6.2985 2 6 1.7015 6 1.33333V0.666667Z" fill="var(--fill-0, #282828)"/>
<path d="M10 6.66667C10 8.50765 8.50765 10 6.66667 10C4.82568 10 3.33333 8.50765 3.33333 6.66667C3.33333 4.82568 4.82568 3.33333 6.66667 3.33333C8.50765 3.33333 10 4.82568 10 6.66667Z" fill="var(--fill-0, #282828)"/>
<path d="M6.66667 11.3333C6.2985 11.3333 6 11.6318 6 12V12.6667C6 13.0348 6.2985 13.3333 6.66667 13.3333C7.03483 13.3333 7.33333 13.0348 7.33333 12.6667V12C7.33333 11.6318 7.03483 11.3333 6.66667 11.3333Z" fill="var(--fill-0, #282828)"/>
<path d="M1.95264 2.89543C1.69222 2.63501 1.69222 2.21297 1.95264 1.95256C2.21297 1.69222 2.63509 1.69222 2.89543 1.95256L3.36678 2.42399C3.6272 2.68433 3.6272 3.10645 3.36678 3.36678C3.10645 3.62712 2.68433 3.62712 2.42399 3.36678L1.95264 2.89543Z" fill="var(--fill-0, #282828)"/>
<path d="M9.96647 9.96647C9.70614 10.2268 9.70614 10.6489 9.96647 10.9093L10.4379 11.3807C10.6982 11.641 11.1204 11.641 11.3807 11.3807C11.641 11.1204 11.641 10.6982 11.3807 10.4379L10.9093 9.96647C10.6489 9.70614 10.2268 9.70614 9.96647 9.96647Z" fill="var(--fill-0, #282828)"/>
<path d="M0.666667 7.33333C0.298503 7.33333 0 7.03483 0 6.66667C0 6.2985 0.298503 6 0.666667 6H1.33333C1.7015 6 2 6.2985 2 6.66667C2 7.03483 1.7015 7.33333 1.33333 7.33333H0.666667Z" fill="var(--fill-0, #282828)"/>
<path d="M11.3333 6.66667C11.3333 7.03483 11.6318 7.33333 12 7.33333H12.6667C13.0348 7.33333 13.3333 7.03483 13.3333 6.66667C13.3333 6.2985 13.0348 6 12.6667 6H12C11.6318 6 11.3333 6.2985 11.3333 6.66667Z" fill="var(--fill-0, #282828)"/>
<path d="M2.49886 11.034C2.21688 11.2707 1.79631 11.2339 1.55965 10.9519C1.323 10.6698 1.35978 10.2493 1.64185 10.0126L2.15251 9.58415C2.43457 9.34749 2.85506 9.38428 3.0918 9.66626C3.32845 9.94832 3.29167 10.3688 3.0096 10.6055L2.49886 11.034Z" fill="var(--fill-0, #282828)"/>
<path d="M10.2415 3.66691C10.4782 3.94897 10.8987 3.98576 11.1807 3.7491L11.6914 3.32056C11.9735 3.0839 12.0103 2.66341 11.7736 2.38135C11.5369 2.09928 11.1165 2.0625 10.8344 2.29923L10.3236 2.7277C10.0417 2.96436 10.0049 3.38493 10.2415 3.66691Z" fill="var(--fill-0, #282828)"/>
</g>
</svg>
