<svg preserveAspectRatio="none" width="100%" height="100%" overflow="visible" style="display: block;" viewBox="0 0 17 17" fill="none" xmlns="http://www.w3.org/2000/svg">
<path id="Subtract" d="M13.333 0C15.1738 0 16.6668 1.49221 16.667 3.33301V13.333C16.667 15.174 15.174 16.667 13.333 16.667H3.33301C1.49221 16.6668 0 15.1738 0 13.333V3.33301C0.000175726 1.49232 1.49232 0.000175994 3.33301 0H13.333ZM8.33301 2.5C7.87303 2.50018 7.50018 2.87303 7.5 3.33301V7.5H3.33301C2.87303 7.50018 2.50018 7.87303 2.5 8.33301C2.5 8.79314 2.87292 9.16682 3.33301 9.16699H7.5V13.333C7.5 13.7931 7.87292 14.1668 8.33301 14.167C8.79324 14.167 9.16699 13.7932 9.16699 13.333V9.16699H13.333C13.7932 9.16699 14.167 8.79324 14.167 8.33301C14.1668 7.87292 13.7931 7.5 13.333 7.5H9.16699V3.33301C9.16681 2.87292 8.79313 2.5 8.33301 2.5Z" fill="var(--fill-0, #282828)"/>
</svg>
