<svg preserveAspectRatio="none" width="100%" height="100%" overflow="visible" style="display: block;" viewBox="0 0 14 12" fill="none" xmlns="http://www.w3.org/2000/svg">
<path id="Union" d="M12.667 10.667C13.0349 10.6672 13.3328 10.9651 13.333 11.333C13.333 11.7011 13.035 11.9998 12.667 12H0.666992C0.298802 12 0 11.7012 0 11.333C0.000165197 10.965 0.298904 10.667 0.666992 10.667H12.667ZM6.66699 0C6.75234 6.55802e-06 6.83418 0.0156893 6.90918 0.0449219C6.99274 0.0774212 7.07121 0.127849 7.13867 0.195312L9.9668 3.02344C10.2272 3.2838 10.2271 3.70647 9.9668 3.9668C9.70657 4.22686 9.28475 4.22674 9.02441 3.9668L7.33398 2.27637V8.66699C7.33381 9.03501 7.03505 9.33298 6.66699 9.33301C6.29891 9.33301 6.00018 9.03503 6 8.66699V2.27637L4.30957 3.9668C4.04927 4.22673 3.62745 4.22687 3.36719 3.9668C3.10683 3.70644 3.10686 3.28377 3.36719 3.02344L6.19238 0.198242C6.20355 0.186925 6.21559 0.176514 6.22754 0.166016C6.28042 0.11952 6.33866 0.0825746 6.40039 0.0556641C6.48198 0.0200596 6.57228 0 6.66699 0Z" fill="var(--fill-0, #282828)"/>
</svg>
