<svg preserveAspectRatio="none" width="100%" height="100%" overflow="visible" style="display: block;" viewBox="0 0 10 10" fill="none" xmlns="http://www.w3.org/2000/svg">
<path id="Union" fill-rule="evenodd" clip-rule="evenodd" d="M7.58818 6.88107C8.90631 5.21297 8.79532 2.78491 7.2552 1.2448C5.59548 -0.414932 2.90452 -0.414932 1.2448 1.2448C-0.414932 2.90452 -0.414932 5.59548 1.2448 7.2552C2.78491 8.79532 5.21297 8.90631 6.88107 7.58818L8.66942 9.37652C8.86468 9.57179 9.18126 9.57179 9.37652 9.37652C9.57179 9.18126 9.57179 8.86468 9.37652 8.66942L7.58818 6.88107ZM6.5481 1.9519C7.8173 3.22111 7.8173 5.27889 6.5481 6.5481C5.27889 7.8173 3.22111 7.8173 1.9519 6.5481C0.682699 5.27889 0.682699 3.22111 1.9519 1.9519C3.22111 0.682699 5.27889 0.682699 6.5481 1.9519Z" fill="var(--fill-0, #282828)"/>
</svg>
