<svg preserveAspectRatio="none" width="100%" height="100%" overflow="visible" style="display: block;" viewBox="0 0 20 17" fill="none" xmlns="http://www.w3.org/2000/svg">
<path id="Union" d="M16.547 14.1972C17.0993 14.1972 17.547 14.6449 17.547 15.1972C17.547 15.7495 17.0993 16.1972 16.547 16.1972H2.54702C1.99473 16.1972 1.54702 15.7495 1.54702 15.1972C1.54702 14.6449 1.99473 14.1972 2.54702 14.1972H16.547ZM8.71499 0.445221C9.11077 -0.148459 9.98318 -0.148355 10.379 0.445221L12.9923 4.36514C13.2986 4.82458 13.9195 4.94861 14.379 4.64249L17.5382 2.53604C18.2795 2.04189 19.2489 2.69085 19.0744 3.56436L17.7082 12.3935C17.6146 12.8607 17.2042 13.1971 16.7277 13.1972H2.36733C1.89074 13.1972 1.48045 12.8608 1.38686 12.3935L0.0206514 3.56436C-0.15392 2.69095 0.814609 2.04229 1.55581 2.53604L4.71499 4.64249C5.17445 4.94879 5.79531 4.82451 6.10171 4.36514L8.71499 0.445221Z" fill="var(--fill-0, #282828)"/>
</svg>
