<svg preserveAspectRatio="none" width="100%" height="100%" overflow="visible" style="display: block;" viewBox="0 0 17 9" fill="none" xmlns="http://www.w3.org/2000/svg">
<path id="Union" d="M5.83301 0C6.29314 0 6.66682 0.37292 6.66699 0.833008C6.66699 1.29325 6.29325 1.66699 5.83301 1.66699H4.16699C2.78628 1.66699 1.66699 2.78628 1.66699 4.16699C1.66717 5.54755 2.78639 6.66699 4.16699 6.66699H5.83301C6.29325 6.66699 6.66699 7.03976 6.66699 7.5C6.66699 7.96024 6.29325 8.33301 5.83301 8.33301H4.16699C1.86591 8.33301 0.000175968 6.46803 0 4.16699C0 1.86581 1.86581 0 4.16699 0H5.83301ZM12.5 0C14.8012 1.61067e-07 16.667 1.86581 16.667 4.16699C16.6668 6.46803 14.8011 8.33301 12.5 8.33301H10.833C10.3729 8.33283 10 7.96013 10 7.5C10 7.03987 10.3729 6.66717 10.833 6.66699H12.5C13.8806 6.66699 14.9998 5.54755 15 4.16699C15 2.78628 13.8807 1.66699 12.5 1.66699H10.833C10.3729 1.66682 10 1.29314 10 0.833008C10.0002 0.373029 10.373 0.000175667 10.833 0H12.5ZM10.833 3.33301C11.2932 3.33301 11.667 3.70675 11.667 4.16699C11.6668 4.62708 11.2931 5 10.833 5H5.83301C5.37303 4.99982 5.00018 4.62697 5 4.16699C5 3.70686 5.37292 3.33318 5.83301 3.33301H10.833Z" fill="var(--fill-0, #282828)"/>
</svg>
