<svg preserveAspectRatio="none" width="100%" height="100%" overflow="visible" style="display: block;" viewBox="0 0 14 17" fill="none" xmlns="http://www.w3.org/2000/svg">
<g id="Union">
<path fill-rule="evenodd" clip-rule="evenodd" d="M7.49967 0.856969C7.49989 0.849117 7.5 0.841238 7.5 0.833333C7.5 0.373096 7.1269 0 6.66667 0C6.20643 0 5.83333 0.373096 5.83333 0.833333C5.83333 0.841237 5.83344 0.849116 5.83366 0.856967C3.43343 1.09031 1.51013 3.0249 1.33497 5.4771L0.833333 12.5C0.373096 12.5 0 12.8731 0 13.3333C0 13.7936 0.373096 14.1667 0.833333 14.1667H12.5C12.9602 14.1667 13.3333 13.7936 13.3333 13.3333C13.3333 12.8731 12.9602 12.5 12.5 12.5L11.9984 5.4771C11.8232 3.0249 9.8999 1.09031 7.49967 0.856969ZM10.8291 12.5L10.3359 5.59584C10.2113 3.85149 8.75987 2.5 7.01107 2.5H6.32226C4.57347 2.5 3.122 3.85149 2.9974 5.59584L2.50425 12.5H10.8291Z" fill="var(--fill-0, #282828)"/>
<path d="M8.33333 15C8.33333 15.9205 7.58714 16.6667 6.66667 16.6667C5.74619 16.6667 5 15.9205 5 15H8.33333Z" fill="var(--fill-0, #282828)"/>
</g>
</svg>
