<svg preserveAspectRatio="none" width="100%" height="100%" overflow="visible" style="display: block;" viewBox="0 0 10 10" fill="none" xmlns="http://www.w3.org/2000/svg">
<path id="Subtract" d="M8 0C9.10457 0 10 0.895431 10 2V8C10 9.10457 9.10457 10 8 10H2C0.895431 10 1.61066e-08 9.10457 0 8V2C0 0.895431 0.895431 1.61064e-08 2 0H8ZM4.47559 2.52539C4.28039 2.33019 3.96286 2.33027 3.76758 2.52539L1.64648 4.64648C1.45137 4.84169 1.45148 5.15828 1.64648 5.35352L3.76758 7.47461C3.96285 7.66952 4.28043 7.66977 4.47559 7.47461C4.67018 7.27943 4.67026 6.96268 4.47559 6.76758L3.20703 5.5H8C8.27585 5.49974 8.4999 5.27589 8.5 5C8.49992 4.72409 8.27587 4.50026 8 4.5H3.20703L4.47559 3.23242C4.67033 3.03733 4.67011 2.72058 4.47559 2.52539Z" fill="var(--fill-0, #282828)"/>
</svg>
