<svg preserveAspectRatio="none" width="100%" height="100%" overflow="visible" style="display: block;" viewBox="0 0 16 16" fill="none" xmlns="http://www.w3.org/2000/svg">
<path id="Union" fill-rule="evenodd" clip-rule="evenodd" d="M12.647 11.4685C14.8439 8.68829 14.6589 4.64152 12.092 2.07466C9.32579 -0.691553 4.84087 -0.691554 2.07466 2.07466C-0.691553 4.84087 -0.691553 9.32579 2.07466 12.092C4.64152 14.6589 8.68829 14.8439 11.4685 12.647L14.449 15.6275C14.7745 15.953 15.3021 15.953 15.6275 15.6275C15.953 15.3021 15.953 14.7745 15.6275 14.449L12.647 11.4685ZM10.9135 3.25317C13.0288 5.36851 13.0288 8.79816 10.9135 10.9135C8.79816 13.0288 5.36851 13.0288 3.25317 10.9135C1.13783 8.79816 1.13783 5.36851 3.25317 3.25317C5.36851 1.13783 8.79816 1.13783 10.9135 3.25317Z" fill="var(--fill-0, #282828)"/>
</svg>
