<svg preserveAspectRatio="none" width="100%" height="100%" overflow="visible" style="display: block;" viewBox="0 0 20 20" fill="none" xmlns="http://www.w3.org/2000/svg">
<path id="Subtract" d="M10 0C15.5228 0 20 4.47715 20 10C20 15.5228 15.5228 20 10 20C4.47715 20 0 15.5228 0 10C0 4.47715 4.47715 0 10 0ZM6 9C5.44772 9 5 9.44772 5 10C5 10.5523 5.44772 11 6 11C6.55228 11 7 10.5523 7 10C7 9.44772 6.55228 9 6 9ZM10 9C9.44772 9 9 9.44772 9 10C9 10.5523 9.44772 11 10 11C10.5523 11 11 10.5523 11 10C11 9.44772 10.5523 9 10 9ZM14 9C13.4477 9 13 9.44772 13 10C13 10.5523 13.4477 11 14 11C14.5523 11 15 10.5523 15 10C15 9.44772 14.5523 9 14 9Z" fill="var(--fill-0, #282828)"/>
</svg>
