<svg preserveAspectRatio="none" width="100%" height="100%" overflow="visible" style="display: block;" viewBox="0 0 10 10" fill="none" xmlns="http://www.w3.org/2000/svg">
<g id="Union">
<path d="M5 5.5C5.82843 5.5 6.5 4.82843 6.5 4C6.5 3.17157 5.82843 2.5 5 2.5C4.17157 2.5 3.5 3.17157 3.5 4C3.5 4.82843 4.17157 5.5 5 5.5Z" fill="var(--fill-0, #282828)"/>
<path fill-rule="evenodd" clip-rule="evenodd" d="M2.28671 9.20047C0.910538 8.30975 0 6.76129 0 5C0 2.23859 2.23857 0 5 0C7.76143 0 10 2.23859 10 5C10 6.81216 9.03592 8.39917 7.59268 9.27612C6.8367 9.73547 5.94923 10 5 10C3.99986 10 3.06816 9.70627 2.28671 9.20047ZM2.35365 7.99954C2.68027 6.84555 3.74139 6 5 6C6.25861 6 7.31973 6.84555 7.64635 7.99954C8.47646 7.2666 9 6.19443 9 5C9 2.79086 7.20914 1 5 1C2.79086 1 1 2.79086 1 5C1 6.19443 1.52354 7.2666 2.35365 7.99954Z" fill="var(--fill-0, #282828)"/>
</g>
</svg>
