<svg preserveAspectRatio="none" width="100%" height="100%" overflow="visible" style="display: block;" viewBox="0 0 17 17" fill="none" xmlns="http://www.w3.org/2000/svg">
<g id="Union">
<path d="M7.5 0.833333C7.5 0.373128 7.87313 0 8.33333 0C8.79354 0 9.16667 0.373128 9.16667 0.833333V1.66667C9.16667 2.12687 8.79354 2.5 8.33333 2.5C7.87313 2.5 7.5 2.12687 7.5 1.66667V0.833333Z" fill="var(--fill-0, #282828)"/>
<path fill-rule="evenodd" clip-rule="evenodd" d="M8.33333 12.5C10.6346 12.5 12.5 10.6346 12.5 8.33333C12.5 6.0321 10.6346 4.16667 8.33333 4.16667C6.0321 4.16667 4.16667 6.0321 4.16667 8.33333C4.16667 10.6346 6.0321 12.5 8.33333 12.5ZM8.33333 10.8333C9.71405 10.8333 10.8333 9.71405 10.8333 8.33333C10.8333 6.95262 9.71405 5.83333 8.33333 5.83333C6.95262 5.83333 5.83333 6.95262 5.83333 8.33333C5.83333 9.71405 6.95262 10.8333 8.33333 10.8333Z" fill="var(--fill-0, #282828)"/>
<path d="M8.33333 14.1667C7.87313 14.1667 7.5 14.5398 7.5 15V15.8333C7.5 16.2935 7.87313 16.6667 8.33333 16.6667C8.79354 16.6667 9.16667 16.2935 9.16667 15.8333V15C9.16667 14.5398 8.79354 14.1667 8.33333 14.1667Z" fill="var(--fill-0, #282828)"/>
<path d="M2.4408 3.61928C2.11528 3.29376 2.11528 2.76621 2.4408 2.44069C2.76621 2.11528 3.29386 2.11528 3.61928 2.44069L4.20848 3.02999C4.534 3.35541 4.534 3.88306 4.20848 4.20848C3.88306 4.53389 3.35541 4.53389 3.02999 4.20848L2.4408 3.61928Z" fill="var(--fill-0, #282828)"/>
<path d="M12.4581 12.4581C12.1327 12.7835 12.1327 13.3112 12.4581 13.6366L13.0474 14.2259C13.3728 14.5513 13.9005 14.5513 14.2259 14.2259C14.5513 13.9005 14.5513 13.3728 14.2259 13.0474L13.6366 12.4581C13.3112 12.1327 12.7835 12.1327 12.4581 12.4581Z" fill="var(--fill-0, #282828)"/>
<path d="M0.833333 9.16667C0.373128 9.16667 0 8.79354 0 8.33333C0 7.87313 0.373128 7.5 0.833333 7.5H1.66667C2.12687 7.5 2.5 7.87313 2.5 8.33333C2.5 8.79354 2.12687 9.16667 1.66667 9.16667H0.833333Z" fill="var(--fill-0, #282828)"/>
<path d="M14.1667 8.33333C14.1667 8.79354 14.5398 9.16667 15 9.16667H15.8333C16.2935 9.16667 16.6667 8.79354 16.6667 8.33333C16.6667 7.87313 16.2935 7.5 15.8333 7.5H15C14.5398 7.5 14.1667 7.87313 14.1667 8.33333Z" fill="var(--fill-0, #282828)"/>
<path d="M3.12358 13.7925C2.7711 14.0883 2.24538 14.0424 1.94956 13.6899C1.65375 13.3373 1.69973 12.8117 2.05231 12.5158L2.69063 11.9802C3.04321 11.6844 3.56883 11.7303 3.86475 12.0828C4.16056 12.4354 4.11458 12.961 3.762 13.2569L3.12358 13.7925Z" fill="var(--fill-0, #282828)"/>
<path d="M12.8019 4.58364C13.0977 4.93622 13.6234 4.9822 13.9759 4.68638L14.6143 4.1507C14.9668 3.85488 15.0128 3.32926 14.717 2.97668C14.4212 2.6241 13.8956 2.57812 13.543 2.87404L12.9046 3.40963C12.5521 3.70544 12.5061 4.23116 12.8019 4.58364Z" fill="var(--fill-0, #282828)"/>
</g>
</svg>
