<svg preserveAspectRatio="none" width="100%" height="100%" overflow="visible" style="display: block;" viewBox="0 0 12 17" fill="none" xmlns="http://www.w3.org/2000/svg">
<path id="Union" d="M10.833 5C11.2931 5 11.6668 5.37292 11.667 5.83301V7.5C11.667 10.4384 9.49359 12.8678 6.66699 13.2725V15H8.33301C8.79314 15 9.16682 15.3729 9.16699 15.833C9.16699 16.2932 8.79325 16.667 8.33301 16.667H3.33301C2.87292 16.6668 2.5 16.2931 2.5 15.833C2.50018 15.373 2.87303 15.0002 3.33301 15H5V13.2725C2.17319 12.8681 0 10.4387 0 7.5V5.83301C0.000175394 5.37303 0.373028 5.00018 0.833008 5C1.29314 5 1.66682 5.37292 1.66699 5.83301V7.5C1.66699 9.80108 3.53197 11.6668 5.83301 11.667C8.13419 11.667 10 9.80119 10 7.5V5.83301C10.0002 5.37303 10.373 5.00018 10.833 5ZM5.83301 0C7.21372 0 8.33301 1.11929 8.33301 2.5V7.5C8.33301 8.88071 7.21372 10 5.83301 10C4.45245 9.99982 3.33301 8.8806 3.33301 7.5V2.5C3.33301 1.1194 4.45245 0.000175994 5.83301 0Z" fill="var(--fill-0, #282828)"/>
</svg>
