<svg preserveAspectRatio="none" width="100%" height="100%" overflow="visible" style="display: block;" viewBox="0 0 17 16" fill="none" xmlns="http://www.w3.org/2000/svg">
<g id="Union">
<path d="M16.372 3.03954C16.5348 2.87682 16.5348 2.613 16.372 2.45029L14.0446 0.122874C13.7821 -0.139611 13.3333 0.0462923 13.3333 0.417503V1.91158H10.8333C9.77458 1.91158 8.80806 2.30647 8.07302 2.957C8.43458 3.40891 8.71935 3.92493 8.90756 4.48528C9.3659 3.93149 10.0584 3.57858 10.8333 3.57825H13.3333V5.07232C13.3333 5.44354 13.7821 5.62944 14.0446 5.36695L16.372 3.03954Z" fill="var(--fill-0, #282828)"/>
<path d="M16.372 13.0395C16.5348 12.8768 16.5348 12.613 16.372 12.4503L14.0446 10.1229C13.7821 9.86039 13.3333 10.0463 13.3333 10.4175V11.9116H10.8333C9.45337 11.9107 8.33496 10.7917 8.33496 9.41158H8.33333V6.07825C8.33333 5.79286 8.30464 5.51417 8.24998 5.24491C8.24955 5.24278 8.24912 5.24065 8.24868 5.23852C8.12316 4.62509 7.86282 4.06076 7.5 3.57784C6.73981 2.56603 5.52966 1.91158 4.16667 1.91158H0.833333C0.373096 1.91158 0 2.28468 0 2.74491C0 3.20515 0.373096 3.57825 0.833333 3.57825H4.16667C5.54738 3.57825 6.66667 4.69753 6.66667 6.07825V9.41158C6.66667 9.69697 6.69536 9.97566 6.75001 10.2449L6.75132 10.2513C6.87684 10.8647 7.13717 11.4291 7.5 11.912C8.26019 12.9238 9.47034 13.5782 10.8333 13.5782H13.3333V15.0723C13.3333 15.4435 13.7821 15.6294 14.0446 15.367L16.372 13.0395Z" fill="var(--fill-0, #282828)"/>
<path d="M0 12.7449C0 12.2847 0.373096 11.9116 0.833333 11.9116H4.16667C4.94161 11.9116 5.6342 11.559 6.09276 11.0055C6.28097 11.5655 6.56562 12.0812 6.92697 12.5328C6.19194 13.1834 5.22542 13.5782 4.16667 13.5782H0.833333C0.373096 13.5782 0 13.2052 0 12.7449Z" fill="var(--fill-0, #282828)"/>
</g>
</svg>
