<svg preserveAspectRatio="none" width="100%" height="100%" overflow="visible" style="display: block;" viewBox="0 0 14 14" fill="none" xmlns="http://www.w3.org/2000/svg">
<path id="Union" d="M10.001 0C10.7371 0.000175825 11.3338 0.596886 11.334 1.33301V2.66699H12C12.7363 2.66699 13.3328 3.26377 13.333 4V10C13.3328 10.7362 12.7363 11.334 12 11.334H11.334V12C11.334 12.7363 10.7372 13.3328 10.001 13.333H3.33398C2.5976 13.333 2.00098 12.7364 2.00098 12V5.33398H2V11.334H1.33301C0.596887 11.3338 0.000178786 10.7361 0 10V4C0.00017633 3.26388 0.596887 2.66717 1.33301 2.66699H2.00098V1.33301C2.00115 0.596778 2.59771 0 3.33398 0H10.001ZM3.33398 8V12H10.001V8H3.33398ZM3.33398 2.66699H10.001V1.33301H3.33398V2.66699Z" fill="var(--fill-0, #282828)"/>
</svg>
