<svg preserveAspectRatio="none" width="100%" height="100%" overflow="visible" style="display: block;" viewBox="0 0 11 19" fill="none" xmlns="http://www.w3.org/2000/svg">
<path id="Union" d="M8.77824 12.2928C9.16876 11.9023 9.80178 11.9023 10.1923 12.2928C10.5828 12.6833 10.5828 13.3163 10.1923 13.7069L5.95012 17.95C5.55975 18.3403 4.9266 18.3401 4.53606 17.95L0.292893 13.7069C-0.097556 13.3163 -0.097556 12.6833 0.292893 12.2928C0.683399 11.9023 1.31643 11.9023 1.70696 12.2928L5.24309 15.8279L8.77824 12.2928ZM4.53606 0.29279C4.9266 -0.0975283 5.55966 -0.0976653 5.95012 0.29279L10.1923 4.53498C10.5828 4.9255 10.5828 5.55949 10.1923 5.95002C9.80184 6.34018 9.16869 6.34021 8.77824 5.95002L5.24309 2.41388L1.70696 5.95002C1.31647 6.34016 0.683328 6.34023 0.292893 5.95002C-0.0976311 5.55949 -0.0976311 4.9255 0.292893 4.53498L4.53606 0.29279Z" fill="var(--fill-0, #282828)"/>
</svg>
