<svg preserveAspectRatio="none" width="100%" height="100%" overflow="visible" style="display: block;" viewBox="0 0 10 9" fill="none" xmlns="http://www.w3.org/2000/svg">
<path id="Union" d="M8.27344 7.09863C8.5494 7.09885 8.77344 7.32262 8.77344 7.59863C8.77341 7.87462 8.54938 8.09842 8.27344 8.09863H1.27344C0.99731 8.09863 0.773462 7.87475 0.773437 7.59863C0.773437 7.32249 0.997295 7.09863 1.27344 7.09863H8.27344ZM4.35742 0.222656C4.55536 -0.0741352 4.99156 -0.0741853 5.18945 0.222656L6.49609 2.18262C6.64931 2.41225 6.95974 2.47443 7.18945 2.32129L8.76855 1.26855C9.13919 1.02146 9.62349 1.34542 9.53613 1.78223L8.85352 6.19629C8.80677 6.43 8.60162 6.59863 8.36328 6.59863H1.18359C0.945253 6.59863 0.739125 6.43 0.692383 6.19629L0.00976562 1.78223C-0.0775578 1.34544 0.406716 1.02147 0.777344 1.26855L2.35742 2.32129C2.58717 2.4743 2.89765 2.41232 3.05078 2.18262L4.35742 0.222656Z" fill="var(--fill-0, #282828)"/>
</svg>
