<svg preserveAspectRatio="none" width="100%" height="100%" overflow="visible" style="display: block;" viewBox="0 0 10 9" fill="none" xmlns="http://www.w3.org/2000/svg">
<path id="Subtract" d="M4.50391 0C4.72583 6.24605e-05 4.94187 0.0738917 5.11719 0.209961L6.13477 1H9C9.55228 1 10 1.44772 10 2V8C10 8.55228 9.55228 9 9 9H1C0.447715 9 0 8.55228 0 8V1C0 0.447715 0.447715 0 1 0H4.50391ZM3 4.5C2.72386 4.5 2.5 4.72386 2.5 5C2.5 5.27614 2.72386 5.5 3 5.5H7C7.27614 5.5 7.5 5.27614 7.5 5C7.5 4.72386 7.27614 4.5 7 4.5H3Z" fill="var(--fill-0, #282828)"/>
</svg>
