<svg preserveAspectRatio="none" width="100%" height="100%" overflow="visible" style="display: block;" viewBox="0 0 14 11" fill="none" xmlns="http://www.w3.org/2000/svg">
<path id="Union" d="M4.53516 0.292889C4.9257 -0.0976512 5.5597 -0.097608 5.9502 0.292889C6.34034 0.683322 6.34039 1.31648 5.9502 1.70695L3.41406 4.24211H13C13.5521 4.24211 13.9997 4.69004 14 5.24211C14 5.79439 13.5523 6.24211 13 6.24211H3.41406L5.9502 8.77824C6.34031 9.16869 6.34041 9.80185 5.9502 10.1923C5.55966 10.5828 4.92565 10.5828 4.53516 10.1923L0.292969 5.95012C0.261919 5.91907 0.23412 5.88536 0.208008 5.85148C0.194226 5.83358 0.180536 5.81562 0.167969 5.7968C0.140053 5.75498 0.115667 5.71159 0.0947266 5.66691C0.0746382 5.62413 0.0569119 5.57993 0.0429688 5.5341C0.0378901 5.51738 0.0344568 5.50024 0.0302734 5.48332C0.0111763 5.40613 0 5.32519 0 5.24211C7.14534e-05 5.0902 0.0340539 4.94623 0.0947266 4.8173C0.115694 4.77266 0.140034 4.72919 0.167969 4.68742C0.204619 4.6326 0.246495 4.58152 0.292969 4.53508L4.53516 0.292889Z" fill="var(--fill-0, #282828)"/>
</svg>
