<svg preserveAspectRatio="none" width="100%" height="100%" overflow="visible" style="display: block;" viewBox="0 0 13 11" fill="none" xmlns="http://www.w3.org/2000/svg">
<path id="Union" d="M11.0313 9.46474C11.3995 9.46474 11.6983 9.76354 11.6983 10.1317C11.6981 10.4998 11.3994 10.7977 11.0313 10.7977H1.69828C1.3302 10.7977 1.03146 10.4998 1.03129 10.1317C1.03129 9.76354 1.33009 9.46474 1.69828 9.46474H11.0313ZM5.81059 0.296768C6.07453 -0.0988575 6.65612 -0.0989882 6.91996 0.296768L8.66215 2.91005C8.86643 3.21621 9.2797 3.29878 9.58598 3.09462L11.6924 1.6913C12.1865 1.36191 12.832 1.79366 12.7159 2.37587L11.8057 8.26259C11.7432 8.574 11.4691 8.79775 11.1514 8.79775H1.57816C1.2605 8.79775 0.986329 8.57402 0.923866 8.26259L0.0137102 2.37587C-0.102394 1.79367 0.543076 1.36192 1.03715 1.6913L3.14359 3.09462C3.44995 3.29886 3.86416 3.2164 4.0684 2.91005L5.81059 0.296768Z" fill="var(--fill-0, #282828)"/>
</svg>
