<svg preserveAspectRatio="none" width="100%" height="100%" overflow="visible" style="display: block;" viewBox="0 0 14 11" fill="none" xmlns="http://www.w3.org/2000/svg">
<path id="Union" d="M2.08105 0.415039C2.34136 0.1549 2.76313 0.154913 3.02344 0.415039L6.45508 3.84668C6.52402 3.83568 6.59495 3.8291 6.66699 3.8291C7.40322 3.82928 8 4.42681 8 5.16309C7.99998 5.23464 7.99232 5.30455 7.98145 5.37305L11.5088 8.90039C11.7691 9.16069 11.769 9.58241 11.5088 9.84277C11.2484 10.1031 10.8268 10.1031 10.5664 9.84277L10.1182 9.39453C9.10346 9.98475 7.92553 10.3251 6.66699 10.3252C3.45972 10.3252 0.764287 8.13183 0 5.16309C0.36831 3.73209 1.1862 2.48228 2.29297 1.57031L2.08105 1.3584C1.82071 1.09805 1.82071 0.675389 2.08105 0.415039ZM4.43164 3.70898C4.15885 4.12723 4 4.62653 4 5.16309C4.00022 6.63566 5.19437 7.8291 6.66699 7.8291C7.20357 7.82904 7.7014 7.66848 8.11914 7.39551L7.13379 6.41016C6.98835 6.46464 6.83144 6.49605 6.66699 6.49609C5.93075 6.49609 5.33323 5.89928 5.33301 5.16309C5.33301 4.9988 5.3646 4.84162 5.41895 4.69629L4.43164 3.70898ZM6.66699 0C9.87427 0.000148416 12.5689 2.19424 13.333 5.16309C13.0988 6.07277 12.6819 6.90855 12.126 7.63184L9.30762 4.81348C9.15127 3.62037 8.20874 2.67763 7.01562 2.52148L4.76172 0.267578C5.36682 0.0936171 6.00597 0 6.66699 0Z" fill="var(--fill-0, #282828)"/>
</svg>
