<svg preserveAspectRatio="none" width="100%" height="100%" overflow="visible" style="display: block;" viewBox="0 0 14 20" fill="none" xmlns="http://www.w3.org/2000/svg">
<path id="Union" d="M13 6C13.5523 6 14 6.44772 14 7V9C14 12.5264 11.3921 15.4414 8 15.9268V18H10C10.5523 18 11 18.4477 11 19C11 19.5523 10.5523 20 10 20H4C3.44772 20 3 19.5523 3 19C3 18.4477 3.44772 18 4 18H6V15.9268C2.60787 15.4414 0 12.5264 0 9V7C0 6.44772 0.447715 6 1 6C1.55228 6 2 6.44772 2 7V9C2 11.7614 4.23858 14 7 14C9.76142 14 12 11.7614 12 9V7C12 6.44772 12.4477 6 13 6ZM7 0C8.65685 0 10 1.34315 10 3V9C10 10.6569 8.65685 12 7 12C5.34315 12 4 10.6569 4 9V3C4 1.34315 5.34315 0 7 0ZM7 2C6.44772 2 6 2.44772 6 3V9C6 9.55228 6.44772 10 7 10C7.55228 10 8 9.55228 8 9V3C8 2.44772 7.55228 2 7 2Z" fill="var(--fill-0, #282828)"/>
</svg>
