<svg preserveAspectRatio="none" width="100%" height="100%" overflow="visible" style="display: block;" viewBox="0 0 20 16" fill="none" xmlns="http://www.w3.org/2000/svg">
<path id="Subtract" d="M18 0C19.1046 2.57702e-07 20 0.895431 20 2V14C20 15.1046 19.1046 16 18 16H2C0.895431 16 0 15.1046 0 14V2C0 0.895431 0.895431 1.61064e-08 2 0H18ZM15.6572 3.81836C15.2667 3.42786 14.6337 3.42792 14.2432 3.81836L10 8.06055L5.75781 3.81836C5.36729 3.42784 4.7333 3.42784 4.34277 3.81836C3.95266 4.20887 3.95249 4.84201 4.34277 5.23242L9.29297 10.1816C9.68349 10.5722 10.3165 10.5722 10.707 10.1816L15.6572 5.23242C16.0476 4.842 16.0474 4.20888 15.6572 3.81836Z" fill="var(--fill-0, #282828)"/>
</svg>
