<svg preserveAspectRatio="none" width="100%" height="100%" overflow="visible" style="display: block;" viewBox="0 0 12 9" fill="none" xmlns="http://www.w3.org/2000/svg">
<path id="Union" d="M3.7793 0.244065C4.10474 -0.0813791 4.63259 -0.0813307 4.95801 0.244065C5.28342 0.569479 5.28346 1.09733 4.95801 1.42278L2.8457 3.53508H10.833C11.2932 3.53508 11.667 3.90883 11.667 4.36906C11.6669 4.82919 11.2932 5.20207 10.833 5.20207H2.84473L4.95801 7.31535C5.28327 7.64071 5.28324 8.16765 4.95801 8.49309C4.63256 8.81854 4.10471 8.8185 3.7793 8.49309L0.244141 4.95793C0.186487 4.90027 0.137469 4.83413 0.0986328 4.76164C0.0688097 4.70592 0.0455439 4.64767 0.0292969 4.58781C0.0103502 4.51809 2.21698e-05 4.44479 0 4.36906C0 4.27119 0.0168573 4.17701 0.0478516 4.08977C0.0609795 4.05273 0.0771762 4.01662 0.0957031 3.98137L0.100586 3.9716C0.107072 3.95966 0.11405 3.94803 0.121094 3.93645C0.155033 3.88063 0.195897 3.82746 0.244141 3.77922L3.7793 0.244065Z" fill="var(--fill-0, #282828)"/>
</svg>
