<svg preserveAspectRatio="none" width="100%" height="100%" overflow="visible" style="display: block;" viewBox="0 0 17 17" fill="none" xmlns="http://www.w3.org/2000/svg">
<path id="Subtract" d="M8.33301 0C12.9353 0 16.6668 3.73078 16.667 8.33301C16.667 12.9354 12.9354 16.667 8.33301 16.667C3.73078 16.6668 0 12.9353 0 8.33301C0.000175744 3.73089 3.73089 0.000175747 8.33301 0ZM12.7529 5.38672C12.4276 5.06144 11.8996 5.06152 11.5742 5.38672L7.44922 9.51172L5.09277 7.15527C4.76734 6.82984 4.23948 6.82986 3.91406 7.15527C3.58881 7.48066 3.58878 8.00761 3.91406 8.33301L6.86035 11.2793C7.18578 11.6047 7.71365 11.6047 8.03906 11.2793L12.7529 6.56543C13.0782 6.24 13.0783 5.71209 12.7529 5.38672Z" fill="var(--fill-0, #282828)"/>
</svg>
