<svg preserveAspectRatio="none" width="100%" height="100%" overflow="visible" style="display: block;" viewBox="0 0 14 12" fill="none" xmlns="http://www.w3.org/2000/svg">
<path id="Union" d="M0.8125 0.814453C1.07285 0.554104 1.49551 0.554104 1.75586 0.814453L3.58496 2.64355H3.58594L4.53906 3.59668H4.53809L6.66699 5.72559V5.72461L8 7.05762V7.05859L9.33301 8.3916V8.39063L9.48633 8.54395H9.48535L10.2451 9.30371H10.2461L11.1846 10.2422C11.1912 10.2488 11.2002 10.2535 11.207 10.2598C11.2052 10.2612 11.203 10.2623 11.2012 10.2637C11.4423 10.5252 11.4374 10.9317 11.1836 11.1855C10.9233 11.4457 10.5015 11.4455 10.2412 11.1855L9.99902 10.9434C9.80651 11.0216 9.6093 11.0911 9.40625 11.1465C9.38176 11.1531 9.35715 11.1577 9.33301 11.1611V10.2773L8 8.94434V11.334C8 11.8833 7.37308 12.1968 6.93359 11.8672L2.66699 8.66797H0.666992C0.29882 8.66797 1.89259e-05 8.36915 0 8.00098V4.00098C0 3.63279 0.298808 3.33398 0.666992 3.33398H2.38965L0.8125 1.75684C0.552607 1.49652 0.552482 1.07469 0.8125 0.814453ZM3.11133 4.66797H1.33301V7.33398H3.11133L6.66699 10.001V7.61133L3.46094 4.40527L3.11133 4.66797ZM9.40625 0.855469C11.6686 1.47272 13.333 3.54251 13.333 6.00098C13.333 7.26401 12.8922 8.4233 12.1582 9.33691C12.1478 9.32494 12.1393 9.31119 12.1279 9.2998L11.21 8.38184C11.7052 7.71696 12 6.89419 12 6.00098C12 4.25973 10.8861 2.78078 9.33301 2.23145V0.839844C9.35719 0.843236 9.38172 0.848788 9.40625 0.855469ZM9.33301 3.33398C10.1429 3.94214 10.667 4.9104 10.667 6.00098C10.667 6.5356 10.5402 7.04045 10.3164 7.48828L9.33301 6.50391V3.33398ZM6.93359 0.133789C7.37305 -0.195255 8 0.118801 8 0.667969V5.1709L6.66699 3.83789V2.00098L5.61719 2.78809L4.66406 1.83496L6.93359 0.133789Z" fill="var(--fill-0, #282828)"/>
</svg>
