<svg preserveAspectRatio="none" width="100%" height="100%" overflow="visible" style="display: block;" viewBox="0 0 12 9" fill="none" xmlns="http://www.w3.org/2000/svg">
<path id="Union" d="M7.88706 0.244074C7.56161 -0.081376 7.03396 -0.08134 6.70855 0.244074C6.38313 0.569488 6.3831 1.09714 6.70855 1.42259L8.82153 3.53556H0.833333C0.373096 3.53556 0 3.90866 0 4.3689C0 4.82913 0.373096 5.20223 0.833333 5.20223H8.82146L6.70855 7.31514C6.38313 7.64056 6.3831 8.1682 6.70855 8.49365C7.034 8.8191 7.56164 8.81907 7.88706 8.49365L11.4184 4.96228C11.4327 4.94821 11.4465 4.93362 11.4597 4.91855C11.5179 4.85237 11.5638 4.77916 11.5975 4.70189C11.642 4.5999 11.6667 4.48728 11.6667 4.3689C11.6667 4.26219 11.6466 4.16017 11.6101 4.06639C11.5694 3.96191 11.507 3.86397 11.4226 3.77961L7.88706 0.244074Z" fill="var(--fill-0, #282828)"/>
</svg>
