<svg preserveAspectRatio="none" width="100%" height="100%" overflow="visible" style="display: block;" viewBox="0 0 9 10" fill="none" xmlns="http://www.w3.org/2000/svg">
<path id="Union" d="M4.43558 0C5.64507 0 6.65415 0.858863 6.88578 2H7.49613C8.02415 2 8.46117 2.41052 8.49417 2.9375L8.86917 8.9375C8.90516 9.5132 8.44795 10 7.87113 10H1.00003C0.423233 9.99998 -0.0339931 9.51318 0.00198713 8.9375L0.376987 2.9375C0.409984 2.41054 0.84703 2.00002 1.37503 2H1.98539C2.217 0.858867 3.2261 1.63101e-05 4.43558 0ZM1.00003 9H7.87113L7.49613 3H6.93558V4C6.93558 4.27614 6.71172 4.5 6.43558 4.5C6.15945 4.49998 5.93558 4.27613 5.93558 4V3H2.93558V4C2.93558 4.27614 2.71172 4.5 2.43558 4.5C2.15945 4.49998 1.93558 4.27613 1.93558 4V3H1.37503L1.00003 9ZM4.43558 1C3.78267 1.00001 3.22855 1.41766 3.02249 2H5.84867C5.64261 1.41767 5.0885 1 4.43558 1Z" fill="var(--fill-0, #282828)"/>
</svg>
