<svg preserveAspectRatio="none" width="100%" height="100%" overflow="visible" style="display: block;" viewBox="0 0 17 17" fill="none" xmlns="http://www.w3.org/2000/svg">
<path id="Subtract" d="M8.33301 0C12.9353 0 16.6668 3.73078 16.667 8.33301C16.667 12.9354 12.9354 16.667 8.33301 16.667C3.73078 16.6668 0 12.9353 0 8.33301C0.000175744 3.73089 3.73089 0.000175747 8.33301 0ZM8.29102 4.20898C7.9656 3.88359 7.43775 3.88354 7.1123 4.20898L3.57715 7.74414C3.52908 7.79228 3.48795 7.84571 3.4541 7.90137C3.44716 7.91278 3.43999 7.92475 3.43359 7.93652L3.42871 7.94629C3.4103 7.98138 3.39392 8.01783 3.38086 8.05469C3.34999 8.14178 3.33301 8.23631 3.33301 8.33398C3.33307 8.40953 3.3434 8.48316 3.3623 8.55273C3.37855 8.61247 3.40188 8.67095 3.43164 8.72656C3.47046 8.79895 3.51956 8.86525 3.57715 8.92285L7.1123 12.458C7.43759 12.7832 7.96556 12.783 8.29102 12.458C8.61622 12.1326 8.6162 11.6056 8.29102 11.2803L6.17773 9.16699H12.5C12.9598 9.16682 13.3326 8.79378 13.333 8.33398C13.333 7.87386 12.9601 7.50018 12.5 7.5H6.17871L8.29102 5.3877C8.61644 5.06227 8.61635 4.5344 8.29102 4.20898Z" fill="var(--fill-0, #282828)"/>
</svg>
