<svg preserveAspectRatio="none" width="100%" height="100%" overflow="visible" style="display: block;" viewBox="0 0 17 15" fill="none" xmlns="http://www.w3.org/2000/svg">
<path id="Union" d="M8.66699 0.167929C9.21634 -0.243714 10 0.148346 10 0.834922V14.1679C9.99997 14.8545 9.21633 15.2466 8.66699 14.8349L3.33301 10.8349H0.833008C0.373076 10.8347 0.000251779 10.4618 0 10.0019V5.00191C0 4.54178 0.37292 4.16811 0.833008 4.16793H3.33301L8.66699 0.167929ZM11.7568 1.0693C14.5849 1.84087 16.665 4.42879 16.665 7.50191C16.6648 10.5749 14.5848 13.163 11.7568 13.9345C11.7262 13.9429 11.6952 13.9488 11.665 13.9531V12.2158C13.6067 11.5293 14.9979 9.67858 14.998 7.50191C14.998 5.32494 13.607 3.47347 11.665 2.78707V1.05074C11.6953 1.05499 11.7261 1.06093 11.7568 1.0693ZM11.666 4.16793C12.6783 4.92813 13.333 6.13874 13.333 7.50191C13.3329 8.86489 12.6782 10.0748 11.666 10.8349V4.16793Z" fill="var(--fill-0, #282828)"/>
</svg>
