<svg preserveAspectRatio="none" width="100%" height="100%" overflow="visible" style="display: block;" viewBox="0 0 17 15" fill="none" xmlns="http://www.w3.org/2000/svg">
<path id="Union" d="M1.0166 1.01852C1.34204 0.693078 1.86988 0.693078 2.19531 1.01852L4.48145 3.30465H4.48242L13.9814 12.8037C13.9896 12.8118 13.9984 12.8193 14.0068 12.8271L14.0039 12.8281C14.3054 13.1549 14.2977 13.6641 13.9805 13.9814C13.655 14.3068 13.1272 14.3068 12.8018 13.9814L12.501 13.6806C12.2595 13.7788 12.0116 13.865 11.7568 13.9345C11.7262 13.9429 11.6952 13.9489 11.665 13.9531V12.8447L10 11.1796V14.1679C9.99991 14.8544 9.21631 15.2465 8.66699 14.8349L3.33301 10.8349H0.833008C0.373102 10.8347 0.000294314 10.4618 0 10.0019V5.00191C0 4.54178 0.37292 4.16811 0.833008 4.16793H2.98828L1.0166 2.19625C0.691576 1.87091 0.691622 1.34388 1.0166 1.01852ZM11.7568 1.0693C14.5849 1.84088 16.665 4.42879 16.665 7.50191C16.6649 9.07912 16.1151 10.5272 15.1992 11.6689C15.1863 11.6541 15.1733 11.6391 15.1592 11.625L14.0117 10.4775C14.6296 9.64593 14.9979 8.6177 14.998 7.50191C14.998 5.32495 13.607 3.47348 11.665 2.78707V1.05074C11.6953 1.05499 11.7261 1.06094 11.7568 1.0693ZM11.666 4.16793C12.6783 4.92813 13.333 6.13876 13.333 7.50191C13.3329 8.17003 13.1742 8.80071 12.8945 9.36031L11.666 8.1318V4.16793ZM8.66699 0.167929C9.21634 -0.243714 10 0.148346 10 0.834922V6.46578L5.8291 2.29488L8.66699 0.167929Z" fill="var(--fill-0, #282828)"/>
</svg>
