<svg preserveAspectRatio="none" width="100%" height="100%" overflow="visible" style="display: block;" viewBox="0 0 11 10" fill="none" xmlns="http://www.w3.org/2000/svg">
<path id="Subtract" d="M4.43945 0.520508C4.81856 -0.173977 5.81626 -0.174037 6.19531 0.520508L10.5107 8.43262C10.8741 9.09895 10.3918 9.91108 9.63281 9.91113H1.00195C0.242901 9.91113 -0.239435 9.09899 0.124023 8.43262L4.43945 0.520508ZM5.31738 7.41113C5.04133 7.41113 4.81752 7.63511 4.81738 7.91113C4.81739 8.18727 5.04124 8.41113 5.31738 8.41113C5.59347 8.41108 5.81738 8.18724 5.81738 7.91113C5.81724 7.63514 5.59339 7.41119 5.31738 7.41113ZM5.31738 3.41113C5.04133 3.41113 4.81752 3.63511 4.81738 3.91113V6.41113C4.81738 6.68728 5.04124 6.91113 5.31738 6.91113C5.59348 6.91108 5.81738 6.68724 5.81738 6.41113V3.91113C5.81724 3.63514 5.59339 3.41119 5.31738 3.41113Z" fill="var(--fill-0, #282828)"/>
</svg>
