<svg preserveAspectRatio="none" width="100%" height="100%" overflow="visible" style="display: block;" viewBox="0 0 17 17" fill="none" xmlns="http://www.w3.org/2000/svg">
<path id="Subtract" d="M13.333 0C15.1738 0 16.6668 1.49221 16.667 3.33301V13.333C16.667 15.174 15.174 16.667 13.333 16.667H3.33301C1.49221 16.6668 0 15.1738 0 13.333V3.33301C0.000175726 1.49232 1.49232 0.000175994 3.33301 0H13.333ZM12.458 4.20898C12.1326 3.88355 11.6047 3.88355 11.2793 4.20898L8.33301 7.15527L5.38672 4.20898C5.06128 3.88355 4.53442 3.88355 4.20898 4.20898C3.88357 4.53442 3.88356 5.06129 4.20898 5.38672L7.15527 8.33301L4.20898 11.2793C3.88355 11.6047 3.88355 12.1326 4.20898 12.458C4.53439 12.7832 5.06133 12.7833 5.38672 12.458L8.33301 9.51172L11.2793 12.458C11.6047 12.7834 12.1326 12.7834 12.458 12.458C12.7834 12.1326 12.7834 11.6047 12.458 11.2793L9.51172 8.33301L12.458 5.38672C12.7833 5.06133 12.7832 4.53441 12.458 4.20898Z" fill="var(--fill-0, #282828)"/>
</svg>
