<svg preserveAspectRatio="none" width="100%" height="100%" overflow="visible" style="display: block;" viewBox="0 0 8 10" fill="none" xmlns="http://www.w3.org/2000/svg">
<g id="Union">
<path d="M0.5 0C0.223877 0 0 0.223846 0 0.5V9.5C0 9.77615 0.223877 10 0.5 10H6.5C6.77612 10 7 9.77615 7 9.5V8.5C7 8.22385 6.77612 8 6.5 8C6.22388 8 6 8.22385 6 8.5V9H1V1H6V1.5C6 1.77615 6.22388 2 6.5 2C6.77612 2 7 1.77615 7 1.5V0.5C7 0.223846 6.77612 0 6.5 0H0.5Z" fill="var(--fill-0, #282828)"/>
<path d="M5.02515 2.52512C5.2204 2.32986 5.53699 2.32983 5.73224 2.52512L7.85358 4.64642C7.90417 4.69705 7.94165 4.7558 7.96606 4.81851C7.98798 4.87476 8 4.93597 8 5C8 5.07104 7.98517 5.13861 7.9585 5.1998C7.93829 5.24615 7.91077 5.29007 7.87579 5.3298C7.86786 5.33884 7.85962 5.3476 7.85107 5.35605L5.73224 7.47485C5.53699 7.6701 5.2204 7.67014 5.02515 7.47485C4.82983 7.27957 4.82989 6.96298 5.02515 6.76776L6.29285 5.5H2.5C2.22388 5.5 2 5.27615 2 5C2 4.72385 2.22388 4.5 2.5 4.5H6.29291L5.02515 3.23221C4.82983 3.03696 4.82989 2.72037 5.02515 2.52512Z" fill="var(--fill-0, #282828)"/>
</g>
</svg>
