<svg preserveAspectRatio="none" width="100%" height="100%" overflow="visible" style="display: block;" viewBox="0 0 14 15" fill="none" xmlns="http://www.w3.org/2000/svg">
<path id="Union" d="M8.66699 0.167929C9.21634 -0.243714 10 0.148346 10 0.834921V14.1679C10 14.8545 9.21634 15.2466 8.66699 14.8349L3.33301 10.8349H0.833008C0.373064 10.8347 0.000232435 10.4618 0 10.0019V5.00191C0 4.54178 0.37292 4.16811 0.833008 4.16793H3.33301L8.66699 0.167929ZM3.88867 5.83492H1.66699V9.16793H3.88867L8.33301 12.5019V2.50191L3.88867 5.83492ZM11.667 4.16793C12.6792 4.92814 13.333 6.13883 13.333 7.50191C13.3329 8.8648 12.6791 10.0748 11.667 10.8349V4.16793Z" fill="var(--fill-0, #282828)"/>
</svg>
