<svg preserveAspectRatio="none" width="100%" height="100%" overflow="visible" style="display: block;" viewBox="0 0 17 17" fill="none" xmlns="http://www.w3.org/2000/svg">
<path id="Subtract" d="M13.333 0C15.1738 0 16.6668 1.49221 16.667 3.33301V13.333C16.667 15.174 15.174 16.667 13.333 16.667H3.33301C1.49221 16.6668 0 15.1738 0 13.333V3.33301C0.000175726 1.49232 1.49232 0.000175994 3.33301 0H13.333ZM10.3877 4.20898C10.0623 3.88354 9.5344 3.88359 9.20898 4.20898C8.88365 4.5344 8.88356 5.06227 9.20898 5.3877L11.3213 7.5H3.33398C2.87375 7.5 2.5 7.87375 2.5 8.33398C2.5004 8.79388 2.87399 9.16699 3.33398 9.16699H11.3223L9.20898 11.2803C8.8838 11.6056 8.88378 12.1326 9.20898 12.458C9.53444 12.783 10.0624 12.7832 10.3877 12.458L13.9229 8.92285C13.9804 8.86525 14.0295 8.79895 14.0684 8.72656C14.0981 8.67095 14.1215 8.61247 14.1377 8.55273C14.1566 8.48316 14.1669 8.40953 14.167 8.33398C14.167 8.23631 14.15 8.14178 14.1191 8.05469C14.1061 8.01783 14.0897 7.98138 14.0713 7.94629L14.0664 7.93652C14.06 7.92475 14.0528 7.91278 14.0459 7.90137C14.0121 7.84571 13.9709 7.79228 13.9229 7.74414L10.3877 4.20898Z" fill="var(--fill-0, #282828)"/>
</svg>
