<svg preserveAspectRatio="none" width="100%" height="100%" overflow="visible" style="display: block;" viewBox="0 0 10 9" fill="none" xmlns="http://www.w3.org/2000/svg">
<g id="Union">
<path d="M4.5 3C4.5 2.72386 4.72386 2.5 5 2.5C5.27614 2.5 5.5 2.72386 5.5 3V4.5H7C7.27614 4.5 7.5 4.72386 7.5 5C7.5 5.27614 7.27614 5.5 7 5.5H5.5V7C5.5 7.27614 5.27614 7.5 5 7.5C4.72386 7.5 4.5 7.27614 4.5 7V5.5H3C2.72386 5.5 2.5 5.27614 2.5 5C2.5 4.72386 2.72386 4.5 3 4.5H4.5V3Z" fill="var(--fill-0, #282828)"/>
<path fill-rule="evenodd" clip-rule="evenodd" d="M1 0C0.447715 0 0 0.447715 0 1V8C0 8.55229 0.447716 9 1 9H9C9.55229 9 10 8.55229 10 8V2C10 1.44772 9.55228 1 9 1H6.13462L5.11675 0.210013C4.94135 0.0738866 4.72565 0 4.50362 0H1ZM4.50362 1L5.79209 2H9V8H1V1L4.50362 1Z" fill="var(--fill-0, #282828)"/>
</g>
</svg>
