<svg preserveAspectRatio="none" width="100%" height="100%" overflow="visible" style="display: block;" viewBox="0 0 15 17" fill="none" xmlns="http://www.w3.org/2000/svg">
<g id="Union">
<path fill-rule="evenodd" clip-rule="evenodd" d="M11.6256 4.16667C11.6256 6.46785 9.7601 8.33333 7.45891 8.33333C5.15772 8.33333 3.29224 6.46785 3.29224 4.16667C3.29224 1.86548 5.15772 0 7.45891 0C9.7601 0 11.6256 1.86548 11.6256 4.16667ZM9.95891 4.16667C9.95891 5.54738 8.83962 6.66667 7.45891 6.66667C6.0782 6.66667 4.95891 5.54738 4.95891 4.16667C4.95891 2.78595 6.0782 1.66667 7.45891 1.66667C8.83962 1.66667 9.95891 2.78595 9.95891 4.16667Z" fill="var(--fill-0, #282828)"/>
<path d="M14.1256 16.6667C13.6653 16.6667 13.2985 16.2914 13.2335 15.8358C12.8302 13.0077 10.3985 10.8333 7.45891 10.8333C4.51932 10.8333 2.08759 13.0077 1.6843 15.8358C1.61932 16.2914 1.25248 16.6667 0.792242 16.6667C0.332005 16.6667 -0.0459515 16.2921 0.00453541 15.8347C0.418465 12.0841 3.59799 9.16667 7.45891 9.16667C11.3198 9.16667 14.4994 12.0841 14.9133 15.8347C14.9638 16.2921 14.5858 16.6667 14.1256 16.6667Z" fill="var(--fill-0, #282828)"/>
</g>
</svg>
