<svg preserveAspectRatio="none" width="100%" height="100%" overflow="visible" style="display: block;" viewBox="0 0 14 14" fill="none" xmlns="http://www.w3.org/2000/svg">
<path id="Union" fill-rule="evenodd" clip-rule="evenodd" d="M1.33333 13.3333C0.596954 13.3333 0 12.7372 0 12.0019V5.30624C0 4.88604 0.198633 4.4905 0.535858 4.23917L5.86919 0.264408C6.34223 -0.0881359 6.9911 -0.0881361 7.46414 0.264408L12.7975 4.23917C13.1347 4.4905 13.3333 4.88604 13.3333 5.30624V12.0019C13.3333 12.7372 12.7364 13.3333 12 13.3333H1.33333ZM6.66738 1.3335L12 5.30773V12H8V8.66667C8 7.93029 7.40305 7.33333 6.66667 7.33333C5.93029 7.33333 5.33333 7.93029 5.33333 8.66667V12H1.33333L1.33333 5.30773L6.66595 1.3335L6.66667 1.33333L6.66738 1.3335Z" fill="var(--fill-0, #282828)"/>
</svg>
