<svg preserveAspectRatio="none" width="100%" height="100%" overflow="visible" style="display: block;" viewBox="0 0 11 14" fill="none" xmlns="http://www.w3.org/2000/svg">
<path id="Union" fill-rule="evenodd" clip-rule="evenodd" d="M4 0.666667C4 0.298477 4.29848 0 4.66667 0H6C6.36819 0 6.66667 0.298477 6.66667 0.666667C6.66667 1.03486 6.36819 1.33333 6 1.33333H10C10.3682 1.33333 10.6667 1.63181 10.6667 2C10.6667 2.36819 10.3682 2.66667 10 2.66667H9.92593L9.4033 12.074C9.36404 12.7805 8.77966 13.3333 8.07202 13.3333H2.59465C1.887 13.3333 1.30262 12.7805 1.26337 12.074L0.740741 2.66667H0.666667C0.298477 2.66667 0 2.36819 0 2C0 1.63181 0.298477 1.33333 0.666667 1.33333H4.66667C4.29848 1.33333 4 1.03486 4 0.666667ZM4 4.66667C3.63181 4.66667 3.33333 4.96514 3.33333 5.33333V9.33333C3.33333 9.70152 3.63181 10 4 10C4.36819 10 4.66667 9.70152 4.66667 9.33333V5.33333C4.66667 4.96514 4.36819 4.66667 4 4.66667ZM6.66667 4.66667C6.29848 4.66667 6 4.96514 6 5.33333V9.33333C6 9.70152 6.29848 10 6.66667 10C7.03486 10 7.33333 9.70152 7.33333 9.33333V5.33333C7.33333 4.96514 7.03486 4.66667 6.66667 4.66667Z" fill="var(--fill-0, #282828)"/>
</svg>
