<svg preserveAspectRatio="none" width="100%" height="100%" overflow="visible" style="display: block;" viewBox="0 0 17 17" fill="none" xmlns="http://www.w3.org/2000/svg">
<path id="Union" d="M1.66699 15.1045H15V7.5H1.66699V15.1045ZM4.16602 12.5C4.62614 12.5 4.99982 12.8729 5 13.333C5 13.7932 4.62625 14.166 4.16602 14.166C3.70608 14.1657 3.33301 13.793 3.33301 13.333C3.33318 12.8731 3.70619 12.5004 4.16602 12.5ZM8.33301 12.5C8.79314 12.5 9.16584 12.8729 9.16602 13.333C9.16602 13.7932 8.79324 14.166 8.33301 14.166C7.87292 14.1658 7.5 13.7931 7.5 13.333C7.50018 12.873 7.87303 12.5002 8.33301 12.5ZM12.5 12.5C12.96 12.5002 13.3328 12.873 13.333 13.333C13.333 13.7931 12.9601 14.1658 12.5 14.166C12.0399 14.1658 11.666 13.7931 11.666 13.333C11.6662 12.873 12.04 12.5002 12.5 12.5ZM4.16602 8.33301C4.62604 8.33301 4.99965 8.70608 5 9.16602C5 9.62625 4.62625 10 4.16602 10C3.70608 9.99965 3.33301 9.62604 3.33301 9.16602C3.33336 8.70629 3.70629 8.33336 4.16602 8.33301ZM8.33301 8.33301C8.79303 8.33301 9.16566 8.70608 9.16602 9.16602C9.16602 9.62625 8.79325 10 8.33301 10C7.87292 9.99982 7.5 9.62614 7.5 9.16602C7.50035 8.70619 7.87314 8.33318 8.33301 8.33301ZM12.5 8.33301C12.9599 8.33318 13.3327 8.70619 13.333 9.16602C13.333 9.62614 12.9601 9.99982 12.5 10C12.0399 9.99982 11.666 9.62614 11.666 9.16602C11.6664 8.70619 12.0401 8.33318 12.5 8.33301ZM1.66699 5.83301H15V3.33301H1.66699V5.83301ZM16.667 15.1045C16.6668 15.9673 15.9204 16.667 15 16.667H1.66699C0.746634 16.667 0.000188266 15.9673 0 15.1045V3.33301C0.000175546 2.41268 0.746626 1.66699 1.66699 1.66699H3.33301V0.833008C3.33318 0.372919 3.70686 0 4.16699 0C4.62697 0.000176016 4.99982 0.373028 5 0.833008V1.66699H11.667V0.833008C11.6672 0.37292 12.0399 0 12.5 0C12.9601 3.54257e-07 13.3328 0.37292 13.333 0.833008V1.66699H15C15.9204 1.66699 16.6668 2.41268 16.667 3.33301V15.1045Z" fill="var(--fill-0, #282828)"/>
</svg>
