<svg preserveAspectRatio="none" width="100%" height="100%" overflow="visible" style="display: block;" viewBox="0 0 14 14" fill="none" xmlns="http://www.w3.org/2000/svg">
<path id="Union" d="M10 0C10.3682 1.93277e-07 10.667 0.298803 10.667 0.666992V1.33301H12C12.7364 1.33301 13.333 1.93061 13.333 2.66699V12C13.3328 12.7362 12.7363 13.334 12 13.334H1.33301C0.596886 13.3338 0.000175696 12.7361 0 12V2.66699C0 1.93072 0.596778 1.33318 1.33301 1.33301H2.66699V0.666992C2.66699 0.298911 2.96497 0.000175756 3.33301 0C3.7012 0 4 0.298802 4 0.666992V1.33301H9.33301V0.666992C9.33301 0.298802 9.63181 0 10 0ZM3.33398 10C2.96579 10 2.66699 10.2988 2.66699 10.667C2.66717 11.035 2.9659 11.334 3.33398 11.334C3.70177 11.3336 3.99982 11.0348 4 10.667C4 10.299 3.70187 10.0004 3.33398 10ZM6.66699 10C6.2988 10 6 10.2988 6 10.667C6.00018 11.035 6.29891 11.334 6.66699 11.334C7.03492 11.3338 7.33381 11.0349 7.33398 10.667C7.33398 10.2989 7.03503 10.0002 6.66699 10ZM10 10C9.63196 10.0002 9.33398 10.2989 9.33398 10.667C9.33416 11.0349 9.63207 11.3338 10 11.334C10.3679 11.3338 10.6668 11.0349 10.667 10.667C10.667 10.2989 10.368 10.0002 10 10ZM3.33398 6.66699C2.96579 6.66699 2.66699 6.96579 2.66699 7.33398C2.66734 7.70187 2.96601 8 3.33398 8C3.70166 7.99965 3.99965 7.70166 4 7.33398C4 6.96601 3.70187 6.66734 3.33398 6.66699ZM6.66699 6.66699C6.2988 6.66699 6 6.96579 6 7.33398C6.00035 7.70187 6.29902 8 6.66699 8C7.03482 7.99982 7.33363 7.70177 7.33398 7.33398C7.33398 6.9659 7.03503 6.66717 6.66699 6.66699ZM10 6.66699C9.63196 6.66717 9.33398 6.9659 9.33398 7.33398C9.33434 7.70177 9.63218 7.99982 10 8C10.3678 7.99982 10.6666 7.70177 10.667 7.33398C10.667 6.9659 10.368 6.66717 10 6.66699ZM1.33301 4.66699H12V2.66699H1.33301V4.66699Z" fill="var(--fill-0, #282828)"/>
</svg>
