<svg preserveAspectRatio="none" width="100%" height="100%" overflow="visible" style="display: block;" viewBox="0 0 17 15" fill="none" xmlns="http://www.w3.org/2000/svg">
<path id="Union (Stroke)" fill-rule="evenodd" clip-rule="evenodd" d="M8.33333 3.7868L7.15482 2.60829C5.89933 1.3528 3.86378 1.35279 2.60829 2.60829C1.35279 3.86378 1.3528 5.89933 2.60829 7.15482L8.33333 12.8799L14.0584 7.15482C15.3139 5.89933 15.3139 3.86378 14.0584 2.60829C12.8029 1.3528 10.7673 1.35279 9.51184 2.60829L8.33333 3.7868ZM8.33452 1.42859C10.241 -0.476596 13.3309 -0.476193 15.2369 1.42978C17.1433 3.33614 17.1433 6.42696 15.2369 8.33333L8.90863 14.6616C8.5909 14.9793 8.07576 14.9793 7.75804 14.6616L1.42978 8.33333C-0.476587 6.42697 -0.476596 3.33615 1.42978 1.42978C3.33615 -0.476596 6.42697 -0.476587 8.33333 1.42978C8.33373 1.42938 8.33412 1.42899 8.33452 1.42859Z" fill="var(--fill-0, #282828)"/>
</svg>
