<svg preserveAspectRatio="none" width="100%" height="100%" overflow="visible" style="display: block;" viewBox="0 0 14 17" fill="none" xmlns="http://www.w3.org/2000/svg">
<path id="Union" d="M12.5 0C12.9601 0 13.3328 0.37292 13.333 0.833008V15.833C13.333 16.2932 12.9602 16.667 12.5 16.667H3.33301C1.49221 16.6668 0 15.1738 0 13.333V3.33301C0.000174141 1.49232 1.49232 0.000175751 3.33301 0H12.5ZM3.33301 11.667C2.41279 11.6672 1.66717 12.4128 1.66699 13.333C1.66699 14.2534 2.41268 14.9998 3.33301 15H11.667V11.667H3.33301ZM13.2119 10.4023C13.2326 10.4365 13.2519 10.4717 13.2676 10.5088L13.2324 10.4355C13.2262 10.4241 13.2186 10.4135 13.2119 10.4023Z" fill="var(--fill-0, #282828)"/>
</svg>
