<svg preserveAspectRatio="none" width="100%" height="100%" overflow="visible" style="display: block;" viewBox="0 0 17 13" fill="none" xmlns="http://www.w3.org/2000/svg">
<g id="Union">
<path d="M0.244168 3.41717C4.80054 -1.1392 12.1872 -1.13891 16.7433 3.41717C17.0687 3.74259 17.069 4.26998 16.7433 4.59568C16.4176 4.92139 15.8902 4.9211 15.5648 4.59568C11.6596 0.690426 5.32765 0.690714 1.42268 4.59568C1.09698 4.92139 0.569583 4.9211 0.244168 4.59568C-0.0812456 4.27027 -0.0815334 3.74287 0.244168 3.41717Z" fill="var(--fill-0, #282828)"/>
<path d="M2.60119 5.77419C5.85533 2.52005 11.1319 2.51984 14.3863 5.77419C14.7117 6.09961 14.712 6.627 14.3863 6.95271C14.0606 7.27841 13.5332 7.27812 13.2078 6.95271C10.6043 4.34918 6.38301 4.34939 3.7797 6.95271C3.454 7.27841 2.92661 7.27812 2.60119 6.95271C2.27578 6.62729 2.27549 6.0999 2.60119 5.77419Z" fill="var(--fill-0, #282828)"/>
<path d="M4.95821 8.13122C6.9107 6.17873 10.0767 6.17859 12.0293 8.13122C12.3547 8.45663 12.355 8.98403 12.0293 9.30973C11.7036 9.63543 11.1762 9.63514 10.8508 9.30973C9.54904 8.008 7.43838 8.00807 6.13672 9.30973C5.81102 9.63543 5.28363 9.63514 4.95821 9.30973C4.6328 8.98431 4.63251 8.45692 4.95821 8.13122Z" fill="var(--fill-0, #282828)"/>
<path d="M9.37763 11.9614C9.86561 11.4734 9.86575 10.6817 9.37763 10.1936C8.88951 9.70549 8.09784 9.70563 7.60986 10.1936C7.12189 10.6816 7.12174 11.4733 7.60986 11.9614C8.09799 12.4495 8.88965 12.4494 9.37763 11.9614Z" fill="var(--fill-0, #282828)"/>
</g>
</svg>
