<svg preserveAspectRatio="none" width="100%" height="100%" overflow="visible" style="display: block;" viewBox="0 0 17 17" fill="none" xmlns="http://www.w3.org/2000/svg">
<path id="Union" d="M8.33301 0C12.9353 0 16.6668 3.73078 16.667 8.33301C16.667 12.9354 12.9354 16.667 8.33301 16.667C3.73078 16.6668 0 12.9353 0 8.33301C0.000175808 3.73089 3.73089 0.000175812 8.33301 0ZM8.33301 1.66699C4.65137 1.66717 1.66717 4.65137 1.66699 8.33301C1.66699 12.0148 4.65126 14.9998 8.33301 15C12.0149 15 15 12.0149 15 8.33301C14.9998 4.65126 12.0148 1.66699 8.33301 1.66699ZM7.1123 4.20898C7.43775 3.88354 7.9656 3.88359 8.29102 4.20898C8.61635 4.5344 8.61644 5.06227 8.29102 5.3877L6.17871 7.5H12.5C12.9601 7.50018 13.333 7.87386 13.333 8.33398C13.3326 8.79378 12.9598 9.16682 12.5 9.16699H6.17773L8.29102 11.2803C8.6162 11.6056 8.61622 12.1326 8.29102 12.458C7.96556 12.783 7.43759 12.7832 7.1123 12.458L3.57715 8.92285C3.51956 8.86525 3.47046 8.79895 3.43164 8.72656C3.40188 8.67095 3.37855 8.61247 3.3623 8.55273C3.3434 8.48316 3.33307 8.40953 3.33301 8.33398C3.33301 8.23631 3.34999 8.14178 3.38086 8.05469C3.39392 8.01783 3.4103 7.98138 3.42871 7.94629L3.43359 7.93652C3.43999 7.92475 3.44716 7.91278 3.4541 7.90137C3.48795 7.84571 3.52908 7.79228 3.57715 7.74414L7.1123 4.20898Z" fill="var(--fill-0, #282828)"/>
</svg>
