<svg preserveAspectRatio="none" width="100%" height="100%" overflow="visible" style="display: block;" viewBox="0 0 20 10" fill="none" xmlns="http://www.w3.org/2000/svg">
<path id="Union" d="M7 0C7.55228 1.61065e-08 8 0.447715 8 1C8 1.55228 7.55228 2 7 2H5C3.34315 2 2 3.34315 2 5C2 6.65685 3.34315 8 5 8H7C7.55228 8 8 8.44772 8 9C8 9.55228 7.55228 10 7 10H5C2.23858 10 0 7.76142 0 5C0 2.23858 2.23858 0 5 0H7ZM15 0C17.7614 0 20 2.23858 20 5C20 7.76142 17.7614 10 15 10H13C12.4477 10 12 9.55228 12 9C12 8.44772 12.4477 8 13 8H15C16.6569 8 18 6.65685 18 5C18 3.34315 16.6569 2 15 2H13C12.4477 2 12 1.55228 12 1C12 0.447715 12.4477 0 13 0H15ZM13 4C13.5523 4 14 4.44772 14 5C14 5.55228 13.5523 6 13 6H7C6.44772 6 6 5.55228 6 5C6 4.44772 6.44772 4 7 4H13Z" fill="var(--fill-0, #282828)"/>
</svg>
