<svg preserveAspectRatio="none" width="100%" height="100%" overflow="visible" style="display: block;" viewBox="0 0 14 14" fill="none" xmlns="http://www.w3.org/2000/svg">
<g id="Union">
<path d="M6.66667 7.33333C7.77124 7.33333 8.66667 6.43791 8.66667 5.33333C8.66667 4.22876 7.77124 3.33333 6.66667 3.33333C5.56209 3.33333 4.66667 4.22876 4.66667 5.33333C4.66667 6.43791 5.56209 7.33333 6.66667 7.33333Z" fill="var(--fill-0, #282828)"/>
<path fill-rule="evenodd" clip-rule="evenodd" d="M3.04895 12.2673C1.21405 11.0797 0 9.01505 0 6.66667C0 2.98478 2.98476 0 6.66667 0C10.3486 0 13.3333 2.98478 13.3333 6.66667C13.3333 9.08289 12.0479 11.1989 10.1236 12.3682C9.1156 12.9806 7.93231 13.3333 6.66667 13.3333C5.33315 13.3333 4.09088 12.9417 3.04895 12.2673ZM3.1382 10.6661C3.57369 9.1274 4.98853 8 6.66667 8C8.34481 8 9.75964 9.1274 10.1951 10.6661C11.3019 9.6888 12 8.25924 12 6.66667C12 3.72115 9.61218 1.33333 6.66667 1.33333C3.72115 1.33333 1.33333 3.72115 1.33333 6.66667C1.33333 8.25924 2.03139 9.6888 3.1382 10.6661Z" fill="var(--fill-0, #282828)"/>
</g>
</svg>
