<svg preserveAspectRatio="none" width="100%" height="100%" overflow="visible" style="display: block;" viewBox="0 0 14 7" fill="none" xmlns="http://www.w3.org/2000/svg">
<path id="Union" d="M4.66699 0C5.03503 0.000175991 5.33301 0.298911 5.33301 0.666992C5.33283 1.03492 5.03492 1.33283 4.66699 1.33301H3.33301C2.2287 1.33318 1.33318 2.2287 1.33301 3.33301C1.33301 4.43747 2.22859 5.33283 3.33301 5.33301H4.66699C5.03503 5.33318 5.33301 5.63192 5.33301 6C5.33301 6.36808 5.03503 6.66682 4.66699 6.66699H3.33301C1.49221 6.66682 0 5.17385 0 3.33301C0.000175795 1.49232 1.49232 0.000175794 3.33301 0H4.66699ZM10 0C11.8408 3.22114e-07 13.3328 1.49221 13.333 3.33301C13.333 5.17396 11.8409 6.66699 10 6.66699H8.66699C8.2988 6.66699 8 6.36819 8 6C8 5.63181 8.2988 5.33301 8.66699 5.33301H10C11.1046 5.33301 12 4.43758 12 3.33301C11.9998 2.22859 11.1045 1.33301 10 1.33301H8.66699C8.29891 1.33301 8.00018 1.03503 8 0.666992C8 0.298802 8.2988 0 8.66699 0H10ZM8.66699 2.66699C9.03492 2.66717 9.33283 2.96508 9.33301 3.33301C9.33301 3.70109 9.03503 3.99982 8.66699 4H4.66699C4.2988 4 4 3.7012 4 3.33301C4.00018 2.96497 4.29891 2.66699 4.66699 2.66699H8.66699Z" fill="var(--fill-0, #282828)"/>
</svg>
