<svg preserveAspectRatio="none" width="100%" height="100%" overflow="visible" style="display: block;" viewBox="0 0 10 10" fill="none" xmlns="http://www.w3.org/2000/svg">
<path id="Union" d="M4.66699 0C5.03503 0.000175882 5.33301 0.298911 5.33301 0.666992V4H8.66699C9.03503 4.00018 9.33301 4.29891 9.33301 4.66699C9.33284 5.03493 9.03493 5.33283 8.66699 5.33301H5.33301V8.66699C5.33284 9.03493 5.03493 9.33283 4.66699 9.33301C4.29891 9.33301 4.00017 9.03504 4 8.66699V5.33301H0.666992C0.298909 5.33301 0.000172536 5.03504 0 4.66699C0 4.2988 0.298802 4 0.666992 4H4V0.666992C4 0.298802 4.2988 0 4.66699 0Z" fill="var(--fill-0, #282828)"/>
</svg>
