<svg preserveAspectRatio="none" width="100%" height="100%" overflow="visible" style="display: block;" viewBox="0 0 6 6" fill="none" xmlns="http://www.w3.org/2000/svg">
<path id="Union" d="M0.146447 0.146447C-0.0488155 0.341709 -0.0488154 0.658291 0.146447 0.853553L1.91421 2.62132L0.146447 4.38909C-0.0488155 4.58435 -0.0488155 4.90093 0.146447 5.09619C0.341709 5.29146 0.658291 5.29146 0.853553 5.09619L2.62132 3.32843L4.38909 5.09619C4.58435 5.29146 4.90093 5.29146 5.09619 5.09619C5.29146 4.90093 5.29146 4.58435 5.09619 4.38909L3.32843 2.62132L5.09619 0.853553C5.29146 0.658291 5.29146 0.341709 5.09619 0.146447C4.90093 -0.0488155 4.58435 -0.0488154 4.38909 0.146447L2.62132 1.91421L0.853553 0.146447C0.658291 -0.0488155 0.341709 -0.0488155 0.146447 0.146447Z" fill="var(--fill-0, #282828)"/>
</svg>
