<svg preserveAspectRatio="none" width="100%" height="100%" overflow="visible" style="display: block;" viewBox="0 0 10 9" fill="none" xmlns="http://www.w3.org/2000/svg">
<path id="Union" d="M9.5 8C9.77614 8 10 8.22386 10 8.5C9.99999 8.77614 9.77614 9 9.5 9H0.5C0.223863 9 8.00471e-06 8.77614 0 8.5C0 8.22386 0.223858 8 0.5 8H9.5ZM5 0C5.06402 0 5.12538 0.0122508 5.18164 0.0341797C5.24428 0.0585359 5.30293 0.0959302 5.35352 0.146484L7.47559 2.26758C7.67058 2.46274 7.67041 2.77938 7.47559 2.97461C7.28034 3.16986 6.96285 3.16988 6.76758 2.97461L5.5 1.70703V6.5C5.5 6.77614 5.27614 7 5 7C4.72395 6.99989 4.5 6.77607 4.5 6.5V1.70703L3.23242 2.97461C3.03717 3.16986 2.72066 3.16988 2.52539 2.97461C2.33023 2.77933 2.33018 2.46279 2.52539 2.26758L4.64453 0.149414C4.65298 0.14085 4.66186 0.131963 4.6709 0.124023C4.71052 0.089252 4.75456 0.0621227 4.80078 0.0419922C4.86188 0.0153523 4.9291 2.84644e-05 5 0Z" fill="var(--fill-0, #282828)"/>
</svg>
