<svg preserveAspectRatio="none" width="100%" height="100%" overflow="visible" style="display: block;" viewBox="0 0 14 14" fill="none" xmlns="http://www.w3.org/2000/svg">
<path id="Union" d="M6.66699 0C10.3487 0.000176133 13.333 2.9852 13.333 6.66699C13.3328 10.3486 10.3486 13.3328 6.66699 13.333C2.9852 13.333 0.000176136 10.3487 0 6.66699C0 2.98509 2.98509 0 6.66699 0ZM6.66699 1.33301C3.72147 1.33301 1.33301 3.72147 1.33301 6.66699C1.33318 9.61236 3.72158 12 6.66699 12C9.61225 11.9998 11.9998 9.61225 12 6.66699C12 3.72158 9.61236 1.33318 6.66699 1.33301ZM4 6C4.36804 6.00018 4.66602 6.29891 4.66602 6.66699C4.66584 7.03492 4.36793 7.33283 4 7.33301C3.63207 7.33283 3.33318 7.03492 3.33301 6.66699C3.33301 6.29891 3.63196 6.00018 4 6ZM6.66602 6C7.03421 6 7.33301 6.2988 7.33301 6.66699C7.33283 7.03503 7.0341 7.33301 6.66602 7.33301C6.29823 7.33266 6.00018 7.03482 6 6.66699C6 6.29902 6.29813 6.00035 6.66602 6ZM9.33301 6C9.7012 6 10 6.2988 10 6.66699C9.99982 7.03503 9.70109 7.33301 9.33301 7.33301C8.96508 7.33283 8.66619 7.03492 8.66602 6.66699C8.66602 6.29891 8.96497 6.00018 9.33301 6Z" fill="var(--fill-0, #282828)"/>
</svg>
