<svg preserveAspectRatio="none" width="100%" height="100%" overflow="visible" style="display: block;" viewBox="0 0 12 14" fill="none" xmlns="http://www.w3.org/2000/svg">
<g id="Union">
<path fill-rule="evenodd" clip-rule="evenodd" d="M9.30046 3.33333C9.30046 5.17428 7.80808 6.66667 5.96713 6.66667C4.12618 6.66667 2.63379 5.17428 2.63379 3.33333C2.63379 1.49238 4.12618 0 5.96713 0C7.80808 0 9.30046 1.49238 9.30046 3.33333ZM7.96713 3.33333C7.96713 4.4379 7.0717 5.33333 5.96713 5.33333C4.86256 5.33333 3.96713 4.4379 3.96713 3.33333C3.96713 2.22876 4.86256 1.33333 5.96713 1.33333C7.0717 1.33333 7.96713 2.22876 7.96713 3.33333Z" fill="var(--fill-0, #282828)"/>
<path d="M11.3005 13.3333C10.9323 13.3333 10.6388 13.0331 10.5868 12.6686C10.2642 10.4062 8.31879 8.66667 5.96713 8.66667C3.61546 8.66667 1.67007 10.4062 1.34744 12.6686C1.29546 13.0331 1.00198 13.3333 0.633794 13.3333C0.265604 13.3333 -0.0367612 13.0337 0.00362833 12.6677C0.334772 9.66725 2.87839 7.33333 5.96713 7.33333C9.05586 7.33333 11.5995 9.66725 11.9306 12.6677C11.971 13.0337 11.6687 13.3333 11.3005 13.3333Z" fill="var(--fill-0, #282828)"/>
</g>
</svg>
