<svg preserveAspectRatio="none" width="100%" height="100%" overflow="visible" style="display: block;" viewBox="0 0 16 20" fill="none" xmlns="http://www.w3.org/2000/svg">
<g id="Union">
<path d="M16 1C16 0.447693 15.5522 0 15 0H3C2.44775 0 2 0.447693 2 1V3C2 3.55231 2.44775 4 3 4C3.55225 4 4 3.55231 4 3V2H14V18H4V17C4 16.4477 3.55225 16 3 16C2.44775 16 2 16.4477 2 17V19C2 19.5523 2.44775 20 3 20H15C15.5522 20 16 19.5523 16 19V1Z" fill="var(--fill-0, #282828)"/>
<path d="M6.05029 5.05023C6.4408 4.65973 7.07397 4.65967 7.46448 5.05023L11.7072 9.29285C11.7537 9.33942 11.7947 9.3894 11.8301 9.44202C11.8542 9.47784 11.8759 9.51489 11.8948 9.55286C11.9086 9.58044 11.921 9.60852 11.9321 9.63702C11.976 9.74951 12 9.87195 12 10C12 10.0869 11.9889 10.1713 11.968 10.2516C11.9548 10.3027 11.9377 10.3521 11.917 10.3996C11.8766 10.4923 11.8215 10.5801 11.7516 10.6596L11.7357 10.6773L11.7162 10.6979L11.7021 10.7121L7.46448 14.9497C7.07397 15.3402 6.4408 15.3403 6.05029 14.9497C5.65967 14.5591 5.65979 13.926 6.05029 13.5355L8.58569 11H1C0.447754 11 0 10.5523 0 10C0 9.44769 0.447754 9 1 9H8.58582L6.05029 6.46442C5.65967 6.07391 5.65979 5.44073 6.05029 5.05023Z" fill="var(--fill-0, #282828)"/>
</g>
</svg>
