<svg preserveAspectRatio="none" width="100%" height="100%" overflow="visible" style="display: block;" viewBox="0 0 10 10" fill="none" xmlns="http://www.w3.org/2000/svg">
<path id="Subtract" d="M8 0C9.10457 0 10 0.895431 10 2V8C10 9.10457 9.10457 10 8 10H2C0.895431 10 1.61066e-08 9.10457 0 8V2C0 0.895431 0.895431 1.61064e-08 2 0H8ZM7.47461 2.52539C7.27935 2.33013 6.96284 2.33013 6.76758 2.52539L5 4.29297L3.23242 2.52539C3.03716 2.33013 2.72065 2.33013 2.52539 2.52539C2.33014 2.72065 2.33013 3.03716 2.52539 3.23242L4.29297 5L2.52539 6.76758C2.33013 6.96284 2.33013 7.27935 2.52539 7.47461C2.72065 7.66987 3.03716 7.66987 3.23242 7.47461L5 5.70703L6.76758 7.47461C6.96283 7.66987 7.27935 7.66986 7.47461 7.47461C7.66987 7.27935 7.66987 6.96284 7.47461 6.76758L5.70703 5L7.47461 3.23242C7.66987 3.03716 7.66987 2.72065 7.47461 2.52539Z" fill="var(--fill-0, #282828)"/>
</svg>
