<svg preserveAspectRatio="none" width="100%" height="100%" overflow="visible" style="display: block;" viewBox="0 0 12 17" fill="none" xmlns="http://www.w3.org/2000/svg">
<path id="Union" d="M10.833 5C11.2931 5 11.6668 5.37292 11.667 5.83301V7.5L11.6592 7.7998C11.5173 10.6024 9.39687 12.8816 6.66699 13.2725V15H8.33301C8.79314 15 9.16682 15.3729 9.16699 15.833C9.16699 16.2932 8.79325 16.667 8.33301 16.667H3.33301C2.87292 16.6668 2.5 16.2931 2.5 15.833C2.50018 15.373 2.87303 15.0002 3.33301 15H5V13.2725C2.26992 12.8819 0.149715 10.6026 0.0078125 7.7998L0 7.5V5.83301C0.000175136 5.37303 0.373028 5.00018 0.833008 5C1.29314 5 1.66682 5.37292 1.66699 5.83301V7.5L1.67285 7.71484C1.78465 9.91609 3.60403 11.6668 5.83301 11.667C8.06213 11.667 9.8823 9.91619 9.99414 7.71484L10 7.5V5.83301C10.0002 5.37303 10.373 5.00018 10.833 5ZM5.83301 0C7.21372 0 8.33301 1.11929 8.33301 2.5V7.5C8.33301 8.88071 7.21372 10 5.83301 10C4.45245 9.99982 3.33301 8.8806 3.33301 7.5V2.5C3.33301 1.1194 4.45245 0.000175962 5.83301 0ZM5.83301 1.66699C5.37292 1.66717 5 2.03987 5 2.5V7.5C5 7.96013 5.37292 8.33283 5.83301 8.33301C6.29324 8.33301 6.66699 7.96024 6.66699 7.5V2.5C6.66699 2.03976 6.29325 1.66699 5.83301 1.66699Z" fill="var(--fill-0, #282828)"/>
</svg>
