<svg preserveAspectRatio="none" width="100%" height="100%" overflow="visible" style="display: block;" viewBox="0 0 17 15" fill="none" xmlns="http://www.w3.org/2000/svg">
<path id="Subtract" d="M7.50586 0C7.8759 0 8.236 0.122731 8.52832 0.349609L10.2256 1.66699H15C15.9204 1.66699 16.6668 2.41268 16.667 3.33301V13.333C16.667 14.2535 15.9205 15 15 15H1.66699C0.746518 15 0 14.2535 0 13.333V1.66699C0 0.746518 0.746518 0 1.66699 0H7.50586ZM5 7.5C4.53987 7.5 4.16717 7.87292 4.16699 8.33301C4.16699 8.79325 4.53976 9.16699 5 9.16699H11.667C12.1271 9.16682 12.5 8.79314 12.5 8.33301C12.4998 7.87303 12.127 7.50018 11.667 7.5H5Z" fill="var(--fill-0, #282828)"/>
</svg>
