<svg preserveAspectRatio="none" width="100%" height="100%" overflow="visible" style="display: block;" viewBox="0 0 9 10" fill="none" xmlns="http://www.w3.org/2000/svg">
<g id="Union">
<path fill-rule="evenodd" clip-rule="evenodd" d="M6.97535 2.5C6.97535 3.88071 5.85606 5 4.47535 5C3.09463 5 1.97535 3.88071 1.97535 2.5C1.97535 1.11929 3.09463 0 4.47535 0C5.85606 0 6.97535 1.11929 6.97535 2.5ZM5.97535 2.5C5.97535 3.32843 5.30377 4 4.47535 4C3.64692 4 2.97535 3.32843 2.97535 2.5C2.97535 1.67157 3.64692 1 4.47535 1C5.30377 1 5.97535 1.67157 5.97535 2.5Z" fill="var(--fill-0, #282828)"/>
<path d="M8.47535 10C8.1992 10 7.9791 9.77486 7.94011 9.50148C7.69814 7.80461 6.2391 6.5 4.47535 6.5C2.71159 6.5 1.25255 7.80461 1.01058 9.50148C0.971594 9.77486 0.751488 10 0.475345 10C0.199203 10 -0.0275709 9.77528 0.00272124 9.5008C0.251079 7.25044 2.15879 5.5 4.47535 5.5C6.7919 5.5 8.69961 7.25044 8.94797 9.5008C8.97826 9.77528 8.75149 10 8.47535 10Z" fill="var(--fill-0, #282828)"/>
</g>
</svg>
