<svg preserveAspectRatio="none" width="100%" height="100%" overflow="visible" style="display: block;" viewBox="0 0 14 14" fill="none" xmlns="http://www.w3.org/2000/svg">
<path id="Subtract" d="M10.667 0C12.1396 0.000175102 13.333 1.19434 13.333 2.66699V10.667C13.3328 12.1395 12.1395 13.3328 10.667 13.333H2.66699C1.19434 13.333 0.000176068 12.1396 0 10.667V2.66699C0 1.19423 1.19423 0 2.66699 0H10.667ZM8.30957 3.36719C8.04921 3.10683 7.62654 3.10686 7.36621 3.36719C7.1064 3.62744 7.10632 4.04932 7.36621 4.30957L9.05664 6H2.66602C2.29801 6.00022 2 6.29894 2 6.66699C2.00021 7.03487 2.29814 7.33376 2.66602 7.33398H9.05664L7.36621 9.02441C7.10653 9.28474 7.1062 9.70662 7.36621 9.9668C7.62651 10.2269 8.04927 10.2268 8.30957 9.9668L11.1377 7.13867C11.1917 7.08463 11.233 7.02213 11.2646 6.95703C11.2702 6.94564 11.2773 6.93457 11.2822 6.92285C11.3501 6.75929 11.3502 6.57368 11.2822 6.41016C11.2773 6.3984 11.2702 6.38736 11.2646 6.37598C11.2331 6.3111 11.1916 6.24921 11.1377 6.19531L8.30957 3.36719Z" fill="var(--fill-0, #282828)"/>
</svg>
