<svg preserveAspectRatio="none" width="100%" height="100%" overflow="visible" style="display: block;" viewBox="0 0 11 11" fill="none" xmlns="http://www.w3.org/2000/svg">
<path id="Union" d="M0.292893 0.292893C-0.0976311 0.683417 -0.0976309 1.31658 0.292893 1.70711L3.82843 5.24264L0.292893 8.77817C-0.097631 9.1687 -0.0976311 9.80186 0.292893 10.1924C0.683417 10.5829 1.31658 10.5829 1.70711 10.1924L5.24264 6.65685L8.77817 10.1924C9.1687 10.5829 9.80186 10.5829 10.1924 10.1924C10.5829 9.80186 10.5829 9.1687 10.1924 8.77817L6.65685 5.24264L10.1924 1.70711C10.5829 1.31658 10.5829 0.683417 10.1924 0.292893C9.80186 -0.0976311 9.1687 -0.0976307 8.77817 0.292893L5.24264 3.82843L1.70711 0.292893C1.31658 -0.097631 0.683417 -0.0976311 0.292893 0.292893Z" fill="var(--fill-0, #282828)"/>
</svg>
