<svg preserveAspectRatio="none" width="100%" height="100%" overflow="visible" style="display: block;" viewBox="0 0 20 20" fill="none" xmlns="http://www.w3.org/2000/svg">
<path id="Subtract" d="M10 0C15.5228 0 20 4.47715 20 10C20 15.5228 15.5228 20 10 20C4.47715 20 0 15.5228 0 10C0 4.47715 4.47715 0 10 0ZM9.9502 5.0498C9.55975 4.65958 8.92565 4.65954 8.53516 5.0498L4.29297 9.29199C4.24657 9.33836 4.20457 9.38962 4.16797 9.44434C4.1401 9.486 4.11566 9.52969 4.09473 9.57422C4.07466 9.61685 4.05693 9.66136 4.04297 9.70703C4.03792 9.72362 4.03443 9.74103 4.03027 9.75781C4.0111 9.835 4.00007 9.91593 4 9.99902C4 10.082 4.01123 10.1632 4.03027 10.2402C4.03443 10.257 4.03795 10.2744 4.04297 10.291C4.05688 10.3367 4.0747 10.3811 4.09473 10.4238C4.11562 10.4684 4.14013 10.512 4.16797 10.5537C4.18048 10.5725 4.19429 10.5906 4.20801 10.6084C4.23406 10.6422 4.262 10.676 4.29297 10.707L8.53516 14.9492C8.92565 15.3397 9.55966 15.3398 9.9502 14.9492C10.3402 14.5587 10.3402 13.9255 9.9502 13.5352L7.41406 10.999H15C15.5523 10.999 16 10.5513 16 9.99902C15.9995 9.44715 15.552 8.99902 15 8.99902H7.41406L9.9502 6.46387C10.3402 6.07338 10.3403 5.44017 9.9502 5.0498Z" fill="var(--fill-0, #282828)"/>
</svg>
