<svg preserveAspectRatio="none" width="100%" height="100%" overflow="visible" style="display: block;" viewBox="0 0 10 10" fill="none" xmlns="http://www.w3.org/2000/svg">
<path id="Union" fill-rule="evenodd" clip-rule="evenodd" d="M3.77321 5.65353C3.75649 5.64185 3.739 5.63115 3.72083 5.62154L0.266109 3.79255C-0.122639 3.58674 -0.0753529 3.01541 0.341942 2.87631L8.89134 0.0265227C9.28222 -0.10377 9.65409 0.2681 9.52379 0.658978L6.67399 9.20836C6.53489 9.62566 5.96357 9.67294 5.75776 9.28419L3.92878 5.82948C3.91916 5.81132 3.90847 5.79383 3.89678 5.7771C3.87318 5.76057 3.85069 5.74177 3.82961 5.72069C3.80854 5.69962 3.78974 5.67713 3.77321 5.65353ZM4.13427 4.70893L1.7667 3.45549L8.25888 1.29143L6.09482 7.78361L4.84138 5.41603L5.95093 4.30648C6.1462 4.11122 6.1462 3.79463 5.95093 3.59937C5.75567 3.40411 5.43909 3.40411 5.24383 3.59937L4.13427 4.70893Z" fill="var(--fill-0, #282828)"/>
</svg>
