<svg preserveAspectRatio="none" width="100%" height="100%" overflow="visible" style="display: block;" viewBox="0 0 22 20" fill="none" xmlns="http://www.w3.org/2000/svg">
<path id="Subtract" d="M8.87788 1.04203C9.63599 -0.34733 11.6315 -0.347356 12.3896 1.04203L21.0205 16.8653C21.7474 18.198 20.7827 19.8233 19.2646 19.8233H2.00288C0.484766 19.8233 -0.479929 18.198 0.247025 16.8653L8.87788 1.04203ZM10.6337 14.8233C10.0815 14.8233 9.63384 15.2711 9.63374 15.8233C9.63374 16.3756 10.0815 16.8233 10.6337 16.8233C11.186 16.8233 11.6337 16.3755 11.6337 15.8233C11.6336 15.2711 11.1859 14.8233 10.6337 14.8233ZM10.6337 6.82328C10.0815 6.82328 9.63384 7.27108 9.63374 7.82328V12.8233C9.63374 13.3756 10.0815 13.8233 10.6337 13.8233C11.186 13.8233 11.6337 13.3755 11.6337 12.8233V7.82328C11.6336 7.27109 11.1859 6.8233 10.6337 6.82328Z" fill="var(--fill-0, #282828)"/>
</svg>
