<svg preserveAspectRatio="none" width="100%" height="100%" overflow="visible" style="display: block;" viewBox="0 0 7 10" fill="none" xmlns="http://www.w3.org/2000/svg">
<path id="Union" d="M6.5 3C6.77614 3 7 3.22386 7 3.5V4.5C7 6.2632 5.6961 7.72121 4 7.96387V9H5C5.27614 9 5.5 9.22386 5.5 9.5C5.5 9.77614 5.27614 10 5 10H2C1.72386 10 1.5 9.77614 1.5 9.5C1.5 9.22386 1.72386 9 2 9H3V7.96387C1.3039 7.72121 0 6.2632 0 4.5V3.5C2.41597e-07 3.22386 0.223858 3 0.5 3C0.776142 3 1 3.22386 1 3.5V4.5C1 5.88071 2.11929 7 3.5 7C4.88071 7 6 5.88071 6 4.5V3.5C6 3.22386 6.22386 3 6.5 3ZM3.5 0C4.32843 0 5 0.671573 5 1.5V4.5C5 5.32843 4.32843 6 3.5 6C2.67157 6 2 5.32843 2 4.5V1.5C2 0.671573 2.67157 1.28852e-07 3.5 0ZM3.5 1C3.22386 1 3 1.22386 3 1.5V4.5C3 4.77614 3.22386 5 3.5 5C3.77614 5 4 4.77614 4 4.5V1.5C4 1.22386 3.77614 1 3.5 1Z" fill="var(--fill-0, #282828)"/>
</svg>
