<svg preserveAspectRatio="none" width="100%" height="100%" overflow="visible" style="display: block;" viewBox="0 0 17 15" fill="none" xmlns="http://www.w3.org/2000/svg">
<path id="Union" d="M15.833 13.333C16.2932 13.333 16.667 13.7068 16.667 14.167C16.6668 14.6271 16.2931 15 15.833 15H0.833008C0.373036 14.9998 0.000189405 14.627 0 14.167C0 13.7069 0.37292 13.3332 0.833008 13.333H15.833ZM8.33398 0C8.44044 3.86915e-05 8.54216 0.0202186 8.63574 0.0566406C8.74022 0.0972602 8.8385 0.159795 8.92285 0.244141L12.459 3.7793C12.7842 4.10465 12.7841 4.6326 12.459 4.95801C12.1336 5.28339 11.6057 5.28337 11.2803 4.95801L9.16699 2.84473V10.833C9.16699 11.2931 8.79408 11.6668 8.33398 11.667C7.87375 11.667 7.5 11.2932 7.5 10.833V2.84473L5.3877 4.95801C5.06228 5.28342 4.53443 5.28346 4.20898 4.95801C3.88356 4.63256 3.88358 4.1047 4.20898 3.7793L7.74023 0.248047C7.75429 0.233798 7.76914 0.220243 7.78418 0.207031C7.85035 0.148859 7.92373 0.102976 8.00098 0.0693359C8.10291 0.0248838 8.21567 0 8.33398 0Z" fill="var(--fill-0, #282828)"/>
</svg>
