<svg preserveAspectRatio="none" width="100%" height="100%" overflow="visible" style="display: block;" viewBox="0 0 10 10" fill="none" xmlns="http://www.w3.org/2000/svg">
<path id="Union" d="M6.32324 0.164254C6.47959 0.0262152 6.69457 -0.0462543 6.8877 0.0324178C7.31316 0.206021 7.70993 0.437036 8.06738 0.715035C8.23157 0.842972 8.27643 1.06464 8.23535 1.26875C8.14236 1.72946 8.2104 2.22522 8.46387 2.66425C8.71741 3.1034 9.11297 3.40997 9.55859 3.55976C9.75634 3.62634 9.92592 3.77686 9.9541 3.98359C9.98438 4.2061 10 4.43344 10 4.66425C10 4.89501 9.98437 5.12246 9.9541 5.34492C9.92582 5.55156 9.7563 5.70218 9.55859 5.76875C9.11298 5.91854 8.7174 6.22512 8.46387 6.66425C8.21054 7.10313 8.14248 7.59822 8.23535 8.05879C8.27658 8.26304 8.23175 8.48546 8.06738 8.61347C7.70994 8.89146 7.31315 9.12151 6.8877 9.29511C6.69451 9.37394 6.47965 9.30235 6.32324 9.16425C5.97065 8.85296 5.50733 8.66425 5 8.66425C4.49267 8.66425 4.02935 8.85296 3.67676 9.16425C3.52035 9.30235 3.30549 9.37394 3.1123 9.29511C2.687 9.12157 2.29094 8.89134 1.93359 8.61347C1.76903 8.48549 1.72339 8.26314 1.76465 8.05879C1.85753 7.59822 1.78946 7.10315 1.53613 6.66425C1.2826 6.22511 0.887038 5.91853 0.441406 5.76875C0.243699 5.70219 0.074174 5.55156 0.0458984 5.34492C0.0156304 5.12246 2.83871e-06 4.89501 0 4.66425C0 4.43344 0.0156235 4.20609 0.0458984 3.98359C0.0740853 3.77686 0.243657 3.62634 0.441406 3.55976C0.887048 3.40998 1.28259 3.10341 1.53613 2.66425C1.7896 2.22522 1.85765 1.72947 1.76465 1.26875C1.72353 1.0645 1.76913 0.842935 1.93359 0.715035C2.29098 0.437145 2.68694 0.205976 3.1123 0.0324178C3.30543 -0.0462541 3.52041 0.0262152 3.67676 0.164254C4.02934 0.475515 4.4927 0.664254 5 0.664254C5.5073 0.664254 5.97066 0.475515 6.32324 0.164254ZM6.77832 1.08027C6.28087 1.44676 5.66493 1.66425 5 1.66425C4.33507 1.66425 3.71913 1.44676 3.22168 1.08027C3.07087 1.15529 2.92459 1.23932 2.78516 1.33222C2.85374 1.94614 2.73471 2.58854 2.40234 3.16425C2.07001 3.73988 1.57368 4.16469 1.00781 4.4123C1.00267 4.49549 1 4.57954 1 4.66425C1 4.74898 1.00266 4.83299 1.00781 4.91621C1.57366 5.16381 2.07002 5.58864 2.40234 6.16425C2.73463 6.73993 2.85375 7.38238 2.78516 7.99629C2.92459 8.08919 3.07087 8.17321 3.22168 8.24824C3.71914 7.88172 4.33504 7.66425 5 7.66425C5.66496 7.66425 6.28086 7.88172 6.77832 8.24824C6.92915 8.1732 7.0754 8.0892 7.21484 7.99629C7.14626 7.38242 7.26536 6.73993 7.59766 6.16425C7.92998 5.58864 8.42636 5.16382 8.99219 4.91621C8.99734 4.83299 9 4.74898 9 4.66425C9 4.57954 8.99733 4.49549 8.99219 4.4123C8.42634 4.16469 7.92999 3.73987 7.59766 3.16425C7.26531 2.58856 7.14626 1.94615 7.21484 1.33222C7.07541 1.23931 6.92914 1.1553 6.77832 1.08027ZM5 2.66425C6.10457 2.66425 7 3.55968 7 4.66425C6.99994 5.76877 6.10453 6.66425 5 6.66425C3.89547 6.66425 3.00006 5.76877 3 4.66425C3 3.55968 3.89543 2.66425 5 2.66425ZM5 3.66425C4.44772 3.66425 4 4.11197 4 4.66425C4.00006 5.21649 4.44775 5.66425 5 5.66425C5.55225 5.66425 5.99994 5.21649 6 4.66425C6 4.11197 5.55228 3.66425 5 3.66425Z" fill="var(--fill-0, #282828)"/>
</svg>
