<svg preserveAspectRatio="none" width="100%" height="100%" overflow="visible" style="display: block;" viewBox="0 0 17 17" fill="none" xmlns="http://www.w3.org/2000/svg">
<path id="Subtract" d="M13.333 0C15.1738 0 16.6668 1.49221 16.667 3.33301V13.333C16.667 15.174 15.174 16.667 13.333 16.667H3.33301C1.49221 16.6668 0 15.1738 0 13.333V3.33301C0.000175726 1.49232 1.49232 0.000175994 3.33301 0H13.333ZM13.6367 4.79785C13.3113 4.4724 12.7834 4.47244 12.458 4.79785L7.15527 10.1006L4.20898 7.1543C3.88365 6.82896 3.35571 6.82922 3.03027 7.1543C2.70486 7.47971 2.70482 8.00756 3.03027 8.33301L6.56543 11.8691C6.89084 12.1944 7.41875 12.1944 7.74414 11.8691L13.6367 5.97656C13.9621 5.65119 13.962 5.12331 13.6367 4.79785Z" fill="var(--fill-0, #282828)"/>
</svg>
