<svg preserveAspectRatio="none" width="100%" height="100%" overflow="visible" style="display: block;" viewBox="0 0 17 13" fill="none" xmlns="http://www.w3.org/2000/svg">
<path id="Union" d="M2.60156 0.518555C2.92692 0.193666 3.45398 0.1936 3.7793 0.518555L9.97559 6.71582H9.97656L10.6445 7.38477L12.8369 9.57715H12.8379L13.4502 10.1904L14.3857 11.126C14.7112 11.4514 14.7112 11.9783 14.3857 12.3037C14.0603 12.6291 13.5334 12.6291 13.208 12.3037L12.6465 11.7422C11.3781 12.48 9.90615 12.9062 8.33301 12.9062C4.32388 12.9061 0.955158 10.1642 0 6.45312C0.460468 4.66423 1.48257 3.10164 2.86621 1.96191L2.60156 1.69727C2.27613 1.37183 2.27613 0.843992 2.60156 0.518555ZM4.05176 3.14746C2.98279 3.98662 2.16567 5.132 1.73535 6.45312C2.64053 9.23251 5.25414 11.2401 8.33301 11.2402C9.44174 11.2402 10.4891 10.9779 11.4189 10.5146L10.1494 9.24512C9.62675 9.58646 9.00389 9.78711 8.33301 9.78711C6.49221 9.78693 5 8.29397 5 6.45312C5.00004 5.78241 5.19914 5.1586 5.54004 4.63574L4.05176 3.14746ZM8.33301 0C12.3422 0 15.7118 2.74199 16.667 6.45312C16.3742 7.59075 15.8536 8.63661 15.1582 9.54102L13.9678 8.35059C14.3805 7.77735 14.7083 7.13889 14.9316 6.45312C14.0264 3.67373 11.412 1.66699 8.33301 1.66699C8.00053 1.66701 7.67358 1.69107 7.35352 1.73633L5.95215 0.334961C6.70835 0.117611 7.50692 3.05644e-05 8.33301 0ZM6.77246 5.86816C6.70414 6.05004 6.66702 6.2472 6.66699 6.45312C6.66699 7.37349 7.41268 8.11994 8.33301 8.12012C8.53907 8.12012 8.73602 8.08211 8.91797 8.01367L6.77246 5.86816Z" fill="var(--fill-0, #282828)"/>
</svg>
