<svg preserveAspectRatio="none" width="100%" height="100%" overflow="visible" style="display: block;" viewBox="0 0 17 17" fill="none" xmlns="http://www.w3.org/2000/svg">
<g id="Union">
<path d="M5.38705 6.56557C5.06162 6.24013 5.06162 5.71249 5.38705 5.38705C5.71249 5.06162 6.24013 5.06162 6.56557 5.38705L8.33333 7.15482L10.1011 5.38705C10.4265 5.06162 10.9542 5.06162 11.2796 5.38705C11.605 5.71249 11.605 6.24013 11.2796 6.56557L9.51184 8.33333L11.2796 10.1011C11.605 10.4265 11.605 10.9542 11.2796 11.2796C10.9542 11.605 10.4265 11.605 10.1011 11.2796L8.33333 9.51184L6.56557 11.2796C6.24013 11.605 5.71249 11.605 5.38705 11.2796C5.06162 10.9542 5.06162 10.4265 5.38705 10.1011L7.15482 8.33333L5.38705 6.56557Z" fill="var(--fill-0, #282828)"/>
<path fill-rule="evenodd" clip-rule="evenodd" d="M14.2259 2.44078C17.4803 5.69515 17.4803 10.9715 14.2259 14.2259C10.9715 17.4803 5.69515 17.4803 2.44078 14.2259C-0.813592 10.9715 -0.813592 5.69515 2.44078 2.44078C5.69515 -0.813592 10.9715 -0.813592 14.2259 2.44078ZM13.0474 3.61929C15.6509 6.22278 15.6509 10.4439 13.0474 13.0474C10.4439 15.6509 6.22278 15.6509 3.61929 13.0474C1.01579 10.4439 1.01579 6.22278 3.61929 3.61929C6.22278 1.01579 10.4439 1.01579 13.0474 3.61929Z" fill="var(--fill-0, #282828)"/>
</g>
</svg>
