<svg preserveAspectRatio="none" width="100%" height="100%" overflow="visible" style="display: block;" viewBox="0 0 16 20" fill="none" xmlns="http://www.w3.org/2000/svg">
<path id="Union" fill-rule="evenodd" clip-rule="evenodd" d="M6 1C6 0.447715 6.44772 0 7 0H9C9.55229 0 10 0.447715 10 1C10 1.55228 9.55229 2 9 2H15C15.5523 2 16 2.44772 16 3C16 3.55228 15.5523 4 15 4H14.8889L14.1049 18.1109C14.0461 19.1708 13.1695 20 12.108 20H3.89197C2.8305 20 1.95393 19.1708 1.89505 18.1109L1.11111 4H1C0.447715 4 0 3.55228 0 3C0 2.44772 0.447715 2 1 2H7C6.44772 2 6 1.55228 6 1ZM6 7C5.44772 7 5 7.44772 5 8V14C5 14.5523 5.44772 15 6 15C6.55228 15 7 14.5523 7 14V8C7 7.44772 6.55228 7 6 7ZM10 7C9.44772 7 9 7.44772 9 8V14C9 14.5523 9.44772 15 10 15C10.5523 15 11 14.5523 11 14V8C11 7.44772 10.5523 7 10 7Z" fill="var(--fill-0, #282828)"/>
</svg>
