<svg preserveAspectRatio="none" width="100%" height="100%" overflow="visible" style="display: block;" viewBox="0 0 17 17" fill="none" xmlns="http://www.w3.org/2000/svg">
<path id="Union" fill-rule="evenodd" clip-rule="evenodd" d="M12.8555 15.3341C15.149 13.8496 16.6667 11.2687 16.6667 8.33333C16.6667 3.73096 12.9357 0 8.33333 0C3.73096 0 0 3.73096 0 8.33333C0 11.2098 1.45741 13.7459 3.67409 15.2435C3.71947 15.2741 3.76518 15.3044 3.8112 15.3341C5.11367 16.1772 6.66634 16.6667 8.33333 16.6667C10.0003 16.6667 11.553 16.1772 12.8555 15.3341ZM12.7439 13.3326C11.5686 14.3703 10.0245 15 8.33333 15C6.64217 15 5.09808 14.3703 3.92275 13.3326C4.46712 11.4092 6.23566 10 8.33333 10C10.431 10 12.1996 11.4092 12.7439 13.3326ZM8.33333 9.16667C9.71405 9.16667 10.8333 8.04738 10.8333 6.66667C10.8333 5.28595 9.71405 4.16667 8.33333 4.16667C6.95262 4.16667 5.83333 5.28595 5.83333 6.66667C5.83333 8.04738 6.95262 9.16667 8.33333 9.16667Z" fill="var(--fill-0, #282828)"/>
</svg>
