<svg preserveAspectRatio="none" width="100%" height="100%" overflow="visible" style="display: block;" viewBox="0 0 7 13" fill="none" xmlns="http://www.w3.org/2000/svg">
<path id="Union" d="M5.85151 8.19514C6.11186 7.93479 6.53452 7.93479 6.79487 8.19514C7.05504 8.45541 7.05491 8.87718 6.79487 9.13753L3.96675 11.9666C3.70643 12.2269 3.28374 12.2269 3.02339 11.9666L0.195262 9.13753C-0.0649874 8.87717 -0.0650541 8.45546 0.195262 8.19514C0.455586 7.93492 0.877319 7.93493 1.13764 8.19514L3.49507 10.5526L5.85151 8.19514ZM3.02339 0.195144C3.28366 -0.0651266 3.7054 -0.0649696 3.96577 0.195144L6.79487 3.02327C7.05522 3.28362 7.05522 3.70628 6.79487 3.96663C6.53452 4.22695 6.11185 4.22697 5.85151 3.96663L3.49507 1.60921L1.13764 3.96663C0.877362 4.22668 0.455559 4.22665 0.195262 3.96663C-0.0650874 3.70628 -0.0650874 3.28362 0.195262 3.02327L3.02339 0.195144Z" fill="var(--fill-0, #282828)"/>
</svg>
