<svg preserveAspectRatio="none" width="100%" height="100%" overflow="visible" style="display: block;" viewBox="0 0 10 8" fill="none" xmlns="http://www.w3.org/2000/svg">
<path id="Union" d="M5 0C7.40556 6.25698e-08 9.42689 1.64536 10 3.87207C9.42686 6.09874 7.40554 7.74414 5 7.74414C2.59446 7.74414 0.573136 6.09874 0 3.87207C0.57311 1.64536 2.59444 0 5 0ZM5 1.87207C3.89543 1.87207 3 2.7675 3 3.87207C3.00003 4.97661 3.89545 5.87207 5 5.87207C6.10455 5.87207 6.99997 4.97661 7 3.87207C7 2.7675 6.10457 1.87207 5 1.87207ZM5 2.87207C5.55228 2.87207 6 3.31979 6 3.87207C5.99997 4.42433 5.55226 4.87207 5 4.87207C4.44774 4.87207 4.00003 4.42433 4 3.87207C4 3.31979 4.44772 2.87207 5 2.87207Z" fill="var(--fill-0, #282828)"/>
</svg>
