<svg preserveAspectRatio="none" width="100%" height="100%" overflow="visible" style="display: block;" viewBox="0 0 10 10" fill="none" xmlns="http://www.w3.org/2000/svg">
<path id="Subtract" d="M5 0C7.76142 0 10 2.23858 10 5C10 7.76142 7.76142 10 5 10C2.23858 10 5.15405e-07 7.76142 0 5C0 2.23858 2.23858 0 5 0ZM4.97461 2.52539C4.77935 2.33029 4.46182 2.33017 4.2666 2.52539L2.14551 4.64648C1.95078 4.84167 1.95076 5.15838 2.14551 5.35352L4.2666 7.47461C4.46174 7.66974 4.77931 7.66954 4.97461 7.47461C5.16946 7.27932 5.16967 6.9627 4.97461 6.76758L3.70605 5.5H7.49902C7.7751 5.5 7.99892 5.27605 7.99902 5C7.99895 4.72392 7.77512 4.5 7.49902 4.5H3.70605L4.97461 3.23242C5.16961 3.03723 5.16952 2.7206 4.97461 2.52539Z" fill="var(--fill-0, #282828)"/>
</svg>
