<svg preserveAspectRatio="none" width="100%" height="100%" overflow="visible" style="display: block;" viewBox="0 0 14 17" fill="none" xmlns="http://www.w3.org/2000/svg">
<g id="Union">
<path d="M13.3333 0.833333C13.3333 0.373077 12.9602 0 12.5 0H2.5C2.03979 0 1.66667 0.373077 1.66667 0.833333V2.5C1.66667 2.96026 2.03979 3.33333 2.5 3.33333C2.96021 3.33333 3.33333 2.96026 3.33333 2.5V1.66667H11.6667V15H3.33333V14.1667C3.33333 13.7064 2.96021 13.3333 2.5 13.3333C2.03979 13.3333 1.66667 13.7064 1.66667 14.1667V15.8333C1.66667 16.2936 2.03979 16.6667 2.5 16.6667H12.5C12.9602 16.6667 13.3333 16.2936 13.3333 15.8333V0.833333Z" fill="var(--fill-0, #282828)"/>
<path d="M5.04191 4.20853C5.36733 3.88311 5.89498 3.88306 6.2204 4.20853L9.75596 7.74404C9.79472 7.78285 9.8289 7.8245 9.8584 7.86835C9.87854 7.8982 9.89655 7.92908 9.91231 7.96071C9.92381 7.9837 9.93418 8.0071 9.94344 8.03085C9.97996 8.12459 10 8.22662 10 8.33333C10 8.40576 9.99074 8.47605 9.97335 8.54304C9.96236 8.58556 9.94812 8.62676 9.93083 8.66633C9.89716 8.74359 9.85128 8.81678 9.79299 8.88301L9.77976 8.89776L9.76349 8.91495L9.75179 8.92675L6.2204 12.4581C5.89498 12.7835 5.36733 12.7836 5.04191 12.4581C4.71639 12.1326 4.71649 11.605 5.04191 11.2796L7.15474 9.16667H0.833333C0.373128 9.16667 0 8.79359 0 8.33333C0 7.87308 0.373128 7.5 0.833333 7.5H7.15485L5.04191 5.38701C4.71639 5.06159 4.71649 4.53395 5.04191 4.20853Z" fill="var(--fill-0, #282828)"/>
</g>
</svg>
