<svg preserveAspectRatio="none" width="100%" height="100%" overflow="visible" style="display: block;" viewBox="0 0 20 20" fill="none" xmlns="http://www.w3.org/2000/svg">
<path id="Subtract (Stroke)" fill-rule="evenodd" clip-rule="evenodd" d="M14.379 3.2864C15.2219 6.3128 14.4535 9.69386 12.0737 12.0737C9.69386 14.4535 6.3128 15.2219 3.28639 14.379C3.57561 14.8133 3.91196 15.2257 4.29552 15.6092C7.4197 18.7334 12.485 18.7334 15.6092 15.6092C18.7334 12.485 18.7334 7.4197 15.6092 4.29552C15.2257 3.91196 14.8133 3.57562 14.379 3.2864ZM11.7411 2.15353C13.3263 4.83784 12.9658 8.35316 10.6595 10.6595C8.35316 12.9658 4.83784 13.3263 2.15353 11.7411C2.0567 11.6839 1.96097 11.6242 1.8664 11.5619C1.55136 11.3546 1.24938 11.1191 0.964006 10.8556C0.89501 10.7918 0.826986 10.7265 0.759982 10.6595C0.479265 10.3788 -0.0373041 10.5566 0.00213486 10.9516C0.0159887 11.0904 0.0327358 11.2289 0.0523763 11.3671C0.107239 11.7531 0.18468 12.1366 0.284695 12.5153C0.327269 12.6765 0.373934 12.8368 0.42469 12.9962C0.89392 14.4692 1.71278 15.8549 2.8813 17.0234C6.78653 20.9287 13.1182 20.9287 17.0234 17.0234C20.9287 13.1182 20.9287 6.78653 17.0234 2.8813C15.8549 1.71278 14.4692 0.89392 12.9962 0.42469C12.8368 0.373934 12.6765 0.327269 12.5153 0.284695C12.1366 0.18468 11.7531 0.107239 11.3671 0.0523763C11.2289 0.0327358 11.0904 0.0159887 10.9516 0.00213487C10.5566 -0.0373042 10.3788 0.479265 10.6595 0.759982C10.7265 0.826986 10.7918 0.895011 10.8556 0.964007C11.1191 1.24938 11.3546 1.55136 11.5619 1.8664C11.6242 1.96097 11.6839 2.0567 11.7411 2.15353Z" fill="var(--fill-0, #282828)"/>
</svg>
