<svg preserveAspectRatio="none" width="100%" height="100%" overflow="visible" style="display: block;" viewBox="0 0 14 14" fill="none" xmlns="http://www.w3.org/2000/svg">
<path id="Union" fill-rule="evenodd" clip-rule="evenodd" d="M10.2844 12.2673C12.1192 11.0797 13.3333 9.01497 13.3333 6.66667C13.3333 2.98477 10.3486 0 6.66667 0C2.98477 0 0 2.98477 0 6.66667C0 8.96785 1.16593 10.9967 2.93927 12.1948C2.97558 12.2193 3.01214 12.2435 3.04896 12.2673C4.09094 12.9418 5.33307 13.3333 6.66667 13.3333C8.00026 13.3333 9.2424 12.9418 10.2844 12.2673ZM10.1951 10.666C9.25487 11.4962 8.0196 12 6.66667 12C5.31373 12 4.07846 11.4962 3.1382 10.666C3.57369 9.12737 4.98852 8 6.66667 8C8.34481 8 9.75964 9.12737 10.1951 10.666ZM6.66667 7.33333C7.77124 7.33333 8.66667 6.43791 8.66667 5.33333C8.66667 4.22876 7.77124 3.33333 6.66667 3.33333C5.56209 3.33333 4.66667 4.22876 4.66667 5.33333C4.66667 6.43791 5.56209 7.33333 6.66667 7.33333Z" fill="var(--fill-0, #282828)"/>
</svg>
