<svg preserveAspectRatio="none" width="100%" height="100%" overflow="visible" style="display: block;" viewBox="0 0 6 10" fill="none" xmlns="http://www.w3.org/2000/svg">
<path id="Subtract" d="M5 0C5.55228 6.44255e-08 6 0.447715 6 1V9C6 9.55228 5.55228 10 5 10H1C0.447715 10 8.05326e-09 9.55228 0 9V1C1.28852e-07 0.447715 0.447715 1.61064e-08 1 0H5ZM2.5 7.5C2.22386 7.5 2 7.72386 2 8C2 8.27614 2.22386 8.5 2.5 8.5H3.5C3.77614 8.5 4 8.27614 4 8C4 7.72386 3.77614 7.5 3.5 7.5H2.5Z" fill="var(--fill-0, #282828)"/>
</svg>
