<svg preserveAspectRatio="none" width="100%" height="100%" overflow="visible" style="display: block;" viewBox="0 0 18 18" fill="none" xmlns="http://www.w3.org/2000/svg">
<g id="Union">
<path d="M0 1C0 0.447715 0.447715 0 1 0H5C5.55228 0 6 0.447715 6 1C6 1.55228 5.55228 2 5 2H2V16H16V13C16 12.4477 16.4477 12 17 12C17.5523 12 18 12.4477 18 13V17C18 17.5523 17.5523 18 17 18H1C0.965483 18 0.931373 17.9983 0.897756 17.9948C0.3935 17.9436 0 17.5178 0 17V1Z" fill="var(--fill-0, #282828)"/>
<path d="M11.0003 0C10.448 0 10.0003 0.447715 10.0003 1C10.0003 1.55228 10.448 2 11.0003 2L14.5868 2L5.92961 10.6572C5.53909 11.0477 5.53909 11.6809 5.92961 12.0714C6.32014 12.4619 6.9533 12.4619 7.34383 12.0714L16.0003 3.41495V7C16.0003 7.55228 16.448 8 17.0003 8C17.5526 8 18.0003 7.55228 18.0003 7V1C18.0003 0.447715 17.5526 0 17.0003 0H11.0003Z" fill="var(--fill-0, #282828)"/>
</g>
</svg>
