<svg preserveAspectRatio="none" width="100%" height="100%" overflow="visible" style="display: block;" viewBox="0 0 20 18" fill="none" xmlns="http://www.w3.org/2000/svg">
<g id="Union">
<path d="M10 0C9.44769 0 9 0.447708 9 1V2H1C0.447693 2 0 2.44771 0 3C0 3.55229 0.447693 4 1 4H9V5C9 5.55229 9.44769 6 10 6C10.5523 6 11 5.55229 11 5V1C11 0.447708 10.5523 0 10 0Z" fill="var(--fill-0, #282828)"/>
<path d="M14 7C14 6.44771 14.4477 6 15 6C15.5523 6 16 6.44771 16 7V11C16 11.5523 15.5523 12 15 12C14.4477 12 14 11.5523 14 11V10H1C0.447693 10 0 9.55229 0 9C0 8.44771 0.447693 8 1 8H14V7Z" fill="var(--fill-0, #282828)"/>
<path d="M5 12C4.44769 12 4 12.4477 4 13V14H1C0.447693 14 0 14.4477 0 15C0 15.5523 0.447693 16 1 16H4V17C4 17.5523 4.44769 18 5 18C5.55231 18 6 17.5523 6 17V13C6 12.4477 5.55231 12 5 12Z" fill="var(--fill-0, #282828)"/>
<path d="M7 15C7 14.4477 7.44769 14 8 14H19C19.5523 14 20 14.4477 20 15C20 15.5523 19.5523 16 19 16H8C7.44769 16 7 15.5523 7 15Z" fill="var(--fill-0, #282828)"/>
<path d="M18 8C17.4477 8 17 8.44771 17 9C17 9.55229 17.4477 10 18 10H19C19.5523 10 20 9.55229 20 9C20 8.44771 19.5523 8 19 8H18Z" fill="var(--fill-0, #282828)"/>
<path d="M12 3C12 2.44771 12.4477 2 13 2H19C19.5523 2 20 2.44771 20 3C20 3.55229 19.5523 4 19 4H13C12.4477 4 12 3.55229 12 3Z" fill="var(--fill-0, #282828)"/>
</g>
</svg>
