<svg preserveAspectRatio="none" width="100%" height="100%" overflow="visible" style="display: block;" viewBox="0 0 11 12" fill="none" xmlns="http://www.w3.org/2000/svg">
<path id="Union" d="M6.93359 0.133789C7.37305 -0.195255 8 0.118801 8 0.667969V11.334C8 11.8833 7.37308 12.1968 6.93359 11.8672L2.66699 8.66797H0.666992C0.29882 8.66797 1.89259e-05 8.36915 0 8.00098V4.00098C0 3.63279 0.298808 3.33398 0.666992 3.33398H2.66699L6.93359 0.133789ZM3.11133 4.66797H1.33301V7.33398H3.11133L6.66699 10.001V2.00098L3.11133 4.66797ZM9.33301 3.33398C10.1429 3.94214 10.667 4.9104 10.667 6.00098C10.667 7.09154 10.1429 8.05982 9.33301 8.66797V3.33398Z" fill="var(--fill-0, #282828)"/>
</svg>
