<svg preserveAspectRatio="none" width="100%" height="100%" overflow="visible" style="display: block;" viewBox="0 0 14 14" fill="none" xmlns="http://www.w3.org/2000/svg">
<path id="Subtract" fill-rule="evenodd" clip-rule="evenodd" d="M6.66667 0C2.98477 0 0 2.98477 0 6.66667C0 10.3486 2.98477 13.3333 6.66667 13.3333C10.3486 13.3333 13.3333 10.3486 13.3333 6.66667C13.3333 2.98477 10.3486 0 6.66667 0ZM6 9.33333C6 8.96514 6.29848 8.66667 6.66667 8.66667C7.03486 8.66667 7.33333 8.96514 7.33333 9.33333C7.33333 9.70152 7.03486 10 6.66667 10C6.29848 10 6 9.70152 6 9.33333ZM7.33333 7.33333C7.33333 7.70152 7.03486 8 6.66667 8C6.29848 8 6 7.70152 6 7.33333V4C6 3.63181 6.29848 3.33333 6.66667 3.33333C7.03486 3.33333 7.33333 3.63181 7.33333 4V7.33333Z" fill="var(--fill-0, #282828)"/>
</svg>
