<svg preserveAspectRatio="none" width="100%" height="100%" overflow="visible" style="display: block;" viewBox="0 0 17 17" fill="none" xmlns="http://www.w3.org/2000/svg">
<path id="Subtract" d="M8.33301 0C12.9353 0 16.6668 3.73078 16.667 8.33301C16.667 12.9354 12.9354 16.667 8.33301 16.667C3.73078 16.6668 0 12.9353 0 8.33301C0.000175744 3.73089 3.73089 0.000175747 8.33301 0ZM8.33398 4.16699C7.87386 4.16699 7.50018 4.53991 7.5 5V7.5H5C4.53991 7.50018 4.16699 7.87386 4.16699 8.33398C4.16734 8.79382 4.54013 9.16682 5 9.16699H7.5V11.667C7.50017 12.1271 7.87385 12.5 8.33398 12.5C8.79382 12.4996 9.16682 12.1269 9.16699 11.667V9.16699H11.667C12.1269 9.16682 12.4997 8.79382 12.5 8.33398C12.5 7.87386 12.1271 7.50018 11.667 7.5H9.16699V5C9.16682 4.54013 8.79381 4.16734 8.33398 4.16699Z" fill="var(--fill-0, #282828)"/>
</svg>
