<svg preserveAspectRatio="none" width="100%" height="100%" overflow="visible" style="display: block;" viewBox="0 0 14 14" fill="none" xmlns="http://www.w3.org/2000/svg">
<path id="Subtract" fill-rule="evenodd" clip-rule="evenodd" d="M11.3807 11.3807C13.9842 8.77722 13.9842 4.55612 11.3807 1.95262C8.77722 -0.650874 4.55612 -0.650874 1.95262 1.95262C-0.650874 4.55612 -0.650874 8.77722 1.95262 11.3807C4.55612 13.9842 8.77722 13.9842 11.3807 11.3807ZM4.30964 5.25245C4.04929 4.9921 4.04929 4.56999 4.30964 4.30964C4.56999 4.04929 4.9921 4.04929 5.25245 4.30964L6.66667 5.72386L8.08088 4.30964C8.34123 4.04929 8.76334 4.04929 9.02369 4.30964C9.28404 4.56999 9.28404 4.9921 9.02369 5.25245L7.60948 6.66667L9.02369 8.08088C9.28404 8.34123 9.28404 8.76334 9.02369 9.02369C8.76334 9.28404 8.34123 9.28404 8.08088 9.02369L6.66667 7.60948L5.25245 9.02369C4.9921 9.28404 4.56999 9.28404 4.30964 9.02369C4.04929 8.76334 4.04929 8.34123 4.30964 8.08088L5.72386 6.66667L4.30964 5.25245Z" fill="var(--fill-0, #282828)"/>
</svg>
