<svg preserveAspectRatio="none" width="100%" height="100%" overflow="visible" style="display: block;" viewBox="0 0 14 12" fill="none" xmlns="http://www.w3.org/2000/svg">
<path id="Union (Stroke)" fill-rule="evenodd" clip-rule="evenodd" d="M6.66667 3.02944L5.72386 2.08663C4.71946 1.08224 3.09103 1.08223 2.08663 2.08663C1.08223 3.09103 1.08224 4.71947 2.08663 5.72386L6.66667 10.3039L11.2467 5.72386C12.2511 4.71946 12.2511 3.09102 11.2467 2.08663C10.2423 1.08224 8.61387 1.08223 7.60948 2.08663L6.66667 3.02944ZM6.66761 1.14287C8.19279 -0.381277 10.6647 -0.380954 12.1895 1.14382C13.7146 2.66891 13.7146 5.14157 12.1895 6.66667L7.1269 11.7293C6.87272 11.9835 6.46061 11.9835 6.20643 11.7293L1.14382 6.66667C-0.38127 5.14158 -0.381277 2.66892 1.14382 1.14382C2.66892 -0.381277 5.14158 -0.38127 6.66667 1.14382C6.66698 1.1435 6.6673 1.14319 6.66761 1.14287Z" fill="var(--fill-0, #282828)"/>
</svg>
