<svg preserveAspectRatio="none" width="100%" height="100%" overflow="visible" style="display: block;" viewBox="0 0 10 10" fill="none" xmlns="http://www.w3.org/2000/svg">
<path id="Subtract" fill-rule="evenodd" clip-rule="evenodd" d="M5 0C2.23858 0 0 2.23858 0 5C0 7.76142 2.23858 10 5 10C7.76142 10 10 7.76142 10 5C10 2.23858 7.76142 0 5 0ZM4.5 7C4.5 6.72386 4.72386 6.5 5 6.5C5.27614 6.5 5.5 6.72386 5.5 7C5.5 7.27614 5.27614 7.5 5 7.5C4.72386 7.5 4.5 7.27614 4.5 7ZM5.5 5.5C5.5 5.77614 5.27614 6 5 6C4.72386 6 4.5 5.77614 4.5 5.5V3C4.5 2.72386 4.72386 2.5 5 2.5C5.27614 2.5 5.5 2.72386 5.5 3V5.5Z" fill="var(--fill-0, #282828)"/>
</svg>
