<svg preserveAspectRatio="none" width="100%" height="100%" overflow="visible" style="display: block;" viewBox="0 0 10 10" fill="none" xmlns="http://www.w3.org/2000/svg">
<path id="Subtract" d="M5 0C7.76142 0 10 2.23858 10 5C10 7.76142 7.76142 10 5 10C2.23858 10 0 7.76142 0 5C0 2.23858 2.23858 0 5 0ZM5 4C4.72393 4.00001 4.5001 4.22395 4.5 4.5V7C4.5 7.27613 4.72387 7.49999 5 7.5C5.27614 7.5 5.5 7.27614 5.5 7V4.5C5.4999 4.22395 5.27608 4 5 4ZM5 2.5C4.72393 2.50001 4.5001 2.72395 4.5 3C4.5 3.27614 4.72386 3.49999 5 3.5C5.27614 3.5 5.5 3.27614 5.5 3C5.4999 2.72395 5.27608 2.5 5 2.5Z" fill="var(--fill-0, #282828)"/>
</svg>
