<svg preserveAspectRatio="none" width="100%" height="100%" overflow="visible" style="display: block;" viewBox="0 0 14 14" fill="none" xmlns="http://www.w3.org/2000/svg">
<path id="Subtract" d="M10.667 0C12.1396 0.000175102 13.333 1.19434 13.333 2.66699V10.667C13.3328 12.1395 12.1395 13.3328 10.667 13.333H2.66699C1.19434 13.333 0.000176068 12.1396 0 10.667V2.66699C0 1.19423 1.19423 0 2.66699 0H10.667ZM2.66699 6C2.2988 6 2 6.2988 2 6.66699C2.00018 7.03503 2.29891 7.33301 2.66699 7.33301H10.667C11.0349 7.33283 11.3328 7.03492 11.333 6.66699C11.333 6.29891 11.035 6.00018 10.667 6H2.66699Z" fill="var(--fill-0, #282828)"/>
</svg>
