<svg preserveAspectRatio="none" width="100%" height="100%" overflow="visible" style="display: block;" viewBox="0 0 18 20" fill="none" xmlns="http://www.w3.org/2000/svg">
<path id="Subtract" d="M8.87116 0C11.2901 0 13.3073 1.71783 13.7706 4H14.9923C16.0483 4 16.9223 4.82105 16.9883 5.875L17.7383 17.875C17.8103 19.0264 16.8959 20 15.7423 20H2.00007C0.846492 19.9999 -0.0679828 19.0263 0.00397376 17.875L0.753974 5.875C0.819967 4.82109 1.69408 4.00007 2.75007 4H3.97175C4.43505 1.71785 6.4523 6.78714e-05 8.87116 0ZM4.87116 7C4.31891 7.00004 3.87116 7.44774 3.87116 8C3.87116 8.55226 4.31891 8.99996 4.87116 9C5.42345 9 5.87116 8.55228 5.87116 8C5.87116 7.44772 5.42345 7 4.87116 7ZM12.8712 7C12.3189 7.00004 11.8712 7.44774 11.8712 8C11.8712 8.55226 12.3189 8.99996 12.8712 9C13.4234 9 13.8712 8.55228 13.8712 8C13.8712 7.44772 13.4234 7 12.8712 7ZM8.87116 2C7.56536 2.00006 6.45708 2.83535 6.04499 4H11.6973C11.2852 2.83534 10.177 2 8.87116 2Z" fill="var(--fill-0, #282828)"/>
</svg>
