<svg preserveAspectRatio="none" width="100%" height="100%" overflow="visible" style="display: block;" viewBox="0 0 17 17" fill="none" xmlns="http://www.w3.org/2000/svg">
<g id="Union">
<path d="M7.5 11.6667C7.5 11.2064 7.8731 10.8333 8.33333 10.8333C8.79357 10.8333 9.16667 11.2064 9.16667 11.6667C9.16667 12.1269 8.79357 12.5 8.33333 12.5C7.8731 12.5 7.5 12.1269 7.5 11.6667Z" fill="var(--fill-0, #282828)"/>
<path d="M9.16667 9.16667C9.16667 9.6269 8.79357 10 8.33333 10C7.8731 10 7.5 9.6269 7.5 9.16667V5C7.5 4.53976 7.8731 4.16667 8.33333 4.16667C8.79357 4.16667 9.16667 4.53976 9.16667 5V9.16667Z" fill="var(--fill-0, #282828)"/>
<path fill-rule="evenodd" clip-rule="evenodd" d="M0 8.33333C0 3.73096 3.73096 0 8.33333 0C12.9357 0 16.6667 3.73096 16.6667 8.33333C16.6667 12.9357 12.9357 16.6667 8.33333 16.6667C3.73096 16.6667 0 12.9357 0 8.33333ZM1.66667 8.33333C1.66667 4.65144 4.65144 1.66667 8.33333 1.66667C12.0152 1.66667 15 4.65144 15 8.33333C15 12.0152 12.0152 15 8.33333 15C4.65144 15 1.66667 12.0152 1.66667 8.33333Z" fill="var(--fill-0, #282828)"/>
</g>
</svg>
