<svg preserveAspectRatio="none" width="100%" height="100%" overflow="visible" style="display: block;" viewBox="0 0 20 16" fill="none" xmlns="http://www.w3.org/2000/svg">
<path id="Union" d="M18 0C19.1046 0 20 0.895431 20 2V14C20 15.1046 19.1046 16 18 16H2C0.895431 16 0 15.1046 0 14V2C0 0.895431 0.895431 0 2 0H18ZM2 14H18V2H2V14ZM14.2432 3.81836C14.6337 3.42792 15.2667 3.42786 15.6572 3.81836C16.0474 4.20888 16.0476 4.842 15.6572 5.23242L10.707 10.1816C10.3165 10.5722 9.68349 10.5722 9.29297 10.1816L4.34277 5.23242C3.95249 4.84201 3.95266 4.20887 4.34277 3.81836C4.7333 3.42784 5.36729 3.42784 5.75781 3.81836L10 8.06055L14.2432 3.81836Z" fill="var(--fill-0, #282828)"/>
</svg>
