<svg preserveAspectRatio="none" width="100%" height="100%" overflow="visible" style="display: block;" viewBox="0 0 10 10" fill="none" xmlns="http://www.w3.org/2000/svg">
<path id="Union" d="M1 9.0625H9V4.5H1V9.0625ZM2.5 7.5C2.77614 7.5 3 7.72386 3 8C3 8.27614 2.77614 8.5 2.5 8.5C2.22386 8.5 2 8.27614 2 8C2 7.72386 2.22386 7.5 2.5 7.5ZM5 7.5C5.27614 7.5 5.5 7.72386 5.5 8C5.5 8.27614 5.27614 8.5 5 8.5C4.72386 8.5 4.5 8.27614 4.5 8C4.5 7.72386 4.72386 7.5 5 7.5ZM7.5 7.5C7.77614 7.5 8 7.72386 8 8C8 8.27614 7.77614 8.5 7.5 8.5C7.22386 8.5 7 8.27614 7 8C7 7.72386 7.22386 7.5 7.5 7.5ZM2.5 5C2.77614 5 3 5.22386 3 5.5C3 5.77614 2.77614 6 2.5 6C2.22386 6 2 5.77614 2 5.5C2 5.22386 2.22386 5 2.5 5ZM5 5C5.27614 5 5.5 5.22386 5.5 5.5C5.5 5.77614 5.27614 6 5 6C4.72386 6 4.5 5.77614 4.5 5.5C4.5 5.22386 4.72386 5 5 5ZM7.5 5C7.77614 5 8 5.22386 8 5.5C8 5.77614 7.77614 6 7.5 6C7.22386 6 7 5.77614 7 5.5C7 5.22386 7.22386 5 7.5 5ZM1 3.5H9V2H1V3.5ZM10 9.0625C10 9.58027 9.55229 10 9 10H1C0.447716 10 0 9.58027 0 9.0625V2C5.47616e-07 1.44772 0.447716 1 1 1H2V0.5C2 0.223858 2.22386 0 2.5 0C2.77614 1.61064e-08 3 0.223858 3 0.5V1H7V0.5C7 0.223858 7.22386 0 7.5 0C7.77614 1.61064e-08 8 0.223858 8 0.5V1H9C9.55228 1 10 1.44772 10 2V9.0625Z" fill="var(--fill-0, #282828)"/>
</svg>
