<svg preserveAspectRatio="none" width="100%" height="100%" overflow="visible" style="display: block;" viewBox="0 0 20 20" fill="none" xmlns="http://www.w3.org/2000/svg">
<path id="Union" d="M10 0C15.5228 0 20 4.47715 20 10C20 15.5228 15.5228 20 10 20C4.47715 20 0 15.5228 0 10C0 4.47715 4.47715 0 10 0ZM10 2C5.58172 2 2 5.58172 2 10C2 14.4183 5.58172 18 10 18C14.4183 18 18 14.4183 18 10C18 5.58172 14.4183 2 10 2ZM10.0498 5.0498C10.4403 4.65958 11.0744 4.65954 11.4648 5.0498L15.707 9.29199C15.7534 9.33836 15.7954 9.38962 15.832 9.44434C15.8599 9.486 15.8843 9.52969 15.9053 9.57422C15.9253 9.61685 15.9431 9.66136 15.957 9.70703C15.9621 9.72362 15.9656 9.74103 15.9697 9.75781C15.9889 9.835 15.9999 9.91593 16 9.99902C16 10.082 15.9888 10.1632 15.9697 10.2402C15.9656 10.257 15.962 10.2744 15.957 10.291C15.9431 10.3367 15.9253 10.3811 15.9053 10.4238C15.8844 10.4684 15.8599 10.512 15.832 10.5537C15.8195 10.5725 15.8057 10.5906 15.792 10.6084C15.7659 10.6422 15.738 10.676 15.707 10.707L11.4648 14.9492C11.0743 15.3397 10.4403 15.3398 10.0498 14.9492C9.65979 14.5587 9.65975 13.9255 10.0498 13.5352L12.5859 10.999H5C4.44772 10.999 4 10.5513 4 9.99902C4.00048 9.44715 4.44801 8.99902 5 8.99902H12.5859L10.0498 6.46387C9.65982 6.07338 9.65973 5.44017 10.0498 5.0498Z" fill="var(--fill-0, #282828)"/>
</svg>
