<svg preserveAspectRatio="none" width="100%" height="100%" overflow="visible" style="display: block;" viewBox="0 0 13 13" fill="none" xmlns="http://www.w3.org/2000/svg">
<path id="Union" fill-rule="evenodd" clip-rule="evenodd" d="M5.03095 7.53804C5.00865 7.52246 4.98533 7.50821 4.96111 7.49538L0.354812 5.05673C-0.163519 4.78232 -0.100471 4.02055 0.455923 3.83509L11.8551 0.0353636C12.3763 -0.13836 12.8721 0.357466 12.6984 0.878638L8.89866 12.2778C8.71319 12.8342 7.95142 12.8973 7.67701 12.3789L5.23837 7.77265C5.22555 7.74842 5.21129 7.7251 5.19571 7.7028C5.16424 7.68076 5.13425 7.65569 5.10615 7.62759C5.07805 7.59949 5.05299 7.56951 5.03095 7.53804ZM5.51237 6.27857L2.3556 4.60732L11.0118 1.72191L8.12642 10.3781L6.45518 7.22137L7.93458 5.74197C8.19493 5.48162 8.19493 5.05951 7.93458 4.79916C7.67423 4.53881 7.25212 4.53881 6.99177 4.79916L5.51237 6.27857Z" fill="var(--fill-0, #282828)"/>
</svg>
