<svg preserveAspectRatio="none" width="100%" height="100%" overflow="visible" style="display: block;" viewBox="0 0 11 10" fill="none" xmlns="http://www.w3.org/2000/svg">
<g id="Union">
<path d="M4.81686 3.91162C4.81686 3.63548 5.04072 3.41162 5.31686 3.41162C5.59301 3.41162 5.81686 3.63548 5.81686 3.91162V6.41162C5.81686 6.68776 5.59301 6.91162 5.31686 6.91162C5.04072 6.91162 4.81686 6.68776 4.81686 6.41162V3.91162Z" fill="var(--fill-0, #282828)"/>
<path d="M5.81686 7.91162C5.81686 8.18776 5.59301 8.41162 5.31686 8.41162C5.04072 8.41162 4.81686 8.18776 4.81686 7.91162C4.81686 7.63548 5.04072 7.41162 5.31686 7.41162C5.59301 7.41162 5.81686 7.63548 5.81686 7.91162Z" fill="var(--fill-0, #282828)"/>
<path fill-rule="evenodd" clip-rule="evenodd" d="M4.43897 0.521148C4.81799 -0.173716 5.81575 -0.173716 6.19477 0.521148L10.5102 8.43282C10.8737 9.0992 10.3914 9.91167 9.63233 9.91167H1.00141C0.242353 9.91167 -0.23996 9.0992 0.123517 8.43282L4.43897 0.521148ZM5.31687 1L9.63233 8.91167L1.00141 8.91167L5.31687 1Z" fill="var(--fill-0, #282828)"/>
</g>
</svg>
