<svg preserveAspectRatio="none" width="100%" height="100%" overflow="visible" style="display: block;" viewBox="0 0 17 17" fill="none" xmlns="http://www.w3.org/2000/svg">
<path id="Union" d="M12.5 0C12.9601 3.54256e-07 13.3328 0.37292 13.333 0.833008V1.66699H15C15.9204 1.66699 16.6668 2.41268 16.667 3.33301V15C16.6668 15.9203 15.9204 16.666 15 16.666H1.66699C0.746626 16.666 0.000176079 15.9203 0 15V3.33301C0.000175868 2.41268 0.746626 1.66699 1.66699 1.66699H3.33301V0.833008C3.33318 0.37292 3.70686 0 4.16699 0C4.62697 0.000176016 4.99982 0.373029 5 0.833008V1.66699H11.667V0.833008C11.6672 0.37292 12.0399 0 12.5 0ZM4.16602 12.5C3.70619 12.5004 3.33318 12.8731 3.33301 13.333C3.33301 13.793 3.70608 14.1657 4.16602 14.166C4.62625 14.166 5 13.7932 5 13.333C4.99982 12.8729 4.62614 12.5 4.16602 12.5ZM8.33301 12.5C7.87303 12.5002 7.50018 12.873 7.5 13.333C7.5 13.7931 7.87292 14.1658 8.33301 14.166C8.79324 14.166 9.16601 13.7932 9.16602 13.333C9.16584 12.8729 8.79314 12.5 8.33301 12.5ZM12.5 12.5C12.04 12.5002 11.6662 12.873 11.666 13.333C11.666 13.7931 12.0399 14.1658 12.5 14.166C12.9601 14.1658 13.333 13.7931 13.333 13.333C13.3328 12.873 12.96 12.5002 12.5 12.5ZM4.16602 8.33301C3.70629 8.33336 3.33336 8.70629 3.33301 9.16602C3.33301 9.62604 3.70608 9.99965 4.16602 10C4.62625 10 5 9.62625 5 9.16602C4.99965 8.70608 4.62604 8.33301 4.16602 8.33301ZM8.33301 8.33301C7.87314 8.33318 7.50035 8.70619 7.5 9.16602C7.5 9.62614 7.87292 9.99982 8.33301 10C8.79324 10 9.16602 9.62625 9.16602 9.16602C9.16566 8.70608 8.79303 8.33301 8.33301 8.33301ZM12.5 8.33301C12.0401 8.33318 11.6664 8.70619 11.666 9.16602C11.666 9.62614 12.0399 9.99982 12.5 10C12.9601 9.99982 13.333 9.62614 13.333 9.16602C13.3327 8.70619 12.9599 8.33318 12.5 8.33301ZM1.66699 5.83301H15V3.33301H1.66699V5.83301Z" fill="var(--fill-0, #282828)"/>
</svg>
