<svg preserveAspectRatio="none" width="100%" height="100%" overflow="visible" style="display: block;" viewBox="0 0 7 7" fill="none" xmlns="http://www.w3.org/2000/svg">
<path id="Union" d="M0.195262 0.195262C-0.0650874 0.455612 -0.0650872 0.877722 0.195262 1.13807L2.55228 3.49509L0.195262 5.85212C-0.0650874 6.11247 -0.0650874 6.53458 0.195262 6.79492C0.455612 7.05527 0.877722 7.05527 1.13807 6.79492L3.49509 4.4379L5.85212 6.79492C6.11247 7.05527 6.53458 7.05527 6.79492 6.79492C7.05527 6.53458 7.05527 6.11247 6.79492 5.85212L4.4379 3.49509L6.79492 1.13807C7.05527 0.877722 7.05527 0.455612 6.79492 0.195262C6.53458 -0.0650874 6.11247 -0.0650871 5.85212 0.195262L3.49509 2.55228L1.13807 0.195262C0.877722 -0.0650874 0.455612 -0.0650874 0.195262 0.195262Z" fill="var(--fill-0, #282828)"/>
</svg>
