<svg preserveAspectRatio="none" width="100%" height="100%" overflow="visible" style="display: block;" viewBox="0 0 10 8" fill="none" xmlns="http://www.w3.org/2000/svg">
<path id="Union" d="M1.56055 0.311523C1.75581 0.116264 2.07232 0.116269 2.26758 0.311523L8.63184 6.67578C8.82681 6.87107 8.827 7.18765 8.63184 7.38281C8.43666 7.57785 8.12005 7.57774 7.9248 7.38281L7.58887 7.04688C6.82779 7.48953 5.94391 7.74414 5 7.74414C2.59446 7.74414 0.573136 6.09874 0 3.87207C0.276234 2.79882 0.8897 1.86165 1.71973 1.17773L1.56055 1.01855C1.36534 0.823335 1.36542 0.506793 1.56055 0.311523ZM2.43066 1.88867C1.78922 2.39205 1.29916 3.07941 1.04102 3.87207C1.58416 5.53972 3.15262 6.74414 5 6.74414C5.66502 6.74414 6.29295 6.5865 6.85059 6.30859L6.08887 5.54688C5.7755 5.75146 5.40232 5.87207 5 5.87207C3.89545 5.87207 3.00003 4.97661 3 3.87207C3 3.46967 3.11874 3.09496 3.32324 2.78125L2.43066 1.88867ZM5 0C7.40556 0 9.42689 1.64536 10 3.87207C9.82439 4.55433 9.51165 5.18113 9.09473 5.72363L8.37988 5.00977C8.62747 4.66587 8.82499 4.28348 8.95898 3.87207C8.41586 2.20438 6.84741 1 5 1C4.80072 1 4.60494 1.01587 4.41309 1.04297L3.57129 0.201172C4.02508 0.0707294 4.50426 0 5 0ZM4.06348 3.52148C4.02255 3.63054 4 3.74862 4 3.87207C4.00003 4.42433 4.44774 4.87207 5 4.87207C5.1233 4.87207 5.24077 4.84847 5.34961 4.80762L4.06348 3.52148Z" fill="var(--fill-0, #282828)"/>
</svg>
