<svg preserveAspectRatio="none" width="100%" height="100%" overflow="visible" style="display: block;" viewBox="0 0 14 14" fill="none" xmlns="http://www.w3.org/2000/svg">
<path id="Subtract" d="M10.667 0C12.1396 0.000175102 13.333 1.19434 13.333 2.66699V10.667C13.3328 12.1395 12.1395 13.3328 10.667 13.333H2.66699C1.19434 13.333 0.000176068 12.1396 0 10.667V2.66699C0 1.19423 1.19423 0 2.66699 0H10.667ZM5.9668 3.36719C5.70647 3.10686 5.2838 3.10683 5.02344 3.36719L2.19531 6.19531C2.14153 6.24917 2.09989 6.31116 2.06836 6.37598C2.06279 6.38732 2.05567 6.39845 2.05078 6.41016C1.98281 6.57365 1.98292 6.75933 2.05078 6.92285C2.05571 6.93462 2.06281 6.94561 2.06836 6.95703C2.09997 7.02217 2.14123 7.08459 2.19531 7.13867L5.02344 9.9668C5.28367 10.227 5.70643 10.2268 5.9668 9.9668C6.22686 9.70657 6.22664 9.28473 5.9668 9.02441L4.27637 7.33398H10.667C11.0349 7.33381 11.3328 7.0349 11.333 6.66699C11.333 6.29891 11.035 6.00018 10.667 6H4.27637L5.9668 4.30957C6.22674 4.04927 6.22677 3.62743 5.9668 3.36719Z" fill="var(--fill-0, #282828)"/>
</svg>
