<svg preserveAspectRatio="none" width="100%" height="100%" overflow="visible" style="display: block;" viewBox="0 0 10 14" fill="none" xmlns="http://www.w3.org/2000/svg">
<path id="Union" d="M8.66699 4C9.03503 4.00018 9.33301 4.29891 9.33301 4.66699V6C9.33301 8.35101 7.59454 10.2947 5.33301 10.6182V12H6.66699C7.03503 12.0002 7.33301 12.2989 7.33301 12.667C7.33283 13.0349 7.03492 13.3328 6.66699 13.333H2.66699C2.29891 13.333 2.00018 13.035 2 12.667C2 12.2988 2.2988 12 2.66699 12H4V10.6182C1.73868 10.2944 8.81458e-08 8.3508 0 6V4.66699C0 4.2988 0.298802 4 0.666992 4C1.03503 4.00018 1.33301 4.29891 1.33301 4.66699V6C1.33301 7.84095 2.82604 9.33301 4.66699 9.33301C6.50779 9.33283 8 7.84084 8 6V4.66699C8 4.2988 8.2988 4 8.66699 4ZM4.66699 0C5.77141 0.0001757 6.66699 0.895539 6.66699 2V6C6.66699 7.10446 5.77141 7.99982 4.66699 8C3.56242 8 2.66699 7.10457 2.66699 6V2C2.66699 0.895431 3.56242 0 4.66699 0ZM4.66699 1.33301C4.2988 1.33301 4 1.63181 4 2V6C4 6.36819 4.2988 6.66699 4.66699 6.66699C5.03503 6.66682 5.33301 6.36808 5.33301 6V2C5.33301 1.63192 5.03503 1.33318 4.66699 1.33301Z" fill="var(--fill-0, #282828)"/>
</svg>
