<svg preserveAspectRatio="none" width="100%" height="100%" overflow="visible" style="display: block;" viewBox="0 0 14 14" fill="none" xmlns="http://www.w3.org/2000/svg">
<path id="Subtract" d="M6.66699 0C10.3487 0.000176004 13.333 2.9852 13.333 6.66699C13.3328 10.3486 10.3486 13.3328 6.66699 13.333C2.9852 13.333 0.000176007 10.3487 0 6.66699C0 2.98509 2.98509 0 6.66699 0ZM6.66699 5.33398C6.29881 5.33399 6 5.63279 6 6.00098V9.33398C6.00022 9.70198 6.29894 10.001 6.66699 10.001C7.0349 10.0008 7.33279 9.70188 7.33301 9.33398V6.00098C7.33301 5.6329 7.03503 5.33416 6.66699 5.33398ZM6.66699 3.33398C6.29881 3.33399 6 3.63279 6 4.00098C6.00039 4.36883 6.29905 4.66698 6.66699 4.66699C7.03479 4.66682 7.33262 4.36872 7.33301 4.00098C7.33301 3.6329 7.03503 3.33416 6.66699 3.33398Z" fill="var(--fill-0, #282828)"/>
</svg>
