<svg preserveAspectRatio="none" width="100%" height="100%" overflow="visible" style="display: block;" viewBox="0 0 11 8" fill="none" xmlns="http://www.w3.org/2000/svg">
<g id="Union">
<path d="M0.146501 2.0503C2.88033 -0.683521 7.31234 -0.683348 10.046 2.0503C10.2412 2.24555 10.2414 2.56199 10.046 2.75741C9.85057 2.95283 9.53414 2.95266 9.33889 2.75741C6.99573 0.414256 3.19659 0.414428 0.853608 2.75741C0.658187 2.95283 0.34175 2.95266 0.146501 2.75741C-0.0487474 2.56216 -0.04892 2.24572 0.146501 2.0503Z" fill="var(--fill-0, #282828)"/>
<path d="M1.56071 3.46452C3.5132 1.51203 6.67917 1.5119 8.63178 3.46452C8.82703 3.65977 8.8272 3.9762 8.63178 4.17162C8.43636 4.36704 8.11992 4.36687 7.92468 4.17162C6.36256 2.60951 3.82981 2.60964 2.26782 4.17162C2.0724 4.36704 1.75596 4.36687 1.56071 4.17162C1.36547 3.97638 1.36529 3.65994 1.56071 3.46452Z" fill="var(--fill-0, #282828)"/>
<path d="M2.97493 4.87873C4.14642 3.70724 6.04599 3.70715 7.21757 4.87873C7.41282 5.07398 7.41299 5.39042 7.21757 5.58584C7.02215 5.78126 6.70571 5.78109 6.51046 5.58584C5.72942 4.8048 4.46303 4.80484 3.68203 5.58584C3.48661 5.78126 3.17018 5.78109 2.97493 5.58584C2.77968 5.39059 2.77951 5.07415 2.97493 4.87873Z" fill="var(--fill-0, #282828)"/>
<path d="M5.62658 7.17683C5.91936 6.88404 5.91945 6.40904 5.62658 6.11617C5.33371 5.82329 4.8587 5.82338 4.56592 6.11617C4.27313 6.40895 4.27305 6.88395 4.56592 7.17683C4.85879 7.4697 5.33379 7.46961 5.62658 7.17683Z" fill="var(--fill-0, #282828)"/>
</g>
</svg>
