<svg preserveAspectRatio="none" width="100%" height="100%" overflow="visible" style="display: block;" viewBox="0 0 20 19" fill="none" xmlns="http://www.w3.org/2000/svg">
<g id="Union">
<path d="M19.6464 3.64745C19.8417 3.45219 19.8417 3.13561 19.6464 2.94034L16.8536 0.147449C16.5386 -0.167534 16 0.0555507 16 0.501003V2.2939H13C11.7295 2.2939 10.5697 2.76776 9.68763 3.5484C10.1215 4.09069 10.4632 4.70992 10.6891 5.38234C11.2391 4.71779 12.0701 4.29429 13 4.2939H16V6.08679C16 6.53224 16.5386 6.75533 16.8536 6.44034L19.6464 3.64745Z" fill="var(--fill-0, #282828)"/>
<path d="M19.6464 15.6474C19.8417 15.4522 19.8417 15.1356 19.6464 14.9403L16.8536 12.1474C16.5386 11.8325 16 12.0556 16 12.501V14.2939H13C11.344 14.2928 10.002 12.9501 10.002 11.2939H10V7.2939C10 6.95143 9.96557 6.61701 9.89998 6.2939C9.89946 6.29134 9.89894 6.28878 9.89842 6.28623C9.74779 5.55011 9.43539 4.87292 9 4.29341C8.08777 3.07924 6.63559 2.2939 5 2.2939H1C0.447715 2.2939 0 2.74161 0 3.2939C0 3.84618 0.447715 4.2939 1 4.2939H5C6.65686 4.2939 8 5.63704 8 7.2939V11.2939C8 11.6364 8.03443 11.9708 8.10002 12.2939L8.10158 12.3016C8.25221 13.0377 8.56461 13.7149 9 14.2944C9.91223 15.5086 11.3644 16.2939 13 16.2939H16V18.0868C16 18.5322 16.5386 18.7553 16.8536 18.4403L19.6464 15.6474Z" fill="var(--fill-0, #282828)"/>
<path d="M0 15.2939C0 14.7416 0.447715 14.2939 1 14.2939H5C5.92993 14.2939 6.76103 13.8708 7.31131 13.2066C7.53716 13.8786 7.87874 14.4974 8.31237 15.0394C7.43032 15.82 6.2705 16.2939 5 16.2939H1C0.447715 16.2939 0 15.8462 0 15.2939Z" fill="var(--fill-0, #282828)"/>
</g>
</svg>
