<svg preserveAspectRatio="none" width="100%" height="100%" overflow="visible" style="display: block;" viewBox="0 0 14 12" fill="none" xmlns="http://www.w3.org/2000/svg">
<g id="Union">
<path d="M6.66667 0C6.29846 0 6 0.298472 6 0.666667V1.33333H0.666667C0.298462 1.33333 0 1.63181 0 2C0 2.36819 0.298462 2.66667 0.666667 2.66667H6V3.33333C6 3.70153 6.29846 4 6.66667 4C7.03487 4 7.33333 3.70153 7.33333 3.33333V0.666667C7.33333 0.298472 7.03487 0 6.66667 0Z" fill="var(--fill-0, #282828)"/>
<path d="M9.33333 4.66667C9.33333 4.29847 9.63179 4 10 4C10.3682 4 10.6667 4.29847 10.6667 4.66667V7.33333C10.6667 7.70153 10.3682 8 10 8C9.63179 8 9.33333 7.70153 9.33333 7.33333V6.66667H0.666667C0.298462 6.66667 0 6.36819 0 6C0 5.63181 0.298462 5.33333 0.666667 5.33333H9.33333V4.66667Z" fill="var(--fill-0, #282828)"/>
<path d="M3.33333 8C2.96513 8 2.66667 8.29847 2.66667 8.66667V9.33333H0.666667C0.298462 9.33333 0 9.63181 0 10C0 10.3682 0.298462 10.6667 0.666667 10.6667H2.66667V11.3333C2.66667 11.7015 2.96513 12 3.33333 12C3.70154 12 4 11.7015 4 11.3333V8.66667C4 8.29847 3.70154 8 3.33333 8Z" fill="var(--fill-0, #282828)"/>
<path d="M4.66667 10C4.66667 9.63181 4.96513 9.33333 5.33333 9.33333H12.6667C13.0349 9.33333 13.3333 9.63181 13.3333 10C13.3333 10.3682 13.0349 10.6667 12.6667 10.6667H5.33333C4.96513 10.6667 4.66667 10.3682 4.66667 10Z" fill="var(--fill-0, #282828)"/>
<path d="M12 5.33333C11.6318 5.33333 11.3333 5.63181 11.3333 6C11.3333 6.36819 11.6318 6.66667 12 6.66667H12.6667C13.0349 6.66667 13.3333 6.36819 13.3333 6C13.3333 5.63181 13.0349 5.33333 12.6667 5.33333H12Z" fill="var(--fill-0, #282828)"/>
<path d="M8 2C8 1.63181 8.29846 1.33333 8.66667 1.33333H12.6667C13.0349 1.33333 13.3333 1.63181 13.3333 2C13.3333 2.36819 13.0349 2.66667 12.6667 2.66667H8.66667C8.29846 2.66667 8 2.36819 8 2Z" fill="var(--fill-0, #282828)"/>
</g>
</svg>
