<svg preserveAspectRatio="none" width="100%" height="100%" overflow="visible" style="display: block;" viewBox="0 0 20 20" fill="none" xmlns="http://www.w3.org/2000/svg">
<path id="Subtract" d="M16 0C18.2091 0 20 1.79086 20 4V16C20 18.2091 18.2091 20 16 20H4C1.79086 20 3.22133e-08 18.2091 0 16V4C0 1.79086 1.79086 3.22128e-08 4 0H16ZM16.3643 5.75684C15.9739 5.36649 15.3407 5.36679 14.9502 5.75684L8.58594 12.1211L5.0498 8.58594C4.65926 8.19548 4.02621 8.19547 3.63574 8.58594C3.24555 8.97643 3.24538 9.60955 3.63574 10L7.87891 14.2422C8.26945 14.6327 8.90247 14.6327 9.29297 14.2422L16.3643 7.17188C16.7548 6.78138 16.7548 6.14738 16.3643 5.75684Z" fill="var(--fill-0, #282828)"/>
</svg>
