<svg preserveAspectRatio="none" width="100%" height="100%" overflow="visible" style="display: block;" viewBox="0 0 11 14" fill="none" xmlns="http://www.w3.org/2000/svg">
<g id="Union">
<path fill-rule="evenodd" clip-rule="evenodd" d="M8.04844 5.36543C8.04844 6.8471 6.84731 8.04824 5.36563 8.04824C3.88396 8.04824 2.68282 6.8471 2.68282 5.36543C2.68282 3.88375 3.88396 2.68262 5.36563 2.68262C6.84731 2.68262 8.04844 3.88375 8.04844 5.36543ZM6.71511 5.36543C6.71511 6.11072 6.11093 6.7149 5.36563 6.7149C4.62034 6.7149 4.01615 6.11072 4.01615 5.36543C4.01615 4.62013 4.62034 4.01595 5.36563 4.01595C6.11093 4.01595 6.71511 4.62013 6.71511 5.36543Z" fill="var(--fill-0, #282828)"/>
<path fill-rule="evenodd" clip-rule="evenodd" d="M10.7312 5.36562C10.7312 9.97382 6.77354 12.6032 5.65619 13.2537C5.47375 13.3599 5.2575 13.3599 5.07505 13.2537C3.95771 12.6032 0 9.97382 0 5.36562C0 2.40227 2.40227 0 5.36562 0C8.32898 0 10.7312 2.40227 10.7312 5.36562ZM9.39792 5.36562C9.39792 7.26131 8.5897 8.77414 7.60123 9.92507C6.81181 10.8442 5.93764 11.4947 5.36562 11.8666C4.79361 11.4947 3.91943 10.8442 3.13002 9.92507C2.14155 8.77414 1.33333 7.26131 1.33333 5.36562C1.33333 3.13865 3.13865 1.33333 5.36562 1.33333C7.5926 1.33333 9.39792 3.13865 9.39792 5.36562Z" fill="var(--fill-0, #282828)"/>
</g>
</svg>
