<svg preserveAspectRatio="none" width="100%" height="100%" overflow="visible" style="display: block;" viewBox="0 0 8 10" fill="none" xmlns="http://www.w3.org/2000/svg">
<path id="Union" fill-rule="evenodd" clip-rule="evenodd" d="M3 0.5C3 0.223858 3.22386 0 3.5 0H4.5C4.77614 0 5 0.223858 5 0.5C5 0.776142 4.77614 1 4.5 1H7.5C7.77614 1 8 1.22386 8 1.5C8 1.77614 7.77614 2 7.5 2H7.44444L7.05247 9.05547C7.02303 9.58539 6.58475 10 6.05401 10H1.94599C1.41525 10 0.976966 9.58539 0.947526 9.05547L0.555555 2H0.5C0.223858 2 0 1.77614 0 1.5C0 1.22386 0.223858 1 0.5 1H3.5C3.22386 1 3 0.776142 3 0.5ZM3 3.5C2.72386 3.5 2.5 3.72386 2.5 4V7C2.5 7.27614 2.72386 7.5 3 7.5C3.27614 7.5 3.5 7.27614 3.5 7V4C3.5 3.72386 3.27614 3.5 3 3.5ZM5 3.5C4.72386 3.5 4.5 3.72386 4.5 4V7C4.5 7.27614 4.72386 7.5 5 7.5C5.27614 7.5 5.5 7.27614 5.5 7V4C5.5 3.72386 5.27614 3.5 5 3.5Z" fill="var(--fill-0, #282828)"/>
</svg>
