<svg preserveAspectRatio="none" width="100%" height="100%" overflow="visible" style="display: block;" viewBox="0 0 20 18" fill="none" xmlns="http://www.w3.org/2000/svg">
<path id="Union (Stroke)" fill-rule="evenodd" clip-rule="evenodd" d="M10 4.54416L8.58579 3.12994C7.0792 1.62336 4.63654 1.62335 3.12994 3.12994C1.62335 4.63654 1.62335 7.0792 3.12994 8.58579L10 15.4558L16.8701 8.58579C18.3766 7.07919 18.3766 4.63653 16.8701 3.12994C15.3635 1.62336 12.9208 1.62335 11.4142 3.12994L10 4.54416ZM10.0014 1.71431C12.2892 -0.571916 15.9971 -0.571431 18.2843 1.71573C20.5719 4.00337 20.5719 7.71235 18.2843 10L10.6904 17.5939C10.3091 17.9752 9.69092 17.9752 9.30964 17.5939L1.71573 10C-0.571905 7.71237 -0.571916 4.00338 1.71573 1.71573C4.00338 -0.571916 7.71236 -0.571905 10 1.71573C10.0005 1.71526 10.0009 1.71478 10.0014 1.71431Z" fill="var(--fill-0, #282828)"/>
</svg>
