<svg preserveAspectRatio="none" width="100%" height="100%" overflow="visible" style="display: block;" viewBox="0 0 8 14" fill="none" xmlns="http://www.w3.org/2000/svg">
<path id="Subtract" d="M6.66699 0C7.40311 0.000175953 7.99982 0.596886 8 1.33301V12C8 12.7363 7.40322 13.3328 6.66699 13.333H1.33301C0.596778 13.3328 1.65336e-07 12.7363 0 12V1.33301C0.000175164 0.596886 0.596886 0.000175889 1.33301 0H6.66699ZM3.33301 10C2.96497 10.0002 2.66699 10.2989 2.66699 10.667C2.66717 11.0349 2.96508 11.3328 3.33301 11.333H4.66699C5.03492 11.3328 5.33283 11.0349 5.33301 10.667C5.33301 10.2989 5.03503 10.0002 4.66699 10H3.33301Z" fill="var(--fill-0, #282828)"/>
</svg>
