<svg preserveAspectRatio="none" width="100%" height="100%" overflow="visible" style="display: block;" viewBox="0 0 14 14" fill="none" xmlns="http://www.w3.org/2000/svg">
<path id="Union" d="M1.33301 12.083H12V6H1.33301V12.083ZM3.33398 10C3.70187 10.0004 4 10.299 4 10.667C3.99982 11.0348 3.70177 11.3336 3.33398 11.334C2.9659 11.334 2.66717 11.035 2.66699 10.667C2.66699 10.2988 2.96579 10 3.33398 10ZM6.66699 10C7.03503 10.0002 7.33398 10.2989 7.33398 10.667C7.33381 11.0349 7.03492 11.3338 6.66699 11.334C6.29891 11.334 6.00018 11.035 6 10.667C6 10.2988 6.2988 10 6.66699 10ZM10 10C10.368 10.0002 10.667 10.2989 10.667 10.667C10.6668 11.0349 10.3679 11.3338 10 11.334C9.63207 11.3338 9.33416 11.0349 9.33398 10.667C9.33398 10.2989 9.63196 10.0002 10 10ZM3.33398 6.66699C3.70187 6.66734 4 6.96601 4 7.33398C3.99965 7.70166 3.70166 7.99965 3.33398 8C2.96601 8 2.66734 7.70187 2.66699 7.33398C2.66699 6.96579 2.96579 6.66699 3.33398 6.66699ZM6.66699 6.66699C7.03503 6.66717 7.33398 6.9659 7.33398 7.33398C7.33363 7.70177 7.03482 7.99982 6.66699 8C6.29902 8 6.00035 7.70187 6 7.33398C6 6.96579 6.2988 6.66699 6.66699 6.66699ZM10 6.66699C10.368 6.66717 10.667 6.9659 10.667 7.33398C10.6666 7.70177 10.3678 7.99982 10 8C9.63218 7.99982 9.33434 7.70177 9.33398 7.33398C9.33398 6.9659 9.63196 6.66717 10 6.66699ZM1.33301 4.66699H12V2.66699H1.33301V4.66699ZM13.333 12.083C13.333 12.7734 12.7364 13.333 12 13.333H1.33301C0.596778 13.3328 0 12.7733 0 12.083V2.66699C0 1.93072 0.596778 1.33318 1.33301 1.33301H2.66699V0.666992C2.66699 0.298911 2.96497 0.000175756 3.33301 0C3.7012 0 4 0.298802 4 0.666992V1.33301H9.33301V0.666992C9.33301 0.298802 9.63181 0 10 0C10.3682 1.93276e-07 10.667 0.298803 10.667 0.666992V1.33301H12C12.7364 1.33301 13.333 1.93061 13.333 2.66699V12.083Z" fill="var(--fill-0, #282828)"/>
</svg>
