<svg preserveAspectRatio="none" width="100%" height="100%" overflow="visible" style="display: block;" viewBox="0 0 10 10" fill="none" xmlns="http://www.w3.org/2000/svg">
<path id="Subtract" d="M8 0C9.10457 0 10 0.895431 10 2V8C10 9.10457 9.10457 10 8 10H2C0.895431 10 1.61066e-08 9.10457 0 8V2C0 0.895431 0.895431 1.61064e-08 2 0H8ZM6.23242 2.52539C6.03714 2.33027 5.71961 2.33019 5.52441 2.52539C5.32989 2.72058 5.32967 3.03733 5.52441 3.23242L6.79297 4.5H2C1.72413 4.50026 1.50008 4.72409 1.5 5C1.5001 5.27589 1.72415 5.49974 2 5.5H6.79297L5.52441 6.76758C5.32974 6.96268 5.32982 7.27943 5.52441 7.47461C5.71957 7.66977 6.03714 7.66952 6.23242 7.47461L8.35352 5.35352C8.54852 5.15828 8.54863 4.84169 8.35352 4.64648L6.23242 2.52539Z" fill="var(--fill-0, #282828)"/>
</svg>
