<svg preserveAspectRatio="none" width="100%" height="100%" overflow="visible" style="display: block;" viewBox="0 0 11 14" fill="none" xmlns="http://www.w3.org/2000/svg">
<path id="Union" d="M10 0C10.3682 3.22127e-07 10.667 0.298803 10.667 0.666992V12.667C10.6668 13.035 10.3681 13.333 10 13.333H2.66699C1.19434 13.333 0.000176768 12.1396 0 10.667C0 10.5841 0.00432053 10.5018 0.0117188 10.4209C0.00428558 10.5019 0 10.584 0 10.667V2.66699C0 1.19423 1.19423 0 2.66699 0H10ZM2.66699 9.33301C1.93061 9.33301 1.33301 9.93061 1.33301 10.667C1.33318 11.4032 1.93072 12 2.66699 12H9.33301V9.33301H2.66699ZM0.0507812 10.1475C0.0367979 10.2181 0.0258485 10.2898 0.0175781 10.3623C0.0258212 10.2898 0.036837 10.2181 0.0507812 10.1475ZM0.111328 9.90625C0.0925802 9.96916 0.0756476 10.0329 0.0615234 10.0977C0.0756083 10.0329 0.092628 9.96919 0.111328 9.90625ZM0.202148 9.64844C0.206449 9.63804 0.210416 9.62752 0.214844 9.61719C0.210407 9.62751 0.206458 9.63805 0.202148 9.64844ZM0.413086 9.24316C0.392997 9.27482 0.37424 9.3073 0.355469 9.33984C0.374211 9.30727 0.393026 9.27485 0.413086 9.24316ZM0.578125 9.01172C0.552518 9.04392 0.52803 9.07697 0.503906 9.11035C0.528004 9.07692 0.552542 9.04396 0.578125 9.01172ZM0.726562 8.84082C0.699363 8.86965 0.672391 8.89869 0.646484 8.92871C0.672375 8.89864 0.699376 8.8697 0.726562 8.84082ZM0.930664 8.64453C0.900743 8.6702 0.871523 8.69668 0.842773 8.72363C0.871521 8.69664 0.900741 8.67024 0.930664 8.64453ZM1.08594 8.52148C1.06591 8.53625 1.04596 8.5511 1.02637 8.56641C1.04597 8.55108 1.0659 8.53627 1.08594 8.52148ZM2.66699 1.33301C1.93061 1.33301 1.33301 1.93061 1.33301 2.66699V8.35938C1.31846 8.3678 1.30441 8.37705 1.29004 8.38574C1.69222 8.14249 2.16267 8 2.66699 8H9.33301V1.33301H2.66699ZM0.303711 9.43262C0.272057 9.49294 0.241894 9.55425 0.214844 9.61719C0.241838 9.55421 0.272117 9.49299 0.303711 9.43262ZM0.202148 9.64844C0.175133 9.71357 0.150776 9.78004 0.128906 9.84766C0.150723 9.78 0.175193 9.71361 0.202148 9.64844Z" fill="var(--fill-0, #282828)"/>
</svg>
