<svg preserveAspectRatio="none" width="100%" height="100%" overflow="visible" style="display: block;" viewBox="0 0 14 17" fill="none" xmlns="http://www.w3.org/2000/svg">
<g id="Union">
<path fill-rule="evenodd" clip-rule="evenodd" d="M10.0606 6.70678C10.0606 8.55888 8.55914 10.0603 6.70704 10.0603C4.85495 10.0603 3.35353 8.55888 3.35353 6.70678C3.35353 4.85469 4.85495 3.35327 6.70704 3.35327C8.55914 3.35327 10.0606 4.85469 10.0606 6.70678ZM8.39389 6.70678C8.39389 7.6384 7.63866 8.39363 6.70704 8.39363C5.77542 8.39363 5.02019 7.6384 5.02019 6.70678C5.02019 5.77517 5.77542 5.01994 6.70704 5.01994C7.63866 5.01994 8.39389 5.77517 8.39389 6.70678Z" fill="var(--fill-0, #282828)"/>
<path fill-rule="evenodd" clip-rule="evenodd" d="M13.4141 6.70702C13.4141 12.4673 8.46693 15.754 7.07024 16.5671C6.84219 16.6999 6.57187 16.6999 6.34382 16.5671C4.94713 15.754 0 12.4673 0 6.70702C0 3.00284 3.00284 0 6.70703 0C10.4112 0 13.4141 3.00284 13.4141 6.70702ZM11.7474 6.70702C11.7474 9.07664 10.7371 10.9677 9.50154 12.4063C8.51477 13.5553 7.42205 14.3684 6.70703 14.8333C5.99202 14.3684 4.89929 13.5553 3.91252 12.4063C2.67694 10.9677 1.66667 9.07664 1.66667 6.70702C1.66667 3.92331 3.92331 1.66667 6.70703 1.66667C9.49075 1.66667 11.7474 3.92331 11.7474 6.70702Z" fill="var(--fill-0, #282828)"/>
</g>
</svg>
