<svg preserveAspectRatio="none" width="100%" height="100%" overflow="visible" style="display: block;" viewBox="0 0 20 20" fill="none" xmlns="http://www.w3.org/2000/svg">
<path id="Union" d="M15 0C16.1046 0 17 0.895431 17 2V4H18C19.1046 4 20 4.89543 20 6V15C20 16.1046 19.1046 17 18 17H17V18C17 19.1046 16.1046 20 15 20H5C3.89543 20 3 19.1046 3 18V17H2C0.895431 17 4.02666e-08 16.1046 0 15V6C0 4.89543 0.895431 4 2 4H3V2C3 0.895431 3.89543 0 5 0H15ZM5 12V18H15V12H5ZM5 4H15V2H5V4Z" fill="var(--fill-0, #282828)"/>
</svg>
