<svg preserveAspectRatio="none" width="100%" height="100%" overflow="visible" style="display: block;" viewBox="0 0 14 14" fill="none" xmlns="http://www.w3.org/2000/svg">
<path id="Subtract" d="M6.66699 0C10.3487 0.000176004 13.333 2.9852 13.333 6.66699C13.3328 10.3486 10.3486 13.3328 6.66699 13.333C2.9852 13.333 0.000176007 10.3487 0 6.66699C0 2.98509 2.98509 0 6.66699 0ZM4 6C3.63196 6.00018 3.33301 6.29891 3.33301 6.66699C3.33318 7.03492 3.63207 7.33283 4 7.33301C4.36793 7.33283 4.66584 7.03492 4.66602 6.66699C4.66602 6.29891 4.36804 6.00018 4 6ZM6.66602 6C6.29813 6.00035 6 6.29902 6 6.66699C6.00018 7.03482 6.29823 7.33266 6.66602 7.33301C7.0341 7.33301 7.33283 7.03503 7.33301 6.66699C7.33301 6.2988 7.03421 6 6.66602 6ZM9.33301 6C8.96497 6.00018 8.66602 6.29891 8.66602 6.66699C8.66619 7.03492 8.96508 7.33283 9.33301 7.33301C9.70109 7.33301 9.99982 7.03503 10 6.66699C10 6.2988 9.7012 6 9.33301 6Z" fill="var(--fill-0, #282828)"/>
</svg>
