<svg preserveAspectRatio="none" width="100%" height="100%" overflow="visible" style="display: block;" viewBox="0 0 10 10" fill="none" xmlns="http://www.w3.org/2000/svg">
<path id="Union (Stroke)" fill-rule="evenodd" clip-rule="evenodd" d="M6.17718 0.792927L6.53074 0.439374C6.6547 0.315408 6.79497 0.21767 6.94463 0.146166C7.50216 -0.120193 8.19014 -0.022542 8.65206 0.439374C9.11397 0.90129 9.21162 1.58928 8.94526 2.1468C8.87391 2.29614 8.77645 2.43612 8.65286 2.55989C8.65259 2.56016 8.65232 2.56043 8.65206 2.56069L8.2985 2.91425L6.17718 0.792927ZM5.47008 1.50003L1.22744 5.74267L3.34876 7.864L7.5914 3.62135L5.47008 1.50003ZM5.47008 2.91425L2.64165 5.74267L3.34876 6.44978L6.17718 3.62135L5.47008 2.91425ZM0.520329 6.44978L0.0153765 8.46977C-0.0761193 8.83609 0.255337 9.16755 0.621665 9.07605L2.64165 8.5711L0.520329 6.44978Z" fill="var(--fill-0, #282828)"/>
</svg>
