<svg preserveAspectRatio="none" width="100%" height="100%" overflow="visible" style="display: block;" viewBox="0 0 10 9" fill="none" xmlns="http://www.w3.org/2000/svg">
<path id="Union" d="M9.5 8C9.77614 8 10 8.22386 10 8.5C9.99999 8.77613 9.77614 9 9.5 9H0.5C0.223863 9 9.29316e-06 8.77613 0 8.5C0 8.22386 0.223858 8 0.5 8H9.5ZM5 0C5.27614 0 5.5 0.223858 5.5 0.5V5.29297L6.76758 4.02539C6.96283 3.83014 7.28032 3.83012 7.47559 4.02539C7.67043 4.22064 7.67056 4.53729 7.47559 4.73242L5.35645 6.85059C5.348 6.85915 5.33912 6.86804 5.33008 6.87598C5.29047 6.9108 5.24642 6.93784 5.2002 6.95801C5.139 6.98471 5.07103 7 5 7C4.93606 6.99997 4.87455 6.98772 4.81836 6.96582C4.75582 6.94144 4.69699 6.90402 4.64648 6.85352L2.52539 4.73242C2.33016 4.53719 2.33025 4.22065 2.52539 4.02539C2.72064 3.83014 3.03715 3.83012 3.23242 4.02539L4.5 5.29297V0.5C4.5 0.223939 4.72397 0.000132066 5 0Z" fill="var(--fill-0, #282828)"/>
</svg>
