<svg preserveAspectRatio="none" width="100%" height="100%" overflow="visible" style="display: block;" viewBox="0 0 13 13" fill="none" xmlns="http://www.w3.org/2000/svg">
<path id="Union" fill-rule="evenodd" clip-rule="evenodd" d="M10.1176 9.17476C11.8751 6.95063 11.7271 3.71322 9.67361 1.65973C7.46063 -0.553243 3.8727 -0.553243 1.65973 1.65973C-0.553243 3.8727 -0.553243 7.46063 1.65973 9.67361C3.71322 11.7271 6.95063 11.8751 9.17476 10.1176L11.5592 12.502C11.8196 12.7624 12.2417 12.7624 12.502 12.502C12.7624 12.2417 12.7624 11.8196 12.502 11.5592L10.1176 9.17476ZM8.7308 2.60254C10.4231 4.29481 10.4231 7.03852 8.7308 8.7308C7.03852 10.4231 4.29481 10.4231 2.60254 8.7308C0.910265 7.03852 0.910265 4.29481 2.60254 2.60254C4.29481 0.910266 7.03852 0.910265 8.7308 2.60254Z" fill="var(--fill-0, #282828)"/>
</svg>
