<svg preserveAspectRatio="none" width="100%" height="100%" overflow="visible" style="display: block;" viewBox="0 0 14 12" fill="none" xmlns="http://www.w3.org/2000/svg">
<path id="Subtract" d="M6.00488 0C6.30089 1.15181e-05 6.58842 0.0987817 6.82227 0.280273L8.17871 1.33301H12C12.7364 1.33301 13.333 1.93061 13.333 2.66699V10.667C13.3328 11.4032 12.7363 12 12 12H1.33301C0.596886 11.9998 0.000176039 11.4031 0 10.667V1.33301C0.000176512 0.596887 0.596887 0.000175922 1.33301 0H6.00488ZM6.66699 3.33301C6.2988 3.33301 6 3.63181 6 4V6H4C3.63181 6 3.33301 6.2988 3.33301 6.66699C3.33318 7.03503 3.63192 7.33301 4 7.33301H6V9.33301C6 9.7012 6.2988 10 6.66699 10C7.03503 9.99982 7.33301 9.70109 7.33301 9.33301V7.33301H9.33301C9.70109 7.33301 9.99982 7.03503 10 6.66699C10 6.2988 9.7012 6 9.33301 6H7.33301V4C7.33301 3.63192 7.03503 3.33318 6.66699 3.33301Z" fill="var(--fill-0, #282828)"/>
</svg>
