<svg preserveAspectRatio="none" width="100%" height="100%" overflow="visible" style="display: block;" viewBox="0 0 10 10" fill="none" xmlns="http://www.w3.org/2000/svg">
<path id="Union" d="M5 0C7.76142 0 10 2.23858 10 5C10 7.76142 7.76142 10 5 10C2.23858 10 0 7.76142 0 5C0 2.23858 2.23858 0 5 0ZM5 1C2.79086 1 1 2.79086 1 5C1 7.20914 2.79086 9 5 9C7.20914 9 9 7.20914 9 5C9 2.79086 7.20914 1 5 1ZM5.02539 2.52539C5.22064 2.33017 5.53814 2.33013 5.7334 2.52539L7.85449 4.64648C8.04914 4.84172 8.04932 5.15843 7.85449 5.35352L5.7334 7.47461C5.5383 7.66971 5.2207 7.66942 5.02539 7.47461C4.83054 7.27932 4.83032 6.9627 5.02539 6.76758L6.29395 5.5H2.50098C2.22498 5.5 2.00121 5.27595 2.00098 5C2.00106 4.72393 2.22489 4.5 2.50098 4.5H6.29395L5.02539 3.23242C4.83039 3.03723 4.83048 2.7206 5.02539 2.52539Z" fill="var(--fill-0, #282828)"/>
</svg>
