<svg preserveAspectRatio="none" width="100%" height="100%" overflow="visible" style="display: block;" viewBox="0 0 9 10" fill="none" xmlns="http://www.w3.org/2000/svg">
<path id="Subtract" d="M4.43558 0C5.64507 0 6.65415 0.858867 6.88578 2H7.49613C8.02415 2 8.46117 2.41053 8.49417 2.9375L8.86917 8.9375C8.90516 9.5132 8.44795 10 7.87113 10H1.00003C0.423246 9.99996 -0.0339913 9.51317 0.00198687 8.9375L0.376987 2.9375C0.409984 2.41055 0.847041 2.00004 1.37503 2H1.98539C2.217 0.858879 3.22612 3.35284e-05 4.43558 0ZM2.43558 3.5C2.15945 3.50002 1.93558 3.72387 1.93558 4C1.93558 4.27613 2.15945 4.49998 2.43558 4.5C2.71172 4.5 2.93558 4.27614 2.93558 4C2.93558 3.72386 2.71172 3.5 2.43558 3.5ZM6.43558 3.5C6.15945 3.50002 5.93558 3.72387 5.93558 4C5.93558 4.27613 6.15945 4.49998 6.43558 4.5C6.71172 4.5 6.93558 4.27614 6.93558 4C6.93558 3.72386 6.71172 3.5 6.43558 3.5ZM4.43558 1C3.78268 1.00003 3.22854 1.41768 3.02249 2H5.84867C5.6426 1.41767 5.0885 1 4.43558 1Z" fill="var(--fill-0, #282828)"/>
</svg>
