<svg preserveAspectRatio="none" width="100%" height="100%" overflow="visible" style="display: block;" viewBox="0 0 15 14" fill="none" xmlns="http://www.w3.org/2000/svg">
<g id="Union">
<path d="M6.42249 5.21549C6.42249 4.84731 6.72096 4.54883 7.08915 4.54883C7.45734 4.54883 7.75582 4.84731 7.75582 5.21549V8.54883C7.75582 8.91702 7.45734 9.2155 7.08915 9.2155C6.72096 9.2155 6.42249 8.91702 6.42249 8.54883V5.21549Z" fill="var(--fill-0, #282828)"/>
<path d="M7.75582 10.5488C7.75582 10.917 7.45734 11.2155 7.08915 11.2155C6.72096 11.2155 6.42249 10.917 6.42249 10.5488C6.42249 10.1806 6.72096 9.88216 7.08915 9.88216C7.45734 9.88216 7.75582 10.1806 7.75582 10.5488Z" fill="var(--fill-0, #282828)"/>
<path fill-rule="evenodd" clip-rule="evenodd" d="M5.91863 0.694863C6.42399 -0.231622 7.75433 -0.231621 8.25969 0.694864L14.0136 11.2438C14.4983 12.1323 13.8552 13.2156 12.8431 13.2156H1.33522C0.323138 13.2156 -0.319946 12.1323 0.16469 11.2438L5.91863 0.694863ZM7.08916 1.33333L12.8431 11.8822L1.33522 11.8822L7.08916 1.33333Z" fill="var(--fill-0, #282828)"/>
</g>
</svg>
