<svg preserveAspectRatio="none" width="100%" height="100%" overflow="visible" style="display: block;" viewBox="0 0 10 10" fill="none" xmlns="http://www.w3.org/2000/svg">
<path id="Subtract" d="M8 0C9.10457 0 10 0.895431 10 2V8C10 9.10457 9.10457 10 8 10H2C0.895431 10 1.61066e-08 9.10457 0 8V2C0 0.895431 0.895431 1.61064e-08 2 0H8ZM8.18164 2.87891C7.98637 2.68366 7.66985 2.68367 7.47461 2.87891L4.29297 6.06055L2.52539 4.29297C2.33016 4.09773 2.01362 4.09783 1.81836 4.29297C1.62311 4.48822 1.62309 4.80473 1.81836 5L3.93945 7.12109C4.13472 7.31636 4.45124 7.31634 4.64648 7.12109L8.18164 3.58594C8.37689 3.39069 8.37691 3.07418 8.18164 2.87891Z" fill="var(--fill-0, #282828)"/>
</svg>
