<svg preserveAspectRatio="none" width="100%" height="100%" overflow="visible" style="display: block;" viewBox="0 0 14 14" fill="none" xmlns="http://www.w3.org/2000/svg">
<path id="Union" d="M6.66699 0C10.3487 0.000176133 13.333 2.9852 13.333 6.66699C13.3328 10.3486 10.3486 13.3328 6.66699 13.333C2.9852 13.333 0.000176136 10.3487 0 6.66699C0 2.98509 2.98509 0 6.66699 0ZM6.66699 1.33301C3.72147 1.33301 1.33301 3.72147 1.33301 6.66699C1.33318 9.61236 3.72158 12 6.66699 12C9.61225 11.9998 11.9998 9.61225 12 6.66699C12 3.72158 9.61236 1.33318 6.66699 1.33301ZM6.69922 3.36621C6.95944 3.10599 7.38219 3.10619 7.64258 3.36621L10.4707 6.19434C10.5245 6.24816 10.5661 6.3102 10.5977 6.375C10.6032 6.38636 10.6103 6.39748 10.6152 6.40918C10.6834 6.57274 10.6831 6.75824 10.6152 6.92188C10.6103 6.93371 10.6032 6.94458 10.5977 6.95605C10.566 7.02128 10.5248 7.08356 10.4707 7.1377L7.64258 9.96582C7.38224 10.2261 6.95956 10.2262 6.69922 9.96582C6.4395 9.70556 6.43948 9.28364 6.69922 9.02344L8.38965 7.33301H3.33301C2.96501 7.33279 2.66602 7.03407 2.66602 6.66602C2.66617 6.29809 2.9651 5.99924 3.33301 5.99902H8.38965L6.69922 4.30859C6.43962 4.04826 6.43936 3.62633 6.69922 3.36621Z" fill="var(--fill-0, #282828)"/>
</svg>
