<svg preserveAspectRatio="none" width="100%" height="100%" overflow="visible" style="display: block;" viewBox="0 0 11 14" fill="none" xmlns="http://www.w3.org/2000/svg">
<path id="Subtract" d="M5.36523 0C8.32846 0 10.7312 2.40206 10.7314 5.36523C10.7314 9.97344 6.7736 12.6034 5.65625 13.2539C5.47389 13.36 5.25757 13.36 5.0752 13.2539C3.95785 12.6034 0 9.97344 0 5.36523C0.000208203 2.40219 2.40219 0.000210782 5.36523 0ZM5.36523 2.68262C3.88381 2.68283 2.68272 3.88378 2.68262 5.36523C2.68262 6.84678 3.88374 8.04764 5.36523 8.04785C6.84691 8.04785 8.04883 6.84691 8.04883 5.36523C8.04872 3.88365 6.84685 2.68262 5.36523 2.68262Z" fill="var(--fill-0, #282828)"/>
</svg>
