<svg preserveAspectRatio="none" width="100%" height="100%" overflow="visible" style="display: block;" viewBox="0 0 14 11" fill="none" xmlns="http://www.w3.org/2000/svg">
<path id="Union" d="M2.08105 0.415039C2.34136 0.1549 2.76313 0.154913 3.02344 0.415039L11.5088 8.90039C11.7691 9.16069 11.769 9.58241 11.5088 9.84277C11.2484 10.1031 10.8268 10.1031 10.5664 9.84277L10.1182 9.39453C9.10346 9.98475 7.92553 10.3251 6.66699 10.3252C3.45972 10.3252 0.764287 8.13183 0 5.16309C0.36831 3.73209 1.1862 2.48228 2.29297 1.57031L2.08105 1.3584C1.82071 1.09805 1.82071 0.675389 2.08105 0.415039ZM3.24121 2.51758C2.38583 3.18932 1.73194 4.10608 1.3877 5.16309C2.11195 7.38652 4.20389 8.99219 6.66699 8.99219C7.5536 8.99214 8.3911 8.78238 9.13477 8.41211L8.11914 7.39551C7.7014 7.66848 7.20357 7.82904 6.66699 7.8291C5.19437 7.8291 4.00022 6.63566 4 5.16309C4 4.62653 4.15885 4.12723 4.43164 3.70898L3.24121 2.51758ZM6.66699 0C9.87427 0.000148602 12.5689 2.19424 13.333 5.16309C13.0988 6.07277 12.6819 6.90855 12.126 7.63184L11.1738 6.67969C11.5038 6.22132 11.7667 5.7114 11.9453 5.16309C11.2212 2.9396 9.13006 1.33315 6.66699 1.33301C6.40081 1.33301 6.13906 1.3524 5.88281 1.38867L4.76172 0.267578C5.36682 0.0936171 6.00597 0 6.66699 0ZM5.41699 4.69434C5.36222 4.84007 5.33301 4.99822 5.33301 5.16309C5.33323 5.89928 5.93075 6.49609 6.66699 6.49609C6.83142 6.49605 6.98855 6.46564 7.13379 6.41113L5.41699 4.69434Z" fill="var(--fill-0, #282828)"/>
</svg>
