<svg preserveAspectRatio="none" width="100%" height="100%" overflow="visible" style="display: block;" viewBox="0 0 17 14" fill="none" xmlns="http://www.w3.org/2000/svg">
<path id="Subtract" d="M15 0C15.9205 0 16.667 0.746518 16.667 1.66699V11.667C16.6668 12.5873 15.9204 13.333 15 13.333H1.66699C0.746626 13.333 0.00017605 12.5873 0 11.667V1.66699C0 0.746518 0.746518 0 1.66699 0H15ZM13.0479 3.18164C12.7225 2.85625 12.1946 2.85635 11.8691 3.18164L8.33301 6.7168L4.79785 3.18164C4.47241 2.85622 3.94457 2.85621 3.61914 3.18164C3.29377 3.50708 3.29374 4.03493 3.61914 4.36035L7.74414 8.48535C8.06957 8.81058 8.59747 8.81066 8.92285 8.48535L13.0479 4.36035C13.3731 4.03497 13.373 3.50704 13.0479 3.18164Z" fill="var(--fill-0, #282828)"/>
</svg>
