<svg preserveAspectRatio="none" width="100%" height="100%" overflow="visible" style="display: block;" viewBox="0 0 20 20" fill="none" xmlns="http://www.w3.org/2000/svg">
<path id="Union" fill-rule="evenodd" clip-rule="evenodd" d="M15.4266 18.401C18.1788 16.6195 20 13.5225 20 10C20 4.47715 15.5228 0 10 0C4.47715 0 0 4.47715 0 10C0 13.4518 1.74889 16.4951 4.40891 18.2922C4.46337 18.329 4.51822 18.3652 4.57344 18.401C6.1364 19.4126 7.99961 20 10 20C12.0004 20 13.8636 19.4126 15.4266 18.401ZM15.2927 15.9991C13.8823 17.2444 12.0294 18 10 18C7.9706 18 6.1177 17.2444 4.7073 15.9991C5.36054 13.6911 7.48279 12 10 12C12.5172 12 14.6395 13.6911 15.2927 15.9991ZM10 11C11.6569 11 13 9.65686 13 8C13 6.34314 11.6569 5 10 5C8.34314 5 7 6.34314 7 8C7 9.65686 8.34314 11 10 11Z" fill="var(--fill-0, #282828)"/>
</svg>
