<svg preserveAspectRatio="none" width="100%" height="100%" overflow="visible" style="display: block;" viewBox="0 0 20 18" fill="none" xmlns="http://www.w3.org/2000/svg">
<path id="Union" d="M19 16C19.5523 16 20 16.4477 20 17C20 17.5523 19.5523 18 19 18H1C0.447736 18 3.29844e-05 17.5523 0 17C0 16.4477 0.447715 16 1 16H19ZM9.99902 0C10.1271 0 10.2498 0.0245016 10.3623 0.0683594C10.4877 0.117107 10.6058 0.191748 10.707 0.292969L14.9492 4.53516C15.3398 4.9257 15.3397 5.5597 14.9492 5.9502C14.5588 6.34037 13.9256 6.34036 13.5352 5.9502L10.999 3.41406V13C10.999 13.5523 10.5513 14 9.99902 14C9.44693 13.9998 8.99902 13.5521 8.99902 13V3.41406L6.46387 5.9502C6.07344 6.34034 5.44028 6.34038 5.0498 5.9502C4.65926 5.55966 4.65931 4.92565 5.0498 4.53516L9.28711 0.297852C9.304 0.280723 9.32176 0.263927 9.33984 0.248047C9.41917 0.178322 9.50701 0.123355 9.59961 0.0830078C9.72188 0.0296524 9.85711 5.68848e-05 9.99902 0Z" fill="var(--fill-0, #282828)"/>
</svg>
