<svg preserveAspectRatio="none" width="100%" height="100%" overflow="visible" style="display: block;" viewBox="0 0 14 14" fill="none" xmlns="http://www.w3.org/2000/svg">
<path id="Subtract" d="M6.66699 0C10.3487 0.000176004 13.333 2.9852 13.333 6.66699C13.3328 10.3486 10.3486 13.3328 6.66699 13.333C2.9852 13.333 0.000176007 10.3487 0 6.66699C0 2.98509 2.98509 0 6.66699 0ZM6.66602 3.33301C6.29823 3.33336 6.00017 3.63218 6 4V6H4C3.63218 6.00018 3.33336 6.29823 3.33301 6.66602C3.33301 7.0341 3.63196 7.33283 4 7.33301H6V9.33301C6 9.70098 6.29813 9.99965 6.66602 10C7.03421 10 7.33301 9.7012 7.33301 9.33301V7.33301H9.33301C9.7012 7.33301 10 7.03421 10 6.66602C9.99965 6.29812 9.70098 6 9.33301 6H7.33301V4C7.33283 3.63196 7.0341 3.33301 6.66602 3.33301Z" fill="var(--fill-0, #282828)"/>
</svg>
