<svg preserveAspectRatio="none" width="100%" height="100%" overflow="visible" style="display: block;" viewBox="0 0 17 17" fill="none" xmlns="http://www.w3.org/2000/svg">
<g id="Union">
<path d="M8.33333 9.16667C9.71405 9.16667 10.8333 8.04738 10.8333 6.66667C10.8333 5.28595 9.71405 4.16667 8.33333 4.16667C6.95262 4.16667 5.83333 5.28595 5.83333 6.66667C5.83333 8.04738 6.95262 9.16667 8.33333 9.16667Z" fill="var(--fill-0, #282828)"/>
<path fill-rule="evenodd" clip-rule="evenodd" d="M3.81119 15.3341C1.51756 13.8496 0 11.2688 0 8.33333C0 3.73098 3.73095 0 8.33333 0C12.9357 0 16.6667 3.73098 16.6667 8.33333C16.6667 11.3536 15.0599 13.9986 12.6545 15.4602C11.3945 16.2258 9.91539 16.6667 8.33333 16.6667C6.66644 16.6667 5.1136 16.1771 3.81119 15.3341ZM3.92275 13.3326C4.46711 11.4093 6.23566 10 8.33333 10C10.431 10 12.1996 11.4093 12.7439 13.3326C14.1274 12.111 15 10.324 15 8.33333C15 4.65144 12.0152 1.66667 8.33333 1.66667C4.65144 1.66667 1.66667 4.65144 1.66667 8.33333C1.66667 10.324 2.53924 12.111 3.92275 13.3326Z" fill="var(--fill-0, #282828)"/>
</g>
</svg>
