<svg preserveAspectRatio="none" width="100%" height="100%" overflow="visible" style="display: block;" viewBox="0 0 10 10" fill="none" xmlns="http://www.w3.org/2000/svg">
<g id="Union">
<path d="M5.5 3C5.5 3.27614 5.27614 3.5 5 3.5C4.72386 3.5 4.5 3.27614 4.5 3C4.5 2.72386 4.72386 2.5 5 2.5C5.27614 2.5 5.5 2.72386 5.5 3Z" fill="var(--fill-0, #282828)"/>
<path d="M4.5 4.5C4.5 4.22386 4.72386 4 5 4C5.27614 4 5.5 4.22386 5.5 4.5V7C5.5 7.27614 5.27614 7.5 5 7.5C4.72386 7.5 4.5 7.27614 4.5 7V4.5Z" fill="var(--fill-0, #282828)"/>
<path fill-rule="evenodd" clip-rule="evenodd" d="M10 5C10 7.76142 7.76142 10 5 10C2.23858 10 0 7.76142 0 5C0 2.23858 2.23858 0 5 0C7.76142 0 10 2.23858 10 5ZM9 5C9 7.20914 7.20914 9 5 9C2.79086 9 1 7.20914 1 5C1 2.79086 2.79086 1 5 1C7.20914 1 9 2.79086 9 5Z" fill="var(--fill-0, #282828)"/>
</g>
</svg>
