<svg preserveAspectRatio="none" width="100%" height="100%" overflow="visible" style="display: block;" viewBox="0 0 18 20" fill="none" xmlns="http://www.w3.org/2000/svg">
<g id="Union">
<path fill-rule="evenodd" clip-rule="evenodd" d="M13.9507 5C13.9507 7.76142 11.7121 10 8.95069 10C6.18927 10 3.95069 7.76142 3.95069 5C3.95069 2.23858 6.18927 0 8.95069 0C11.7121 0 13.9507 2.23858 13.9507 5ZM11.9507 5C11.9507 6.65685 10.6075 8 8.95069 8C7.29384 8 5.95069 6.65685 5.95069 5C5.95069 3.34315 7.29384 2 8.95069 2C10.6075 2 11.9507 3.34315 11.9507 5Z" fill="var(--fill-0, #282828)"/>
<path d="M16.9507 20C16.3984 20 15.9582 19.5497 15.8802 19.003C15.3963 15.6092 12.4782 13 8.95069 13C5.42319 13 2.50511 15.6092 2.02116 19.003C1.94319 19.5497 1.50298 20 0.950691 20C0.398406 20 -0.0551418 19.5506 0.00544249 19.0016C0.502158 14.5009 4.31759 11 8.95069 11C13.5838 11 17.3992 14.5009 17.8959 19.0016C17.9565 19.5506 17.503 20 16.9507 20Z" fill="var(--fill-0, #282828)"/>
</g>
</svg>
