<svg preserveAspectRatio="none" width="100%" height="100%" overflow="visible" style="display: block;" viewBox="0 0 10 9" fill="none" xmlns="http://www.w3.org/2000/svg">
<path id="Union" d="M5.2002 0.100663C5.5298 -0.146208 6 0.0891479 6 0.501054V8.50105C5.99995 8.91289 5.52978 9.14822 5.2002 8.90144L2 6.50105H0.5C0.223879 6.50105 3.39488e-05 6.27717 0 6.00105V3.00105C0 2.72491 0.223858 2.50105 0.5 2.50105H2L5.2002 0.100663ZM7.05371 0.641679C8.75045 1.10459 9.99886 2.65733 9.99902 4.50105C9.99885 6.34477 8.75044 7.89751 7.05371 8.36043C7.03564 8.3653 7.01684 8.36474 6.99902 8.36726V7.32723C8.1637 6.91521 8.99886 5.8068 8.99902 4.50105C8.99887 3.19527 8.16374 2.0859 6.99902 1.67391V0.63289C7.01689 0.635414 7.03558 0.636796 7.05371 0.641679ZM2.33301 3.50105H1V5.50105H2.33301L5 7.50105V1.50105L2.33301 3.50105ZM7 2.50105C7.60729 2.95718 8 3.68323 8 4.50105C7.99998 5.31888 7.60731 6.04494 7 6.50105V2.50105Z" fill="var(--fill-0, #282828)"/>
</svg>
