<svg preserveAspectRatio="none" width="100%" height="100%" overflow="visible" style="display: block;" viewBox="0 0 20 16" fill="none" xmlns="http://www.w3.org/2000/svg">
<path id="Union" d="M3.12109 0.623047C3.51161 0.232527 4.14463 0.232537 4.53516 0.623047L9.68262 5.77051C9.78606 5.754 9.89191 5.74414 10 5.74414C11.1046 5.74414 12 6.63957 12 7.74414C12 7.85166 11.988 7.95665 11.9717 8.05957L17.2637 13.3506C17.654 13.741 17.6539 14.3741 17.2637 14.7646C16.8732 15.1551 16.2401 15.1551 15.8496 14.7646L15.1777 14.0928C13.6555 14.9782 11.888 15.4883 10 15.4883C5.18893 15.4883 1.14627 12.1975 0 7.74414C0.552456 5.59768 1.77847 3.72231 3.43848 2.35449L3.12109 2.03711C2.73067 1.64667 2.73083 1.01359 3.12109 0.623047ZM6.64746 5.56348C6.23856 6.19084 6 6.93944 6 7.74414C6.00007 9.95322 7.7909 11.7441 10 11.7441C10.8049 11.7441 11.5525 11.504 12.1797 11.0947L10.7002 9.61523C10.482 9.69691 10.2467 9.74414 10 9.74414C8.89547 9.74414 8.00007 8.84865 8 7.74414C8 7.4976 8.04635 7.26201 8.12793 7.04395L6.64746 5.56348ZM10 0C14.8111 1.2514e-07 18.8538 3.29072 20 7.74414C19.6487 9.10892 19.0235 10.3631 18.1895 11.4482L13.9648 7.22461C13.7321 5.43079 12.3125 4.01059 10.5186 3.77832L7.14258 0.402344C8.05016 0.141459 9.00852 0 10 0Z" fill="var(--fill-0, #282828)"/>
</svg>
