<svg preserveAspectRatio="none" width="100%" height="100%" overflow="visible" style="display: block;" viewBox="0 0 17 17" fill="none" xmlns="http://www.w3.org/2000/svg">
<path id="Union" d="M8.33301 0C12.9353 0 16.6668 3.73078 16.667 8.33301C16.667 12.9354 12.9354 16.667 8.33301 16.667C3.73078 16.6668 0 12.9353 0 8.33301C0.000175808 3.73089 3.73089 0.000175812 8.33301 0ZM8.33301 1.66699C4.65137 1.66717 1.66717 4.65137 1.66699 8.33301C1.66699 12.0148 4.65126 14.9998 8.33301 15C12.0149 15 15 12.0149 15 8.33301C14.9998 4.65126 12.0148 1.66699 8.33301 1.66699ZM11.5742 5.38672C11.8996 5.06152 12.4276 5.06144 12.7529 5.38672C13.0783 5.71209 13.0782 6.24 12.7529 6.56543L8.03906 11.2793C7.71365 11.6047 7.18578 11.6047 6.86035 11.2793L3.91406 8.33301C3.58878 8.00761 3.58881 7.48066 3.91406 7.15527C4.23948 6.82986 4.76734 6.82984 5.09277 7.15527L7.44922 9.51172L11.5742 5.38672Z" fill="var(--fill-0, #282828)"/>
</svg>
