<svg preserveAspectRatio="none" width="100%" height="100%" overflow="visible" style="display: block;" viewBox="0 0 16 14" fill="none" xmlns="http://www.w3.org/2000/svg">
<path id="Union" d="M13.7891 11.8311C14.249 11.8312 14.6219 12.2041 14.6221 12.6641C14.6221 13.1242 14.2491 13.4979 13.7891 13.498H2.12207C1.66183 13.498 1.28906 13.1243 1.28906 12.6641C1.28923 12.204 1.66193 11.8311 2.12207 11.8311H13.7891ZM7.2627 0.371094C7.5926 -0.12352 8.3196 -0.123629 8.64941 0.371094L10.8271 3.6377C11.0825 4.0204 11.5996 4.12426 11.9824 3.86914L14.6152 2.11328C15.2329 1.70183 16.0401 2.24281 15.8945 2.9707L14.7559 10.3281C14.6778 10.7173 14.3364 10.9979 13.9395 10.998H1.97266C1.57556 10.998 1.23333 10.7174 1.15527 10.3281L0.0166016 2.9707C-0.128965 2.24287 0.678223 1.70201 1.2959 2.11328L3.92871 3.86914C4.31165 4.12443 4.82967 4.02063 5.08496 3.6377L7.2627 0.371094ZM6.47168 4.5625C5.70588 5.71109 4.15362 6.02133 3.00488 5.25586L2.0459 4.61621L2.65527 9.33105H13.2559L13.8652 4.61621L12.9072 5.25586C11.7586 6.02164 10.2064 5.71095 9.44043 4.5625L7.95605 2.33594L6.47168 4.5625Z" fill="var(--fill-0, #282828)"/>
</svg>
