<svg preserveAspectRatio="none" width="100%" height="100%" overflow="visible" style="display: block;" viewBox="0 0 17 20" fill="none" xmlns="http://www.w3.org/2000/svg">
<g id="Union">
<path fill-rule="evenodd" clip-rule="evenodd" d="M12.0727 8.04814C12.0727 10.2707 10.271 12.0724 8.04845 12.0724C5.82593 12.0724 4.02423 10.2707 4.02423 8.04814C4.02423 5.82563 5.82593 4.02393 8.04845 4.02393C10.271 4.02393 12.0727 5.82563 12.0727 8.04814ZM10.0727 8.04814C10.0727 9.16608 9.1664 10.0724 8.04845 10.0724C6.9305 10.0724 6.02423 9.16608 6.02423 8.04814C6.02423 6.9302 6.9305 6.02393 8.04845 6.02393C9.1664 6.02393 10.0727 6.9302 10.0727 8.04814Z" fill="var(--fill-0, #282828)"/>
<path fill-rule="evenodd" clip-rule="evenodd" d="M16.0969 8.04843C16.0969 14.9607 10.1603 18.9048 8.48429 19.8805C8.21063 20.0398 7.88625 20.0398 7.61258 19.8805C5.93656 18.9048 0 14.9607 0 8.04843C0 3.6034 3.60341 0 8.04844 0C12.4935 0 16.0969 3.6034 16.0969 8.04843ZM14.0969 8.04843C14.0969 10.892 12.8845 13.1612 11.4018 14.8876C10.2177 16.2664 8.90646 17.242 8.04844 17.8C7.19042 17.242 5.87915 16.2664 4.69502 14.8876C3.21233 13.1612 2 10.892 2 8.04843C2 4.70798 4.70798 2 8.04844 2C11.3889 2 14.0969 4.70798 14.0969 8.04843Z" fill="var(--fill-0, #282828)"/>
</g>
</svg>
