<svg preserveAspectRatio="none" width="100%" height="100%" overflow="visible" style="display: block;" viewBox="0 0 16 16" fill="none" xmlns="http://www.w3.org/2000/svg">
<path id="Union" fill-rule="evenodd" clip-rule="evenodd" d="M6.28869 9.42256C6.26081 9.40308 6.23166 9.38526 6.20138 9.36923L0.443515 6.32092C-0.204399 5.9779 -0.125588 5.02569 0.569904 4.79386L14.8189 0.0442045C15.4704 -0.17295 16.0901 0.446833 15.873 1.0983L11.1233 15.3473C10.8915 16.0428 9.93928 16.1216 9.59626 15.4737L6.54796 9.71581C6.53193 9.68553 6.51411 9.65638 6.49463 9.62849C6.4553 9.60095 6.41782 9.56961 6.38269 9.53449C6.34757 9.49936 6.31623 9.46188 6.28869 9.42256ZM6.89046 7.84821L2.94449 5.75915L13.7648 2.15239L10.158 12.9727L8.06897 9.02672L9.91823 7.17746C10.2437 6.85203 10.2437 6.32439 9.91823 5.99895C9.59279 5.67352 9.06515 5.67352 8.73971 5.99895L6.89046 7.84821Z" fill="var(--fill-0, #282828)"/>
</svg>
