<svg preserveAspectRatio="none" width="100%" height="100%" overflow="visible" style="display: block;" viewBox="0 0 16 16" fill="none" xmlns="http://www.w3.org/2000/svg">
<path id="Union (Stroke)" fill-rule="evenodd" clip-rule="evenodd" d="M10.2953 1.32155L10.8846 0.73229C11.0912 0.52568 11.3249 0.362784 11.5744 0.24361C12.5036 -0.200322 13.6502 -0.0375701 14.4201 0.73229C15.19 1.50215 15.3527 2.64879 14.9088 3.57799C14.7899 3.8269 14.6274 4.0602 14.4214 4.26648C14.421 4.26693 14.4205 4.26738 14.4201 4.26782L13.8308 4.85708L10.2953 1.32155ZM9.11679 2.50006L2.04573 9.57112L5.58126 13.1067L12.6523 6.03559L9.11679 2.50006ZM9.11679 4.85708L4.40275 9.57112L5.58126 10.7496L10.2953 6.03559L9.11679 4.85708ZM0.867216 10.7496L0.0256275 14.1163C-0.126865 14.7268 0.425562 15.2793 1.03611 15.1268L4.40275 14.2852L0.867216 10.7496Z" fill="var(--fill-0, #282828)"/>
</svg>
