<svg preserveAspectRatio="none" width="100%" height="100%" overflow="visible" style="display: block;" viewBox="0 0 15 14" fill="none" xmlns="http://www.w3.org/2000/svg">
<path id="Subtract" d="M5.91797 0.694336C6.42332 -0.232149 7.75441 -0.232149 8.25977 0.694336L14.0137 11.2432C14.4983 12.1317 13.8548 13.2148 12.8428 13.2148H1.33496C0.322882 13.2148 -0.320574 12.1317 0.164062 11.2432L5.91797 0.694336ZM7.08887 9.88184C6.7208 9.88198 6.42188 10.1807 6.42187 10.5488C6.42206 10.9168 6.72091 11.2157 7.08887 11.2158C7.45679 11.2156 7.7547 10.9168 7.75488 10.5488C7.75488 10.1807 7.45691 9.88201 7.08887 9.88184ZM7.08887 4.54883C6.7208 4.54897 6.42187 4.84772 6.42187 5.21582V8.54883C6.42206 8.91677 6.72091 9.21568 7.08887 9.21582C7.45679 9.21564 7.7547 8.91675 7.75488 8.54883V5.21582C7.75488 4.84774 7.45691 4.549 7.08887 4.54883Z" fill="var(--fill-0, #282828)"/>
</svg>
