<svg preserveAspectRatio="none" width="100%" height="100%" overflow="visible" style="display: block;" viewBox="0 0 10 10" fill="none" xmlns="http://www.w3.org/2000/svg">
<path id="Subtract (Stroke)" fill-rule="evenodd" clip-rule="evenodd" d="M7.18949 1.6432C7.61097 3.1564 7.22676 4.84693 6.03684 6.03684C4.84693 7.22676 3.1564 7.61097 1.6432 7.18949C1.78781 7.40663 1.95598 7.61283 2.14776 7.80461C3.70985 9.3667 6.24252 9.3667 7.80461 7.80461C9.3667 6.24252 9.3667 3.70985 7.80461 2.14776C7.61283 1.95598 7.40663 1.78781 7.18949 1.6432ZM5.87053 1.07676C6.66316 2.41892 6.4829 4.17658 5.32974 5.32974C4.17658 6.4829 2.41892 6.66316 1.07676 5.87053C1.02835 5.84194 0.980483 5.81209 0.933199 5.78097C0.77568 5.67729 0.62469 5.55956 0.482003 5.42778C0.447505 5.39592 0.413493 5.36324 0.379991 5.32974C0.239632 5.18938 -0.0186521 5.27828 0.00106743 5.4758C0.00799435 5.54518 0.0163679 5.61444 0.0261882 5.68354C0.0536194 5.87656 0.0923402 6.06828 0.142347 6.25763C0.163634 6.33824 0.186967 6.41841 0.212345 6.49808C0.44696 7.23458 0.856391 7.92746 1.44065 8.51172C3.39327 10.4643 6.5591 10.4643 8.51172 8.51172C10.4643 6.5591 10.4643 3.39327 8.51172 1.44065C7.92746 0.856391 7.23458 0.44696 6.49808 0.212345C6.41841 0.186967 6.33824 0.163635 6.25763 0.142347C6.06828 0.0923402 5.87656 0.0536194 5.68354 0.0261881C5.61444 0.0163679 5.54518 0.00799435 5.4758 0.00106743C5.27828 -0.0186521 5.18938 0.239632 5.32974 0.379991C5.36324 0.413493 5.39592 0.447506 5.42778 0.482003C5.55956 0.62469 5.67729 0.775681 5.78097 0.9332C5.81209 0.980483 5.84194 1.02835 5.87053 1.07676Z" fill="var(--fill-0, #282828)"/>
</svg>
