<svg preserveAspectRatio="none" width="100%" height="100%" overflow="visible" style="display: block;" viewBox="0 0 10 10" fill="none" xmlns="http://www.w3.org/2000/svg">
<g id="Union">
<path d="M9.82322 1.82372C9.92085 1.72609 9.92085 1.5678 9.82322 1.47017L8.42678 0.0737244C8.26929 -0.0837668 8 0.0277754 8 0.250502V1.14695H6.5C5.86475 1.14695 5.28484 1.38388 4.84381 1.7742C5.06075 2.04535 5.23161 2.35496 5.34453 2.69117C5.61954 2.3589 6.03504 2.14715 6.5 2.14695H8V3.0434C8 3.26612 8.26929 3.37766 8.42678 3.22017L9.82322 1.82372Z" fill="var(--fill-0, #282828)"/>
<path d="M9.82322 7.82372C9.92085 7.72609 9.92085 7.5678 9.82322 7.47017L8.42678 6.07372C8.26929 5.91623 8 6.02778 8 6.2505V7.14695H6.5C5.67202 7.14642 5.00098 6.47505 5.00098 5.64695H5V3.64695C5 3.47572 4.98278 3.3085 4.94999 3.14695C4.94973 3.14567 4.94947 3.14439 4.94921 3.14311C4.87389 2.77506 4.71769 2.43646 4.5 2.14671C4.04388 1.53962 3.3178 1.14695 2.5 1.14695H0.5C0.223858 1.14695 0 1.37081 0 1.64695C0 1.92309 0.223858 2.14695 0.5 2.14695H2.5C3.32843 2.14695 4 2.81852 4 3.64695V5.64695C4 5.81818 4.01721 5.98539 4.05001 6.14695L4.05079 6.15079C4.12611 6.51884 4.2823 6.85744 4.5 7.14719C4.95611 7.75428 5.6822 8.14695 6.5 8.14695H8V9.04339C8 9.26612 8.26929 9.37766 8.42678 9.22017L9.82322 7.82372Z" fill="var(--fill-0, #282828)"/>
<path d="M0 7.64695C0 7.37081 0.223858 7.14695 0.5 7.14695H2.5C2.96496 7.14695 3.38052 6.93539 3.65565 6.60329C3.76858 6.93928 3.93937 7.2487 4.15618 7.5197C3.71516 7.91002 3.13525 8.14695 2.5 8.14695H0.5C0.223858 8.14695 0 7.92309 0 7.64695Z" fill="var(--fill-0, #282828)"/>
</g>
</svg>
