<svg preserveAspectRatio="none" width="100%" height="100%" overflow="visible" style="display: block;" viewBox="0 0 11 14" fill="none" xmlns="http://www.w3.org/2000/svg">
<g id="Union">
<path d="M0.666667 0C0.298503 0 0 0.298462 0 0.666667V12.6667C0 13.0349 0.298503 13.3333 0.666667 13.3333H8.66667C9.03483 13.3333 9.33333 13.0349 9.33333 12.6667V11.3333C9.33333 10.9651 9.03483 10.6667 8.66667 10.6667C8.2985 10.6667 8 10.9651 8 11.3333V12H1.33333V1.33333H8V2C8 2.3682 8.2985 2.66667 8.66667 2.66667C9.03483 2.66667 9.33333 2.3682 9.33333 2V0.666667C9.33333 0.298462 9.03483 0 8.66667 0H0.666667Z" fill="var(--fill-0, #282828)"/>
<path d="M6.70019 3.36682C6.96053 3.10649 7.38265 3.10645 7.64298 3.36682L10.4714 6.19523C10.5389 6.26274 10.5889 6.34106 10.6214 6.42468C10.6506 6.49967 10.6667 6.5813 10.6667 6.66667C10.6667 6.76139 10.6469 6.85148 10.6113 6.93306C10.5844 6.99487 10.5477 7.05343 10.5011 7.1064C10.4905 7.11845 10.4795 7.13013 10.4681 7.1414L7.64298 9.96647C7.38265 10.2268 6.96053 10.2268 6.70019 9.96647C6.43978 9.70609 6.43986 9.28398 6.70019 9.02368L8.39046 7.33333H3.33333C2.96517 7.33333 2.66667 7.03487 2.66667 6.66667C2.66667 6.29846 2.96517 6 3.33333 6H8.39054L6.70019 4.30961C6.43978 4.04928 6.43986 3.62716 6.70019 3.36682Z" fill="var(--fill-0, #282828)"/>
</g>
</svg>
