<svg preserveAspectRatio="none" width="100%" height="100%" overflow="visible" style="display: block;" viewBox="0 0 8 10" fill="none" xmlns="http://www.w3.org/2000/svg">
<g id="Union">
<path d="M4.49982 0.514183C4.49994 0.509468 4.5 0.504745 4.5 0.5C4.5 0.223854 4.27615 0 4 0C3.72385 0 3.5 0.223854 3.5 0.5C3.5 0.504745 3.50006 0.509468 3.50018 0.514183C2.06006 0.65419 0.906067 1.81494 0.800995 3.28625L0.5 7.5C0.223846 7.5 0 7.72385 0 8C0 8.27615 0.223846 8.5 0.5 8.5H7.5C7.77615 8.5 8 8.27615 8 8C8 7.72385 7.77615 7.5 7.5 7.5L7.199 3.28625C7.09393 1.81494 5.93994 0.65419 4.49982 0.514183Z" fill="var(--fill-0, #282828)"/>
<path d="M4 10C4.55228 10 5 9.55228 5 9H3C3 9.55228 3.44772 10 4 10Z" fill="var(--fill-0, #282828)"/>
</g>
</svg>
