<svg preserveAspectRatio="none" width="100%" height="100%" overflow="visible" style="display: block;" viewBox="0 0 10 7" fill="none" xmlns="http://www.w3.org/2000/svg">
<path id="Union" d="M3.02368 0.195259C3.28404 -0.0651008 3.70671 -0.065072 3.96704 0.195259C4.22708 0.455494 4.22701 0.877316 3.96704 1.13764L2.27661 2.82807H8.66723C9.03528 2.82825 9.33325 3.12698 9.33325 3.49506C9.33325 3.86314 9.03527 4.16188 8.66723 4.16206H2.27661L3.96704 5.85249C4.22695 6.1128 4.22713 6.53462 3.96704 6.79487C3.70668 7.05523 3.28401 7.0552 3.02368 6.79487L0.195555 3.96674C0.141418 3.91261 0.100224 3.85032 0.0686015 3.7851C0.0630157 3.7736 0.0559557 3.76278 0.0510234 3.75092C-0.0168989 3.58726 -0.0171166 3.40183 0.0510234 3.23823C0.0559691 3.22638 0.0630034 3.21554 0.0686015 3.20405C0.100189 3.13911 0.14162 3.07732 0.195555 3.02338L3.02368 0.195259Z" fill="var(--fill-0, #282828)"/>
</svg>
