<svg preserveAspectRatio="none" width="100%" height="100%" overflow="visible" style="display: block;" viewBox="0 0 16 20" fill="none" xmlns="http://www.w3.org/2000/svg">
<g id="Union">
<path d="M1 0C0.447754 0 0 0.447693 0 1V19C0 19.5523 0.447754 20 1 20H13C13.5522 20 14 19.5523 14 19V17C14 16.4477 13.5522 16 13 16C12.4478 16 12 16.4477 12 17V18H2V2H12V3C12 3.55231 12.4478 4 13 4C13.5522 4 14 3.55231 14 3V1C14 0.447693 13.5522 0 13 0H1Z" fill="var(--fill-0, #282828)"/>
<path d="M10.0503 5.05023C10.4408 4.65973 11.074 4.65967 11.4645 5.05023L15.7072 9.29285C15.8083 9.3941 15.8833 9.5116 15.9321 9.63702C15.976 9.74951 16 9.87195 16 10C16 10.1421 15.9703 10.2772 15.917 10.3996C15.8766 10.4923 15.8215 10.5801 15.7516 10.6596C15.7357 10.6777 15.7192 10.6952 15.7021 10.7121L11.4645 14.9497C11.074 15.3402 10.4408 15.3403 10.0503 14.9497C9.65967 14.5591 9.65979 13.926 10.0503 13.5355L12.5857 11H5C4.44775 11 4 10.5523 4 10C4 9.44769 4.44775 9 5 9H12.5858L10.0503 6.46442C9.65967 6.07391 9.65979 5.44073 10.0503 5.05023Z" fill="var(--fill-0, #282828)"/>
</g>
</svg>
