<svg preserveAspectRatio="none" width="100%" height="100%" overflow="visible" style="display: block;" viewBox="0 0 14 14" fill="none" xmlns="http://www.w3.org/2000/svg">
<path id="Subtract" d="M6.66699 0C10.3487 0.000176004 13.333 2.9852 13.333 6.66699C13.3328 10.3486 10.3486 13.3328 6.66699 13.333C2.9852 13.333 0.000176007 10.3487 0 6.66699C0 2.98509 2.98509 0 6.66699 0ZM10.2021 4.30957C9.94188 4.04938 9.52009 4.04951 9.25977 4.30957L5.95996 7.60938L4.07422 5.72363C3.81387 5.46329 3.39119 5.4633 3.13086 5.72363C2.87053 5.98396 2.87052 6.40665 3.13086 6.66699L5.48828 9.02344C5.74862 9.28378 6.17033 9.28376 6.43066 9.02344L10.2021 5.25293C10.4625 4.9926 10.4625 4.56992 10.2021 4.30957Z" fill="var(--fill-0, #282828)"/>
</svg>
