<svg preserveAspectRatio="none" width="100%" height="100%" overflow="visible" style="display: block;" viewBox="0 0 12 14" fill="none" xmlns="http://www.w3.org/2000/svg">
<path id="Union" d="M5.91309 0C7.52583 0 8.87181 1.14535 9.18066 2.66699H9.99414C10.6982 2.66699 11.2813 3.21428 11.3252 3.91699L11.8252 11.917C11.8731 12.6845 11.2632 13.333 10.4941 13.333H1.33301C0.564021 13.333 -0.0459072 12.6845 0.00195313 11.917L0.501953 3.91699C0.545871 3.21431 1.12897 2.66704 1.83301 2.66699H2.64746C2.95616 1.1456 4.30068 0.000347432 5.91309 0ZM1.33301 12H10.4941L9.99414 4H9.24707V5.33301C9.24707 5.7012 8.94827 6 8.58008 6C8.21208 5.99978 7.91406 5.70106 7.91406 5.33301V4H3.91406V5.33301C3.91406 5.7012 3.61526 6 3.24707 6C2.87892 5.99996 2.58008 5.70117 2.58008 5.33301V4H1.83301L1.33301 12ZM5.91309 1.33301C5.0427 1.33332 4.30395 1.89048 4.0293 2.66699H7.79688C7.52216 1.89041 6.78369 1.33301 5.91309 1.33301Z" fill="var(--fill-0, #282828)"/>
</svg>
