<svg preserveAspectRatio="none" width="100%" height="100%" overflow="visible" style="display: block;" viewBox="0 0 10 10" fill="none" xmlns="http://www.w3.org/2000/svg">
<path id="Subtract" d="M5 0C7.76142 0 10 2.23858 10 5C10 7.76142 7.76142 10 5 10C2.23858 10 0 7.76142 0 5C0 2.23858 2.23858 0 5 0ZM5 2.5C4.72386 2.5 4.5 2.72386 4.5 3V4.5H3C2.72386 4.5 2.5 4.72386 2.5 5C2.5 5.27614 2.72386 5.5 3 5.5H4.5V7C4.5 7.27614 4.72386 7.5 5 7.5C5.27614 7.5 5.5 7.27614 5.5 7V5.5H7C7.27614 5.5 7.5 5.27614 7.5 5C7.5 4.72386 7.27614 4.5 7 4.5H5.5V3C5.5 2.72386 5.27614 2.5 5 2.5Z" fill="var(--fill-0, #282828)"/>
</svg>
