<svg preserveAspectRatio="none" width="100%" height="100%" overflow="visible" style="display: block;" viewBox="0 0 12 12" fill="none" xmlns="http://www.w3.org/2000/svg">
<g id="Union">
<path d="M0 0.666667C0 0.298477 0.298477 0 0.666667 0H3.33333C3.70152 0 4 0.298477 4 0.666667C4 1.03486 3.70152 1.33333 3.33333 1.33333H1.33333V10.6667H10.6667V8.66667C10.6667 8.29848 10.9651 8 11.3333 8C11.7015 8 12 8.29848 12 8.66667V11.3333C12 11.7015 11.7015 12 11.3333 12H0.666667C0.643655 12 0.620916 11.9988 0.598504 11.9966C0.262333 11.9624 0 11.6785 0 11.3333V0.666667Z" fill="var(--fill-0, #282828)"/>
<path d="M7.33353 0C6.96534 0 6.66686 0.298477 6.66686 0.666667C6.66686 1.03486 6.96534 1.33333 7.33353 1.33333L9.72454 1.33333L3.95307 7.1048C3.69272 7.36515 3.69272 7.78726 3.95307 8.04761C4.21342 8.30796 4.63553 8.30796 4.89588 8.04761L10.6669 2.27664V4.66667C10.6669 5.03486 10.9653 5.33333 11.3335 5.33333C11.7017 5.33333 12.0002 5.03486 12.0002 4.66667V0.666667C12.0002 0.298477 11.7017 0 11.3335 0H7.33353Z" fill="var(--fill-0, #282828)"/>
</g>
</svg>
