<svg preserveAspectRatio="none" width="100%" height="100%" overflow="visible" style="display: block;" viewBox="0 0 14 3" fill="none" xmlns="http://www.w3.org/2000/svg">
<g id="Union">
<path d="M1.33333 0C2.06971 0 2.66667 0.596954 2.66667 1.33333C2.66667 2.06971 2.06971 2.66667 1.33333 2.66667C0.596954 2.66667 0 2.06971 0 1.33333C0 0.596954 0.596954 0 1.33333 0Z" fill="var(--fill-0, #282828)"/>
<path d="M6.66667 0C7.40305 0 8 0.596954 8 1.33333C8 2.06971 7.40305 2.66667 6.66667 2.66667C5.93029 2.66667 5.33333 2.06971 5.33333 1.33333C5.33333 0.596954 5.93029 0 6.66667 0Z" fill="var(--fill-0, #282828)"/>
<path d="M13.3333 1.33333C13.3333 0.596954 12.7364 0 12 0C11.2636 0 10.6667 0.596954 10.6667 1.33333C10.6667 2.06971 11.2636 2.66667 12 2.66667C12.7364 2.66667 13.3333 2.06971 13.3333 1.33333Z" fill="var(--fill-0, #282828)"/>
</g>
</svg>
