<svg preserveAspectRatio="none" width="100%" height="100%" overflow="visible" style="display: block;" viewBox="0 0 20 20" fill="none" xmlns="http://www.w3.org/2000/svg">
<path id="Subtract" d="M10 0C15.5228 0 20 4.47715 20 10C20 15.5228 15.5228 20 10 20C4.47715 20 0 15.5228 0 10C0 4.47715 4.47715 0 10 0ZM15.3037 6.46484C14.9132 6.07433 14.2792 6.07435 13.8887 6.46484L8.93945 11.4141L6.11133 8.58594C5.72081 8.19542 5.08679 8.19544 4.69629 8.58594C4.30612 8.97638 4.30608 9.60955 4.69629 10L8.23242 13.5352C8.62294 13.9257 9.25599 13.9257 9.64648 13.5352L15.3037 7.87891C15.694 7.48852 15.6938 6.85535 15.3037 6.46484Z" fill="var(--fill-0, #282828)"/>
</svg>
