<svg preserveAspectRatio="none" width="100%" height="100%" overflow="visible" style="display: block;" viewBox="0 0 8 14" fill="none" xmlns="http://www.w3.org/2000/svg">
<path id="Union" d="M6.66699 0C7.40311 0.00017576 7.99982 0.596886 8 1.33301V12C8 12.7363 7.40322 13.3328 6.66699 13.333H1.33301C0.596778 13.3328 3.86499e-07 12.7363 0 12V1.33301C0.000175996 0.596886 0.596886 0.000175889 1.33301 0H6.66699ZM1.33301 12H6.66699V1.33301H1.33301V12ZM4.66699 10C5.03503 10.0002 5.33301 10.2989 5.33301 10.667C5.33283 11.0349 5.03492 11.3328 4.66699 11.333H3.33301C2.96508 11.3328 2.66717 11.0349 2.66699 10.667C2.66699 10.2989 2.96497 10.0002 3.33301 10H4.66699Z" fill="var(--fill-0, #282828)"/>
</svg>
