<svg preserveAspectRatio="none" width="100%" height="100%" overflow="visible" style="display: block;" viewBox="0 0 14 14" fill="none" xmlns="http://www.w3.org/2000/svg">
<path id="Subtract" d="M10.667 0C12.1396 0.000175102 13.333 1.19434 13.333 2.66699V10.667C13.3328 12.1395 12.1395 13.3328 10.667 13.333H2.66699C1.19434 13.333 0.000176068 12.1396 0 10.667V2.66699C0 1.19423 1.19423 0 2.66699 0H10.667ZM10.9092 3.83789C10.6489 3.57782 10.2271 3.57791 9.9668 3.83789L5.72363 8.08105L3.36719 5.72363C3.10683 5.46327 2.68416 5.4633 2.42383 5.72363C2.16352 5.98397 2.16348 6.40664 2.42383 6.66699L5.25293 9.49512C5.51331 9.75518 5.93508 9.75533 6.19531 9.49512L10.9092 4.78125C11.1695 4.52092 11.1695 4.09825 10.9092 3.83789Z" fill="var(--fill-0, #282828)"/>
</svg>
