<svg preserveAspectRatio="none" width="100%" height="100%" overflow="visible" style="display: block;" viewBox="0 0 10 17" fill="none" xmlns="http://www.w3.org/2000/svg">
<path id="Union" d="M8.33301 0C9.25348 0 10 0.746518 10 1.66699V15C10 15.9205 9.25348 16.667 8.33301 16.667H1.66699C0.746518 16.667 1.93278e-07 15.9205 0 15V1.66699C0 0.746518 0.746518 0 1.66699 0H8.33301ZM1.66699 15H8.33301V1.66699H1.66699V15ZM5.83301 12.5C6.29314 12.5 6.66682 12.8729 6.66699 13.333C6.66699 13.7932 6.29325 14.167 5.83301 14.167H4.16699C3.70675 14.167 3.33301 13.7932 3.33301 13.333C3.33318 12.8729 3.70686 12.5 4.16699 12.5H5.83301Z" fill="var(--fill-0, #282828)"/>
</svg>
