<svg preserveAspectRatio="none" width="100%" height="100%" overflow="visible" style="display: block;" viewBox="0 0 17 20" fill="none" xmlns="http://www.w3.org/2000/svg">
<path id="Subtract" d="M8.04883 0C12.4937 0.000211823 16.0967 3.60393 16.0967 8.04883C16.0965 14.9609 10.1604 18.9051 8.48438 19.8809C8.21073 20.0401 7.88594 20.0402 7.6123 19.8809C5.93624 18.9051 0.000228237 14.9608 0 8.04883C0 3.6038 3.6038 0 8.04883 0ZM8.04883 4.02441C5.82641 4.02441 4.02457 5.82547 4.02441 8.04785C4.02441 10.2704 5.82631 12.0723 8.04883 12.0723C10.2712 12.0721 12.0723 10.2702 12.0723 8.04785C12.0721 5.8256 10.2711 4.02462 8.04883 4.02441Z" fill="var(--fill-0, #282828)"/>
</svg>
