<svg preserveAspectRatio="none" width="100%" height="100%" overflow="visible" style="display: block;" viewBox="0 0 10 10" fill="none" xmlns="http://www.w3.org/2000/svg">
<g id="Union">
<path d="M3.23223 3.93934C3.03697 3.74408 3.03697 3.4275 3.23223 3.23223C3.4275 3.03697 3.74408 3.03697 3.93934 3.23223L5 4.29289L6.06066 3.23223C6.25592 3.03697 6.5725 3.03697 6.76777 3.23223C6.96303 3.4275 6.96303 3.74408 6.76777 3.93934L5.70711 5L6.76777 6.06066C6.96303 6.25592 6.96303 6.5725 6.76777 6.76777C6.5725 6.96303 6.25592 6.96303 6.06066 6.76777L5 5.70711L3.93934 6.76777C3.74408 6.96303 3.4275 6.96303 3.23223 6.76777C3.03697 6.5725 3.03697 6.25592 3.23223 6.06066L4.29289 5L3.23223 3.93934Z" fill="var(--fill-0, #282828)"/>
<path fill-rule="evenodd" clip-rule="evenodd" d="M8.53553 1.46447C10.4882 3.41709 10.4882 6.58291 8.53553 8.53553C6.58291 10.4882 3.41709 10.4882 1.46447 8.53553C-0.488155 6.58291 -0.488155 3.41709 1.46447 1.46447C3.41709 -0.488155 6.58291 -0.488155 8.53553 1.46447ZM7.82843 2.17157C9.39052 3.73367 9.39052 6.26633 7.82843 7.82843C6.26633 9.39052 3.73367 9.39052 2.17157 7.82843C0.609476 6.26633 0.609476 3.73367 2.17157 2.17157C3.73367 0.609476 6.26633 0.609476 7.82843 2.17157Z" fill="var(--fill-0, #282828)"/>
</g>
</svg>
