<svg preserveAspectRatio="none" width="100%" height="100%" overflow="visible" style="display: block;" viewBox="0 0 10 10" fill="none" xmlns="http://www.w3.org/2000/svg">
<path id="Subtract" d="M8 0C9.10457 0 10 0.895431 10 2V8C10 9.10457 9.10457 10 8 10H2C0.895431 10 1.61066e-08 9.10457 0 8V2C0 0.895431 0.895431 1.61064e-08 2 0H8ZM5 1.5C4.72386 1.5 4.5 1.72386 4.5 2V4.5H2C1.72386 4.5 1.5 4.72386 1.5 5C1.5 5.27614 1.72386 5.5 2 5.5H4.5V8C4.5 8.27614 4.72386 8.5 5 8.5C5.27614 8.5 5.5 8.27614 5.5 8V5.5H8C8.27614 5.5 8.5 5.27614 8.5 5C8.5 4.72386 8.27614 4.5 8 4.5H5.5V2C5.5 1.72386 5.27614 1.5 5 1.5Z" fill="var(--fill-0, #282828)"/>
</svg>
